<?xml version="1.0" encoding="UTF-8" standalone="no"?><svg xmlns="http://www.w3.org/2000/svg" xmlns:xlink="http://www.w3.org/1999/xlink" contentScriptType="application/ecmascript" contentStyleType="text/css" height="1408px" preserveAspectRatio="none" style="width:301px;height:1408px;background:#FFFFFF;" version="1.1" viewBox="0 0 301 1408" width="301px" zoomAndPan="magnify"><defs><filter height="300%" id="fw4dddjo0wjjx" width="300%" x="-1" y="-1"><feGaussianBlur result="blurOut" stdDeviation="2.0"/><feColorMatrix in="blurOut" result="blurOut2" type="matrix" values="0 0 0 0 0 0 0 0 0 0 0 0 0 0 0 0 0 0 .4 0"/><feOffset dx="4.0" dy="4.0" in="blurOut2" result="blurOut3"/><feBlend in="SourceGraphic" in2="blurOut3" mode="normal"/></filter></defs><g><rect fill="#FEFECE" filter="url(#fw4dddjo0wjjx)" height="33.9688" rx="12.5" ry="12.5" style="stroke:#A80036;stroke-width:1.5;" width="81" x="94" y="11"/><text fill="#000000" font-family="sans-serif" font-size="12" lengthAdjust="spacing" textLength="61" x="104" y="32.1387">Construct</text><rect fill="#FEFECE" filter="url(#fw4dddjo0wjjx)" height="33.9688" rx="12.5" ry="12.5" style="stroke:#A80036;stroke-width:1.5;" width="115" x="77" y="64.9688"/><text fill="#000000" font-family="sans-serif" font-size="12" lengthAdjust="spacing" textLength="95" x="87" y="86.1074">_PostConstruct</text><rect fill="#FFFFFF" filter="url(#fw4dddjo0wjjx)" height="1071.9053" style="stroke:#000000;stroke-width:2.0;" width="252" x="11" y="152.9375"/><path d="M87,152.9375 L87,162.2344 L77,172.2344 L11,172.2344 " fill="none" style="stroke:#000000;stroke-width:2.0;"/><text fill="#000000" font-family="sans-serif" font-size="14" lengthAdjust="spacing" textLength="66" x="14" y="166.9326">FullFrame</text><rect fill="#FEFECE" filter="url(#fw4dddjo0wjjx)" height="33.9688" rx="12.5" ry="12.5" style="stroke:#A80036;stroke-width:1.5;" width="78" x="95.5" y="189.2344"/><text fill="#000000" font-family="sans-serif" font-size="12" lengthAdjust="spacing" textLength="58" x="105.5" y="210.373">_OnEvent</text><rect fill="#FEFECE" filter="url(#fw4dddjo0wjjx)" height="33.9688" rx="12.5" ry="12.5" style="stroke:#A80036;stroke-width:1.5;" width="61" x="104" y="243.2031"/><text fill="#000000" font-family="sans-serif" font-size="12" lengthAdjust="spacing" textLength="41" x="114" y="264.3418">_Begin</text><rect fill="#FEFECE" filter="url(#fw4dddjo0wjjx)" height="33.9688" rx="12.5" ry="12.5" style="stroke:#A80036;stroke-width:1.5;" width="166" x="51.5" y="297.1719"/><text fill="#000000" font-family="sans-serif" font-size="12" lengthAdjust="spacing" textLength="146" x="61.5" y="318.3105">_ConfigurationChanged</text><rect fill="#FFFFFF" filter="url(#fw4dddjo0wjjx)" height="375.8511" style="stroke:#000000;stroke-width:2.0;" width="224" x="21" y="341.1406"/><path d="M81,341.1406 L81,350.4375 L71,360.4375 L21,360.4375 " fill="none" style="stroke:#000000;stroke-width:2.0;"/><text fill="#000000" font-family="sans-serif" font-size="14" lengthAdjust="spacing" textLength="50" x="24" y="355.1357">Update</text><rect fill="#FEFECE" filter="url(#fw4dddjo0wjjx)" height="33.9688" rx="12.5" ry="12.5" style="stroke:#A80036;stroke-width:1.5;" width="93" x="88" y="377.4375"/><text fill="#000000" font-family="sans-serif" font-size="12" lengthAdjust="spacing" textLength="73" x="98" y="398.5762">_PreUpdate</text><rect fill="#FEFECE" filter="url(#fw4dddjo0wjjx)" height="33.9688" rx="12.5" ry="12.5" style="stroke:#A80036;stroke-width:1.5;" width="104" x="82.5" y="487.1167"/><text fill="#000000" font-family="sans-serif" font-size="12" lengthAdjust="spacing" textLength="84" x="92.5" y="508.2554">_FixedUpdate</text><polygon fill="#FEFECE" filter="url(#fw4dddjo0wjjx)" points="67,431.4063,202,431.4063,214,443.4063,202,455.4063,67,455.4063,55,443.4063,67,431.4063" style="stroke:#A80036;stroke-width:1.5;"/><text fill="#000000" font-family="sans-serif" font-size="11" lengthAdjust="spacing" textLength="23" x="138.5" y="465.6167">true</text><text fill="#000000" font-family="sans-serif" font-size="11" lengthAdjust="spacing" textLength="135" x="67" y="447.2144">Have outstanding ticks?</text><text fill="#000000" font-family="sans-serif" font-size="11" lengthAdjust="spacing" textLength="28" x="27" y="440.812">false</text><rect fill="#FEFECE" filter="url(#fw4dddjo0wjjx)" height="33.9688" rx="12.5" ry="12.5" style="stroke:#A80036;stroke-width:1.5;" width="72" x="98.5" y="563.0854"/><text fill="#000000" font-family="sans-serif" font-size="12" lengthAdjust="spacing" textLength="52" x="108.5" y="584.2241">_Update</text><rect fill="#FEFECE" filter="url(#fw4dddjo0wjjx)" height="33.9688" rx="12.5" ry="12.5" style="stroke:#A80036;stroke-width:1.5;" width="100" x="84.5" y="617.0542"/><text fill="#000000" font-family="sans-serif" font-size="12" lengthAdjust="spacing" textLength="80" x="94.5" y="638.1929">_PostUpdate</text><rect fill="#FEFECE" filter="url(#fw4dddjo0wjjx)" height="33.9688" rx="12.5" ry="12.5" style="stroke:#A80036;stroke-width:1.5;" width="74" x="97.5" y="671.0229"/><text fill="#000000" font-family="sans-serif" font-size="12" lengthAdjust="spacing" textLength="54" x="107.5" y="692.1616">_Resolve</text><rect fill="#FFFFFF" filter="url(#fw4dddjo0wjjx)" height="244.1719" style="stroke:#000000;stroke-width:2.0;" width="141" x="64" y="826.7021"/><path d="M109,826.7021 L109,835.999 L99,845.999 L64,845.999 " fill="none" style="stroke:#000000;stroke-width:2.0;"/><text fill="#000000" font-family="sans-serif" font-size="14" lengthAdjust="spacing" textLength="35" x="67" y="840.6973">Draw</text><rect fill="#FEFECE" filter="url(#fw4dddjo0wjjx)" height="33.9688" rx="12.5" ry="12.5" style="stroke:#A80036;stroke-width:1.5;" width="92" x="88.5" y="862.999"/><text fill="#000000" font-family="sans-serif" font-size="12" lengthAdjust="spacing" textLength="72" x="98.5" y="884.1377">_BeginDraw</text><rect fill="#FEFECE" filter="url(#fw4dddjo0wjjx)" height="33.9688" rx="12.5" ry="12.5" style="stroke:#A80036;stroke-width:1.5;" width="57" x="106" y="916.9678"/><text fill="#000000" font-family="sans-serif" font-size="12" lengthAdjust="spacing" textLength="37" x="116" y="938.1064">_Draw</text><rect fill="#FEFECE" filter="url(#fw4dddjo0wjjx)" height="33.9688" rx="12.5" ry="12.5" style="stroke:#A80036;stroke-width:1.5;" width="81" x="94" y="970.9365"/><text fill="#000000" font-family="sans-serif" font-size="12" lengthAdjust="spacing" textLength="61" x="104" y="992.0752">_EndDraw</text><rect fill="#FEFECE" filter="url(#fw4dddjo0wjjx)" height="33.9688" rx="12.5" ry="12.5" style="stroke:#A80036;stroke-width:1.5;" width="121" x="74" y="1024.9053"/><text fill="#000000" font-family="sans-serif" font-size="12" lengthAdjust="spacing" textLength="101" x="84" y="1046.0439">_TrySwapBuffers</text><rect fill="#FEFECE" filter="url(#fw4dddjo0wjjx)" height="33.9688" rx="12.5" ry="12.5" style="stroke:#A80036;stroke-width:1.5;" width="50" x="109.5" y="1090.874"/><text fill="#000000" font-family="sans-serif" font-size="12" lengthAdjust="spacing" textLength="30" x="119.5" y="1112.0127">_End</text><polygon fill="#FEFECE" filter="url(#fw4dddjo0wjjx)" points="85.5,780.9917,183.5,780.9917,195.5,792.9917,183.5,804.9917,85.5,804.9917,73.5,792.9917,85.5,780.9917" style="stroke:#A80036;stroke-width:1.5;"/><text fill="#000000" font-family="sans-serif" font-size="11" lengthAdjust="spacing" textLength="61" x="138.5" y="815.2021">Completed</text><text fill="#000000" font-family="sans-serif" font-size="11" lengthAdjust="spacing" textLength="98" x="85.5" y="796.7998">_TryPrepareDraw</text><polygon fill="#FEFECE" filter="url(#fw4dddjo0wjjx)" points="134.5,1144.8428,146.5,1156.8428,134.5,1168.8428,122.5,1156.8428,134.5,1144.8428" style="stroke:#A80036;stroke-width:1.5;"/><polygon fill="#FEFECE" filter="url(#fw4dddjo0wjjx)" points="46,736.9917,223,736.9917,235,748.9917,223,760.9917,46,760.9917,34,748.9917,46,736.9917" style="stroke:#A80036;stroke-width:1.5;"/><text fill="#000000" font-family="sans-serif" font-size="11" lengthAdjust="spacing" textLength="177" x="46" y="752.7998">OnDemandRendering-SkipDraw</text><polygon fill="#FEFECE" filter="url(#fw4dddjo0wjjx)" points="134.5,1188.8428,146.5,1200.8428,134.5,1212.8428,122.5,1200.8428,134.5,1188.8428" style="stroke:#A80036;stroke-width:1.5;"/><polygon fill="#FEFECE" filter="url(#fw4dddjo0wjjx)" points="134.5,118.9375,146.5,130.9375,134.5,142.9375,122.5,130.9375,134.5,118.9375" style="stroke:#A80036;stroke-width:1.5;"/><polygon fill="#FEFECE" filter="url(#fw4dddjo0wjjx)" points="88,1244.8428,181,1244.8428,193,1256.8428,181,1268.8428,88,1268.8428,76,1256.8428,88,1244.8428" style="stroke:#A80036;stroke-width:1.5;"/><text fill="#000000" font-family="sans-serif" font-size="11" font-weight="bold" lengthAdjust="spacing" textLength="93" x="88" y="1260.6509">quitRequested</text><text fill="#000000" font-family="sans-serif" font-size="11" lengthAdjust="spacing" textLength="28" x="193" y="1254.2485">false</text><rect fill="#FEFECE" filter="url(#fw4dddjo0wjjx)" height="33.9688" rx="12.5" ry="12.5" style="stroke:#A80036;stroke-width:1.5;" width="101" x="84" y="1288.8428"/><text fill="#000000" font-family="sans-serif" font-size="12" lengthAdjust="spacing" textLength="81" x="94" y="1309.9814">_PreDestruct</text><rect fill="#FEFECE" filter="url(#fw4dddjo0wjjx)" height="33.9688" rx="12.5" ry="12.5" style="stroke:#A80036;stroke-width:1.5;" width="74" x="97.5" y="1342.8115"/><text fill="#000000" font-family="sans-serif" font-size="12" lengthAdjust="spacing" textLength="54" x="107.5" y="1363.9502">Destruct</text><line style="stroke:#A80036;stroke-width:1.5;" x1="134.5" x2="134.5" y1="44.9688" y2="64.9688"/><polygon fill="#A80036" points="130.5,54.9688,134.5,64.9688,138.5,54.9688,134.5,58.9688" style="stroke:#A80036;stroke-width:1.0;"/><line style="stroke:#A80036;stroke-width:1.5;" x1="134.5" x2="134.5" y1="223.2031" y2="243.2031"/><polygon fill="#A80036" points="130.5,233.2031,134.5,243.2031,138.5,233.2031,134.5,237.2031" style="stroke:#A80036;stroke-width:1.0;"/><line style="stroke:#A80036;stroke-width:1.5;" x1="134.5" x2="134.5" y1="277.1719" y2="297.1719"/><polygon fill="#A80036" points="130.5,287.1719,134.5,297.1719,138.5,287.1719,134.5,291.1719" style="stroke:#A80036;stroke-width:1.0;"/><line style="stroke:#A80036;stroke-width:1.5;" x1="134.5" x2="134.5" y1="455.4063" y2="487.1167"/><polygon fill="#A80036" points="130.5,477.1167,134.5,487.1167,138.5,477.1167,134.5,481.1167" style="stroke:#A80036;stroke-width:1.0;"/><line style="stroke:#A80036;stroke-width:1.5;" x1="134.5" x2="134.5" y1="521.0854" y2="531.0854"/><line style="stroke:#A80036;stroke-width:1.5;" x1="134.5" x2="226" y1="531.0854" y2="531.0854"/><polygon fill="#A80036" points="222,495.6987,226,485.6987,230,495.6987,226,491.6987" style="stroke:#A80036;stroke-width:1.5;"/><line style="stroke:#A80036;stroke-width:1.5;" x1="226" x2="226" y1="443.4063" y2="531.0854"/><line style="stroke:#A80036;stroke-width:1.5;" x1="226" x2="214" y1="443.4063" y2="443.4063"/><polygon fill="#A80036" points="224,439.4063,214,443.4063,224,447.4063,220,443.4063" style="stroke:#A80036;stroke-width:1.0;"/><line style="stroke:#A80036;stroke-width:1.5;" x1="55" x2="43" y1="443.4063" y2="443.4063"/><polygon fill="#A80036" points="39,481.6987,43,491.6987,47,481.6987,43,485.6987" style="stroke:#A80036;stroke-width:1.5;"/><line style="stroke:#A80036;stroke-width:1.5;" x1="43" x2="43" y1="443.4063" y2="543.0854"/><line style="stroke:#A80036;stroke-width:1.5;" x1="43" x2="134.5" y1="543.0854" y2="543.0854"/><line style="stroke:#A80036;stroke-width:1.5;" x1="134.5" x2="134.5" y1="543.0854" y2="563.0854"/><polygon fill="#A80036" points="130.5,553.0854,134.5,563.0854,138.5,553.0854,134.5,557.0854" style="stroke:#A80036;stroke-width:1.0;"/><line style="stroke:#A80036;stroke-width:1.5;" x1="134.5" x2="134.5" y1="411.4063" y2="431.4063"/><polygon fill="#A80036" points="130.5,421.4063,134.5,431.4063,138.5,421.4063,134.5,425.4063" style="stroke:#A80036;stroke-width:1.0;"/><line style="stroke:#A80036;stroke-width:1.5;" x1="134.5" x2="134.5" y1="597.0542" y2="617.0542"/><polygon fill="#A80036" points="130.5,607.0542,134.5,617.0542,138.5,607.0542,134.5,611.0542" style="stroke:#A80036;stroke-width:1.0;"/><line style="stroke:#A80036;stroke-width:1.5;" x1="134.5" x2="134.5" y1="651.0229" y2="671.0229"/><polygon fill="#A80036" points="130.5,661.0229,134.5,671.0229,138.5,661.0229,134.5,665.0229" style="stroke:#A80036;stroke-width:1.0;"/><line style="stroke:#A80036;stroke-width:1.5;" x1="134.5" x2="134.5" y1="331.1406" y2="377.4375"/><polygon fill="#A80036" points="130.5,367.4375,134.5,377.4375,138.5,367.4375,134.5,371.4375" style="stroke:#A80036;stroke-width:1.0;"/><line style="stroke:#A80036;stroke-width:1.5;" x1="134.5" x2="134.5" y1="896.9678" y2="916.9678"/><polygon fill="#A80036" points="130.5,906.9678,134.5,916.9678,138.5,906.9678,134.5,910.9678" style="stroke:#A80036;stroke-width:1.0;"/><line style="stroke:#A80036;stroke-width:1.5;" x1="134.5" x2="134.5" y1="950.9365" y2="970.9365"/><polygon fill="#A80036" points="130.5,960.9365,134.5,970.9365,138.5,960.9365,134.5,964.9365" style="stroke:#A80036;stroke-width:1.0;"/><line style="stroke:#A80036;stroke-width:1.5;" x1="134.5" x2="134.5" y1="1004.9053" y2="1024.9053"/><polygon fill="#A80036" points="130.5,1014.9053,134.5,1024.9053,138.5,1014.9053,134.5,1018.9053" style="stroke:#A80036;stroke-width:1.0;"/><line style="stroke:#A80036;stroke-width:1.5;" x1="134.5" x2="134.5" y1="1058.874" y2="1090.874"/><polygon fill="#A80036" points="130.5,1080.874,134.5,1090.874,138.5,1080.874,134.5,1084.874" style="stroke:#A80036;stroke-width:1.0;"/><line style="stroke:#A80036;stroke-width:1.5;" x1="134.5" x2="134.5" y1="804.9917" y2="862.999"/><polygon fill="#A80036" points="130.5,852.999,134.5,862.999,138.5,852.999,134.5,856.999" style="stroke:#A80036;stroke-width:1.0;"/><line style="stroke:#A80036;stroke-width:1.5;" x1="195.5" x2="215" y1="792.9917" y2="792.9917"/><polygon fill="#A80036" points="211,969.7725,215,979.7725,219,969.7725,215,973.7725" style="stroke:#A80036;stroke-width:1.5;"/><line style="stroke:#A80036;stroke-width:1.5;" x1="215" x2="215" y1="792.9917" y2="1156.8428"/><line style="stroke:#A80036;stroke-width:1.5;" x1="215" x2="146.5" y1="1156.8428" y2="1156.8428"/><polygon fill="#A80036" points="156.5,1152.8428,146.5,1156.8428,156.5,1160.8428,152.5,1156.8428" style="stroke:#A80036;stroke-width:1.0;"/><line style="stroke:#A80036;stroke-width:1.5;" x1="134.5" x2="134.5" y1="1124.8428" y2="1144.8428"/><polygon fill="#A80036" points="130.5,1134.8428,134.5,1144.8428,138.5,1134.8428,134.5,1138.8428" style="stroke:#A80036;stroke-width:1.0;"/><line style="stroke:#A80036;stroke-width:1.5;" x1="134.5" x2="134.5" y1="760.9917" y2="780.9917"/><polygon fill="#A80036" points="130.5,770.9917,134.5,780.9917,138.5,770.9917,134.5,774.9917" style="stroke:#A80036;stroke-width:1.0;"/><line style="stroke:#A80036;stroke-width:1.5;" x1="235" x2="247" y1="748.9917" y2="748.9917"/><polygon fill="#A80036" points="243,969.7725,247,979.7725,251,969.7725,247,973.7725" style="stroke:#A80036;stroke-width:1.5;"/><line style="stroke:#A80036;stroke-width:1.5;" x1="247" x2="247" y1="748.9917" y2="1200.8428"/><line style="stroke:#A80036;stroke-width:1.5;" x1="247" x2="146.5" y1="1200.8428" y2="1200.8428"/><polygon fill="#A80036" points="156.5,1196.8428,146.5,1200.8428,156.5,1204.8428,152.5,1200.8428" style="stroke:#A80036;stroke-width:1.0;"/><line style="stroke:#A80036;stroke-width:1.5;" x1="134.5" x2="134.5" y1="1168.8428" y2="1188.8428"/><polygon fill="#A80036" points="130.5,1178.8428,134.5,1188.8428,138.5,1178.8428,134.5,1182.8428" style="stroke:#A80036;stroke-width:1.0;"/><line style="stroke:#A80036;stroke-width:1.5;" x1="134.5" x2="134.5" y1="704.9917" y2="736.9917"/><polygon fill="#A80036" points="130.5,726.9917,134.5,736.9917,138.5,726.9917,134.5,730.9917" style="stroke:#A80036;stroke-width:1.0;"/><line style="stroke:#A80036;stroke-width:1.5;" x1="134.5" x2="134.5" y1="142.9375" y2="189.2344"/><polygon fill="#A80036" points="130.5,179.2344,134.5,189.2344,138.5,179.2344,134.5,183.2344" style="stroke:#A80036;stroke-width:1.0;"/><line style="stroke:#A80036;stroke-width:1.5;" x1="193" x2="275" y1="1256.8428" y2="1256.8428"/><polygon fill="#A80036" points="271,694.8901,275,684.8901,279,694.8901,275,690.8901" style="stroke:#A80036;stroke-width:1.5;"/><line style="stroke:#A80036;stroke-width:1.5;" x1="275" x2="275" y1="130.9375" y2="1256.8428"/><line style="stroke:#A80036;stroke-width:1.5;" x1="275" x2="146.5" y1="130.9375" y2="130.9375"/><polygon fill="#A80036" points="156.5,126.9375,146.5,130.9375,156.5,134.9375,152.5,130.9375" style="stroke:#A80036;stroke-width:1.0;"/><line style="stroke:#A80036;stroke-width:1.5;" x1="134.5" x2="134.5" y1="1212.8428" y2="1244.8428"/><polygon fill="#A80036" points="130.5,1234.8428,134.5,1244.8428,138.5,1234.8428,134.5,1238.8428" style="stroke:#A80036;stroke-width:1.0;"/><line style="stroke:#A80036;stroke-width:1.5;" x1="134.5" x2="134.5" y1="98.9375" y2="118.9375"/><polygon fill="#A80036" points="130.5,108.9375,134.5,118.9375,138.5,108.9375,134.5,112.9375" style="stroke:#A80036;stroke-width:1.0;"/><line style="stroke:#A80036;stroke-width:1.5;" x1="134.5" x2="134.5" y1="1268.8428" y2="1288.8428"/><polygon fill="#A80036" points="130.5,1278.8428,134.5,1288.8428,138.5,1278.8428,134.5,1282.8428" style="stroke:#A80036;stroke-width:1.0;"/><line style="stroke:#A80036;stroke-width:1.5;" x1="134.5" x2="134.5" y1="1322.8115" y2="1342.8115"/><polygon fill="#A80036" points="130.5,1332.8115,134.5,1342.8115,138.5,1332.8115,134.5,1336.8115" style="stroke:#A80036;stroke-width:1.0;"/><text fill="#000000" font-family="sans-serif" font-size="14" lengthAdjust="spacing" textLength="140" x="79.5" y="1394.7754">App execution order</text><!--MD5=[4a0e9f7120ce462d769dd64808cb50b9]
@startuml
caption App execution order

:Construct;
:_PostConstruct;

repeat
    partition FullFrame {
        :_OnEvent;
        :_Begin;
        :_ConfigurationChanged;
        partition Update {
            :_PreUpdate;
            while (Have outstanding ticks?) is (true)
                :_FixedUpdate;
            endwhile (false)
            :_Update;
            :_PostUpdate;
            :_Resolve;
        }
        if (OnDemandRendering-SkipDraw) then
            if (_TryPrepareDraw) is (Completed) then 
                partition Draw {
                    :_BeginDraw;
                    :_Draw;
                    :_EndDraw;
                    :_TrySwapBuffers;
                }
                :_End;
            endif
        endif
    }
repeatwhile (<b>quitRequested) is (false)

:_PreDestruct;
:Destruct;
@enduml

PlantUML version 1.2021.10(Mon Aug 30 13:43:48 UTC 2021)
(GPL source distribution)
Java Runtime: OpenJDK Runtime Environment
JVM: OpenJDK 64-Bit Server VM
Default Encoding: UTF-8
Language: en
Country: null
--></g></svg>