<?xml version="1.0" encoding="UTF-8" standalone="no"?><svg xmlns="http://www.w3.org/2000/svg" xmlns:xlink="http://www.w3.org/1999/xlink" contentScriptType="application/ecmascript" contentStyleType="text/css" height="1266px" preserveAspectRatio="none" style="width:290px;height:1266px;background:#FFFFFF;" version="1.1" viewBox="0 0 290 1266" width="290px" zoomAndPan="magnify"><defs><filter height="300%" id="f1lihpwzf1fpi9" width="300%" x="-1" y="-1"><feGaussianBlur result="blurOut" stdDeviation="2.0"/><feColorMatrix in="blurOut" result="blurOut2" type="matrix" values="0 0 0 0 0 0 0 0 0 0 0 0 0 0 0 0 0 0 .4 0"/><feOffset dx="4.0" dy="4.0" in="blurOut2" result="blurOut3"/><feBlend in="SourceGraphic" in2="blurOut3" mode="normal"/></filter></defs><g><rect fill="#FEFECE" filter="url(#f1lihpwzf1fpi9)" height="33.9688" rx="12.5" ry="12.5" style="stroke:#A80036;stroke-width:1.5;" width="81" x="94" y="11"/><text fill="#000000" font-family="sans-serif" font-size="12" lengthAdjust="spacing" textLength="61" x="104" y="32.1387">Construct</text><rect fill="#FEFECE" filter="url(#f1lihpwzf1fpi9)" height="33.9688" rx="12.5" ry="12.5" style="stroke:#A80036;stroke-width:1.5;" width="115" x="77" y="64.9688"/><text fill="#000000" font-family="sans-serif" font-size="12" lengthAdjust="spacing" textLength="95" x="87" y="86.1074">_PostConstruct</text><rect fill="#FFFFFF" filter="url(#f1lihpwzf1fpi9)" height="929.9365" style="stroke:#000000;stroke-width:2.0;" width="241" x="11" y="152.9375"/><path d="M87,152.9375 L87,162.2344 L77,172.2344 L11,172.2344 " fill="none" style="stroke:#000000;stroke-width:2.0;"/><text fill="#000000" font-family="sans-serif" font-size="14" lengthAdjust="spacing" textLength="66" x="14" y="166.9326">FullFrame</text><rect fill="#FEFECE" filter="url(#f1lihpwzf1fpi9)" height="33.9688" rx="12.5" ry="12.5" style="stroke:#A80036;stroke-width:1.5;" width="78" x="95.5" y="189.2344"/><text fill="#000000" font-family="sans-serif" font-size="12" lengthAdjust="spacing" textLength="58" x="105.5" y="210.373">_OnEvent</text><rect fill="#FEFECE" filter="url(#f1lihpwzf1fpi9)" height="33.9688" rx="12.5" ry="12.5" style="stroke:#A80036;stroke-width:1.5;" width="61" x="104" y="243.2031"/><text fill="#000000" font-family="sans-serif" font-size="12" lengthAdjust="spacing" textLength="41" x="114" y="264.3418">_Begin</text><rect fill="#FEFECE" filter="url(#f1lihpwzf1fpi9)" height="33.9688" rx="12.5" ry="12.5" style="stroke:#A80036;stroke-width:1.5;" width="166" x="51.5" y="297.1719"/><text fill="#000000" font-family="sans-serif" font-size="12" lengthAdjust="spacing" textLength="146" x="61.5" y="318.3105">_ConfigurationChanged</text><rect fill="#FFFFFF" filter="url(#f1lihpwzf1fpi9)" height="321.8823" style="stroke:#000000;stroke-width:2.0;" width="221" x="21" y="341.1406"/><path d="M81,341.1406 L81,350.4375 L71,360.4375 L21,360.4375 " fill="none" style="stroke:#000000;stroke-width:2.0;"/><text fill="#000000" font-family="sans-serif" font-size="14" lengthAdjust="spacing" textLength="50" x="24" y="355.1357">Update</text><rect fill="#FEFECE" filter="url(#f1lihpwzf1fpi9)" height="33.9688" rx="12.5" ry="12.5" style="stroke:#A80036;stroke-width:1.5;" width="93" x="88" y="377.4375"/><text fill="#000000" font-family="sans-serif" font-size="12" lengthAdjust="spacing" textLength="73" x="98" y="398.5762">_PreUpdate</text><rect fill="#FEFECE" filter="url(#f1lihpwzf1fpi9)" height="33.9688" rx="12.5" ry="12.5" style="stroke:#A80036;stroke-width:1.5;" width="104" x="82.5" y="487.1167"/><text fill="#000000" font-family="sans-serif" font-size="12" lengthAdjust="spacing" textLength="84" x="92.5" y="508.2554">_FixedUpdate</text><polygon fill="#FEFECE" filter="url(#f1lihpwzf1fpi9)" points="67,431.4063,202,431.4063,214,443.4063,202,455.4063,67,455.4063,55,443.4063,67,431.4063" style="stroke:#A80036;stroke-width:1.5;"/><text fill="#000000" font-family="sans-serif" font-size="11" lengthAdjust="spacing" textLength="23" x="138.5" y="465.6167">true</text><text fill="#000000" font-family="sans-serif" font-size="11" lengthAdjust="spacing" textLength="135" x="67" y="447.2144">Have outstanding ticks?</text><text fill="#000000" font-family="sans-serif" font-size="11" lengthAdjust="spacing" textLength="28" x="27" y="440.812">false</text><rect fill="#FEFECE" filter="url(#f1lihpwzf1fpi9)" height="33.9688" rx="12.5" ry="12.5" style="stroke:#A80036;stroke-width:1.5;" width="72" x="98.5" y="563.0854"/><text fill="#000000" font-family="sans-serif" font-size="12" lengthAdjust="spacing" textLength="52" x="108.5" y="584.2241">_Update</text><rect fill="#FEFECE" filter="url(#f1lihpwzf1fpi9)" height="33.9688" rx="12.5" ry="12.5" style="stroke:#A80036;stroke-width:1.5;" width="100" x="84.5" y="617.0542"/><text fill="#000000" font-family="sans-serif" font-size="12" lengthAdjust="spacing" textLength="80" x="94.5" y="638.1929">_PostUpdate</text><rect fill="#FFFFFF" filter="url(#f1lihpwzf1fpi9)" height="244.1719" style="stroke:#000000;stroke-width:2.0;" width="141" x="64" y="728.7334"/><path d="M109,728.7334 L109,738.0303 L99,748.0303 L64,748.0303 " fill="none" style="stroke:#000000;stroke-width:2.0;"/><text fill="#000000" font-family="sans-serif" font-size="14" lengthAdjust="spacing" textLength="35" x="67" y="742.7285">Draw</text><rect fill="#FEFECE" filter="url(#f1lihpwzf1fpi9)" height="33.9688" rx="12.5" ry="12.5" style="stroke:#A80036;stroke-width:1.5;" width="92" x="88.5" y="765.0303"/><text fill="#000000" font-family="sans-serif" font-size="12" lengthAdjust="spacing" textLength="72" x="98.5" y="786.1689">_BeginDraw</text><rect fill="#FEFECE" filter="url(#f1lihpwzf1fpi9)" height="33.9688" rx="12.5" ry="12.5" style="stroke:#A80036;stroke-width:1.5;" width="57" x="106" y="818.999"/><text fill="#000000" font-family="sans-serif" font-size="12" lengthAdjust="spacing" textLength="37" x="116" y="840.1377">_Draw</text><rect fill="#FEFECE" filter="url(#f1lihpwzf1fpi9)" height="33.9688" rx="12.5" ry="12.5" style="stroke:#A80036;stroke-width:1.5;" width="81" x="94" y="872.9678"/><text fill="#000000" font-family="sans-serif" font-size="12" lengthAdjust="spacing" textLength="61" x="104" y="894.1064">_EndDraw</text><rect fill="#FEFECE" filter="url(#f1lihpwzf1fpi9)" height="33.9688" rx="12.5" ry="12.5" style="stroke:#A80036;stroke-width:1.5;" width="121" x="74" y="926.9365"/><text fill="#000000" font-family="sans-serif" font-size="12" lengthAdjust="spacing" textLength="101" x="84" y="948.0752">_TrySwapBuffers</text><rect fill="#FEFECE" filter="url(#f1lihpwzf1fpi9)" height="33.9688" rx="12.5" ry="12.5" style="stroke:#A80036;stroke-width:1.5;" width="50" x="109.5" y="992.9053"/><text fill="#000000" font-family="sans-serif" font-size="12" lengthAdjust="spacing" textLength="30" x="119.5" y="1014.0439">_End</text><polygon fill="#FEFECE" filter="url(#f1lihpwzf1fpi9)" points="85.5,683.0229,183.5,683.0229,195.5,695.0229,183.5,707.0229,85.5,707.0229,73.5,695.0229,85.5,683.0229" style="stroke:#A80036;stroke-width:1.5;"/><text fill="#000000" font-family="sans-serif" font-size="11" lengthAdjust="spacing" textLength="61" x="138.5" y="717.2334">Completed</text><text fill="#000000" font-family="sans-serif" font-size="11" lengthAdjust="spacing" textLength="98" x="85.5" y="698.8311">_TryPrepareDraw</text><polygon fill="#FEFECE" filter="url(#f1lihpwzf1fpi9)" points="134.5,1046.874,146.5,1058.874,134.5,1070.874,122.5,1058.874,134.5,1046.874" style="stroke:#A80036;stroke-width:1.5;"/><polygon fill="#FEFECE" filter="url(#f1lihpwzf1fpi9)" points="134.5,118.9375,146.5,130.9375,134.5,142.9375,122.5,130.9375,134.5,118.9375" style="stroke:#A80036;stroke-width:1.5;"/><polygon fill="#FEFECE" filter="url(#f1lihpwzf1fpi9)" points="88,1102.874,181,1102.874,193,1114.874,181,1126.874,88,1126.874,76,1114.874,88,1102.874" style="stroke:#A80036;stroke-width:1.5;"/><text fill="#000000" font-family="sans-serif" font-size="11" font-weight="bold" lengthAdjust="spacing" textLength="93" x="88" y="1118.6821">quitRequested</text><text fill="#000000" font-family="sans-serif" font-size="11" lengthAdjust="spacing" textLength="28" x="193" y="1112.2798">false</text><rect fill="#FEFECE" filter="url(#f1lihpwzf1fpi9)" height="33.9688" rx="12.5" ry="12.5" style="stroke:#A80036;stroke-width:1.5;" width="101" x="84" y="1146.874"/><text fill="#000000" font-family="sans-serif" font-size="12" lengthAdjust="spacing" textLength="81" x="94" y="1168.0127">_PreDestruct</text><rect fill="#FEFECE" filter="url(#f1lihpwzf1fpi9)" height="33.9688" rx="12.5" ry="12.5" style="stroke:#A80036;stroke-width:1.5;" width="74" x="97.5" y="1200.8428"/><text fill="#000000" font-family="sans-serif" font-size="12" lengthAdjust="spacing" textLength="54" x="107.5" y="1221.9814">Destruct</text><line style="stroke:#A80036;stroke-width:1.5;" x1="134.5" x2="134.5" y1="44.9688" y2="64.9688"/><polygon fill="#A80036" points="130.5,54.9688,134.5,64.9688,138.5,54.9688,134.5,58.9688" style="stroke:#A80036;stroke-width:1.0;"/><line style="stroke:#A80036;stroke-width:1.5;" x1="134.5" x2="134.5" y1="223.2031" y2="243.2031"/><polygon fill="#A80036" points="130.5,233.2031,134.5,243.2031,138.5,233.2031,134.5,237.2031" style="stroke:#A80036;stroke-width:1.0;"/><line style="stroke:#A80036;stroke-width:1.5;" x1="134.5" x2="134.5" y1="277.1719" y2="297.1719"/><polygon fill="#A80036" points="130.5,287.1719,134.5,297.1719,138.5,287.1719,134.5,291.1719" style="stroke:#A80036;stroke-width:1.0;"/><line style="stroke:#A80036;stroke-width:1.5;" x1="134.5" x2="134.5" y1="455.4063" y2="487.1167"/><polygon fill="#A80036" points="130.5,477.1167,134.5,487.1167,138.5,477.1167,134.5,481.1167" style="stroke:#A80036;stroke-width:1.0;"/><line style="stroke:#A80036;stroke-width:1.5;" x1="134.5" x2="134.5" y1="521.0854" y2="531.0854"/><line style="stroke:#A80036;stroke-width:1.5;" x1="134.5" x2="226" y1="531.0854" y2="531.0854"/><polygon fill="#A80036" points="222,495.6987,226,485.6987,230,495.6987,226,491.6987" style="stroke:#A80036;stroke-width:1.5;"/><line style="stroke:#A80036;stroke-width:1.5;" x1="226" x2="226" y1="443.4063" y2="531.0854"/><line style="stroke:#A80036;stroke-width:1.5;" x1="226" x2="214" y1="443.4063" y2="443.4063"/><polygon fill="#A80036" points="224,439.4063,214,443.4063,224,447.4063,220,443.4063" style="stroke:#A80036;stroke-width:1.0;"/><line style="stroke:#A80036;stroke-width:1.5;" x1="55" x2="43" y1="443.4063" y2="443.4063"/><polygon fill="#A80036" points="39,481.6987,43,491.6987,47,481.6987,43,485.6987" style="stroke:#A80036;stroke-width:1.5;"/><line style="stroke:#A80036;stroke-width:1.5;" x1="43" x2="43" y1="443.4063" y2="543.0854"/><line style="stroke:#A80036;stroke-width:1.5;" x1="43" x2="134.5" y1="543.0854" y2="543.0854"/><line style="stroke:#A80036;stroke-width:1.5;" x1="134.5" x2="134.5" y1="543.0854" y2="563.0854"/><polygon fill="#A80036" points="130.5,553.0854,134.5,563.0854,138.5,553.0854,134.5,557.0854" style="stroke:#A80036;stroke-width:1.0;"/><line style="stroke:#A80036;stroke-width:1.5;" x1="134.5" x2="134.5" y1="411.4063" y2="431.4063"/><polygon fill="#A80036" points="130.5,421.4063,134.5,431.4063,138.5,421.4063,134.5,425.4063" style="stroke:#A80036;stroke-width:1.0;"/><line style="stroke:#A80036;stroke-width:1.5;" x1="134.5" x2="134.5" y1="597.0542" y2="617.0542"/><polygon fill="#A80036" points="130.5,607.0542,134.5,617.0542,138.5,607.0542,134.5,611.0542" style="stroke:#A80036;stroke-width:1.0;"/><line style="stroke:#A80036;stroke-width:1.5;" x1="134.5" x2="134.5" y1="331.1406" y2="377.4375"/><polygon fill="#A80036" points="130.5,367.4375,134.5,377.4375,138.5,367.4375,134.5,371.4375" style="stroke:#A80036;stroke-width:1.0;"/><line style="stroke:#A80036;stroke-width:1.5;" x1="134.5" x2="134.5" y1="798.999" y2="818.999"/><polygon fill="#A80036" points="130.5,808.999,134.5,818.999,138.5,808.999,134.5,812.999" style="stroke:#A80036;stroke-width:1.0;"/><line style="stroke:#A80036;stroke-width:1.5;" x1="134.5" x2="134.5" y1="852.9678" y2="872.9678"/><polygon fill="#A80036" points="130.5,862.9678,134.5,872.9678,138.5,862.9678,134.5,866.9678" style="stroke:#A80036;stroke-width:1.0;"/><line style="stroke:#A80036;stroke-width:1.5;" x1="134.5" x2="134.5" y1="906.9365" y2="926.9365"/><polygon fill="#A80036" points="130.5,916.9365,134.5,926.9365,138.5,916.9365,134.5,920.9365" style="stroke:#A80036;stroke-width:1.0;"/><line style="stroke:#A80036;stroke-width:1.5;" x1="134.5" x2="134.5" y1="960.9053" y2="992.9053"/><polygon fill="#A80036" points="130.5,982.9053,134.5,992.9053,138.5,982.9053,134.5,986.9053" style="stroke:#A80036;stroke-width:1.0;"/><line style="stroke:#A80036;stroke-width:1.5;" x1="134.5" x2="134.5" y1="707.0229" y2="765.0303"/><polygon fill="#A80036" points="130.5,755.0303,134.5,765.0303,138.5,755.0303,134.5,759.0303" style="stroke:#A80036;stroke-width:1.0;"/><line style="stroke:#A80036;stroke-width:1.5;" x1="195.5" x2="215" y1="695.0229" y2="695.0229"/><polygon fill="#A80036" points="211,871.8037,215,881.8037,219,871.8037,215,875.8037" style="stroke:#A80036;stroke-width:1.5;"/><line style="stroke:#A80036;stroke-width:1.5;" x1="215" x2="215" y1="695.0229" y2="1058.874"/><line style="stroke:#A80036;stroke-width:1.5;" x1="215" x2="146.5" y1="1058.874" y2="1058.874"/><polygon fill="#A80036" points="156.5,1054.874,146.5,1058.874,156.5,1062.874,152.5,1058.874" style="stroke:#A80036;stroke-width:1.0;"/><line style="stroke:#A80036;stroke-width:1.5;" x1="134.5" x2="134.5" y1="1026.874" y2="1046.874"/><polygon fill="#A80036" points="130.5,1036.874,134.5,1046.874,138.5,1036.874,134.5,1040.874" style="stroke:#A80036;stroke-width:1.0;"/><line style="stroke:#A80036;stroke-width:1.5;" x1="134.5" x2="134.5" y1="651.0229" y2="683.0229"/><polygon fill="#A80036" points="130.5,673.0229,134.5,683.0229,138.5,673.0229,134.5,677.0229" style="stroke:#A80036;stroke-width:1.0;"/><line style="stroke:#A80036;stroke-width:1.5;" x1="134.5" x2="134.5" y1="142.9375" y2="189.2344"/><polygon fill="#A80036" points="130.5,179.2344,134.5,189.2344,138.5,179.2344,134.5,183.2344" style="stroke:#A80036;stroke-width:1.0;"/><line style="stroke:#A80036;stroke-width:1.5;" x1="193" x2="264" y1="1114.874" y2="1114.874"/><polygon fill="#A80036" points="260,627.4058,264,617.4058,268,627.4058,264,623.4058" style="stroke:#A80036;stroke-width:1.5;"/><line style="stroke:#A80036;stroke-width:1.5;" x1="264" x2="264" y1="130.9375" y2="1114.874"/><line style="stroke:#A80036;stroke-width:1.5;" x1="264" x2="146.5" y1="130.9375" y2="130.9375"/><polygon fill="#A80036" points="156.5,126.9375,146.5,130.9375,156.5,134.9375,152.5,130.9375" style="stroke:#A80036;stroke-width:1.0;"/><line style="stroke:#A80036;stroke-width:1.5;" x1="134.5" x2="134.5" y1="1070.874" y2="1102.874"/><polygon fill="#A80036" points="130.5,1092.874,134.5,1102.874,138.5,1092.874,134.5,1096.874" style="stroke:#A80036;stroke-width:1.0;"/><line style="stroke:#A80036;stroke-width:1.5;" x1="134.5" x2="134.5" y1="98.9375" y2="118.9375"/><polygon fill="#A80036" points="130.5,108.9375,134.5,118.9375,138.5,108.9375,134.5,112.9375" style="stroke:#A80036;stroke-width:1.0;"/><line style="stroke:#A80036;stroke-width:1.5;" x1="134.5" x2="134.5" y1="1126.874" y2="1146.874"/><polygon fill="#A80036" points="130.5,1136.874,134.5,1146.874,138.5,1136.874,134.5,1140.874" style="stroke:#A80036;stroke-width:1.0;"/><line style="stroke:#A80036;stroke-width:1.5;" x1="134.5" x2="134.5" y1="1180.8428" y2="1200.8428"/><polygon fill="#A80036" points="130.5,1190.8428,134.5,1200.8428,138.5,1190.8428,134.5,1194.8428" style="stroke:#A80036;stroke-width:1.0;"/><text fill="#000000" font-family="sans-serif" font-size="14" lengthAdjust="spacing" textLength="140" x="74" y="1252.8066">App execution order</text><!--MD5=[88136d68d7b324834f5ce88ba6837307]
@startuml
caption App execution order

:Construct;
:_PostConstruct;

repeat
    partition FullFrame {
        :_OnEvent;
        :_Begin;
        :_ConfigurationChanged;
        partition Update {
            :_PreUpdate;
            while (Have outstanding ticks?) is (true)
                :_FixedUpdate;
            endwhile (false)
            :_Update;
            :_PostUpdate;
        }
        if (_TryPrepareDraw) is (Completed) then 
            partition Draw {
                :_BeginDraw;
                :_Draw;
                :_EndDraw;
                :_TrySwapBuffers;
            }
            :_End;
        endif
    }
repeatwhile (<b>quitRequested) is (false)

:_PreDestruct;
:Destruct;
@enduml

PlantUML version 1.2021.7(Sun May 23 12:40:07 UTC 2021)
(GPL source distribution)
Java Runtime: OpenJDK Runtime Environment
JVM: OpenJDK 64-Bit Server VM
Default Encoding: UTF-8
Language: en
Country: null
--></g></svg>