<?xml version="1.0" encoding="UTF-8" standalone="no"?><svg xmlns="http://www.w3.org/2000/svg" xmlns:xlink="http://www.w3.org/1999/xlink" contentScriptType="application/ecmascript" contentStyleType="text/css" height="635px" preserveAspectRatio="none" style="width:908px;height:635px;background:#FFFFFF;" version="1.1" viewBox="0 0 908 635" width="908px" zoomAndPan="magnify"><defs><filter height="300%" id="f1pd6p5thak9k1" width="300%" x="-1" y="-1"><feGaussianBlur result="blurOut" stdDeviation="2.0"/><feColorMatrix in="blurOut" result="blurOut2" type="matrix" values="0 0 0 0 0 0 0 0 0 0 0 0 0 0 0 0 0 0 .4 0"/><feOffset dx="4.0" dy="4.0" in="blurOut2" result="blurOut3"/><feBlend in="SourceGraphic" in2="blurOut3" mode="normal"/></filter></defs><g><text fill="#000000" font-family="sans-serif" font-size="14" lengthAdjust="spacing" textLength="324" x="288.75" y="627.4482">Quick overview of how the layout system works</text><rect fill="#FFFFFF" filter="url(#f1pd6p5thak9k1)" height="29.1328" style="stroke:#FFFFFF;stroke-width:1.0;" width="10" x="36" y="78.2969"/><line style="stroke:#A80036;stroke-width:1.0;" x1="36" x2="36" y1="78.2969" y2="107.4297"/><line style="stroke:#A80036;stroke-width:1.0;" x1="46" x2="46" y1="78.2969" y2="107.4297"/><line style="stroke:#A80036;stroke-width:1.0;" x1="36" x2="46" y1="78.2969" y2="78.2969"/><rect fill="#FFFFFF" filter="url(#f1pd6p5thak9k1)" height="405.7266" style="stroke:#FFFFFF;stroke-width:1.0;" width="10" x="36" y="135.4297"/><line style="stroke:#A80036;stroke-width:1.0;" x1="36" x2="36" y1="135.4297" y2="541.1563"/><line style="stroke:#A80036;stroke-width:1.0;" x1="46" x2="46" y1="135.4297" y2="541.1563"/><rect fill="#FFFFFF" filter="url(#f1pd6p5thak9k1)" height="1" style="stroke:#FFFFFF;stroke-width:1.0;" width="10" x="36" y="569.1563"/><line style="stroke:#A80036;stroke-width:1.0;" x1="36" x2="36" y1="569.1563" y2="570.1563"/><line style="stroke:#A80036;stroke-width:1.0;" x1="46" x2="46" y1="569.1563" y2="570.1563"/><rect fill="#FFFFFF" filter="url(#f1pd6p5thak9k1)" height="29.1328" style="stroke:#FFFFFF;stroke-width:1.0;" width="10" x="117" y="78.2969"/><line style="stroke:#A80036;stroke-width:1.0;" x1="117" x2="117" y1="78.2969" y2="107.4297"/><line style="stroke:#A80036;stroke-width:1.0;" x1="127" x2="127" y1="78.2969" y2="107.4297"/><line style="stroke:#A80036;stroke-width:1.0;" x1="117" x2="127" y1="78.2969" y2="78.2969"/><rect fill="#FFFFFF" filter="url(#f1pd6p5thak9k1)" height="405.7266" style="stroke:#FFFFFF;stroke-width:1.0;" width="10" x="117" y="135.4297"/><line style="stroke:#A80036;stroke-width:1.0;" x1="117" x2="117" y1="135.4297" y2="541.1563"/><line style="stroke:#A80036;stroke-width:1.0;" x1="127" x2="127" y1="135.4297" y2="541.1563"/><rect fill="#FFFFFF" filter="url(#f1pd6p5thak9k1)" height="1" style="stroke:#FFFFFF;stroke-width:1.0;" width="10" x="117" y="569.1563"/><line style="stroke:#A80036;stroke-width:1.0;" x1="117" x2="117" y1="569.1563" y2="570.1563"/><line style="stroke:#A80036;stroke-width:1.0;" x1="127" x2="127" y1="569.1563" y2="570.1563"/><rect fill="#FFFFFF" filter="url(#f1pd6p5thak9k1)" height="325.4609" style="stroke:#A80036;stroke-width:1.0;" width="10" x="122" y="207.6953"/><rect fill="#FFFFFF" filter="url(#f1pd6p5thak9k1)" height="29.1328" style="stroke:#FFFFFF;stroke-width:1.0;" width="10" x="211" y="78.2969"/><line style="stroke:#A80036;stroke-width:1.0;" x1="211" x2="211" y1="78.2969" y2="107.4297"/><line style="stroke:#A80036;stroke-width:1.0;" x1="221" x2="221" y1="78.2969" y2="107.4297"/><line style="stroke:#A80036;stroke-width:1.0;" x1="211" x2="221" y1="78.2969" y2="78.2969"/><rect fill="#FFFFFF" filter="url(#f1pd6p5thak9k1)" height="405.7266" style="stroke:#FFFFFF;stroke-width:1.0;" width="10" x="211" y="135.4297"/><line style="stroke:#A80036;stroke-width:1.0;" x1="211" x2="211" y1="135.4297" y2="541.1563"/><line style="stroke:#A80036;stroke-width:1.0;" x1="221" x2="221" y1="135.4297" y2="541.1563"/><rect fill="#FFFFFF" filter="url(#f1pd6p5thak9k1)" height="1" style="stroke:#FFFFFF;stroke-width:1.0;" width="10" x="211" y="569.1563"/><line style="stroke:#A80036;stroke-width:1.0;" x1="211" x2="211" y1="569.1563" y2="570.1563"/><line style="stroke:#A80036;stroke-width:1.0;" x1="221" x2="221" y1="569.1563" y2="570.1563"/><rect fill="#FFFFFF" filter="url(#f1pd6p5thak9k1)" height="29.1328" style="stroke:#FFFFFF;stroke-width:1.0;" width="10" x="306" y="78.2969"/><line style="stroke:#A80036;stroke-width:1.0;" x1="306" x2="306" y1="78.2969" y2="107.4297"/><line style="stroke:#A80036;stroke-width:1.0;" x1="316" x2="316" y1="78.2969" y2="107.4297"/><line style="stroke:#A80036;stroke-width:1.0;" x1="306" x2="316" y1="78.2969" y2="78.2969"/><rect fill="#FFFFFF" filter="url(#f1pd6p5thak9k1)" height="405.7266" style="stroke:#FFFFFF;stroke-width:1.0;" width="10" x="306" y="135.4297"/><line style="stroke:#A80036;stroke-width:1.0;" x1="306" x2="306" y1="135.4297" y2="541.1563"/><line style="stroke:#A80036;stroke-width:1.0;" x1="316" x2="316" y1="135.4297" y2="541.1563"/><rect fill="#FFFFFF" filter="url(#f1pd6p5thak9k1)" height="1" style="stroke:#FFFFFF;stroke-width:1.0;" width="10" x="306" y="569.1563"/><line style="stroke:#A80036;stroke-width:1.0;" x1="306" x2="306" y1="569.1563" y2="570.1563"/><line style="stroke:#A80036;stroke-width:1.0;" x1="316" x2="316" y1="569.1563" y2="570.1563"/><rect fill="#FFFFFF" filter="url(#f1pd6p5thak9k1)" height="29.1328" style="stroke:#FFFFFF;stroke-width:1.0;" width="10" x="459" y="78.2969"/><line style="stroke:#A80036;stroke-width:1.0;" x1="459" x2="459" y1="78.2969" y2="107.4297"/><line style="stroke:#A80036;stroke-width:1.0;" x1="469" x2="469" y1="78.2969" y2="107.4297"/><line style="stroke:#A80036;stroke-width:1.0;" x1="459" x2="469" y1="78.2969" y2="78.2969"/><rect fill="#FFFFFF" filter="url(#f1pd6p5thak9k1)" height="405.7266" style="stroke:#FFFFFF;stroke-width:1.0;" width="10" x="459" y="135.4297"/><line style="stroke:#A80036;stroke-width:1.0;" x1="459" x2="459" y1="135.4297" y2="541.1563"/><line style="stroke:#A80036;stroke-width:1.0;" x1="469" x2="469" y1="135.4297" y2="541.1563"/><rect fill="#FFFFFF" filter="url(#f1pd6p5thak9k1)" height="1" style="stroke:#FFFFFF;stroke-width:1.0;" width="10" x="459" y="569.1563"/><line style="stroke:#A80036;stroke-width:1.0;" x1="459" x2="459" y1="569.1563" y2="570.1563"/><line style="stroke:#A80036;stroke-width:1.0;" x1="469" x2="469" y1="569.1563" y2="570.1563"/><rect fill="#FFFFFF" filter="url(#f1pd6p5thak9k1)" height="29.1328" style="stroke:#FFFFFF;stroke-width:1.0;" width="10" x="596" y="78.2969"/><line style="stroke:#A80036;stroke-width:1.0;" x1="596" x2="596" y1="78.2969" y2="107.4297"/><line style="stroke:#A80036;stroke-width:1.0;" x1="606" x2="606" y1="78.2969" y2="107.4297"/><line style="stroke:#A80036;stroke-width:1.0;" x1="596" x2="606" y1="78.2969" y2="78.2969"/><rect fill="#FFFFFF" filter="url(#f1pd6p5thak9k1)" height="405.7266" style="stroke:#FFFFFF;stroke-width:1.0;" width="10" x="596" y="135.4297"/><line style="stroke:#A80036;stroke-width:1.0;" x1="596" x2="596" y1="135.4297" y2="541.1563"/><line style="stroke:#A80036;stroke-width:1.0;" x1="606" x2="606" y1="135.4297" y2="541.1563"/><rect fill="#FFFFFF" filter="url(#f1pd6p5thak9k1)" height="1" style="stroke:#FFFFFF;stroke-width:1.0;" width="10" x="596" y="569.1563"/><line style="stroke:#A80036;stroke-width:1.0;" x1="596" x2="596" y1="569.1563" y2="570.1563"/><line style="stroke:#A80036;stroke-width:1.0;" x1="606" x2="606" y1="569.1563" y2="570.1563"/><rect fill="#FFFFFF" filter="url(#f1pd6p5thak9k1)" height="29.1328" style="stroke:#FFFFFF;stroke-width:1.0;" width="10" x="721" y="78.2969"/><line style="stroke:#A80036;stroke-width:1.0;" x1="721" x2="721" y1="78.2969" y2="107.4297"/><line style="stroke:#A80036;stroke-width:1.0;" x1="731" x2="731" y1="78.2969" y2="107.4297"/><line style="stroke:#A80036;stroke-width:1.0;" x1="721" x2="731" y1="78.2969" y2="78.2969"/><rect fill="#FFFFFF" filter="url(#f1pd6p5thak9k1)" height="405.7266" style="stroke:#FFFFFF;stroke-width:1.0;" width="10" x="721" y="135.4297"/><line style="stroke:#A80036;stroke-width:1.0;" x1="721" x2="721" y1="135.4297" y2="541.1563"/><line style="stroke:#A80036;stroke-width:1.0;" x1="731" x2="731" y1="135.4297" y2="541.1563"/><rect fill="#FFFFFF" filter="url(#f1pd6p5thak9k1)" height="1" style="stroke:#FFFFFF;stroke-width:1.0;" width="10" x="721" y="569.1563"/><line style="stroke:#A80036;stroke-width:1.0;" x1="721" x2="721" y1="569.1563" y2="570.1563"/><line style="stroke:#A80036;stroke-width:1.0;" x1="731" x2="731" y1="569.1563" y2="570.1563"/><rect fill="#FFFFFF" filter="url(#f1pd6p5thak9k1)" height="29.1328" style="stroke:#FFFFFF;stroke-width:1.0;" width="10" x="841.5" y="78.2969"/><line style="stroke:#A80036;stroke-width:1.0;" x1="841.5" x2="841.5" y1="78.2969" y2="107.4297"/><line style="stroke:#A80036;stroke-width:1.0;" x1="851.5" x2="851.5" y1="78.2969" y2="107.4297"/><line style="stroke:#A80036;stroke-width:1.0;" x1="841.5" x2="851.5" y1="78.2969" y2="78.2969"/><rect fill="#FFFFFF" filter="url(#f1pd6p5thak9k1)" height="405.7266" style="stroke:#FFFFFF;stroke-width:1.0;" width="10" x="841.5" y="135.4297"/><line style="stroke:#A80036;stroke-width:1.0;" x1="841.5" x2="841.5" y1="135.4297" y2="541.1563"/><line style="stroke:#A80036;stroke-width:1.0;" x1="851.5" x2="851.5" y1="135.4297" y2="541.1563"/><rect fill="#FFFFFF" filter="url(#f1pd6p5thak9k1)" height="1" style="stroke:#FFFFFF;stroke-width:1.0;" width="10" x="841.5" y="569.1563"/><line style="stroke:#A80036;stroke-width:1.0;" x1="841.5" x2="841.5" y1="569.1563" y2="570.1563"/><line style="stroke:#A80036;stroke-width:1.0;" x1="851.5" x2="851.5" y1="569.1563" y2="570.1563"/><line style="stroke:#A80036;stroke-width:1.0;" x1="41" x2="41" y1="40.2969" y2="50.2969"/><line style="stroke:#A80036;stroke-width:1.0;stroke-dasharray:1.0,4.0;" x1="41" x2="41" y1="50.2969" y2="78.2969"/><line style="stroke:#A80036;stroke-width:1.0;" x1="41" x2="41" y1="78.2969" y2="107.4297"/><line style="stroke:#A80036;stroke-width:1.0;stroke-dasharray:1.0,4.0;" x1="41" x2="41" y1="107.4297" y2="135.4297"/><line style="stroke:#A80036;stroke-width:1.0;" x1="41" x2="41" y1="135.4297" y2="541.1563"/><line style="stroke:#A80036;stroke-width:1.0;stroke-dasharray:1.0,4.0;" x1="41" x2="41" y1="541.1563" y2="569.1563"/><line style="stroke:#A80036;stroke-width:1.0;" x1="41" x2="41" y1="569.1563" y2="579.1563"/><line style="stroke:#A80036;stroke-width:1.0;" x1="121.5" x2="121.5" y1="40.2969" y2="50.2969"/><line style="stroke:#A80036;stroke-width:1.0;stroke-dasharray:1.0,4.0;" x1="121.5" x2="121.5" y1="50.2969" y2="78.2969"/><line style="stroke:#A80036;stroke-width:1.0;" x1="121.5" x2="121.5" y1="78.2969" y2="107.4297"/><line style="stroke:#A80036;stroke-width:1.0;stroke-dasharray:1.0,4.0;" x1="121.5" x2="121.5" y1="107.4297" y2="135.4297"/><line style="stroke:#A80036;stroke-width:1.0;" x1="121.5" x2="121.5" y1="135.4297" y2="541.1563"/><line style="stroke:#A80036;stroke-width:1.0;stroke-dasharray:1.0,4.0;" x1="121.5" x2="121.5" y1="541.1563" y2="569.1563"/><line style="stroke:#A80036;stroke-width:1.0;" x1="121.5" x2="121.5" y1="569.1563" y2="579.1563"/><line style="stroke:#A80036;stroke-width:1.0;" x1="215.5" x2="215.5" y1="40.2969" y2="50.2969"/><line style="stroke:#A80036;stroke-width:1.0;stroke-dasharray:1.0,4.0;" x1="215.5" x2="215.5" y1="50.2969" y2="78.2969"/><line style="stroke:#A80036;stroke-width:1.0;" x1="215.5" x2="215.5" y1="78.2969" y2="107.4297"/><line style="stroke:#A80036;stroke-width:1.0;stroke-dasharray:1.0,4.0;" x1="215.5" x2="215.5" y1="107.4297" y2="135.4297"/><line style="stroke:#A80036;stroke-width:1.0;" x1="215.5" x2="215.5" y1="135.4297" y2="541.1563"/><line style="stroke:#A80036;stroke-width:1.0;stroke-dasharray:1.0,4.0;" x1="215.5" x2="215.5" y1="541.1563" y2="569.1563"/><line style="stroke:#A80036;stroke-width:1.0;" x1="215.5" x2="215.5" y1="569.1563" y2="579.1563"/><line style="stroke:#A80036;stroke-width:1.0;" x1="310.5" x2="310.5" y1="40.2969" y2="50.2969"/><line style="stroke:#A80036;stroke-width:1.0;stroke-dasharray:1.0,4.0;" x1="310.5" x2="310.5" y1="50.2969" y2="78.2969"/><line style="stroke:#A80036;stroke-width:1.0;" x1="310.5" x2="310.5" y1="78.2969" y2="107.4297"/><line style="stroke:#A80036;stroke-width:1.0;stroke-dasharray:1.0,4.0;" x1="310.5" x2="310.5" y1="107.4297" y2="135.4297"/><line style="stroke:#A80036;stroke-width:1.0;" x1="310.5" x2="310.5" y1="135.4297" y2="541.1563"/><line style="stroke:#A80036;stroke-width:1.0;stroke-dasharray:1.0,4.0;" x1="310.5" x2="310.5" y1="541.1563" y2="569.1563"/><line style="stroke:#A80036;stroke-width:1.0;" x1="310.5" x2="310.5" y1="569.1563" y2="579.1563"/><line style="stroke:#A80036;stroke-width:1.0;" x1="463.5" x2="463.5" y1="40.2969" y2="50.2969"/><line style="stroke:#A80036;stroke-width:1.0;stroke-dasharray:1.0,4.0;" x1="463.5" x2="463.5" y1="50.2969" y2="78.2969"/><line style="stroke:#A80036;stroke-width:1.0;" x1="463.5" x2="463.5" y1="78.2969" y2="107.4297"/><line style="stroke:#A80036;stroke-width:1.0;stroke-dasharray:1.0,4.0;" x1="463.5" x2="463.5" y1="107.4297" y2="135.4297"/><line style="stroke:#A80036;stroke-width:1.0;" x1="463.5" x2="463.5" y1="135.4297" y2="541.1563"/><line style="stroke:#A80036;stroke-width:1.0;stroke-dasharray:1.0,4.0;" x1="463.5" x2="463.5" y1="541.1563" y2="569.1563"/><line style="stroke:#A80036;stroke-width:1.0;" x1="463.5" x2="463.5" y1="569.1563" y2="579.1563"/><line style="stroke:#A80036;stroke-width:1.0;" x1="600.5" x2="600.5" y1="40.2969" y2="50.2969"/><line style="stroke:#A80036;stroke-width:1.0;stroke-dasharray:1.0,4.0;" x1="600.5" x2="600.5" y1="50.2969" y2="78.2969"/><line style="stroke:#A80036;stroke-width:1.0;" x1="600.5" x2="600.5" y1="78.2969" y2="107.4297"/><line style="stroke:#A80036;stroke-width:1.0;stroke-dasharray:1.0,4.0;" x1="600.5" x2="600.5" y1="107.4297" y2="135.4297"/><line style="stroke:#A80036;stroke-width:1.0;" x1="600.5" x2="600.5" y1="135.4297" y2="541.1563"/><line style="stroke:#A80036;stroke-width:1.0;stroke-dasharray:1.0,4.0;" x1="600.5" x2="600.5" y1="541.1563" y2="569.1563"/><line style="stroke:#A80036;stroke-width:1.0;" x1="600.5" x2="600.5" y1="569.1563" y2="579.1563"/><line style="stroke:#A80036;stroke-width:1.0;" x1="725.5" x2="725.5" y1="40.2969" y2="50.2969"/><line style="stroke:#A80036;stroke-width:1.0;stroke-dasharray:1.0,4.0;" x1="725.5" x2="725.5" y1="50.2969" y2="78.2969"/><line style="stroke:#A80036;stroke-width:1.0;" x1="725.5" x2="725.5" y1="78.2969" y2="107.4297"/><line style="stroke:#A80036;stroke-width:1.0;stroke-dasharray:1.0,4.0;" x1="725.5" x2="725.5" y1="107.4297" y2="135.4297"/><line style="stroke:#A80036;stroke-width:1.0;" x1="725.5" x2="725.5" y1="135.4297" y2="541.1563"/><line style="stroke:#A80036;stroke-width:1.0;stroke-dasharray:1.0,4.0;" x1="725.5" x2="725.5" y1="541.1563" y2="569.1563"/><line style="stroke:#A80036;stroke-width:1.0;" x1="725.5" x2="725.5" y1="569.1563" y2="579.1563"/><line style="stroke:#A80036;stroke-width:1.0;" x1="846.5" x2="846.5" y1="40.2969" y2="50.2969"/><line style="stroke:#A80036;stroke-width:1.0;stroke-dasharray:1.0,4.0;" x1="846.5" x2="846.5" y1="50.2969" y2="78.2969"/><line style="stroke:#A80036;stroke-width:1.0;" x1="846.5" x2="846.5" y1="78.2969" y2="107.4297"/><line style="stroke:#A80036;stroke-width:1.0;stroke-dasharray:1.0,4.0;" x1="846.5" x2="846.5" y1="107.4297" y2="135.4297"/><line style="stroke:#A80036;stroke-width:1.0;" x1="846.5" x2="846.5" y1="135.4297" y2="541.1563"/><line style="stroke:#A80036;stroke-width:1.0;stroke-dasharray:1.0,4.0;" x1="846.5" x2="846.5" y1="541.1563" y2="569.1563"/><line style="stroke:#A80036;stroke-width:1.0;" x1="846.5" x2="846.5" y1="569.1563" y2="579.1563"/><rect fill="#FEFECE" filter="url(#f1pd6p5thak9k1)" height="30.2969" style="stroke:#A80036;stroke-width:1.5;" width="68" x="5" y="5"/><text fill="#000000" font-family="sans-serif" font-size="14" lengthAdjust="spacing" textLength="54" x="12" y="24.9951">TheApp</text><rect fill="#FEFECE" filter="url(#f1pd6p5thak9k1)" height="30.2969" style="stroke:#A80036;stroke-width:1.5;" width="68" x="5" y="578.1563"/><text fill="#000000" font-family="sans-serif" font-size="14" lengthAdjust="spacing" textLength="54" x="12" y="598.1514">TheApp</text><rect fill="#FEFECE" filter="url(#f1pd6p5thak9k1)" height="30.2969" style="stroke:#A80036;stroke-width:1.5;" width="59" x="90.5" y="5"/><text fill="#000000" font-family="sans-serif" font-size="14" lengthAdjust="spacing" textLength="45" x="97.5" y="24.9951">UITree</text><rect fill="#FEFECE" filter="url(#f1pd6p5thak9k1)" height="30.2969" style="stroke:#A80036;stroke-width:1.5;" width="59" x="90.5" y="578.1563"/><text fill="#000000" font-family="sans-serif" font-size="14" lengthAdjust="spacing" textLength="45" x="97.5" y="598.1514">UITree</text><rect fill="#FEFECE" filter="url(#f1pd6p5thak9k1)" height="30.2969" style="stroke:#A80036;stroke-width:1.5;" width="65" x="181.5" y="5"/><text fill="#000000" font-family="sans-serif" font-size="14" lengthAdjust="spacing" textLength="51" x="188.5" y="24.9951">Image0</text><rect fill="#FEFECE" filter="url(#f1pd6p5thak9k1)" height="30.2969" style="stroke:#A80036;stroke-width:1.5;" width="65" x="181.5" y="578.1563"/><text fill="#000000" font-family="sans-serif" font-size="14" lengthAdjust="spacing" textLength="51" x="188.5" y="598.1514">Image0</text><rect fill="#FEFECE" filter="url(#f1pd6p5thak9k1)" height="30.2969" style="stroke:#A80036;stroke-width:1.5;" width="97" x="260.5" y="5"/><text fill="#000000" font-family="sans-serif" font-size="14" lengthAdjust="spacing" textLength="83" x="267.5" y="24.9951">StackLayout</text><rect fill="#FEFECE" filter="url(#f1pd6p5thak9k1)" height="30.2969" style="stroke:#A80036;stroke-width:1.5;" width="97" x="260.5" y="578.1563"/><text fill="#000000" font-family="sans-serif" font-size="14" lengthAdjust="spacing" textLength="83" x="267.5" y="598.1514">StackLayout</text><rect fill="#FEFECE" filter="url(#f1pd6p5thak9k1)" height="30.2969" style="stroke:#A80036;stroke-width:1.5;" width="181" x="371.5" y="5"/><text fill="#000000" font-family="sans-serif" font-size="14" lengthAdjust="spacing" textLength="167" x="378.5" y="24.9951">BackgroundLabelButton</text><rect fill="#FEFECE" filter="url(#f1pd6p5thak9k1)" height="30.2969" style="stroke:#A80036;stroke-width:1.5;" width="181" x="371.5" y="578.1563"/><text fill="#000000" font-family="sans-serif" font-size="14" lengthAdjust="spacing" textLength="167" x="378.5" y="598.1514">BackgroundLabelButton</text><rect fill="#FEFECE" filter="url(#f1pd6p5thak9k1)" height="30.2969" style="stroke:#A80036;stroke-width:1.5;" width="65" x="566.5" y="5"/><text fill="#000000" font-family="sans-serif" font-size="14" lengthAdjust="spacing" textLength="51" x="573.5" y="24.9951">Image1</text><rect fill="#FEFECE" filter="url(#f1pd6p5thak9k1)" height="30.2969" style="stroke:#A80036;stroke-width:1.5;" width="65" x="566.5" y="578.1563"/><text fill="#000000" font-family="sans-serif" font-size="14" lengthAdjust="spacing" textLength="51" x="573.5" y="598.1514">Image1</text><rect fill="#FEFECE" filter="url(#f1pd6p5thak9k1)" height="30.2969" style="stroke:#A80036;stroke-width:1.5;" width="117" x="665.5" y="5"/><text fill="#000000" font-family="sans-serif" font-size="14" lengthAdjust="spacing" textLength="103" x="672.5" y="24.9951">NineSliceSprite</text><rect fill="#FEFECE" filter="url(#f1pd6p5thak9k1)" height="30.2969" style="stroke:#A80036;stroke-width:1.5;" width="117" x="665.5" y="578.1563"/><text fill="#000000" font-family="sans-serif" font-size="14" lengthAdjust="spacing" textLength="103" x="672.5" y="598.1514">NineSliceSprite</text><rect fill="#FEFECE" filter="url(#f1pd6p5thak9k1)" height="30.2969" style="stroke:#A80036;stroke-width:1.5;" width="96" x="796.5" y="5"/><text fill="#000000" font-family="sans-serif" font-size="14" lengthAdjust="spacing" textLength="82" x="803.5" y="24.9951">ImageSprite</text><rect fill="#FEFECE" filter="url(#f1pd6p5thak9k1)" height="30.2969" style="stroke:#A80036;stroke-width:1.5;" width="96" x="796.5" y="578.1563"/><text fill="#000000" font-family="sans-serif" font-size="14" lengthAdjust="spacing" textLength="82" x="803.5" y="598.1514">ImageSprite</text><rect fill="#FFFFFF" filter="url(#f1pd6p5thak9k1)" height="29.1328" style="stroke:#FFFFFF;stroke-width:1.0;" width="10" x="36" y="78.2969"/><line style="stroke:#A80036;stroke-width:1.0;" x1="36" x2="36" y1="78.2969" y2="107.4297"/><line style="stroke:#A80036;stroke-width:1.0;" x1="46" x2="46" y1="78.2969" y2="107.4297"/><line style="stroke:#A80036;stroke-width:1.0;" x1="36" x2="46" y1="78.2969" y2="78.2969"/><rect fill="#FFFFFF" filter="url(#f1pd6p5thak9k1)" height="405.7266" style="stroke:#FFFFFF;stroke-width:1.0;" width="10" x="36" y="135.4297"/><line style="stroke:#A80036;stroke-width:1.0;" x1="36" x2="36" y1="135.4297" y2="541.1563"/><line style="stroke:#A80036;stroke-width:1.0;" x1="46" x2="46" y1="135.4297" y2="541.1563"/><rect fill="#FFFFFF" filter="url(#f1pd6p5thak9k1)" height="1" style="stroke:#FFFFFF;stroke-width:1.0;" width="10" x="36" y="569.1563"/><line style="stroke:#A80036;stroke-width:1.0;" x1="36" x2="36" y1="569.1563" y2="570.1563"/><line style="stroke:#A80036;stroke-width:1.0;" x1="46" x2="46" y1="569.1563" y2="570.1563"/><rect fill="#FFFFFF" filter="url(#f1pd6p5thak9k1)" height="29.1328" style="stroke:#FFFFFF;stroke-width:1.0;" width="10" x="117" y="78.2969"/><line style="stroke:#A80036;stroke-width:1.0;" x1="117" x2="117" y1="78.2969" y2="107.4297"/><line style="stroke:#A80036;stroke-width:1.0;" x1="127" x2="127" y1="78.2969" y2="107.4297"/><line style="stroke:#A80036;stroke-width:1.0;" x1="117" x2="127" y1="78.2969" y2="78.2969"/><rect fill="#FFFFFF" filter="url(#f1pd6p5thak9k1)" height="405.7266" style="stroke:#FFFFFF;stroke-width:1.0;" width="10" x="117" y="135.4297"/><line style="stroke:#A80036;stroke-width:1.0;" x1="117" x2="117" y1="135.4297" y2="541.1563"/><line style="stroke:#A80036;stroke-width:1.0;" x1="127" x2="127" y1="135.4297" y2="541.1563"/><rect fill="#FFFFFF" filter="url(#f1pd6p5thak9k1)" height="1" style="stroke:#FFFFFF;stroke-width:1.0;" width="10" x="117" y="569.1563"/><line style="stroke:#A80036;stroke-width:1.0;" x1="117" x2="117" y1="569.1563" y2="570.1563"/><line style="stroke:#A80036;stroke-width:1.0;" x1="127" x2="127" y1="569.1563" y2="570.1563"/><rect fill="#FFFFFF" filter="url(#f1pd6p5thak9k1)" height="325.4609" style="stroke:#A80036;stroke-width:1.0;" width="10" x="122" y="207.6953"/><rect fill="#FFFFFF" filter="url(#f1pd6p5thak9k1)" height="29.1328" style="stroke:#FFFFFF;stroke-width:1.0;" width="10" x="211" y="78.2969"/><line style="stroke:#A80036;stroke-width:1.0;" x1="211" x2="211" y1="78.2969" y2="107.4297"/><line style="stroke:#A80036;stroke-width:1.0;" x1="221" x2="221" y1="78.2969" y2="107.4297"/><line style="stroke:#A80036;stroke-width:1.0;" x1="211" x2="221" y1="78.2969" y2="78.2969"/><rect fill="#FFFFFF" filter="url(#f1pd6p5thak9k1)" height="405.7266" style="stroke:#FFFFFF;stroke-width:1.0;" width="10" x="211" y="135.4297"/><line style="stroke:#A80036;stroke-width:1.0;" x1="211" x2="211" y1="135.4297" y2="541.1563"/><line style="stroke:#A80036;stroke-width:1.0;" x1="221" x2="221" y1="135.4297" y2="541.1563"/><rect fill="#FFFFFF" filter="url(#f1pd6p5thak9k1)" height="1" style="stroke:#FFFFFF;stroke-width:1.0;" width="10" x="211" y="569.1563"/><line style="stroke:#A80036;stroke-width:1.0;" x1="211" x2="211" y1="569.1563" y2="570.1563"/><line style="stroke:#A80036;stroke-width:1.0;" x1="221" x2="221" y1="569.1563" y2="570.1563"/><rect fill="#FFFFFF" filter="url(#f1pd6p5thak9k1)" height="29.1328" style="stroke:#FFFFFF;stroke-width:1.0;" width="10" x="306" y="78.2969"/><line style="stroke:#A80036;stroke-width:1.0;" x1="306" x2="306" y1="78.2969" y2="107.4297"/><line style="stroke:#A80036;stroke-width:1.0;" x1="316" x2="316" y1="78.2969" y2="107.4297"/><line style="stroke:#A80036;stroke-width:1.0;" x1="306" x2="316" y1="78.2969" y2="78.2969"/><rect fill="#FFFFFF" filter="url(#f1pd6p5thak9k1)" height="405.7266" style="stroke:#FFFFFF;stroke-width:1.0;" width="10" x="306" y="135.4297"/><line style="stroke:#A80036;stroke-width:1.0;" x1="306" x2="306" y1="135.4297" y2="541.1563"/><line style="stroke:#A80036;stroke-width:1.0;" x1="316" x2="316" y1="135.4297" y2="541.1563"/><rect fill="#FFFFFF" filter="url(#f1pd6p5thak9k1)" height="1" style="stroke:#FFFFFF;stroke-width:1.0;" width="10" x="306" y="569.1563"/><line style="stroke:#A80036;stroke-width:1.0;" x1="306" x2="306" y1="569.1563" y2="570.1563"/><line style="stroke:#A80036;stroke-width:1.0;" x1="316" x2="316" y1="569.1563" y2="570.1563"/><rect fill="#FFFFFF" filter="url(#f1pd6p5thak9k1)" height="29.1328" style="stroke:#FFFFFF;stroke-width:1.0;" width="10" x="459" y="78.2969"/><line style="stroke:#A80036;stroke-width:1.0;" x1="459" x2="459" y1="78.2969" y2="107.4297"/><line style="stroke:#A80036;stroke-width:1.0;" x1="469" x2="469" y1="78.2969" y2="107.4297"/><line style="stroke:#A80036;stroke-width:1.0;" x1="459" x2="469" y1="78.2969" y2="78.2969"/><rect fill="#FFFFFF" filter="url(#f1pd6p5thak9k1)" height="405.7266" style="stroke:#FFFFFF;stroke-width:1.0;" width="10" x="459" y="135.4297"/><line style="stroke:#A80036;stroke-width:1.0;" x1="459" x2="459" y1="135.4297" y2="541.1563"/><line style="stroke:#A80036;stroke-width:1.0;" x1="469" x2="469" y1="135.4297" y2="541.1563"/><rect fill="#FFFFFF" filter="url(#f1pd6p5thak9k1)" height="1" style="stroke:#FFFFFF;stroke-width:1.0;" width="10" x="459" y="569.1563"/><line style="stroke:#A80036;stroke-width:1.0;" x1="459" x2="459" y1="569.1563" y2="570.1563"/><line style="stroke:#A80036;stroke-width:1.0;" x1="469" x2="469" y1="569.1563" y2="570.1563"/><rect fill="#FFFFFF" filter="url(#f1pd6p5thak9k1)" height="29.1328" style="stroke:#FFFFFF;stroke-width:1.0;" width="10" x="596" y="78.2969"/><line style="stroke:#A80036;stroke-width:1.0;" x1="596" x2="596" y1="78.2969" y2="107.4297"/><line style="stroke:#A80036;stroke-width:1.0;" x1="606" x2="606" y1="78.2969" y2="107.4297"/><line style="stroke:#A80036;stroke-width:1.0;" x1="596" x2="606" y1="78.2969" y2="78.2969"/><rect fill="#FFFFFF" filter="url(#f1pd6p5thak9k1)" height="405.7266" style="stroke:#FFFFFF;stroke-width:1.0;" width="10" x="596" y="135.4297"/><line style="stroke:#A80036;stroke-width:1.0;" x1="596" x2="596" y1="135.4297" y2="541.1563"/><line style="stroke:#A80036;stroke-width:1.0;" x1="606" x2="606" y1="135.4297" y2="541.1563"/><rect fill="#FFFFFF" filter="url(#f1pd6p5thak9k1)" height="1" style="stroke:#FFFFFF;stroke-width:1.0;" width="10" x="596" y="569.1563"/><line style="stroke:#A80036;stroke-width:1.0;" x1="596" x2="596" y1="569.1563" y2="570.1563"/><line style="stroke:#A80036;stroke-width:1.0;" x1="606" x2="606" y1="569.1563" y2="570.1563"/><rect fill="#FFFFFF" filter="url(#f1pd6p5thak9k1)" height="29.1328" style="stroke:#FFFFFF;stroke-width:1.0;" width="10" x="721" y="78.2969"/><line style="stroke:#A80036;stroke-width:1.0;" x1="721" x2="721" y1="78.2969" y2="107.4297"/><line style="stroke:#A80036;stroke-width:1.0;" x1="731" x2="731" y1="78.2969" y2="107.4297"/><line style="stroke:#A80036;stroke-width:1.0;" x1="721" x2="731" y1="78.2969" y2="78.2969"/><rect fill="#FFFFFF" filter="url(#f1pd6p5thak9k1)" height="405.7266" style="stroke:#FFFFFF;stroke-width:1.0;" width="10" x="721" y="135.4297"/><line style="stroke:#A80036;stroke-width:1.0;" x1="721" x2="721" y1="135.4297" y2="541.1563"/><line style="stroke:#A80036;stroke-width:1.0;" x1="731" x2="731" y1="135.4297" y2="541.1563"/><rect fill="#FFFFFF" filter="url(#f1pd6p5thak9k1)" height="1" style="stroke:#FFFFFF;stroke-width:1.0;" width="10" x="721" y="569.1563"/><line style="stroke:#A80036;stroke-width:1.0;" x1="721" x2="721" y1="569.1563" y2="570.1563"/><line style="stroke:#A80036;stroke-width:1.0;" x1="731" x2="731" y1="569.1563" y2="570.1563"/><rect fill="#FFFFFF" filter="url(#f1pd6p5thak9k1)" height="29.1328" style="stroke:#FFFFFF;stroke-width:1.0;" width="10" x="841.5" y="78.2969"/><line style="stroke:#A80036;stroke-width:1.0;" x1="841.5" x2="841.5" y1="78.2969" y2="107.4297"/><line style="stroke:#A80036;stroke-width:1.0;" x1="851.5" x2="851.5" y1="78.2969" y2="107.4297"/><line style="stroke:#A80036;stroke-width:1.0;" x1="841.5" x2="851.5" y1="78.2969" y2="78.2969"/><rect fill="#FFFFFF" filter="url(#f1pd6p5thak9k1)" height="405.7266" style="stroke:#FFFFFF;stroke-width:1.0;" width="10" x="841.5" y="135.4297"/><line style="stroke:#A80036;stroke-width:1.0;" x1="841.5" x2="841.5" y1="135.4297" y2="541.1563"/><line style="stroke:#A80036;stroke-width:1.0;" x1="851.5" x2="851.5" y1="135.4297" y2="541.1563"/><rect fill="#FFFFFF" filter="url(#f1pd6p5thak9k1)" height="1" style="stroke:#FFFFFF;stroke-width:1.0;" width="10" x="841.5" y="569.1563"/><line style="stroke:#A80036;stroke-width:1.0;" x1="841.5" x2="841.5" y1="569.1563" y2="570.1563"/><line style="stroke:#A80036;stroke-width:1.0;" x1="851.5" x2="851.5" y1="569.1563" y2="570.1563"/><polygon fill="#A80036" points="105,95.4297,115,99.4297,105,103.4297,109,99.4297" style="stroke:#A80036;stroke-width:1.0;"/><line style="stroke:#A80036;stroke-width:1.0;" x1="46" x2="111" y1="99.4297" y2="99.4297"/><text fill="#000000" font-family="sans-serif" font-size="13" lengthAdjust="spacing" textLength="47" x="53" y="94.3638">Update</text><rect fill="#EEEEEE" filter="url(#f1pd6p5thak9k1)" height="3" style="stroke:#EEEEEE;stroke-width:1.0;" width="901.5" x="0" y="155.9961"/><line style="stroke:#000000;stroke-width:1.0;" x1="0" x2="901.5" y1="155.9961" y2="155.9961"/><line style="stroke:#000000;stroke-width:1.0;" x1="0" x2="901.5" y1="158.9961" y2="158.9961"/><rect fill="#EEEEEE" filter="url(#f1pd6p5thak9k1)" height="23.1328" style="stroke:#000000;stroke-width:2.0;" width="68" x="416.75" y="145.4297"/><text fill="#000000" font-family="sans-serif" font-size="13" font-weight="bold" lengthAdjust="spacing" textLength="49" x="422.75" y="161.4966">Layout</text><line style="stroke:#A80036;stroke-width:1.0;" x1="127" x2="174" y1="194.6953" y2="194.6953"/><line style="stroke:#A80036;stroke-width:1.0;" x1="174" x2="174" y1="194.6953" y2="207.6953"/><line style="stroke:#A80036;stroke-width:1.0;" x1="133" x2="174" y1="207.6953" y2="207.6953"/><polygon fill="#A80036" points="143,203.6953,133,207.6953,143,211.6953,139,207.6953" style="stroke:#A80036;stroke-width:1.0;"/><text fill="#000000" font-family="sans-serif" font-size="13" lengthAdjust="spacing" textLength="43" x="139" y="189.6294">Layout</text><polygon fill="#A80036" points="199,237.8281,209,241.8281,199,245.8281,203,241.8281" style="stroke:#A80036;stroke-width:1.0;"/><line style="stroke:#A80036;stroke-width:1.0;" x1="132" x2="205" y1="241.8281" y2="241.8281"/><text fill="#000000" font-family="sans-serif" font-size="13" lengthAdjust="spacing" textLength="55" x="139" y="236.7622">Measure</text><polygon fill="#A80036" points="829.5,266.9609,839.5,270.9609,829.5,274.9609,833.5,270.9609" style="stroke:#A80036;stroke-width:1.0;"/><line style="stroke:#A80036;stroke-width:1.0;" x1="221" x2="835.5" y1="270.9609" y2="270.9609"/><text fill="#000000" font-family="sans-serif" font-size="13" lengthAdjust="spacing" textLength="91" x="228" y="265.895">GetRenderInfo</text><polygon fill="#A80036" points="294,296.0938,304,300.0938,294,304.0938,298,300.0938" style="stroke:#A80036;stroke-width:1.0;"/><line style="stroke:#A80036;stroke-width:1.0;" x1="132" x2="300" y1="300.0938" y2="300.0938"/><text fill="#000000" font-family="sans-serif" font-size="13" lengthAdjust="spacing" textLength="55" x="139" y="295.0278">Measure</text><polygon fill="#A80036" points="447,325.2266,457,329.2266,447,333.2266,451,329.2266" style="stroke:#A80036;stroke-width:1.0;"/><line style="stroke:#A80036;stroke-width:1.0;" x1="316" x2="453" y1="329.2266" y2="329.2266"/><text fill="#000000" font-family="sans-serif" font-size="13" lengthAdjust="spacing" textLength="55" x="323" y="324.1606">Measure</text><polygon fill="#A80036" points="709,354.3594,719,358.3594,709,362.3594,713,358.3594" style="stroke:#A80036;stroke-width:1.0;"/><line style="stroke:#A80036;stroke-width:1.0;" x1="469" x2="715" y1="358.3594" y2="358.3594"/><text fill="#000000" font-family="sans-serif" font-size="13" lengthAdjust="spacing" textLength="91" x="476" y="353.2935">GetRenderInfo</text><polygon fill="#A80036" points="584,383.4922,594,387.4922,584,391.4922,588,387.4922" style="stroke:#A80036;stroke-width:1.0;"/><line style="stroke:#A80036;stroke-width:1.0;" x1="316" x2="590" y1="387.4922" y2="387.4922"/><text fill="#000000" font-family="sans-serif" font-size="13" lengthAdjust="spacing" textLength="55" x="323" y="382.4263">Measure</text><polygon fill="#A80036" points="709,412.625,719,416.625,709,420.625,713,416.625" style="stroke:#A80036;stroke-width:1.0;"/><line style="stroke:#A80036;stroke-width:1.0;" x1="606" x2="715" y1="416.625" y2="416.625"/><text fill="#000000" font-family="sans-serif" font-size="13" lengthAdjust="spacing" textLength="91" x="613" y="411.5591">GetRenderInfo</text><polygon fill="#A80036" points="199,441.7578,209,445.7578,199,449.7578,203,445.7578" style="stroke:#A80036;stroke-width:1.0;"/><line style="stroke:#A80036;stroke-width:1.0;" x1="132" x2="205" y1="445.7578" y2="445.7578"/><text fill="#000000" font-family="sans-serif" font-size="13" lengthAdjust="spacing" textLength="51" x="139" y="440.6919">Arrange</text><polygon fill="#A80036" points="294,470.8906,304,474.8906,294,478.8906,298,474.8906" style="stroke:#A80036;stroke-width:1.0;"/><line style="stroke:#A80036;stroke-width:1.0;" x1="132" x2="300" y1="474.8906" y2="474.8906"/><text fill="#000000" font-family="sans-serif" font-size="13" lengthAdjust="spacing" textLength="51" x="139" y="469.8247">Arrange</text><polygon fill="#A80036" points="447,500.0234,457,504.0234,447,508.0234,451,504.0234" style="stroke:#A80036;stroke-width:1.0;"/><line style="stroke:#A80036;stroke-width:1.0;" x1="316" x2="453" y1="504.0234" y2="504.0234"/><text fill="#000000" font-family="sans-serif" font-size="13" lengthAdjust="spacing" textLength="51" x="323" y="498.9575">Arrange</text><polygon fill="#A80036" points="584,529.1563,594,533.1563,584,537.1563,588,533.1563" style="stroke:#A80036;stroke-width:1.0;"/><line style="stroke:#A80036;stroke-width:1.0;" x1="316" x2="590" y1="533.1563" y2="533.1563"/><text fill="#000000" font-family="sans-serif" font-size="13" lengthAdjust="spacing" textLength="51" x="323" y="528.0903">Arrange</text><!--MD5=[8236811758ea601b6c9fdb7e1b96d465]
@startuml
caption Quick overview of how the layout system works

participant TheApp
participant UITree
participant Image0
participant StackLayout
participant BackgroundLabelButton
participant Image1
participant NineSliceSprite
participant ImageSprite
activate TheApp
activate UITree
activate Image0
activate StackLayout
activate BackgroundLabelButton
activate Image1
activate NineSliceSprite
activate ImageSprite
...
TheApp->UITree: Update
...
== Layout ==

UITree->UITree++: Layout
UITree->Image0: Measure
Image0->ImageSprite: GetRenderInfo
UITree->StackLayout: Measure
StackLayout->BackgroundLabelButton: Measure
BackgroundLabelButton->NineSliceSprite: GetRenderInfo
StackLayout->Image1: Measure
Image1->NineSliceSprite: GetRenderInfo
UITree->Image0: Arrange
UITree->StackLayout: Arrange
StackLayout->BackgroundLabelButton: Arrange
StackLayout->Image1: Arrange
deactivate UITree
...
@enduml

PlantUML version 1.2021.7(Sun May 23 12:40:07 UTC 2021)
(GPL source distribution)
Java Runtime: OpenJDK Runtime Environment
JVM: OpenJDK 64-Bit Server VM
Default Encoding: UTF-8
Language: en
Country: null
--></g></svg>