<?xml version="1.0" encoding="UTF-8" standalone="no"?><svg xmlns="http://www.w3.org/2000/svg" xmlns:xlink="http://www.w3.org/1999/xlink" contentScriptType="application/ecmascript" contentStyleType="text/css" height="420px" preserveAspectRatio="none" style="width:697px;height:420px;background:#FFFFFF;" version="1.1" viewBox="0 0 697 420" width="697px" zoomAndPan="magnify"><defs><filter height="300%" id="fonyvpe1vwdnr" width="300%" x="-1" y="-1"><feGaussianBlur result="blurOut" stdDeviation="2.0"/><feColorMatrix in="blurOut" result="blurOut2" type="matrix" values="0 0 0 0 0 0 0 0 0 0 0 0 0 0 0 0 0 0 .4 0"/><feOffset dx="4.0" dy="4.0" in="blurOut2" result="blurOut3"/><feBlend in="SourceGraphic" in2="blurOut3" mode="normal"/></filter></defs><g><text fill="#000000" font-family="sans-serif" font-size="14" lengthAdjust="spacing" textLength="470" x="110" y="411.6514">Quick overview of how controls draw using the DrawCommandBuffer</text><rect fill="#FFFFFF" filter="url(#fonyvpe1vwdnr)" height="247.0625" style="stroke:#FFFFFF;stroke-width:1.0;" width="10" x="36" y="78.2969"/><line style="stroke:#A80036;stroke-width:1.0;" x1="36" x2="36" y1="78.2969" y2="325.3594"/><line style="stroke:#A80036;stroke-width:1.0;" x1="46" x2="46" y1="78.2969" y2="325.3594"/><line style="stroke:#A80036;stroke-width:1.0;" x1="36" x2="46" y1="78.2969" y2="78.2969"/><rect fill="#FFFFFF" filter="url(#fonyvpe1vwdnr)" height="1" style="stroke:#FFFFFF;stroke-width:1.0;" width="10" x="36" y="353.3594"/><line style="stroke:#A80036;stroke-width:1.0;" x1="36" x2="36" y1="353.3594" y2="354.3594"/><line style="stroke:#A80036;stroke-width:1.0;" x1="46" x2="46" y1="353.3594" y2="354.3594"/><rect fill="#FFFFFF" filter="url(#fonyvpe1vwdnr)" height="247.0625" style="stroke:#FFFFFF;stroke-width:1.0;" width="10" x="113.5" y="78.2969"/><line style="stroke:#A80036;stroke-width:1.0;" x1="113.5" x2="113.5" y1="78.2969" y2="325.3594"/><line style="stroke:#A80036;stroke-width:1.0;" x1="123.5" x2="123.5" y1="78.2969" y2="325.3594"/><line style="stroke:#A80036;stroke-width:1.0;" x1="113.5" x2="123.5" y1="78.2969" y2="78.2969"/><rect fill="#FFFFFF" filter="url(#fonyvpe1vwdnr)" height="1" style="stroke:#FFFFFF;stroke-width:1.0;" width="10" x="113.5" y="353.3594"/><line style="stroke:#A80036;stroke-width:1.0;" x1="113.5" x2="113.5" y1="353.3594" y2="354.3594"/><line style="stroke:#A80036;stroke-width:1.0;" x1="123.5" x2="123.5" y1="353.3594" y2="354.3594"/><rect fill="#FFFFFF" filter="url(#fonyvpe1vwdnr)" height="247.0625" style="stroke:#FFFFFF;stroke-width:1.0;" width="10" x="185" y="78.2969"/><line style="stroke:#A80036;stroke-width:1.0;" x1="185" x2="185" y1="78.2969" y2="325.3594"/><line style="stroke:#A80036;stroke-width:1.0;" x1="195" x2="195" y1="78.2969" y2="325.3594"/><line style="stroke:#A80036;stroke-width:1.0;" x1="185" x2="195" y1="78.2969" y2="78.2969"/><rect fill="#FFFFFF" filter="url(#fonyvpe1vwdnr)" height="1" style="stroke:#FFFFFF;stroke-width:1.0;" width="10" x="185" y="353.3594"/><line style="stroke:#A80036;stroke-width:1.0;" x1="185" x2="185" y1="353.3594" y2="354.3594"/><line style="stroke:#A80036;stroke-width:1.0;" x1="195" x2="195" y1="353.3594" y2="354.3594"/><rect fill="#FFFFFF" filter="url(#fonyvpe1vwdnr)" height="247.0625" style="stroke:#FFFFFF;stroke-width:1.0;" width="10" x="317.5" y="78.2969"/><line style="stroke:#A80036;stroke-width:1.0;" x1="317.5" x2="317.5" y1="78.2969" y2="325.3594"/><line style="stroke:#A80036;stroke-width:1.0;" x1="327.5" x2="327.5" y1="78.2969" y2="325.3594"/><line style="stroke:#A80036;stroke-width:1.0;" x1="317.5" x2="327.5" y1="78.2969" y2="78.2969"/><rect fill="#FFFFFF" filter="url(#fonyvpe1vwdnr)" height="1" style="stroke:#FFFFFF;stroke-width:1.0;" width="10" x="317.5" y="353.3594"/><line style="stroke:#A80036;stroke-width:1.0;" x1="317.5" x2="317.5" y1="353.3594" y2="354.3594"/><line style="stroke:#A80036;stroke-width:1.0;" x1="327.5" x2="327.5" y1="353.3594" y2="354.3594"/><rect fill="#FFFFFF" filter="url(#fonyvpe1vwdnr)" height="247.0625" style="stroke:#FFFFFF;stroke-width:1.0;" width="10" x="597.5" y="78.2969"/><line style="stroke:#A80036;stroke-width:1.0;" x1="597.5" x2="597.5" y1="78.2969" y2="325.3594"/><line style="stroke:#A80036;stroke-width:1.0;" x1="607.5" x2="607.5" y1="78.2969" y2="325.3594"/><line style="stroke:#A80036;stroke-width:1.0;" x1="597.5" x2="607.5" y1="78.2969" y2="78.2969"/><rect fill="#FFFFFF" filter="url(#fonyvpe1vwdnr)" height="1" style="stroke:#FFFFFF;stroke-width:1.0;" width="10" x="597.5" y="353.3594"/><line style="stroke:#A80036;stroke-width:1.0;" x1="597.5" x2="597.5" y1="353.3594" y2="354.3594"/><line style="stroke:#A80036;stroke-width:1.0;" x1="607.5" x2="607.5" y1="353.3594" y2="354.3594"/><line style="stroke:#A80036;stroke-width:1.0;" x1="41" x2="41" y1="40.2969" y2="50.2969"/><line style="stroke:#A80036;stroke-width:1.0;stroke-dasharray:1.0,4.0;" x1="41" x2="41" y1="50.2969" y2="78.2969"/><line style="stroke:#A80036;stroke-width:1.0;" x1="41" x2="41" y1="78.2969" y2="325.3594"/><line style="stroke:#A80036;stroke-width:1.0;stroke-dasharray:1.0,4.0;" x1="41" x2="41" y1="325.3594" y2="353.3594"/><line style="stroke:#A80036;stroke-width:1.0;" x1="41" x2="41" y1="353.3594" y2="363.3594"/><line style="stroke:#A80036;stroke-width:1.0;" x1="118" x2="118" y1="40.2969" y2="50.2969"/><line style="stroke:#A80036;stroke-width:1.0;stroke-dasharray:1.0,4.0;" x1="118" x2="118" y1="50.2969" y2="78.2969"/><line style="stroke:#A80036;stroke-width:1.0;" x1="118" x2="118" y1="78.2969" y2="325.3594"/><line style="stroke:#A80036;stroke-width:1.0;stroke-dasharray:1.0,4.0;" x1="118" x2="118" y1="325.3594" y2="353.3594"/><line style="stroke:#A80036;stroke-width:1.0;" x1="118" x2="118" y1="353.3594" y2="363.3594"/><line style="stroke:#A80036;stroke-width:1.0;" x1="190" x2="190" y1="40.2969" y2="50.2969"/><line style="stroke:#A80036;stroke-width:1.0;stroke-dasharray:1.0,4.0;" x1="190" x2="190" y1="50.2969" y2="78.2969"/><line style="stroke:#A80036;stroke-width:1.0;" x1="190" x2="190" y1="78.2969" y2="325.3594"/><line style="stroke:#A80036;stroke-width:1.0;stroke-dasharray:1.0,4.0;" x1="190" x2="190" y1="325.3594" y2="353.3594"/><line style="stroke:#A80036;stroke-width:1.0;" x1="190" x2="190" y1="353.3594" y2="363.3594"/><line style="stroke:#A80036;stroke-width:1.0;" x1="322" x2="322" y1="40.2969" y2="50.2969"/><line style="stroke:#A80036;stroke-width:1.0;stroke-dasharray:1.0,4.0;" x1="322" x2="322" y1="50.2969" y2="78.2969"/><line style="stroke:#A80036;stroke-width:1.0;" x1="322" x2="322" y1="78.2969" y2="325.3594"/><line style="stroke:#A80036;stroke-width:1.0;stroke-dasharray:1.0,4.0;" x1="322" x2="322" y1="325.3594" y2="353.3594"/><line style="stroke:#A80036;stroke-width:1.0;" x1="322" x2="322" y1="353.3594" y2="363.3594"/><line style="stroke:#A80036;stroke-width:1.0;" x1="602" x2="602" y1="40.2969" y2="50.2969"/><line style="stroke:#A80036;stroke-width:1.0;stroke-dasharray:1.0,4.0;" x1="602" x2="602" y1="50.2969" y2="78.2969"/><line style="stroke:#A80036;stroke-width:1.0;" x1="602" x2="602" y1="78.2969" y2="325.3594"/><line style="stroke:#A80036;stroke-width:1.0;stroke-dasharray:1.0,4.0;" x1="602" x2="602" y1="325.3594" y2="353.3594"/><line style="stroke:#A80036;stroke-width:1.0;" x1="602" x2="602" y1="353.3594" y2="363.3594"/><rect fill="#FEFECE" filter="url(#fonyvpe1vwdnr)" height="30.2969" style="stroke:#A80036;stroke-width:1.5;" width="68" x="5" y="5"/><text fill="#000000" font-family="sans-serif" font-size="14" lengthAdjust="spacing" textLength="54" x="12" y="24.9951">TheApp</text><rect fill="#FEFECE" filter="url(#fonyvpe1vwdnr)" height="30.2969" style="stroke:#A80036;stroke-width:1.5;" width="68" x="5" y="362.3594"/><text fill="#000000" font-family="sans-serif" font-size="14" lengthAdjust="spacing" textLength="54" x="12" y="382.3545">TheApp</text><rect fill="#FEFECE" filter="url(#fonyvpe1vwdnr)" height="30.2969" style="stroke:#A80036;stroke-width:1.5;" width="59" x="87" y="5"/><text fill="#000000" font-family="sans-serif" font-size="14" lengthAdjust="spacing" textLength="45" x="94" y="24.9951">UITree</text><rect fill="#FEFECE" filter="url(#fonyvpe1vwdnr)" height="30.2969" style="stroke:#A80036;stroke-width:1.5;" width="59" x="87" y="362.3594"/><text fill="#000000" font-family="sans-serif" font-size="14" lengthAdjust="spacing" textLength="45" x="94" y="382.3545">UITree</text><rect fill="#FEFECE" filter="url(#fonyvpe1vwdnr)" height="30.2969" style="stroke:#A80036;stroke-width:1.5;" width="56" x="160" y="5"/><text fill="#000000" font-family="sans-serif" font-size="14" lengthAdjust="spacing" textLength="42" x="167" y="24.9951">Image</text><rect fill="#FEFECE" filter="url(#fonyvpe1vwdnr)" height="30.2969" style="stroke:#A80036;stroke-width:1.5;" width="56" x="160" y="362.3594"/><text fill="#000000" font-family="sans-serif" font-size="14" lengthAdjust="spacing" textLength="42" x="167" y="382.3545">Image</text><rect fill="#FEFECE" filter="url(#fonyvpe1vwdnr)" height="30.2969" style="stroke:#A80036;stroke-width:1.5;" width="181" x="230" y="5"/><text fill="#000000" font-family="sans-serif" font-size="14" lengthAdjust="spacing" textLength="167" x="237" y="24.9951">BackgroundLabelButton</text><rect fill="#FEFECE" filter="url(#fonyvpe1vwdnr)" height="30.2969" style="stroke:#A80036;stroke-width:1.5;" width="181" x="230" y="362.3594"/><text fill="#000000" font-family="sans-serif" font-size="14" lengthAdjust="spacing" textLength="167" x="237" y="382.3545">BackgroundLabelButton</text><rect fill="#FEFECE" filter="url(#fonyvpe1vwdnr)" height="30.2969" style="stroke:#A80036;stroke-width:1.5;" width="161" x="520" y="5"/><text fill="#000000" font-family="sans-serif" font-size="14" lengthAdjust="spacing" textLength="147" x="527" y="24.9951">DrawCommandBuffer</text><rect fill="#FEFECE" filter="url(#fonyvpe1vwdnr)" height="30.2969" style="stroke:#A80036;stroke-width:1.5;" width="161" x="520" y="362.3594"/><text fill="#000000" font-family="sans-serif" font-size="14" lengthAdjust="spacing" textLength="147" x="527" y="382.3545">DrawCommandBuffer</text><rect fill="#FFFFFF" filter="url(#fonyvpe1vwdnr)" height="247.0625" style="stroke:#FFFFFF;stroke-width:1.0;" width="10" x="36" y="78.2969"/><line style="stroke:#A80036;stroke-width:1.0;" x1="36" x2="36" y1="78.2969" y2="325.3594"/><line style="stroke:#A80036;stroke-width:1.0;" x1="46" x2="46" y1="78.2969" y2="325.3594"/><line style="stroke:#A80036;stroke-width:1.0;" x1="36" x2="46" y1="78.2969" y2="78.2969"/><rect fill="#FFFFFF" filter="url(#fonyvpe1vwdnr)" height="1" style="stroke:#FFFFFF;stroke-width:1.0;" width="10" x="36" y="353.3594"/><line style="stroke:#A80036;stroke-width:1.0;" x1="36" x2="36" y1="353.3594" y2="354.3594"/><line style="stroke:#A80036;stroke-width:1.0;" x1="46" x2="46" y1="353.3594" y2="354.3594"/><rect fill="#FFFFFF" filter="url(#fonyvpe1vwdnr)" height="247.0625" style="stroke:#FFFFFF;stroke-width:1.0;" width="10" x="113.5" y="78.2969"/><line style="stroke:#A80036;stroke-width:1.0;" x1="113.5" x2="113.5" y1="78.2969" y2="325.3594"/><line style="stroke:#A80036;stroke-width:1.0;" x1="123.5" x2="123.5" y1="78.2969" y2="325.3594"/><line style="stroke:#A80036;stroke-width:1.0;" x1="113.5" x2="123.5" y1="78.2969" y2="78.2969"/><rect fill="#FFFFFF" filter="url(#fonyvpe1vwdnr)" height="1" style="stroke:#FFFFFF;stroke-width:1.0;" width="10" x="113.5" y="353.3594"/><line style="stroke:#A80036;stroke-width:1.0;" x1="113.5" x2="113.5" y1="353.3594" y2="354.3594"/><line style="stroke:#A80036;stroke-width:1.0;" x1="123.5" x2="123.5" y1="353.3594" y2="354.3594"/><rect fill="#FFFFFF" filter="url(#fonyvpe1vwdnr)" height="247.0625" style="stroke:#FFFFFF;stroke-width:1.0;" width="10" x="185" y="78.2969"/><line style="stroke:#A80036;stroke-width:1.0;" x1="185" x2="185" y1="78.2969" y2="325.3594"/><line style="stroke:#A80036;stroke-width:1.0;" x1="195" x2="195" y1="78.2969" y2="325.3594"/><line style="stroke:#A80036;stroke-width:1.0;" x1="185" x2="195" y1="78.2969" y2="78.2969"/><rect fill="#FFFFFF" filter="url(#fonyvpe1vwdnr)" height="1" style="stroke:#FFFFFF;stroke-width:1.0;" width="10" x="185" y="353.3594"/><line style="stroke:#A80036;stroke-width:1.0;" x1="185" x2="185" y1="353.3594" y2="354.3594"/><line style="stroke:#A80036;stroke-width:1.0;" x1="195" x2="195" y1="353.3594" y2="354.3594"/><rect fill="#FFFFFF" filter="url(#fonyvpe1vwdnr)" height="247.0625" style="stroke:#FFFFFF;stroke-width:1.0;" width="10" x="317.5" y="78.2969"/><line style="stroke:#A80036;stroke-width:1.0;" x1="317.5" x2="317.5" y1="78.2969" y2="325.3594"/><line style="stroke:#A80036;stroke-width:1.0;" x1="327.5" x2="327.5" y1="78.2969" y2="325.3594"/><line style="stroke:#A80036;stroke-width:1.0;" x1="317.5" x2="327.5" y1="78.2969" y2="78.2969"/><rect fill="#FFFFFF" filter="url(#fonyvpe1vwdnr)" height="1" style="stroke:#FFFFFF;stroke-width:1.0;" width="10" x="317.5" y="353.3594"/><line style="stroke:#A80036;stroke-width:1.0;" x1="317.5" x2="317.5" y1="353.3594" y2="354.3594"/><line style="stroke:#A80036;stroke-width:1.0;" x1="327.5" x2="327.5" y1="353.3594" y2="354.3594"/><rect fill="#FFFFFF" filter="url(#fonyvpe1vwdnr)" height="247.0625" style="stroke:#FFFFFF;stroke-width:1.0;" width="10" x="597.5" y="78.2969"/><line style="stroke:#A80036;stroke-width:1.0;" x1="597.5" x2="597.5" y1="78.2969" y2="325.3594"/><line style="stroke:#A80036;stroke-width:1.0;" x1="607.5" x2="607.5" y1="78.2969" y2="325.3594"/><line style="stroke:#A80036;stroke-width:1.0;" x1="597.5" x2="607.5" y1="78.2969" y2="78.2969"/><rect fill="#FFFFFF" filter="url(#fonyvpe1vwdnr)" height="1" style="stroke:#FFFFFF;stroke-width:1.0;" width="10" x="597.5" y="353.3594"/><line style="stroke:#A80036;stroke-width:1.0;" x1="597.5" x2="597.5" y1="353.3594" y2="354.3594"/><line style="stroke:#A80036;stroke-width:1.0;" x1="607.5" x2="607.5" y1="353.3594" y2="354.3594"/><rect fill="#EEEEEE" filter="url(#fonyvpe1vwdnr)" height="3" style="stroke:#EEEEEE;stroke-width:1.0;" width="690" x="0" y="98.8633"/><line style="stroke:#000000;stroke-width:1.0;" x1="0" x2="690" y1="98.8633" y2="98.8633"/><line style="stroke:#000000;stroke-width:1.0;" x1="0" x2="690" y1="101.8633" y2="101.8633"/><rect fill="#EEEEEE" filter="url(#fonyvpe1vwdnr)" height="23.1328" style="stroke:#000000;stroke-width:2.0;" width="57" x="316.5" y="88.2969"/><text fill="#000000" font-family="sans-serif" font-size="13" font-weight="bold" lengthAdjust="spacing" textLength="38" x="322.5" y="104.3638">Draw</text><polygon fill="#A80036" points="101.5,138.5625,111.5,142.5625,101.5,146.5625,105.5,142.5625" style="stroke:#A80036;stroke-width:1.0;"/><line style="stroke:#A80036;stroke-width:1.0;" x1="46" x2="107.5" y1="142.5625" y2="142.5625"/><text fill="#000000" font-family="sans-serif" font-size="13" lengthAdjust="spacing" textLength="32" x="53" y="137.4966">Draw</text><polygon fill="#A80036" points="173,167.6953,183,171.6953,173,175.6953,177,171.6953" style="stroke:#A80036;stroke-width:1.0;"/><line style="stroke:#A80036;stroke-width:1.0;" x1="123.5" x2="179" y1="171.6953" y2="171.6953"/><text fill="#000000" font-family="sans-serif" font-size="13" lengthAdjust="spacing" textLength="32" x="130.5" y="166.6294">Draw</text><polygon fill="#A80036" points="585.5,196.8281,595.5,200.8281,585.5,204.8281,589.5,200.8281" style="stroke:#A80036;stroke-width:1.0;"/><line style="stroke:#A80036;stroke-width:1.0;" x1="195" x2="591.5" y1="200.8281" y2="200.8281"/><text fill="#000000" font-family="sans-serif" font-size="13" lengthAdjust="spacing" textLength="78" x="202" y="195.7622">Draw(mesh)</text><polygon fill="#A80036" points="305.5,225.9609,315.5,229.9609,305.5,233.9609,309.5,229.9609" style="stroke:#A80036;stroke-width:1.0;"/><line style="stroke:#A80036;stroke-width:1.0;" x1="123.5" x2="311.5" y1="229.9609" y2="229.9609"/><text fill="#000000" font-family="sans-serif" font-size="13" lengthAdjust="spacing" textLength="32" x="130.5" y="224.895">Draw</text><polygon fill="#A80036" points="585.5,255.0938,595.5,259.0938,585.5,263.0938,589.5,259.0938" style="stroke:#A80036;stroke-width:1.0;"/><line style="stroke:#A80036;stroke-width:1.0;" x1="327.5" x2="591.5" y1="259.0938" y2="259.0938"/><text fill="#000000" font-family="sans-serif" font-size="13" lengthAdjust="spacing" textLength="160" x="334.5" y="254.0278">Draw(hBackgroundMesh)</text><polygon fill="#A80036" points="585.5,284.2266,595.5,288.2266,585.5,292.2266,589.5,288.2266" style="stroke:#A80036;stroke-width:1.0;"/><line style="stroke:#A80036;stroke-width:1.0;" x1="327.5" x2="591.5" y1="288.2266" y2="288.2266"/><text fill="#000000" font-family="sans-serif" font-size="13" lengthAdjust="spacing" textLength="246" x="334.5" y="283.1606">Draw(hBackgroundHoverOverlayMesh)</text><polygon fill="#A80036" points="585.5,313.3594,595.5,317.3594,585.5,321.3594,589.5,317.3594" style="stroke:#A80036;stroke-width:1.0;"/><line style="stroke:#A80036;stroke-width:1.0;" x1="327.5" x2="591.5" y1="317.3594" y2="317.3594"/><text fill="#000000" font-family="sans-serif" font-size="13" lengthAdjust="spacing" textLength="138" x="334.5" y="312.2935">DrawText(hTextMesh)</text><!--MD5=[21037e6fa30f2af322774b7a51bd2425]
@startuml
participant TheApp
participant UITree
participant Image
participant BackgroundLabelButton
participant DrawCommandBuffer
activate TheApp
activate UITree
activate Image
activate BackgroundLabelButton
activate DrawCommandBuffer
...
== Draw ==

TheApp->UITree: Draw
UITree->Image: Draw
Image->DrawCommandBuffer: Draw(mesh)
UITree->BackgroundLabelButton: Draw
BackgroundLabelButton->DrawCommandBuffer: Draw(hBackgroundMesh)
BackgroundLabelButton->DrawCommandBuffer: Draw(hBackgroundHoverOverlayMesh)
BackgroundLabelButton->DrawCommandBuffer: DrawText(hTextMesh)
...

caption Quick overview of how controls draw using the DrawCommandBuffer
@enduml

PlantUML version 1.2021.7(Sun May 23 12:40:07 UTC 2021)
(GPL source distribution)
Java Runtime: OpenJDK Runtime Environment
JVM: OpenJDK 64-Bit Server VM
Default Encoding: UTF-8
Language: en
Country: null
--></g></svg>