<?xml version="1.0" encoding="UTF-8" standalone="no"?><svg xmlns="http://www.w3.org/2000/svg" xmlns:xlink="http://www.w3.org/1999/xlink" contentScriptType="application/ecmascript" contentStyleType="text/css" height="731px" preserveAspectRatio="none" style="width:160px;height:731px;background:#FFFFFF;" version="1.1" viewBox="0 0 160 731" width="160px" zoomAndPan="magnify"><defs><filter height="300%" id="f18t2hpp068qxw" width="300%" x="-1" y="-1"><feGaussianBlur result="blurOut" stdDeviation="2.0"/><feColorMatrix in="blurOut" result="blurOut2" type="matrix" values="0 0 0 0 0 0 0 0 0 0 0 0 0 0 0 0 0 0 .4 0"/><feOffset dx="4.0" dy="4.0" in="blurOut2" result="blurOut3"/><feBlend in="SourceGraphic" in2="blurOut3" mode="normal"/></filter></defs><g><rect fill="#FEFECE" filter="url(#f18t2hpp068qxw)" height="33.9688" rx="12.5" ry="12.5" style="stroke:#A80036;stroke-width:1.5;" width="122" x="16" y="11"/><text fill="#000000" font-family="sans-serif" font-size="12" lengthAdjust="spacing" textLength="102" x="26" y="32.1387">App.PostUpdate</text><rect fill="#FFFFFF" filter="url(#f18t2hpp068qxw)" height="498.3438" style="stroke:#000000;stroke-width:2.0;" width="132" x="11" y="54.9688"/><path d="M71,54.9688 L71,64.2656 L61,74.2656 L11,74.2656 " fill="none" style="stroke:#000000;stroke-width:2.0;"/><text fill="#000000" font-family="sans-serif" font-size="14" lengthAdjust="spacing" textLength="50" x="14" y="68.9639">Update</text><rect fill="#FEFECE" filter="url(#f18t2hpp068qxw)" height="33.9688" rx="12.5" ry="12.5" style="stroke:#A80036;stroke-width:1.5;" width="112" x="21" y="91.2656"/><text fill="#000000" font-family="sans-serif" font-size="12" lengthAdjust="spacing" textLength="92" x="31" y="112.4043">ProcessEvents</text><rect fill="#FEFECE" filter="url(#f18t2hpp068qxw)" height="33.9688" rx="12.5" ry="12.5" style="stroke:#A80036;stroke-width:1.5;" width="66" x="44" y="145.2344"/><text fill="#000000" font-family="sans-serif" font-size="12" lengthAdjust="spacing" textLength="46" x="54" y="166.373">Update</text><rect fill="#FEFECE" filter="url(#f18t2hpp068qxw)" height="33.9688" rx="12.5" ry="12.5" style="stroke:#A80036;stroke-width:1.5;" width="112" x="21" y="199.2031"/><text fill="#000000" font-family="sans-serif" font-size="12" lengthAdjust="spacing" textLength="92" x="31" y="220.3418">ProcessEvents</text><rect fill="#FEFECE" filter="url(#f18t2hpp068qxw)" height="33.9688" rx="12.5" ry="12.5" style="stroke:#A80036;stroke-width:1.5;" width="68" x="43" y="253.1719"/><text fill="#000000" font-family="sans-serif" font-size="12" lengthAdjust="spacing" textLength="48" x="53" y="274.3105">Resolve</text><rect fill="#FEFECE" filter="url(#f18t2hpp068qxw)" height="33.9688" rx="12.5" ry="12.5" style="stroke:#A80036;stroke-width:1.5;" width="112" x="21" y="307.1406"/><text fill="#000000" font-family="sans-serif" font-size="12" lengthAdjust="spacing" textLength="92" x="31" y="328.2793">ProcessEvents</text><rect fill="#FFFFFF" filter="url(#f18t2hpp068qxw)" height="136.2344" style="stroke:#000000;stroke-width:2.0;" width="94" x="30" y="351.1094"/><path d="M85,351.1094 L85,360.4063 L75,370.4063 L30,370.4063 " fill="none" style="stroke:#000000;stroke-width:2.0;"/><text fill="#000000" font-family="sans-serif" font-size="14" lengthAdjust="spacing" textLength="45" x="33" y="365.1045">Layout</text><rect fill="#FEFECE" filter="url(#f18t2hpp068qxw)" height="33.9688" rx="12.5" ry="12.5" style="stroke:#A80036;stroke-width:1.5;" width="74" x="40" y="387.4063"/><text fill="#000000" font-family="sans-serif" font-size="12" lengthAdjust="spacing" textLength="54" x="50" y="408.5449">Measure</text><rect fill="#FEFECE" filter="url(#f18t2hpp068qxw)" height="33.9688" rx="12.5" ry="12.5" style="stroke:#A80036;stroke-width:1.5;" width="70" x="42" y="441.375"/><text fill="#000000" font-family="sans-serif" font-size="12" lengthAdjust="spacing" textLength="50" x="52" y="462.5137">Arrange</text><rect fill="#FEFECE" filter="url(#f18t2hpp068qxw)" height="33.9688" rx="12.5" ry="12.5" style="stroke:#A80036;stroke-width:1.5;" width="89" x="32.5" y="507.3438"/><text fill="#000000" font-family="sans-serif" font-size="12" lengthAdjust="spacing" textLength="69" x="42.5" y="528.4824">PostLayout</text><rect fill="#FEFECE" filter="url(#f18t2hpp068qxw)" height="33.9688" rx="12.5" ry="12.5" style="stroke:#A80036;stroke-width:1.5;" width="79" x="37.5" y="573.3125"/><text fill="#000000" font-family="sans-serif" font-size="12" lengthAdjust="spacing" textLength="59" x="47.5" y="594.4512">App.Draw</text><rect fill="#FFFFFF" filter="url(#f18t2hpp068qxw)" height="82.2656" style="stroke:#000000;stroke-width:2.0;" width="93" x="30.5" y="617.2813"/><path d="M75.5,617.2813 L75.5,626.5781 L65.5,636.5781 L30.5,636.5781 " fill="none" style="stroke:#000000;stroke-width:2.0;"/><text fill="#000000" font-family="sans-serif" font-size="14" lengthAdjust="spacing" textLength="35" x="33.5" y="631.2764">Draw</text><rect fill="#FEFECE" filter="url(#f18t2hpp068qxw)" height="33.9688" rx="12.5" ry="12.5" style="stroke:#A80036;stroke-width:1.5;" width="73" x="40.5" y="653.5781"/><text fill="#000000" font-family="sans-serif" font-size="12" lengthAdjust="spacing" textLength="53" x="50.5" y="674.7168">WinDraw</text><line style="stroke:#A80036;stroke-width:1.5;" x1="77" x2="77" y1="125.2344" y2="145.2344"/><polygon fill="#A80036" points="73,135.2344,77,145.2344,81,135.2344,77,139.2344" style="stroke:#A80036;stroke-width:1.0;"/><line style="stroke:#A80036;stroke-width:1.5;" x1="77" x2="77" y1="179.2031" y2="199.2031"/><polygon fill="#A80036" points="73,189.2031,77,199.2031,81,189.2031,77,193.2031" style="stroke:#A80036;stroke-width:1.0;"/><line style="stroke:#A80036;stroke-width:1.5;" x1="77" x2="77" y1="233.1719" y2="253.1719"/><polygon fill="#A80036" points="73,243.1719,77,253.1719,81,243.1719,77,247.1719" style="stroke:#A80036;stroke-width:1.0;"/><line style="stroke:#A80036;stroke-width:1.5;" x1="77" x2="77" y1="287.1406" y2="307.1406"/><polygon fill="#A80036" points="73,297.1406,77,307.1406,81,297.1406,77,301.1406" style="stroke:#A80036;stroke-width:1.0;"/><line style="stroke:#A80036;stroke-width:1.5;" x1="77" x2="77" y1="421.375" y2="441.375"/><polygon fill="#A80036" points="73,431.375,77,441.375,81,431.375,77,435.375" style="stroke:#A80036;stroke-width:1.0;"/><line style="stroke:#A80036;stroke-width:1.5;" x1="77" x2="77" y1="341.1094" y2="387.4063"/><polygon fill="#A80036" points="73,377.4063,77,387.4063,81,377.4063,77,381.4063" style="stroke:#A80036;stroke-width:1.0;"/><line style="stroke:#A80036;stroke-width:1.5;" x1="77" x2="77" y1="475.3438" y2="507.3438"/><polygon fill="#A80036" points="73,497.3438,77,507.3438,81,497.3438,77,501.3438" style="stroke:#A80036;stroke-width:1.0;"/><line style="stroke:#A80036;stroke-width:1.5;" x1="77" x2="77" y1="44.9688" y2="91.2656"/><polygon fill="#A80036" points="73,81.2656,77,91.2656,81,81.2656,77,85.2656" style="stroke:#A80036;stroke-width:1.0;"/><line style="stroke:#A80036;stroke-width:1.5;" x1="77" x2="77" y1="541.3125" y2="573.3125"/><polygon fill="#A80036" points="73,563.3125,77,573.3125,81,563.3125,77,567.3125" style="stroke:#A80036;stroke-width:1.0;"/><line style="stroke:#A80036;stroke-width:1.5;" x1="77" x2="77" y1="607.2813" y2="653.5781"/><polygon fill="#A80036" points="73,643.5781,77,653.5781,81,643.5781,77,647.5781" style="stroke:#A80036;stroke-width:1.0;"/><text fill="#000000" font-family="sans-serif" font-size="14" lengthAdjust="spacing" textLength="126" x="16" y="717.542">UI execution order</text><!--MD5=[eebb61f51489d1f6b28071dfed996370]
@startuml
caption UI execution order

    :App.PostUpdate;

partition Update {
    :ProcessEvents;
    :Update;
    :ProcessEvents;
    :Resolve;
    :ProcessEvents;

    partition Layout {
        :Measure;
        :Arrange;
    }

    :PostLayout;
}

    :App.Draw;

partition Draw {
    :WinDraw;
}
@enduml

PlantUML version 1.2021.7(Sun May 23 12:40:07 UTC 2021)
(GPL source distribution)
Java Runtime: OpenJDK Runtime Environment
JVM: OpenJDK 64-Bit Server VM
Default Encoding: UTF-8
Language: en
Country: null
--></g></svg>