<?xml version="1.0" encoding="UTF-8" standalone="no"?><svg xmlns="http://www.w3.org/2000/svg" xmlns:xlink="http://www.w3.org/1999/xlink" contentScriptType="application/ecmascript" contentStyleType="text/css" height="781px" preserveAspectRatio="none" style="width:1983px;height:781px;" version="1.1" viewBox="0 0 1983 781" width="1983px" zoomAndPan="magnify"><defs><filter height="300%" id="f5vtibq0pihp0" width="300%" x="-1" y="-1"><feGaussianBlur result="blurOut" stdDeviation="2.0"/><feColorMatrix in="blurOut" result="blurOut2" type="matrix" values="0 0 0 0 0 0 0 0 0 0 0 0 0 0 0 0 0 0 .4 0"/><feOffset dx="4.0" dy="4.0" in="blurOut2" result="blurOut3"/><feBlend in="SourceGraphic" in2="blurOut3" mode="normal"/></filter></defs><g><rect fill="#ADD8E6" height="766.6484" style="stroke: #A80036; stroke-width: 1.0;" width="432.5" x="200.5" y="4"/><text fill="#000000" font-family="sans-serif" font-size="13" font-weight="bold" lengthAdjust="spacingAndGlyphs" textLength="99" x="367.25" y="16.0669">AppTemplate</text><rect fill="#FFFFFF" filter="url(#f5vtibq0pihp0)" height="654.9219" style="stroke: #A80036; stroke-width: 1.0;" width="10" x="119" y="68.4297"/><rect fill="#FFFFFF" filter="url(#f5vtibq0pihp0)" height="604.6563" style="stroke: #A80036; stroke-width: 1.0;" width="10" x="284.5" y="118.6953"/><rect fill="#FFFFFF" filter="url(#f5vtibq0pihp0)" height="238.1953" style="stroke: #A80036; stroke-width: 1.0;" width="10" x="289.5" y="476.1563"/><rect fill="#FFFFFF" filter="url(#f5vtibq0pihp0)" height="575.5234" style="stroke: #A80036; stroke-width: 1.0;" width="10" x="446" y="147.8281"/><rect fill="#FFFFFF" filter="url(#f5vtibq0pihp0)" height="546.3906" style="stroke: #A80036; stroke-width: 1.0;" width="10" x="576" y="176.9609"/><rect fill="#FFFFFF" filter="url(#f5vtibq0pihp0)" height="488.125" style="stroke: #A80036; stroke-width: 1.0;" width="10" x="666.5" y="235.2266"/><rect fill="#FFFFFF" filter="url(#f5vtibq0pihp0)" height="458.9922" style="stroke: #A80036; stroke-width: 1.0;" width="10" x="765" y="264.3594"/><rect fill="#FFFFFF" filter="url(#f5vtibq0pihp0)" height="154.6641" style="stroke: #A80036; stroke-width: 1.0;" width="10" x="882" y="568.6875"/><rect fill="#FFFFFF" filter="url(#f5vtibq0pihp0)" height="183.7969" style="stroke: #A80036; stroke-width: 1.0;" width="10" x="989" y="539.5547"/><rect fill="#FFFFFF" filter="url(#f5vtibq0pihp0)" height="125.5313" style="stroke: #A80036; stroke-width: 1.0;" width="10" x="1114" y="597.8203"/><rect fill="#FFFFFF" filter="url(#f5vtibq0pihp0)" height="67.2656" style="stroke: #A80036; stroke-width: 1.0;" width="10" x="1244" y="656.0859"/><rect fill="#FFFFFF" filter="url(#f5vtibq0pihp0)" height="38.1328" style="stroke: #A80036; stroke-width: 1.0;" width="10" x="1380" y="685.2188"/><rect fill="#FFFFFF" filter="url(#f5vtibq0pihp0)" height="654.9219" style="stroke: #A80036; stroke-width: 1.0;" width="10" x="1550.5" y="68.4297"/><line style="stroke: #A80036; stroke-width: 1.0; stroke-dasharray: 5.0,5.0;" x1="123.5" x2="123.5" y1="58.4297" y2="732.3516"/><line style="stroke: #A80036; stroke-width: 1.0; stroke-dasharray: 5.0,5.0;" x1="289.5" x2="289.5" y1="58.4297" y2="732.3516"/><line style="stroke: #A80036; stroke-width: 1.0; stroke-dasharray: 5.0,5.0;" x1="450.5" x2="450.5" y1="58.4297" y2="732.3516"/><line style="stroke: #A80036; stroke-width: 1.0; stroke-dasharray: 5.0,5.0;" x1="581" x2="581" y1="58.4297" y2="732.3516"/><line style="stroke: #A80036; stroke-width: 1.0; stroke-dasharray: 5.0,5.0;" x1="671" x2="671" y1="58.4297" y2="732.3516"/><line style="stroke: #A80036; stroke-width: 1.0; stroke-dasharray: 5.0,5.0;" x1="770" x2="770" y1="58.4297" y2="732.3516"/><line style="stroke: #A80036; stroke-width: 1.0; stroke-dasharray: 5.0,5.0;" x1="887" x2="887" y1="58.4297" y2="732.3516"/><line style="stroke: #A80036; stroke-width: 1.0; stroke-dasharray: 5.0,5.0;" x1="994" x2="994" y1="58.4297" y2="732.3516"/><line style="stroke: #A80036; stroke-width: 1.0; stroke-dasharray: 5.0,5.0;" x1="1119" x2="1119" y1="58.4297" y2="732.3516"/><line style="stroke: #A80036; stroke-width: 1.0; stroke-dasharray: 5.0,5.0;" x1="1249" x2="1249" y1="58.4297" y2="732.3516"/><line style="stroke: #A80036; stroke-width: 1.0; stroke-dasharray: 5.0,5.0;" x1="1385" x2="1385" y1="58.4297" y2="732.3516"/><line style="stroke: #A80036; stroke-width: 1.0; stroke-dasharray: 5.0,5.0;" x1="1555" x2="1555" y1="58.4297" y2="732.3516"/><line style="stroke: #A80036; stroke-width: 1.0; stroke-dasharray: 5.0,5.0;" x1="1737" x2="1737" y1="58.4297" y2="732.3516"/><line style="stroke: #A80036; stroke-width: 1.0; stroke-dasharray: 5.0,5.0;" x1="1905" x2="1905" y1="58.4297" y2="732.3516"/><rect fill="#FEFECE" filter="url(#f5vtibq0pihp0)" height="30.2969" style="stroke: #A80036; stroke-width: 1.5;" width="137" x="53.5" y="23.1328"/><text fill="#000000" font-family="sans-serif" font-size="14" lengthAdjust="spacingAndGlyphs" textLength="123" x="60.5" y="43.1279">CustomDemoApp</text><rect fill="#FEFECE" filter="url(#f5vtibq0pihp0)" height="30.2969" style="stroke: #A80036; stroke-width: 1.5;" width="137" x="53.5" y="731.3516"/><text fill="#000000" font-family="sans-serif" font-size="14" lengthAdjust="spacingAndGlyphs" textLength="123" x="60.5" y="751.3467">CustomDemoApp</text><rect fill="#FEFECE" filter="url(#f5vtibq0pihp0)" height="30.2969" style="stroke: #A80036; stroke-width: 1.5;" width="166" x="204.5" y="23.1328"/><text fill="#000000" font-family="sans-serif" font-size="14" lengthAdjust="spacingAndGlyphs" textLength="152" x="211.5" y="43.1279">DemoAppVulkanBasic</text><rect fill="#FEFECE" filter="url(#f5vtibq0pihp0)" height="30.2969" style="stroke: #A80036; stroke-width: 1.5;" width="166" x="204.5" y="731.3516"/><text fill="#000000" font-family="sans-serif" font-size="14" lengthAdjust="spacingAndGlyphs" textLength="152" x="211.5" y="751.3467">DemoAppVulkanBasic</text><rect fill="#FEFECE" filter="url(#f5vtibq0pihp0)" height="30.2969" style="stroke: #A80036; stroke-width: 1.5;" width="129" x="384.5" y="23.1328"/><text fill="#000000" font-family="sans-serif" font-size="14" lengthAdjust="spacingAndGlyphs" textLength="115" x="391.5" y="43.1279">DemoAppVulkan</text><rect fill="#FEFECE" filter="url(#f5vtibq0pihp0)" height="30.2969" style="stroke: #A80036; stroke-width: 1.5;" width="129" x="384.5" y="731.3516"/><text fill="#000000" font-family="sans-serif" font-size="14" lengthAdjust="spacingAndGlyphs" textLength="115" x="391.5" y="751.3467">DemoAppVulkan</text><rect fill="#FEFECE" filter="url(#f5vtibq0pihp0)" height="30.2969" style="stroke: #A80036; stroke-width: 1.5;" width="92" x="533" y="23.1328"/><text fill="#000000" font-family="sans-serif" font-size="14" lengthAdjust="spacingAndGlyphs" textLength="78" x="540" y="43.1279">ADemoApp</text><rect fill="#FEFECE" filter="url(#f5vtibq0pihp0)" height="30.2969" style="stroke: #A80036; stroke-width: 1.5;" width="92" x="533" y="731.3516"/><text fill="#000000" font-family="sans-serif" font-size="14" lengthAdjust="spacingAndGlyphs" textLength="78" x="540" y="751.3467">ADemoApp</text><rect fill="#FEFECE" filter="url(#f5vtibq0pihp0)" height="30.2969" style="stroke: #A80036; stroke-width: 1.5;" width="61" x="639" y="23.1328"/><text fill="#000000" font-family="sans-serif" font-size="14" lengthAdjust="spacingAndGlyphs" textLength="47" x="646" y="43.1279">Device</text><rect fill="#FEFECE" filter="url(#f5vtibq0pihp0)" height="30.2969" style="stroke: #A80036; stroke-width: 1.5;" width="61" x="639" y="731.3516"/><text fill="#000000" font-family="sans-serif" font-size="14" lengthAdjust="spacingAndGlyphs" textLength="47" x="646" y="751.3467">Device</text><rect fill="#FEFECE" filter="url(#f5vtibq0pihp0)" height="30.2969" style="stroke: #A80036; stroke-width: 1.5;" width="108" x="714" y="23.1328"/><text fill="#000000" font-family="sans-serif" font-size="14" lengthAdjust="spacingAndGlyphs" textLength="94" x="721" y="43.1279">DeviceQueue</text><rect fill="#FEFECE" filter="url(#f5vtibq0pihp0)" height="30.2969" style="stroke: #A80036; stroke-width: 1.5;" width="108" x="714" y="731.3516"/><text fill="#000000" font-family="sans-serif" font-size="14" lengthAdjust="spacingAndGlyphs" textLength="94" x="721" y="751.3467">DeviceQueue</text><rect fill="#FEFECE" filter="url(#f5vtibq0pihp0)" height="30.2969" style="stroke: #A80036; stroke-width: 1.5;" width="98" x="836" y="23.1328"/><text fill="#000000" font-family="sans-serif" font-size="14" lengthAdjust="spacingAndGlyphs" textLength="84" x="843" y="43.1279">DepthBuffer</text><rect fill="#FEFECE" filter="url(#f5vtibq0pihp0)" height="30.2969" style="stroke: #A80036; stroke-width: 1.5;" width="98" x="836" y="731.3516"/><text fill="#000000" font-family="sans-serif" font-size="14" lengthAdjust="spacingAndGlyphs" textLength="84" x="843" y="751.3467">DepthBuffer</text><rect fill="#FEFECE" filter="url(#f5vtibq0pihp0)" height="30.2969" style="stroke: #A80036; stroke-width: 1.5;" width="88" x="948" y="23.1328"/><text fill="#000000" font-family="sans-serif" font-size="14" lengthAdjust="spacingAndGlyphs" textLength="74" x="955" y="43.1279">Swapchain</text><rect fill="#FEFECE" filter="url(#f5vtibq0pihp0)" height="30.2969" style="stroke: #A80036; stroke-width: 1.5;" width="88" x="948" y="731.3516"/><text fill="#000000" font-family="sans-serif" font-size="14" lengthAdjust="spacingAndGlyphs" textLength="74" x="955" y="751.3467">Swapchain</text><rect fill="#FEFECE" filter="url(#f5vtibq0pihp0)" height="30.2969" style="stroke: #A80036; stroke-width: 1.5;" width="134" x="1050" y="23.1328"/><text fill="#000000" font-family="sans-serif" font-size="14" lengthAdjust="spacingAndGlyphs" textLength="120" x="1057" y="43.1279">CommandBuffers</text><rect fill="#FEFECE" filter="url(#f5vtibq0pihp0)" height="30.2969" style="stroke: #A80036; stroke-width: 1.5;" width="134" x="1050" y="731.3516"/><text fill="#000000" font-family="sans-serif" font-size="14" lengthAdjust="spacingAndGlyphs" textLength="120" x="1057" y="751.3467">CommandBuffers</text><rect fill="#FEFECE" filter="url(#f5vtibq0pihp0)" height="30.2969" style="stroke: #A80036; stroke-width: 1.5;" width="98" x="1198" y="23.1328"/><text fill="#000000" font-family="sans-serif" font-size="14" lengthAdjust="spacingAndGlyphs" textLength="84" x="1205" y="43.1279">RenderPass</text><rect fill="#FEFECE" filter="url(#f5vtibq0pihp0)" height="30.2969" style="stroke: #A80036; stroke-width: 1.5;" width="98" x="1198" y="731.3516"/><text fill="#000000" font-family="sans-serif" font-size="14" lengthAdjust="spacingAndGlyphs" textLength="84" x="1205" y="751.3467">RenderPass</text><rect fill="#FEFECE" filter="url(#f5vtibq0pihp0)" height="30.2969" style="stroke: #A80036; stroke-width: 1.5;" width="146" x="1310" y="23.1328"/><text fill="#000000" font-family="sans-serif" font-size="14" lengthAdjust="spacingAndGlyphs" textLength="132" x="1317" y="43.1279">SwapchainRecords</text><rect fill="#FEFECE" filter="url(#f5vtibq0pihp0)" height="30.2969" style="stroke: #A80036; stroke-width: 1.5;" width="146" x="1310" y="731.3516"/><text fill="#000000" font-family="sans-serif" font-size="14" lengthAdjust="spacingAndGlyphs" textLength="132" x="1317" y="751.3467">SwapchainRecords</text><rect fill="#FEFECE" filter="url(#f5vtibq0pihp0)" height="30.2969" style="stroke: #A80036; stroke-width: 1.5;" width="167" x="1470" y="23.1328"/><text fill="#000000" font-family="sans-serif" font-size="14" lengthAdjust="spacingAndGlyphs" textLength="153" x="1477" y="43.1279">NativeGraphicsService</text><rect fill="#FEFECE" filter="url(#f5vtibq0pihp0)" height="30.2969" style="stroke: #A80036; stroke-width: 1.5;" width="167" x="1470" y="731.3516"/><text fill="#000000" font-family="sans-serif" font-size="14" lengthAdjust="spacingAndGlyphs" textLength="153" x="1477" y="751.3467">NativeGraphicsService</text><rect fill="#FEFECE" filter="url(#f5vtibq0pihp0)" height="30.2969" style="stroke: #A80036; stroke-width: 1.5;" width="169" x="1651" y="23.1328"/><text fill="#000000" font-family="sans-serif" font-size="14" lengthAdjust="spacingAndGlyphs" textLength="155" x="1658" y="43.1279">VulkanDeviceSetupUtil</text><rect fill="#FEFECE" filter="url(#f5vtibq0pihp0)" height="30.2969" style="stroke: #A80036; stroke-width: 1.5;" width="169" x="1651" y="731.3516"/><text fill="#000000" font-family="sans-serif" font-size="14" lengthAdjust="spacingAndGlyphs" textLength="155" x="1658" y="751.3467">VulkanDeviceSetupUtil</text><rect fill="#FEFECE" filter="url(#f5vtibq0pihp0)" height="30.2969" style="stroke: #A80036; stroke-width: 1.5;" width="138" x="1834" y="23.1328"/><text fill="#000000" font-family="sans-serif" font-size="14" lengthAdjust="spacingAndGlyphs" textLength="124" x="1841" y="43.1279">SwapchainKHRUtil</text><rect fill="#FEFECE" filter="url(#f5vtibq0pihp0)" height="30.2969" style="stroke: #A80036; stroke-width: 1.5;" width="138" x="1834" y="731.3516"/><text fill="#000000" font-family="sans-serif" font-size="14" lengthAdjust="spacingAndGlyphs" textLength="124" x="1841" y="751.3467">SwapchainKHRUtil</text><rect fill="#FFFFFF" filter="url(#f5vtibq0pihp0)" height="654.9219" style="stroke: #A80036; stroke-width: 1.0;" width="10" x="119" y="68.4297"/><rect fill="#FFFFFF" filter="url(#f5vtibq0pihp0)" height="604.6563" style="stroke: #A80036; stroke-width: 1.0;" width="10" x="284.5" y="118.6953"/><rect fill="#FFFFFF" filter="url(#f5vtibq0pihp0)" height="238.1953" style="stroke: #A80036; stroke-width: 1.0;" width="10" x="289.5" y="476.1563"/><rect fill="#FFFFFF" filter="url(#f5vtibq0pihp0)" height="575.5234" style="stroke: #A80036; stroke-width: 1.0;" width="10" x="446" y="147.8281"/><rect fill="#FFFFFF" filter="url(#f5vtibq0pihp0)" height="546.3906" style="stroke: #A80036; stroke-width: 1.0;" width="10" x="576" y="176.9609"/><rect fill="#FFFFFF" filter="url(#f5vtibq0pihp0)" height="488.125" style="stroke: #A80036; stroke-width: 1.0;" width="10" x="666.5" y="235.2266"/><rect fill="#FFFFFF" filter="url(#f5vtibq0pihp0)" height="458.9922" style="stroke: #A80036; stroke-width: 1.0;" width="10" x="765" y="264.3594"/><rect fill="#FFFFFF" filter="url(#f5vtibq0pihp0)" height="154.6641" style="stroke: #A80036; stroke-width: 1.0;" width="10" x="882" y="568.6875"/><rect fill="#FFFFFF" filter="url(#f5vtibq0pihp0)" height="183.7969" style="stroke: #A80036; stroke-width: 1.0;" width="10" x="989" y="539.5547"/><rect fill="#FFFFFF" filter="url(#f5vtibq0pihp0)" height="125.5313" style="stroke: #A80036; stroke-width: 1.0;" width="10" x="1114" y="597.8203"/><rect fill="#FFFFFF" filter="url(#f5vtibq0pihp0)" height="67.2656" style="stroke: #A80036; stroke-width: 1.0;" width="10" x="1244" y="656.0859"/><rect fill="#FFFFFF" filter="url(#f5vtibq0pihp0)" height="38.1328" style="stroke: #A80036; stroke-width: 1.0;" width="10" x="1380" y="685.2188"/><rect fill="#FFFFFF" filter="url(#f5vtibq0pihp0)" height="654.9219" style="stroke: #A80036; stroke-width: 1.0;" width="10" x="1550.5" y="68.4297"/><polygon fill="#A80036" points="107,85.5625,117,89.5625,107,93.5625,111,89.5625" style="stroke: #A80036; stroke-width: 1.0;"/><line style="stroke: #A80036; stroke-width: 1.0;" x1="3" x2="113" y1="89.5625" y2="89.5625"/><text fill="#000000" font-family="sans-serif" font-size="13" lengthAdjust="spacingAndGlyphs" textLength="62" x="10" y="84.4966">Construct</text><polygon fill="#A80036" points="272.5,114.6953,282.5,118.6953,272.5,122.6953,276.5,118.6953" style="stroke: #A80036; stroke-width: 1.0;"/><line style="stroke: #A80036; stroke-width: 1.0;" x1="129" x2="278.5" y1="118.6953" y2="118.6953"/><text fill="#000000" font-family="sans-serif" font-size="13" lengthAdjust="spacingAndGlyphs" textLength="62" x="136" y="113.6294">Construct</text><polygon fill="#A80036" points="434,143.8281,444,147.8281,434,151.8281,438,147.8281" style="stroke: #A80036; stroke-width: 1.0;"/><line style="stroke: #A80036; stroke-width: 1.0;" x1="294.5" x2="440" y1="147.8281" y2="147.8281"/><text fill="#000000" font-family="sans-serif" font-size="13" lengthAdjust="spacingAndGlyphs" textLength="62" x="301.5" y="142.7622">Construct</text><polygon fill="#A80036" points="564,172.9609,574,176.9609,564,180.9609,568,176.9609" style="stroke: #A80036; stroke-width: 1.0;"/><line style="stroke: #A80036; stroke-width: 1.0;" x1="456" x2="570" y1="176.9609" y2="176.9609"/><text fill="#000000" font-family="sans-serif" font-size="13" lengthAdjust="spacingAndGlyphs" textLength="62" x="463" y="171.895">Construct</text><polygon fill="#A80036" points="1725.5,202.0938,1735.5,206.0938,1725.5,210.0938,1729.5,206.0938" style="stroke: #A80036; stroke-width: 1.0;"/><line style="stroke: #A80036; stroke-width: 1.0;" x1="456" x2="1731.5" y1="206.0938" y2="206.0938"/><text fill="#000000" font-family="sans-serif" font-size="13" lengthAdjust="spacingAndGlyphs" textLength="81" x="463" y="201.0278">CreateSetup</text><polygon fill="#A80036" points="687.5,231.2266,677.5,235.2266,687.5,239.2266,683.5,235.2266" style="stroke: #A80036; stroke-width: 1.0;"/><line style="stroke: #A80036; stroke-width: 1.0;" x1="681.5" x2="1736.5" y1="235.2266" y2="235.2266"/><text fill="#000000" font-family="sans-serif" font-size="13" lengthAdjust="spacingAndGlyphs" textLength="62" x="693.5" y="230.1606">Construct</text><polygon fill="#A80036" points="786,260.3594,776,264.3594,786,268.3594,782,264.3594" style="stroke: #A80036; stroke-width: 1.0;"/><line style="stroke: #A80036; stroke-width: 1.0;" x1="780" x2="1736.5" y1="264.3594" y2="264.3594"/><text fill="#000000" font-family="sans-serif" font-size="13" lengthAdjust="spacingAndGlyphs" textLength="62" x="792" y="259.2935">Construct</text><polygon fill="#A80036" points="107,289.4922,117,293.4922,107,297.4922,111,293.4922" style="stroke: #A80036; stroke-width: 1.0;"/><line style="stroke: #A80036; stroke-width: 1.0;" x1="3" x2="113" y1="293.4922" y2="293.4922"/><text fill="#000000" font-family="sans-serif" font-size="13" lengthAdjust="spacingAndGlyphs" textLength="97" x="10" y="288.4263">_PostConstruct</text><polygon fill="#A80036" points="564,318.625,574,322.625,564,326.625,568,322.625" style="stroke: #A80036; stroke-width: 1.0;"/><line style="stroke: #A80036; stroke-width: 1.0;" x1="129" x2="570" y1="322.625" y2="322.625"/><text fill="#000000" font-family="sans-serif" font-size="13" lengthAdjust="spacingAndGlyphs" textLength="97" x="136" y="317.5591">_PostConstruct</text><polygon fill="#A80036" points="140,347.7578,130,351.7578,140,355.7578,136,351.7578" style="stroke: #A80036; stroke-width: 1.0;"/><line style="stroke: #A80036; stroke-width: 1.0;" x1="134" x2="575" y1="351.7578" y2="351.7578"/><text fill="#000000" font-family="sans-serif" font-size="13" lengthAdjust="spacingAndGlyphs" textLength="96" x="146" y="346.6919">OnConstructed</text><polygon fill="#A80036" points="272.5,376.8906,282.5,380.8906,272.5,384.8906,276.5,380.8906" style="stroke: #A80036; stroke-width: 1.0;"/><line style="stroke: #A80036; stroke-width: 1.0;" x1="129" x2="278.5" y1="380.8906" y2="380.8906"/><text fill="#000000" font-family="sans-serif" font-size="13" lengthAdjust="spacingAndGlyphs" textLength="96" x="136" y="375.8247">OnConstructed</text><polygon fill="#A80036" points="434,406.0234,444,410.0234,434,414.0234,438,410.0234" style="stroke: #A80036; stroke-width: 1.0;"/><line style="stroke: #A80036; stroke-width: 1.0;" x1="294.5" x2="440" y1="410.0234" y2="410.0234"/><text fill="#000000" font-family="sans-serif" font-size="13" lengthAdjust="spacingAndGlyphs" textLength="96" x="301.5" y="404.9575">OnConstructed</text><polygon fill="#A80036" points="564,435.1563,574,439.1563,564,443.1563,568,439.1563" style="stroke: #A80036; stroke-width: 1.0;"/><line style="stroke: #A80036; stroke-width: 1.0;" x1="456" x2="570" y1="439.1563" y2="439.1563"/><text fill="#000000" font-family="sans-serif" font-size="13" lengthAdjust="spacingAndGlyphs" textLength="96" x="463" y="434.0903">OnConstructed</text><line style="stroke: #A80036; stroke-width: 1.0;" x1="294.5" x2="341.5" y1="463.2891" y2="463.2891"/><line style="stroke: #A80036; stroke-width: 1.0;" x1="341.5" x2="341.5" y1="463.2891" y2="476.2891"/><line style="stroke: #A80036; stroke-width: 1.0;" x1="300.5" x2="341.5" y1="476.2891" y2="476.2891"/><polygon fill="#A80036" points="310.5,472.2891,300.5,476.2891,310.5,480.2891,306.5,476.2891" style="stroke: #A80036; stroke-width: 1.0;"/><text fill="#000000" font-family="sans-serif" font-size="13" lengthAdjust="spacingAndGlyphs" textLength="97" x="306.5" y="458.2231">BuildResources</text><polygon fill="#A80036" points="1893,506.4219,1903,510.4219,1893,514.4219,1897,510.4219" style="stroke: #A80036; stroke-width: 1.0;"/><line style="stroke: #A80036; stroke-width: 1.0;" x1="299.5" x2="1899" y1="510.4219" y2="510.4219"/><text fill="#000000" font-family="sans-serif" font-size="13" lengthAdjust="spacingAndGlyphs" textLength="111" x="306.5" y="505.356">CreateSwapchain</text><polygon fill="#A80036" points="1010,535.5547,1000,539.5547,1010,543.5547,1006,539.5547" style="stroke: #A80036; stroke-width: 1.0;"/><line style="stroke: #A80036; stroke-width: 1.0;" x1="1004" x2="1904" y1="539.5547" y2="539.5547"/><text fill="#000000" font-family="sans-serif" font-size="13" lengthAdjust="spacingAndGlyphs" textLength="62" x="1016" y="534.4888">Construct</text><polygon fill="#A80036" points="870,564.6875,880,568.6875,870,572.6875,874,568.6875" style="stroke: #A80036; stroke-width: 1.0;"/><line style="stroke: #A80036; stroke-width: 1.0;" x1="299.5" x2="876" y1="568.6875" y2="568.6875"/><text fill="#000000" font-family="sans-serif" font-size="13" lengthAdjust="spacingAndGlyphs" textLength="62" x="306.5" y="563.6216">Construct</text><polygon fill="#A80036" points="1102,593.8203,1112,597.8203,1102,601.8203,1106,597.8203" style="stroke: #A80036; stroke-width: 1.0;"/><line style="stroke: #A80036; stroke-width: 1.0;" x1="299.5" x2="1108" y1="597.8203" y2="597.8203"/><text fill="#000000" font-family="sans-serif" font-size="13" lengthAdjust="spacingAndGlyphs" textLength="192" x="306.5" y="592.7544">Reset(swapChainImageCount)</text><polygon fill="#A80036" points="140,622.9531,130,626.9531,140,630.9531,136,626.9531" style="stroke: #A80036; stroke-width: 1.0;"/><line style="stroke: #A80036; stroke-width: 1.0;" x1="134" x2="288.5" y1="626.9531" y2="626.9531"/><text fill="#000000" font-family="sans-serif" font-size="13" lengthAdjust="spacingAndGlyphs" textLength="115" x="146" y="621.8872">OnBuildResources</text><polygon fill="#A80036" points="1232,652.0859,1242,656.0859,1232,660.0859,1236,656.0859" style="stroke: #A80036; stroke-width: 1.0;"/><line style="stroke: #A80036; stroke-width: 1.0;" x1="129" x2="1238" y1="656.0859" y2="656.0859"/><text fill="#000000" font-family="sans-serif" font-size="13" lengthAdjust="spacingAndGlyphs" textLength="62" x="136" y="651.02">Construct</text><polygon fill="#A80036" points="1368,681.2188,1378,685.2188,1368,689.2188,1372,685.2188" style="stroke: #A80036; stroke-width: 1.0;"/><line style="stroke: #A80036; stroke-width: 1.0;" x1="299.5" x2="1374" y1="685.2188" y2="685.2188"/><text fill="#000000" font-family="sans-serif" font-size="13" lengthAdjust="spacingAndGlyphs" textLength="43" x="306.5" y="680.1528">Create</text><polygon fill="#A80036" points="1538.5,710.3516,1548.5,714.3516,1538.5,718.3516,1542.5,714.3516" style="stroke: #A80036; stroke-width: 1.0;"/><line style="stroke: #A80036; stroke-width: 1.0;" x1="294.5" x2="1544.5" y1="714.3516" y2="714.3516"/><text fill="#000000" font-family="sans-serif" font-size="13" lengthAdjust="spacingAndGlyphs" textLength="223" x="301.5" y="709.2856">VulkanCreateDependentResources</text><!--
@startuml
activate CustomDemoApp

box "AppTemplate" #LightBlue
    participant DemoAppVulkanBasic
    participant DemoAppVulkan
    participant ADemoApp
end box

participant Device
participant DeviceQueue
participant DepthBuffer
participant Swapchain
participant CommandBuffers
participant RenderPass
participant SwapchainRecords
activate NativeGraphicsService

->CustomDemoApp:Construct
CustomDemoApp->DemoAppVulkanBasic++: Construct

DemoAppVulkanBasic->DemoAppVulkan++: Construct
DemoAppVulkan->ADemoApp++: Construct
DemoAppVulkan->VulkanDeviceSetupUtil: CreateSetup
VulkanDeviceSetupUtil->Device++: Construct
VulkanDeviceSetupUtil->DeviceQueue++: Construct

->CustomDemoApp:_PostConstruct
CustomDemoApp->ADemoApp:_PostConstruct
ADemoApp->CustomDemoApp:OnConstructed
CustomDemoApp->DemoAppVulkanBasic:OnConstructed
DemoAppVulkanBasic->DemoAppVulkan:OnConstructed
DemoAppVulkan->ADemoApp:OnConstructed

DemoAppVulkanBasic->DemoAppVulkanBasic++: BuildResources
DemoAppVulkanBasic->SwapchainKHRUtil: CreateSwapchain
SwapchainKHRUtil->Swapchain++: Construct
DemoAppVulkanBasic->DepthBuffer++: Construct
DemoAppVulkanBasic->CommandBuffers++: Reset(swapChainImageCount)
DemoAppVulkanBasic->CustomDemoApp: OnBuildResources
CustomDemoApp->RenderPass++: Construct
DemoAppVulkanBasic->SwapchainRecords++: Create
DemoAppVulkanBasic->NativeGraphicsService: VulkanCreateDependentResources
deactivate DemoAppVulkanBasic
@enduml

PlantUML version 1.2018.14(Fri Dec 21 16:33:16 UTC 2018)
(GPL source distribution)
Java Runtime: OpenJDK Runtime Environment
JVM: OpenJDK 64-Bit Server VM
Java Version: 1.8.0_181-8u181-b13-2~deb9u1-b13
Operating System: Linux
OS Version: 4.15.0-43-generic
Default Encoding: UTF-8
Language: en
Country: null
--></g></svg>