<?xml version="1.0" encoding="UTF-8" standalone="no"?><svg xmlns="http://www.w3.org/2000/svg" xmlns:xlink="http://www.w3.org/1999/xlink" contentScriptType="application/ecmascript" contentStyleType="text/css" height="1080px" preserveAspectRatio="none" style="width:2315px;height:1080px;" version="1.1" viewBox="0 0 2315 1080" width="2315px" zoomAndPan="magnify"><defs><filter height="300%" id="f12nkrhlnboks2" width="300%" x="-1" y="-1"><feGaussianBlur result="blurOut" stdDeviation="2.0"/><feColorMatrix in="blurOut" result="blurOut2" type="matrix" values="0 0 0 0 0 0 0 0 0 0 0 0 0 0 0 0 0 0 .4 0"/><feOffset dx="4.0" dy="4.0" in="blurOut2" result="blurOut3"/><feBlend in="SourceGraphic" in2="blurOut3" mode="normal"/></filter></defs><g><rect fill="#ADD8E6" height="1068.7109" style="stroke:#A80036;stroke-width:1.0;" width="502" x="260" y="6"/><text fill="#000000" font-family="sans-serif" font-size="13" font-weight="bold" lengthAdjust="spacing" textLength="99" x="461.5" y="18.0669">AppTemplate</text><rect fill="#FFFFFF" filter="url(#f12nkrhlnboks2)" height="956.9844" style="stroke:#A80036;stroke-width:1.0;" width="10" x="168" y="70.4297"/><rect fill="#FFFFFF" filter="url(#f12nkrhlnboks2)" height="956.9844" style="stroke:#A80036;stroke-width:1.0;" width="10" x="344" y="70.4297"/><rect fill="#FFFFFF" filter="url(#f12nkrhlnboks2)" height="28" style="stroke:#A80036;stroke-width:1.0;" width="10" x="349" y="216.0938"/><rect fill="#FFFFFF" filter="url(#f12nkrhlnboks2)" height="671.9219" style="stroke:#A80036;stroke-width:1.0;" width="10" x="349" y="288.2266"/><rect fill="#FFFFFF" filter="url(#f12nkrhlnboks2)" height="296.3281" style="stroke:#A80036;stroke-width:1.0;" width="10" x="354" y="330.3594"/><rect fill="#FFFFFF" filter="url(#f12nkrhlnboks2)" height="296.3281" style="stroke:#A80036;stroke-width:1.0;" width="10" x="354" y="663.8203"/><rect fill="#FFFFFF" filter="url(#f12nkrhlnboks2)" height="956.9844" style="stroke:#A80036;stroke-width:1.0;" width="10" x="529" y="70.4297"/><rect fill="#FFFFFF" filter="url(#f12nkrhlnboks2)" height="956.9844" style="stroke:#A80036;stroke-width:1.0;" width="10" x="705" y="70.4297"/><rect fill="#FFFFFF" filter="url(#f12nkrhlnboks2)" height="956.9844" style="stroke:#A80036;stroke-width:1.0;" width="10" x="795.5" y="70.4297"/><rect fill="#FFFFFF" filter="url(#f12nkrhlnboks2)" height="956.9844" style="stroke:#A80036;stroke-width:1.0;" width="10" x="894" y="70.4297"/><rect fill="#FFFFFF" filter="url(#f12nkrhlnboks2)" height="627.5234" style="stroke:#A80036;stroke-width:1.0;" width="10" x="1006" y="70.4297"/><rect fill="#FFFFFF" filter="url(#f12nkrhlnboks2)" height="300.3281" style="stroke:#A80036;stroke-width:1.0;" width="10" x="1006" y="727.0859"/><rect fill="#FFFFFF" filter="url(#f12nkrhlnboks2)" height="527.125" style="stroke:#A80036;stroke-width:1.0;" width="10" x="1113" y="70.4297"/><rect fill="#FFFFFF" filter="url(#f12nkrhlnboks2)" height="271.1953" style="stroke:#A80036;stroke-width:1.0;" width="10" x="1113" y="756.2188"/><rect fill="#FFFFFF" filter="url(#f12nkrhlnboks2)" height="497.9922" style="stroke:#A80036;stroke-width:1.0;" width="10" x="1243" y="70.4297"/><rect fill="#FFFFFF" filter="url(#f12nkrhlnboks2)" height="242.0625" style="stroke:#A80036;stroke-width:1.0;" width="10" x="1243" y="785.3516"/><rect fill="#FFFFFF" filter="url(#f12nkrhlnboks2)" height="468.8594" style="stroke:#A80036;stroke-width:1.0;" width="10" x="1373" y="70.4297"/><rect fill="#FFFFFF" filter="url(#f12nkrhlnboks2)" height="183.7969" style="stroke:#A80036;stroke-width:1.0;" width="10" x="1373" y="843.6172"/><rect fill="#FFFFFF" filter="url(#f12nkrhlnboks2)" height="410.5938" style="stroke:#A80036;stroke-width:1.0;" width="10" x="1509" y="70.4297"/><rect fill="#FFFFFF" filter="url(#f12nkrhlnboks2)" height="154.6641" style="stroke:#A80036;stroke-width:1.0;" width="10" x="1509" y="872.75"/><rect fill="#FFFFFF" filter="url(#f12nkrhlnboks2)" height="956.9844" style="stroke:#A80036;stroke-width:1.0;" width="10" x="1658.5" y="70.4297"/><rect fill="#FFFFFF" filter="url(#f12nkrhlnboks2)" height="956.9844" style="stroke:#A80036;stroke-width:1.0;" width="10" x="1879.5" y="70.4297"/><rect fill="#FFFFFF" filter="url(#f12nkrhlnboks2)" height="956.9844" style="stroke:#A80036;stroke-width:1.0;" width="10" x="2100.5" y="70.4297"/><line style="stroke:#A80036;stroke-width:1.0;stroke-dasharray:5.0,5.0;" x1="172.5" x2="172.5" y1="60.4297" y2="1036.4141"/><line style="stroke:#A80036;stroke-width:1.0;stroke-dasharray:5.0,5.0;" x1="349" x2="349" y1="60.4297" y2="1036.4141"/><line style="stroke:#A80036;stroke-width:1.0;stroke-dasharray:5.0,5.0;" x1="533.5" x2="533.5" y1="60.4297" y2="1036.4141"/><line style="stroke:#A80036;stroke-width:1.0;stroke-dasharray:5.0,5.0;" x1="710" x2="710" y1="60.4297" y2="1036.4141"/><line style="stroke:#A80036;stroke-width:1.0;stroke-dasharray:5.0,5.0;" x1="800" x2="800" y1="60.4297" y2="1036.4141"/><line style="stroke:#A80036;stroke-width:1.0;stroke-dasharray:5.0,5.0;" x1="899" x2="899" y1="60.4297" y2="1036.4141"/><line style="stroke:#A80036;stroke-width:1.0;stroke-dasharray:5.0,5.0;" x1="1011" x2="1011" y1="60.4297" y2="1036.4141"/><line style="stroke:#A80036;stroke-width:1.0;stroke-dasharray:5.0,5.0;" x1="1118" x2="1118" y1="60.4297" y2="1036.4141"/><line style="stroke:#A80036;stroke-width:1.0;stroke-dasharray:5.0,5.0;" x1="1248" x2="1248" y1="60.4297" y2="1036.4141"/><line style="stroke:#A80036;stroke-width:1.0;stroke-dasharray:5.0,5.0;" x1="1378" x2="1378" y1="60.4297" y2="1036.4141"/><line style="stroke:#A80036;stroke-width:1.0;stroke-dasharray:5.0,5.0;" x1="1514" x2="1514" y1="60.4297" y2="1036.4141"/><line style="stroke:#A80036;stroke-width:1.0;stroke-dasharray:5.0,5.0;" x1="1663" x2="1663" y1="60.4297" y2="1036.4141"/><line style="stroke:#A80036;stroke-width:1.0;stroke-dasharray:5.0,5.0;" x1="1884" x2="1884" y1="60.4297" y2="1036.4141"/><line style="stroke:#A80036;stroke-width:1.0;stroke-dasharray:5.0,5.0;" x1="2105" x2="2105" y1="60.4297" y2="1036.4141"/><line style="stroke:#A80036;stroke-width:1.0;stroke-dasharray:5.0,5.0;" x1="2234" x2="2234" y1="60.4297" y2="1036.4141"/><rect fill="#FEFECE" filter="url(#f12nkrhlnboks2)" height="30.2969" style="stroke:#A80036;stroke-width:1.5;" width="137" x="102.5" y="25.1328"/><text fill="#000000" font-family="sans-serif" font-size="14" lengthAdjust="spacing" textLength="123" x="109.5" y="45.1279">CustomDemoApp</text><rect fill="#FEFECE" filter="url(#f12nkrhlnboks2)" height="30.2969" style="stroke:#A80036;stroke-width:1.5;" width="137" x="102.5" y="1035.4141"/><text fill="#000000" font-family="sans-serif" font-size="14" lengthAdjust="spacing" textLength="123" x="109.5" y="1055.4092">CustomDemoApp</text><rect fill="#FEFECE" filter="url(#f12nkrhlnboks2)" height="30.2969" style="stroke:#A80036;stroke-width:1.5;" width="166" x="264" y="25.1328"/><text fill="#000000" font-family="sans-serif" font-size="14" lengthAdjust="spacing" textLength="152" x="271" y="45.1279">DemoAppVulkanBasic</text><rect fill="#FEFECE" filter="url(#f12nkrhlnboks2)" height="30.2969" style="stroke:#A80036;stroke-width:1.5;" width="166" x="264" y="1035.4141"/><text fill="#000000" font-family="sans-serif" font-size="14" lengthAdjust="spacing" textLength="152" x="271" y="1055.4092">DemoAppVulkanBasic</text><rect fill="#FEFECE" filter="url(#f12nkrhlnboks2)" height="30.2969" style="stroke:#A80036;stroke-width:1.5;" width="129" x="467.5" y="25.1328"/><text fill="#000000" font-family="sans-serif" font-size="14" lengthAdjust="spacing" textLength="115" x="474.5" y="45.1279">DemoAppVulkan</text><rect fill="#FEFECE" filter="url(#f12nkrhlnboks2)" height="30.2969" style="stroke:#A80036;stroke-width:1.5;" width="129" x="467.5" y="1035.4141"/><text fill="#000000" font-family="sans-serif" font-size="14" lengthAdjust="spacing" textLength="115" x="474.5" y="1055.4092">DemoAppVulkan</text><rect fill="#FEFECE" filter="url(#f12nkrhlnboks2)" height="30.2969" style="stroke:#A80036;stroke-width:1.5;" width="92" x="662" y="25.1328"/><text fill="#000000" font-family="sans-serif" font-size="14" lengthAdjust="spacing" textLength="78" x="669" y="45.1279">ADemoApp</text><rect fill="#FEFECE" filter="url(#f12nkrhlnboks2)" height="30.2969" style="stroke:#A80036;stroke-width:1.5;" width="92" x="662" y="1035.4141"/><text fill="#000000" font-family="sans-serif" font-size="14" lengthAdjust="spacing" textLength="78" x="669" y="1055.4092">ADemoApp</text><rect fill="#FEFECE" filter="url(#f12nkrhlnboks2)" height="30.2969" style="stroke:#A80036;stroke-width:1.5;" width="61" x="768" y="25.1328"/><text fill="#000000" font-family="sans-serif" font-size="14" lengthAdjust="spacing" textLength="47" x="775" y="45.1279">Device</text><rect fill="#FEFECE" filter="url(#f12nkrhlnboks2)" height="30.2969" style="stroke:#A80036;stroke-width:1.5;" width="61" x="768" y="1035.4141"/><text fill="#000000" font-family="sans-serif" font-size="14" lengthAdjust="spacing" textLength="47" x="775" y="1055.4092">Device</text><rect fill="#FEFECE" filter="url(#f12nkrhlnboks2)" height="30.2969" style="stroke:#A80036;stroke-width:1.5;" width="108" x="843" y="25.1328"/><text fill="#000000" font-family="sans-serif" font-size="14" lengthAdjust="spacing" textLength="94" x="850" y="45.1279">DeviceQueue</text><rect fill="#FEFECE" filter="url(#f12nkrhlnboks2)" height="30.2969" style="stroke:#A80036;stroke-width:1.5;" width="108" x="843" y="1035.4141"/><text fill="#000000" font-family="sans-serif" font-size="14" lengthAdjust="spacing" textLength="94" x="850" y="1055.4092">DeviceQueue</text><rect fill="#FEFECE" filter="url(#f12nkrhlnboks2)" height="30.2969" style="stroke:#A80036;stroke-width:1.5;" width="88" x="965" y="25.1328"/><text fill="#000000" font-family="sans-serif" font-size="14" lengthAdjust="spacing" textLength="74" x="972" y="45.1279">Swapchain</text><rect fill="#FEFECE" filter="url(#f12nkrhlnboks2)" height="30.2969" style="stroke:#A80036;stroke-width:1.5;" width="88" x="965" y="1035.4141"/><text fill="#000000" font-family="sans-serif" font-size="14" lengthAdjust="spacing" textLength="74" x="972" y="1055.4092">Swapchain</text><rect fill="#FEFECE" filter="url(#f12nkrhlnboks2)" height="30.2969" style="stroke:#A80036;stroke-width:1.5;" width="98" x="1067" y="25.1328"/><text fill="#000000" font-family="sans-serif" font-size="14" lengthAdjust="spacing" textLength="84" x="1074" y="45.1279">DepthBuffer</text><rect fill="#FEFECE" filter="url(#f12nkrhlnboks2)" height="30.2969" style="stroke:#A80036;stroke-width:1.5;" width="98" x="1067" y="1035.4141"/><text fill="#000000" font-family="sans-serif" font-size="14" lengthAdjust="spacing" textLength="84" x="1074" y="1055.4092">DepthBuffer</text><rect fill="#FEFECE" filter="url(#f12nkrhlnboks2)" height="30.2969" style="stroke:#A80036;stroke-width:1.5;" width="134" x="1179" y="25.1328"/><text fill="#000000" font-family="sans-serif" font-size="14" lengthAdjust="spacing" textLength="120" x="1186" y="45.1279">CommandBuffers</text><rect fill="#FEFECE" filter="url(#f12nkrhlnboks2)" height="30.2969" style="stroke:#A80036;stroke-width:1.5;" width="134" x="1179" y="1035.4141"/><text fill="#000000" font-family="sans-serif" font-size="14" lengthAdjust="spacing" textLength="120" x="1186" y="1055.4092">CommandBuffers</text><rect fill="#FEFECE" filter="url(#f12nkrhlnboks2)" height="30.2969" style="stroke:#A80036;stroke-width:1.5;" width="98" x="1327" y="25.1328"/><text fill="#000000" font-family="sans-serif" font-size="14" lengthAdjust="spacing" textLength="84" x="1334" y="45.1279">RenderPass</text><rect fill="#FEFECE" filter="url(#f12nkrhlnboks2)" height="30.2969" style="stroke:#A80036;stroke-width:1.5;" width="98" x="1327" y="1035.4141"/><text fill="#000000" font-family="sans-serif" font-size="14" lengthAdjust="spacing" textLength="84" x="1334" y="1055.4092">RenderPass</text><rect fill="#FEFECE" filter="url(#f12nkrhlnboks2)" height="30.2969" style="stroke:#A80036;stroke-width:1.5;" width="146" x="1439" y="25.1328"/><text fill="#000000" font-family="sans-serif" font-size="14" lengthAdjust="spacing" textLength="132" x="1446" y="45.1279">SwapchainRecords</text><rect fill="#FEFECE" filter="url(#f12nkrhlnboks2)" height="30.2969" style="stroke:#A80036;stroke-width:1.5;" width="146" x="1439" y="1035.4141"/><text fill="#000000" font-family="sans-serif" font-size="14" lengthAdjust="spacing" textLength="132" x="1446" y="1055.4092">SwapchainRecords</text><rect fill="#FEFECE" filter="url(#f12nkrhlnboks2)" height="30.2969" style="stroke:#A80036;stroke-width:1.5;" width="125" x="1599" y="25.1328"/><text fill="#000000" font-family="sans-serif" font-size="14" lengthAdjust="spacing" textLength="111" x="1606" y="45.1279">GraphicsService</text><rect fill="#FEFECE" filter="url(#f12nkrhlnboks2)" height="30.2969" style="stroke:#A80036;stroke-width:1.5;" width="125" x="1599" y="1035.4141"/><text fill="#000000" font-family="sans-serif" font-size="14" lengthAdjust="spacing" textLength="111" x="1606" y="1055.4092">GraphicsService</text><rect fill="#FEFECE" filter="url(#f12nkrhlnboks2)" height="30.2969" style="stroke:#A80036;stroke-width:1.5;" width="167" x="1799" y="25.1328"/><text fill="#000000" font-family="sans-serif" font-size="14" lengthAdjust="spacing" textLength="153" x="1806" y="45.1279">NativeGraphicsService</text><rect fill="#FEFECE" filter="url(#f12nkrhlnboks2)" height="30.2969" style="stroke:#A80036;stroke-width:1.5;" width="167" x="1799" y="1035.4141"/><text fill="#000000" font-family="sans-serif" font-size="14" lengthAdjust="spacing" textLength="153" x="1806" y="1055.4092">NativeGraphicsService</text><rect fill="#FEFECE" filter="url(#f12nkrhlnboks2)" height="30.2969" style="stroke:#A80036;stroke-width:1.5;" width="91" x="2058" y="25.1328"/><text fill="#000000" font-family="sans-serif" font-size="14" lengthAdjust="spacing" textLength="77" x="2065" y="45.1279">QuadBatch</text><rect fill="#FEFECE" filter="url(#f12nkrhlnboks2)" height="30.2969" style="stroke:#A80036;stroke-width:1.5;" width="91" x="2058" y="1035.4141"/><text fill="#000000" font-family="sans-serif" font-size="14" lengthAdjust="spacing" textLength="77" x="2065" y="1055.4092">QuadBatch</text><rect fill="#FEFECE" filter="url(#f12nkrhlnboks2)" height="30.2969" style="stroke:#A80036;stroke-width:1.5;" width="138" x="2163" y="25.1328"/><text fill="#000000" font-family="sans-serif" font-size="14" lengthAdjust="spacing" textLength="124" x="2170" y="45.1279">SwapchainKHRUtil</text><rect fill="#FEFECE" filter="url(#f12nkrhlnboks2)" height="30.2969" style="stroke:#A80036;stroke-width:1.5;" width="138" x="2163" y="1035.4141"/><text fill="#000000" font-family="sans-serif" font-size="14" lengthAdjust="spacing" textLength="124" x="2170" y="1055.4092">SwapchainKHRUtil</text><rect fill="#FFFFFF" filter="url(#f12nkrhlnboks2)" height="956.9844" style="stroke:#A80036;stroke-width:1.0;" width="10" x="168" y="70.4297"/><rect fill="#FFFFFF" filter="url(#f12nkrhlnboks2)" height="956.9844" style="stroke:#A80036;stroke-width:1.0;" width="10" x="344" y="70.4297"/><rect fill="#FFFFFF" filter="url(#f12nkrhlnboks2)" height="28" style="stroke:#A80036;stroke-width:1.0;" width="10" x="349" y="216.0938"/><rect fill="#FFFFFF" filter="url(#f12nkrhlnboks2)" height="671.9219" style="stroke:#A80036;stroke-width:1.0;" width="10" x="349" y="288.2266"/><rect fill="#FFFFFF" filter="url(#f12nkrhlnboks2)" height="296.3281" style="stroke:#A80036;stroke-width:1.0;" width="10" x="354" y="330.3594"/><rect fill="#FFFFFF" filter="url(#f12nkrhlnboks2)" height="296.3281" style="stroke:#A80036;stroke-width:1.0;" width="10" x="354" y="663.8203"/><rect fill="#FFFFFF" filter="url(#f12nkrhlnboks2)" height="956.9844" style="stroke:#A80036;stroke-width:1.0;" width="10" x="529" y="70.4297"/><rect fill="#FFFFFF" filter="url(#f12nkrhlnboks2)" height="956.9844" style="stroke:#A80036;stroke-width:1.0;" width="10" x="705" y="70.4297"/><rect fill="#FFFFFF" filter="url(#f12nkrhlnboks2)" height="956.9844" style="stroke:#A80036;stroke-width:1.0;" width="10" x="795.5" y="70.4297"/><rect fill="#FFFFFF" filter="url(#f12nkrhlnboks2)" height="956.9844" style="stroke:#A80036;stroke-width:1.0;" width="10" x="894" y="70.4297"/><rect fill="#FFFFFF" filter="url(#f12nkrhlnboks2)" height="627.5234" style="stroke:#A80036;stroke-width:1.0;" width="10" x="1006" y="70.4297"/><rect fill="#FFFFFF" filter="url(#f12nkrhlnboks2)" height="300.3281" style="stroke:#A80036;stroke-width:1.0;" width="10" x="1006" y="727.0859"/><rect fill="#FFFFFF" filter="url(#f12nkrhlnboks2)" height="527.125" style="stroke:#A80036;stroke-width:1.0;" width="10" x="1113" y="70.4297"/><rect fill="#FFFFFF" filter="url(#f12nkrhlnboks2)" height="271.1953" style="stroke:#A80036;stroke-width:1.0;" width="10" x="1113" y="756.2188"/><rect fill="#FFFFFF" filter="url(#f12nkrhlnboks2)" height="497.9922" style="stroke:#A80036;stroke-width:1.0;" width="10" x="1243" y="70.4297"/><rect fill="#FFFFFF" filter="url(#f12nkrhlnboks2)" height="242.0625" style="stroke:#A80036;stroke-width:1.0;" width="10" x="1243" y="785.3516"/><rect fill="#FFFFFF" filter="url(#f12nkrhlnboks2)" height="468.8594" style="stroke:#A80036;stroke-width:1.0;" width="10" x="1373" y="70.4297"/><rect fill="#FFFFFF" filter="url(#f12nkrhlnboks2)" height="183.7969" style="stroke:#A80036;stroke-width:1.0;" width="10" x="1373" y="843.6172"/><rect fill="#FFFFFF" filter="url(#f12nkrhlnboks2)" height="410.5938" style="stroke:#A80036;stroke-width:1.0;" width="10" x="1509" y="70.4297"/><rect fill="#FFFFFF" filter="url(#f12nkrhlnboks2)" height="154.6641" style="stroke:#A80036;stroke-width:1.0;" width="10" x="1509" y="872.75"/><rect fill="#FFFFFF" filter="url(#f12nkrhlnboks2)" height="956.9844" style="stroke:#A80036;stroke-width:1.0;" width="10" x="1658.5" y="70.4297"/><rect fill="#FFFFFF" filter="url(#f12nkrhlnboks2)" height="956.9844" style="stroke:#A80036;stroke-width:1.0;" width="10" x="1879.5" y="70.4297"/><rect fill="#FFFFFF" filter="url(#f12nkrhlnboks2)" height="956.9844" style="stroke:#A80036;stroke-width:1.0;" width="10" x="2100.5" y="70.4297"/><polygon fill="#A80036" points="156,87.5625,166,91.5625,156,95.5625,160,91.5625" style="stroke:#A80036;stroke-width:1.0;"/><line style="stroke:#A80036;stroke-width:1.0;" x1="0" x2="162" y1="91.5625" y2="91.5625"/><text fill="#000000" font-family="sans-serif" font-size="13" lengthAdjust="spacing" textLength="149" x="7" y="86.4966">_ConfigurationChanged</text><polygon fill="#A80036" points="693,116.6953,703,120.6953,693,124.6953,697,120.6953" style="stroke:#A80036;stroke-width:1.0;"/><line style="stroke:#A80036;stroke-width:1.0;" x1="178" x2="699" y1="120.6953" y2="120.6953"/><text fill="#000000" font-family="sans-serif" font-size="13" lengthAdjust="spacing" textLength="149" x="185" y="115.6294">_ConfigurationChanged</text><polygon fill="#A80036" points="189,145.8281,179,149.8281,189,153.8281,185,149.8281" style="stroke:#A80036;stroke-width:1.0;"/><line style="stroke:#A80036;stroke-width:1.0;" x1="183" x2="704" y1="149.8281" y2="149.8281"/><text fill="#000000" font-family="sans-serif" font-size="13" lengthAdjust="spacing" textLength="142" x="195" y="144.7622">ConfigurationChanged</text><polygon fill="#A80036" points="332,174.9609,342,178.9609,332,182.9609,336,178.9609" style="stroke:#A80036;stroke-width:1.0;"/><line style="stroke:#A80036;stroke-width:1.0;" x1="178" x2="338" y1="178.9609" y2="178.9609"/><text fill="#000000" font-family="sans-serif" font-size="13" lengthAdjust="spacing" textLength="142" x="185" y="173.895">ConfigurationChanged</text><line style="stroke:#A80036;stroke-width:1.0;" x1="359" x2="401" y1="208.0938" y2="208.0938"/><line style="stroke:#A80036;stroke-width:1.0;" x1="401" x2="401" y1="208.0938" y2="221.0938"/><line style="stroke:#A80036;stroke-width:1.0;" x1="360" x2="401" y1="221.0938" y2="221.0938"/><polygon fill="#A80036" points="370,217.0938,360,221.0938,370,225.0938,366,221.0938" style="stroke:#A80036;stroke-width:1.0;"/><text fill="#000000" font-family="sans-serif" font-size="13" lengthAdjust="spacing" textLength="135" x="366" y="203.0278">IsResourcesAllocated</text><line style="stroke:#A80036;stroke-width:1.0;" x1="354" x2="401" y1="275.2266" y2="275.2266"/><line style="stroke:#A80036;stroke-width:1.0;" x1="401" x2="401" y1="275.2266" y2="288.2266"/><line style="stroke:#A80036;stroke-width:1.0;" x1="360" x2="401" y1="288.2266" y2="288.2266"/><polygon fill="#A80036" points="370,284.2266,360,288.2266,370,292.2266,366,288.2266" style="stroke:#A80036;stroke-width:1.0;"/><text fill="#000000" font-family="sans-serif" font-size="13" lengthAdjust="spacing" textLength="131" x="366" y="270.1606">TryRebuildResources</text><line style="stroke:#A80036;stroke-width:1.0;" x1="359" x2="406" y1="317.3594" y2="317.3594"/><line style="stroke:#A80036;stroke-width:1.0;" x1="406" x2="406" y1="317.3594" y2="330.3594"/><line style="stroke:#A80036;stroke-width:1.0;" x1="365" x2="406" y1="330.3594" y2="330.3594"/><polygon fill="#A80036" points="375,326.3594,365,330.3594,375,334.3594,371,330.3594" style="stroke:#A80036;stroke-width:1.0;"/><text fill="#000000" font-family="sans-serif" font-size="13" lengthAdjust="spacing" textLength="94" x="371" y="312.2935">FreeResources</text><polygon fill="#A80036" points="517,360.4922,527,364.4922,517,368.4922,521,364.4922" style="stroke:#A80036;stroke-width:1.0;"/><line style="stroke:#A80036;stroke-width:1.0;" x1="364" x2="523" y1="364.4922" y2="364.4922"/><text fill="#000000" font-family="sans-serif" font-size="13" lengthAdjust="spacing" textLength="141" x="371" y="359.4263">SafeWaitForDeviceIdle</text><polygon fill="#A80036" points="1646.5,389.625,1656.5,393.625,1646.5,397.625,1650.5,393.625" style="stroke:#A80036;stroke-width:1.0;"/><line style="stroke:#A80036;stroke-width:1.0;" x1="364" x2="1652.5" y1="393.625" y2="393.625"/><text fill="#000000" font-family="sans-serif" font-size="13" lengthAdjust="spacing" textLength="187" x="371" y="388.5591">DestroyDependentResources</text><polygon fill="#A80036" points="1867.5,418.7578,1877.5,422.7578,1867.5,426.7578,1871.5,422.7578" style="stroke:#A80036;stroke-width:1.0;"/><line style="stroke:#A80036;stroke-width:1.0;" x1="1668.5" x2="1873.5" y1="422.7578" y2="422.7578"/><text fill="#000000" font-family="sans-serif" font-size="13" lengthAdjust="spacing" textLength="187" x="1675.5" y="417.6919">DestroyDependentResources</text><polygon fill="#A80036" points="2088.5,447.8906,2098.5,451.8906,2088.5,455.8906,2092.5,451.8906" style="stroke:#A80036;stroke-width:1.0;"/><line style="stroke:#A80036;stroke-width:1.0;" x1="1889.5" x2="2094.5" y1="451.8906" y2="451.8906"/><text fill="#000000" font-family="sans-serif" font-size="13" lengthAdjust="spacing" textLength="187" x="1896.5" y="446.8247">DestroyDependentResources</text><polygon fill="#A80036" points="1502,477.0234,1512,481.0234,1502,485.0234,1506,481.0234" style="stroke:#A80036;stroke-width:1.0;"/><line style="stroke:#A80036;stroke-width:1.0;" x1="364" x2="1508" y1="481.0234" y2="481.0234"/><text fill="#000000" font-family="sans-serif" font-size="13" lengthAdjust="spacing" textLength="33" x="371" y="475.9575">Clear</text><polygon fill="#A80036" points="189,506.1563,179,510.1563,189,514.1563,185,510.1563" style="stroke:#A80036;stroke-width:1.0;"/><line style="stroke:#A80036;stroke-width:1.0;" x1="183" x2="353" y1="510.1563" y2="510.1563"/><text fill="#000000" font-family="sans-serif" font-size="13" lengthAdjust="spacing" textLength="112" x="195" y="505.0903">OnFreeResources</text><polygon fill="#A80036" points="1366,535.2891,1376,539.2891,1366,543.2891,1370,539.2891" style="stroke:#A80036;stroke-width:1.0;"/><line style="stroke:#A80036;stroke-width:1.0;" x1="178" x2="1372" y1="539.2891" y2="539.2891"/><text fill="#000000" font-family="sans-serif" font-size="13" lengthAdjust="spacing" textLength="50" x="185" y="534.2231">Destroy</text><polygon fill="#A80036" points="1236,564.4219,1246,568.4219,1236,572.4219,1240,568.4219" style="stroke:#A80036;stroke-width:1.0;"/><line style="stroke:#A80036;stroke-width:1.0;" x1="364" x2="1242" y1="568.4219" y2="568.4219"/><text fill="#000000" font-family="sans-serif" font-size="13" lengthAdjust="spacing" textLength="36" x="371" y="563.356">Reset</text><polygon fill="#A80036" points="1106,593.5547,1116,597.5547,1106,601.5547,1110,597.5547" style="stroke:#A80036;stroke-width:1.0;"/><line style="stroke:#A80036;stroke-width:1.0;" x1="364" x2="1112" y1="597.5547" y2="597.5547"/><text fill="#000000" font-family="sans-serif" font-size="13" lengthAdjust="spacing" textLength="36" x="371" y="592.4888">Reset</text><polygon fill="#A80036" points="517,622.6875,527,626.6875,517,630.6875,521,626.6875" style="stroke:#A80036;stroke-width:1.0;"/><line style="stroke:#A80036;stroke-width:1.0;" x1="359" x2="523" y1="626.6875" y2="626.6875"/><text fill="#000000" font-family="sans-serif" font-size="13" lengthAdjust="spacing" textLength="141" x="366" y="621.6216">SafeWaitForDeviceIdle</text><line style="stroke:#A80036;stroke-width:1.0;" x1="359" x2="406" y1="650.8203" y2="650.8203"/><line style="stroke:#A80036;stroke-width:1.0;" x1="406" x2="406" y1="650.8203" y2="663.8203"/><line style="stroke:#A80036;stroke-width:1.0;" x1="365" x2="406" y1="663.8203" y2="663.8203"/><polygon fill="#A80036" points="375,659.8203,365,663.8203,375,667.8203,371,663.8203" style="stroke:#A80036;stroke-width:1.0;"/><text fill="#000000" font-family="sans-serif" font-size="13" lengthAdjust="spacing" textLength="97" x="371" y="645.7544">BuildResources</text><polygon fill="#A80036" points="2222,693.9531,2232,697.9531,2222,701.9531,2226,697.9531" style="stroke:#A80036;stroke-width:1.0;"/><line style="stroke:#A80036;stroke-width:1.0;" x1="364" x2="2228" y1="697.9531" y2="697.9531"/><text fill="#000000" font-family="sans-serif" font-size="13" lengthAdjust="spacing" textLength="111" x="371" y="692.8872">CreateSwapchain</text><polygon fill="#A80036" points="1027,723.0859,1017,727.0859,1027,731.0859,1023,727.0859" style="stroke:#A80036;stroke-width:1.0;"/><line style="stroke:#A80036;stroke-width:1.0;" x1="1021" x2="2233" y1="727.0859" y2="727.0859"/><text fill="#000000" font-family="sans-serif" font-size="13" lengthAdjust="spacing" textLength="62" x="1033" y="722.02">Construct</text><polygon fill="#A80036" points="1101,752.2188,1111,756.2188,1101,760.2188,1105,756.2188" style="stroke:#A80036;stroke-width:1.0;"/><line style="stroke:#A80036;stroke-width:1.0;" x1="364" x2="1107" y1="756.2188" y2="756.2188"/><text fill="#000000" font-family="sans-serif" font-size="13" lengthAdjust="spacing" textLength="62" x="371" y="751.1528">Construct</text><polygon fill="#A80036" points="1231,781.3516,1241,785.3516,1231,789.3516,1235,785.3516" style="stroke:#A80036;stroke-width:1.0;"/><line style="stroke:#A80036;stroke-width:1.0;" x1="364" x2="1237" y1="785.3516" y2="785.3516"/><text fill="#000000" font-family="sans-serif" font-size="13" lengthAdjust="spacing" textLength="192" x="371" y="780.2856">Reset(swapChainImageCount)</text><polygon fill="#A80036" points="189,810.4844,179,814.4844,189,818.4844,185,814.4844" style="stroke:#A80036;stroke-width:1.0;"/><line style="stroke:#A80036;stroke-width:1.0;" x1="183" x2="353" y1="814.4844" y2="814.4844"/><text fill="#000000" font-family="sans-serif" font-size="13" lengthAdjust="spacing" textLength="115" x="195" y="809.4185">OnBuildResources</text><polygon fill="#A80036" points="1361,839.6172,1371,843.6172,1361,847.6172,1365,843.6172" style="stroke:#A80036;stroke-width:1.0;"/><line style="stroke:#A80036;stroke-width:1.0;" x1="178" x2="1367" y1="843.6172" y2="843.6172"/><text fill="#000000" font-family="sans-serif" font-size="13" lengthAdjust="spacing" textLength="62" x="185" y="838.5513">Construct</text><polygon fill="#A80036" points="1497,868.75,1507,872.75,1497,876.75,1501,872.75" style="stroke:#A80036;stroke-width:1.0;"/><line style="stroke:#A80036;stroke-width:1.0;" x1="364" x2="1503" y1="872.75" y2="872.75"/><text fill="#000000" font-family="sans-serif" font-size="13" lengthAdjust="spacing" textLength="43" x="371" y="867.6841">Create</text><polygon fill="#A80036" points="1646.5,897.8828,1656.5,901.8828,1646.5,905.8828,1650.5,901.8828" style="stroke:#A80036;stroke-width:1.0;"/><line style="stroke:#A80036;stroke-width:1.0;" x1="364" x2="1652.5" y1="901.8828" y2="901.8828"/><text fill="#000000" font-family="sans-serif" font-size="13" lengthAdjust="spacing" textLength="180" x="371" y="896.8169">CreateDependentResources</text><polygon fill="#A80036" points="1867.5,927.0156,1877.5,931.0156,1867.5,935.0156,1871.5,931.0156" style="stroke:#A80036;stroke-width:1.0;"/><line style="stroke:#A80036;stroke-width:1.0;" x1="1668.5" x2="1873.5" y1="931.0156" y2="931.0156"/><text fill="#000000" font-family="sans-serif" font-size="13" lengthAdjust="spacing" textLength="180" x="1675.5" y="925.9497">CreateDependentResources</text><polygon fill="#A80036" points="2088.5,956.1484,2098.5,960.1484,2088.5,964.1484,2092.5,960.1484" style="stroke:#A80036;stroke-width:1.0;"/><line style="stroke:#A80036;stroke-width:1.0;" x1="1889.5" x2="2094.5" y1="960.1484" y2="960.1484"/><text fill="#000000" font-family="sans-serif" font-size="13" lengthAdjust="spacing" textLength="180" x="1896.5" y="955.0825">CreateDependentResources</text><polygon fill="#A80036" points="517,985.2813,527,989.2813,517,993.2813,521,989.2813" style="stroke:#A80036;stroke-width:1.0;"/><line style="stroke:#A80036;stroke-width:1.0;" x1="354" x2="523" y1="989.2813" y2="989.2813"/><text fill="#000000" font-family="sans-serif" font-size="13" lengthAdjust="spacing" textLength="142" x="361" y="984.2153">ConfigurationChanged</text><polygon fill="#A80036" points="693,1014.4141,703,1018.4141,693,1022.4141,697,1018.4141" style="stroke:#A80036;stroke-width:1.0;"/><line style="stroke:#A80036;stroke-width:1.0;" x1="539" x2="699" y1="1018.4141" y2="1018.4141"/><text fill="#000000" font-family="sans-serif" font-size="13" lengthAdjust="spacing" textLength="142" x="546" y="1013.3481">ConfigurationChanged</text><!--MD5=[ecb837f9fde1107553168b46c8369526]
@startuml
activate CustomDemoApp
activate DemoAppVulkanBasic
activate DemoAppVulkan
activate ADemoApp

box "AppTemplate" #LightBlue
    participant DemoAppVulkanBasic
    participant DemoAppVulkan
    participant ADemoApp
end box

activate Device
activate DeviceQueue
activate Swapchain
activate DepthBuffer
activate CommandBuffers
activate RenderPass
activate SwapchainRecords
activate GraphicsService
activate NativeGraphicsService
activate QuadBatch

->CustomDemoApp: _ConfigurationChanged
CustomDemoApp->ADemoApp: _ConfigurationChanged
ADemoApp->CustomDemoApp: ConfigurationChanged
CustomDemoApp->DemoAppVulkanBasic: ConfigurationChanged
DemoAppVulkanBasic->DemoAppVulkanBasic++: IsResourcesAllocated
deactivate DemoAppVulkanBasic
DemoAppVulkanBasic->DemoAppVulkanBasic++: TryRebuildResources
DemoAppVulkanBasic->DemoAppVulkanBasic++: FreeResources
DemoAppVulkanBasic->DemoAppVulkan: SafeWaitForDeviceIdle
DemoAppVulkanBasic->GraphicsService: DestroyDependentResources
GraphicsService->NativeGraphicsService: DestroyDependentResources
NativeGraphicsService->QuadBatch: DestroyDependentResources
DemoAppVulkanBasic->SwapchainRecords: Clear
deactivate SwapchainRecords
DemoAppVulkanBasic->CustomDemoApp: OnFreeResources
CustomDemoApp->RenderPass: Destroy
deactivate RenderPass
DemoAppVulkanBasic->CommandBuffers: Reset
deactivate CommandBuffers
DemoAppVulkanBasic->DepthBuffer: Reset
deactivate DepthBuffer
DemoAppVulkanBasic->DemoAppVulkan: SafeWaitForDeviceIdle
deactivate DemoAppVulkanBasic
DemoAppVulkanBasic->DemoAppVulkanBasic++: BuildResources
DemoAppVulkanBasic->SwapchainKHRUtil: CreateSwapchain
deactivate Swapchain
SwapchainKHRUtil->Swapchain++: Construct
DemoAppVulkanBasic->DepthBuffer++: Construct
DemoAppVulkanBasic->CommandBuffers++: Reset(swapChainImageCount)
DemoAppVulkanBasic->CustomDemoApp: OnBuildResources
CustomDemoApp->RenderPass++: Construct
DemoAppVulkanBasic->SwapchainRecords++: Create
DemoAppVulkanBasic->GraphicsService: CreateDependentResources
GraphicsService->NativeGraphicsService: CreateDependentResources
NativeGraphicsService->QuadBatch: CreateDependentResources
deactivate DemoAppVulkanBasic
deactivate DemoAppVulkanBasic
DemoAppVulkanBasic->DemoAppVulkan: ConfigurationChanged
DemoAppVulkan->ADemoApp: ConfigurationChanged
@enduml

PlantUML version 1.2021.01(Tue Feb 02 07:55:08 UTC 2021)
(GPL source distribution)
Java Runtime: OpenJDK Runtime Environment
JVM: OpenJDK 64-Bit Server VM
Default Encoding: UTF-8
Language: en
Country: null
--></g></svg>