<?xml version="1.0" encoding="UTF-8" standalone="no"?><svg xmlns="http://www.w3.org/2000/svg" xmlns:xlink="http://www.w3.org/1999/xlink" contentScriptType="application/ecmascript" contentStyleType="text/css" height="1867px" preserveAspectRatio="none" style="width:2040px;height:1867px;" version="1.1" viewBox="0 0 2040 1867" width="2040px" zoomAndPan="magnify"><defs><filter height="300%" id="ftfopsw9l0757" width="300%" x="-1" y="-1"><feGaussianBlur result="blurOut" stdDeviation="2.0"/><feColorMatrix in="blurOut" result="blurOut2" type="matrix" values="0 0 0 0 0 0 0 0 0 0 0 0 0 0 0 0 0 0 .4 0"/><feOffset dx="4.0" dy="4.0" in="blurOut2" result="blurOut3"/><feBlend in="SourceGraphic" in2="blurOut3" mode="normal"/></filter></defs><g><rect fill="#ADD8E6" height="1855.2969" style="stroke:#A80036;stroke-width:1.0;" width="427" x="208.5" y="6"/><text fill="#000000" font-family="sans-serif" font-size="13" font-weight="bold" lengthAdjust="spacing" textLength="99" x="372.5" y="18.0669">AppTemplate</text><rect fill="#FFFFFF" filter="url(#ftfopsw9l0757)" height="1743.5703" style="stroke:#A80036;stroke-width:1.0;" width="10" x="127" y="70.4297"/><rect fill="#FFFFFF" filter="url(#ftfopsw9l0757)" height="1743.5703" style="stroke:#A80036;stroke-width:1.0;" width="10" x="292.5" y="70.4297"/><rect fill="#FFFFFF" filter="url(#ftfopsw9l0757)" height="99.2656" style="stroke:#A80036;stroke-width:1.0;" width="10" x="297.5" y="1698.7344"/><rect fill="#FFFFFF" filter="url(#ftfopsw9l0757)" height="28" style="stroke:#A80036;stroke-width:1.0;" width="10" x="302.5" y="1770"/><rect fill="#FFFFFF" filter="url(#ftfopsw9l0757)" height="1743.5703" style="stroke:#A80036;stroke-width:1.0;" width="10" x="454" y="70.4297"/><rect fill="#FFFFFF" filter="url(#ftfopsw9l0757)" height="1743.5703" style="stroke:#A80036;stroke-width:1.0;" width="10" x="578.5" y="70.4297"/><rect fill="#FFFFFF" filter="url(#ftfopsw9l0757)" height="1743.5703" style="stroke:#A80036;stroke-width:1.0;" width="10" x="669" y="70.4297"/><rect fill="#FFFFFF" filter="url(#ftfopsw9l0757)" height="1743.5703" style="stroke:#A80036;stroke-width:1.0;" width="10" x="767.5" y="70.4297"/><rect fill="#FFFFFF" filter="url(#ftfopsw9l0757)" height="1743.5703" style="stroke:#A80036;stroke-width:1.0;" width="10" x="879.5" y="70.4297"/><rect fill="#FFFFFF" filter="url(#ftfopsw9l0757)" height="1743.5703" style="stroke:#A80036;stroke-width:1.0;" width="10" x="1004.5" y="70.4297"/><rect fill="#FFFFFF" filter="url(#ftfopsw9l0757)" height="1743.5703" style="stroke:#A80036;stroke-width:1.0;" width="10" x="1134.5" y="70.4297"/><rect fill="#FFFFFF" filter="url(#ftfopsw9l0757)" height="1743.5703" style="stroke:#A80036;stroke-width:1.0;" width="10" x="1270.5" y="70.4297"/><rect fill="#FFFFFF" filter="url(#ftfopsw9l0757)" height="1743.5703" style="stroke:#A80036;stroke-width:1.0;" width="10" x="1420" y="70.4297"/><rect fill="#FFFFFF" filter="url(#ftfopsw9l0757)" height="1743.5703" style="stroke:#A80036;stroke-width:1.0;" width="10" x="1580" y="70.4297"/><rect fill="#FFFFFF" filter="url(#ftfopsw9l0757)" height="1743.5703" style="stroke:#A80036;stroke-width:1.0;" width="10" x="1723" y="70.4297"/><rect fill="#FFFFFF" filter="url(#ftfopsw9l0757)" height="1743.5703" style="stroke:#A80036;stroke-width:1.0;" width="10" x="1840.5" y="70.4297"/><rect fill="#FFFFFF" filter="url(#ftfopsw9l0757)" height="63.2656" style="stroke:#A80036;stroke-width:1.0;" width="10" x="1845.5" y="1031.8125"/><rect fill="#FFFFFF" filter="url(#ftfopsw9l0757)" height="63.2656" style="stroke:#A80036;stroke-width:1.0;" width="10" x="1845.5" y="1336.1406"/><rect fill="#FFFFFF" filter="url(#ftfopsw9l0757)" height="1743.5703" style="stroke:#A80036;stroke-width:1.0;" width="10" x="1968" y="70.4297"/><line style="stroke:#A80036;stroke-width:1.0;stroke-dasharray:5.0,5.0;" x1="131.5" x2="131.5" y1="60.4297" y2="1823"/><line style="stroke:#A80036;stroke-width:1.0;stroke-dasharray:5.0,5.0;" x1="297.5" x2="297.5" y1="60.4297" y2="1823"/><line style="stroke:#A80036;stroke-width:1.0;stroke-dasharray:5.0,5.0;" x1="458.5" x2="458.5" y1="60.4297" y2="1823"/><line style="stroke:#A80036;stroke-width:1.0;stroke-dasharray:5.0,5.0;" x1="583.5" x2="583.5" y1="60.4297" y2="1823"/><line style="stroke:#A80036;stroke-width:1.0;stroke-dasharray:5.0,5.0;" x1="673.5" x2="673.5" y1="60.4297" y2="1823"/><line style="stroke:#A80036;stroke-width:1.0;stroke-dasharray:5.0,5.0;" x1="772.5" x2="772.5" y1="60.4297" y2="1823"/><line style="stroke:#A80036;stroke-width:1.0;stroke-dasharray:5.0,5.0;" x1="884.5" x2="884.5" y1="60.4297" y2="1823"/><line style="stroke:#A80036;stroke-width:1.0;stroke-dasharray:5.0,5.0;" x1="1009.5" x2="1009.5" y1="60.4297" y2="1823"/><line style="stroke:#A80036;stroke-width:1.0;stroke-dasharray:5.0,5.0;" x1="1139.5" x2="1139.5" y1="60.4297" y2="1823"/><line style="stroke:#A80036;stroke-width:1.0;stroke-dasharray:5.0,5.0;" x1="1275.5" x2="1275.5" y1="60.4297" y2="1823"/><line style="stroke:#A80036;stroke-width:1.0;stroke-dasharray:5.0,5.0;" x1="1424.5" x2="1424.5" y1="60.4297" y2="1823"/><line style="stroke:#A80036;stroke-width:1.0;stroke-dasharray:5.0,5.0;" x1="1584.5" x2="1584.5" y1="60.4297" y2="1823"/><line style="stroke:#A80036;stroke-width:1.0;stroke-dasharray:5.0,5.0;" x1="1727.5" x2="1727.5" y1="60.4297" y2="1823"/><line style="stroke:#A80036;stroke-width:1.0;stroke-dasharray:5.0,5.0;" x1="1845.5" x2="1845.5" y1="60.4297" y2="1823"/><line style="stroke:#A80036;stroke-width:1.0;stroke-dasharray:5.0,5.0;" x1="1972.5" x2="1972.5" y1="60.4297" y2="1823"/><rect fill="#FEFECE" filter="url(#ftfopsw9l0757)" height="30.2969" style="stroke:#A80036;stroke-width:1.5;" width="137" x="61.5" y="25.1328"/><text fill="#000000" font-family="sans-serif" font-size="14" lengthAdjust="spacing" textLength="123" x="68.5" y="45.1279">CustomDemoApp</text><rect fill="#FEFECE" filter="url(#ftfopsw9l0757)" height="30.2969" style="stroke:#A80036;stroke-width:1.5;" width="137" x="61.5" y="1822"/><text fill="#000000" font-family="sans-serif" font-size="14" lengthAdjust="spacing" textLength="123" x="68.5" y="1841.9951">CustomDemoApp</text><rect fill="#FEFECE" filter="url(#ftfopsw9l0757)" height="30.2969" style="stroke:#A80036;stroke-width:1.5;" width="166" x="212.5" y="25.1328"/><text fill="#000000" font-family="sans-serif" font-size="14" lengthAdjust="spacing" textLength="152" x="219.5" y="45.1279">DemoAppVulkanBasic</text><rect fill="#FEFECE" filter="url(#ftfopsw9l0757)" height="30.2969" style="stroke:#A80036;stroke-width:1.5;" width="166" x="212.5" y="1822"/><text fill="#000000" font-family="sans-serif" font-size="14" lengthAdjust="spacing" textLength="152" x="219.5" y="1841.9951">DemoAppVulkanBasic</text><rect fill="#FEFECE" filter="url(#ftfopsw9l0757)" height="30.2969" style="stroke:#A80036;stroke-width:1.5;" width="129" x="392.5" y="25.1328"/><text fill="#000000" font-family="sans-serif" font-size="14" lengthAdjust="spacing" textLength="115" x="399.5" y="45.1279">DemoAppVulkan</text><rect fill="#FEFECE" filter="url(#ftfopsw9l0757)" height="30.2969" style="stroke:#A80036;stroke-width:1.5;" width="129" x="392.5" y="1822"/><text fill="#000000" font-family="sans-serif" font-size="14" lengthAdjust="spacing" textLength="115" x="399.5" y="1841.9951">DemoAppVulkan</text><rect fill="#FEFECE" filter="url(#ftfopsw9l0757)" height="30.2969" style="stroke:#A80036;stroke-width:1.5;" width="92" x="535.5" y="25.1328"/><text fill="#000000" font-family="sans-serif" font-size="14" lengthAdjust="spacing" textLength="78" x="542.5" y="45.1279">ADemoApp</text><rect fill="#FEFECE" filter="url(#ftfopsw9l0757)" height="30.2969" style="stroke:#A80036;stroke-width:1.5;" width="92" x="535.5" y="1822"/><text fill="#000000" font-family="sans-serif" font-size="14" lengthAdjust="spacing" textLength="78" x="542.5" y="1841.9951">ADemoApp</text><rect fill="#FEFECE" filter="url(#ftfopsw9l0757)" height="30.2969" style="stroke:#A80036;stroke-width:1.5;" width="61" x="641.5" y="25.1328"/><text fill="#000000" font-family="sans-serif" font-size="14" lengthAdjust="spacing" textLength="47" x="648.5" y="45.1279">Device</text><rect fill="#FEFECE" filter="url(#ftfopsw9l0757)" height="30.2969" style="stroke:#A80036;stroke-width:1.5;" width="61" x="641.5" y="1822"/><text fill="#000000" font-family="sans-serif" font-size="14" lengthAdjust="spacing" textLength="47" x="648.5" y="1841.9951">Device</text><rect fill="#FEFECE" filter="url(#ftfopsw9l0757)" height="30.2969" style="stroke:#A80036;stroke-width:1.5;" width="108" x="716.5" y="25.1328"/><text fill="#000000" font-family="sans-serif" font-size="14" lengthAdjust="spacing" textLength="94" x="723.5" y="45.1279">DeviceQueue</text><rect fill="#FEFECE" filter="url(#ftfopsw9l0757)" height="30.2969" style="stroke:#A80036;stroke-width:1.5;" width="108" x="716.5" y="1822"/><text fill="#000000" font-family="sans-serif" font-size="14" lengthAdjust="spacing" textLength="94" x="723.5" y="1841.9951">DeviceQueue</text><rect fill="#FEFECE" filter="url(#ftfopsw9l0757)" height="30.2969" style="stroke:#A80036;stroke-width:1.5;" width="88" x="838.5" y="25.1328"/><text fill="#000000" font-family="sans-serif" font-size="14" lengthAdjust="spacing" textLength="74" x="845.5" y="45.1279">Swapchain</text><rect fill="#FEFECE" filter="url(#ftfopsw9l0757)" height="30.2969" style="stroke:#A80036;stroke-width:1.5;" width="88" x="838.5" y="1822"/><text fill="#000000" font-family="sans-serif" font-size="14" lengthAdjust="spacing" textLength="74" x="845.5" y="1841.9951">Swapchain</text><rect fill="#FEFECE" filter="url(#ftfopsw9l0757)" height="30.2969" style="stroke:#A80036;stroke-width:1.5;" width="134" x="940.5" y="25.1328"/><text fill="#000000" font-family="sans-serif" font-size="14" lengthAdjust="spacing" textLength="120" x="947.5" y="45.1279">CommandBuffers</text><rect fill="#FEFECE" filter="url(#ftfopsw9l0757)" height="30.2969" style="stroke:#A80036;stroke-width:1.5;" width="134" x="940.5" y="1822"/><text fill="#000000" font-family="sans-serif" font-size="14" lengthAdjust="spacing" textLength="120" x="947.5" y="1841.9951">CommandBuffers</text><rect fill="#FEFECE" filter="url(#ftfopsw9l0757)" height="30.2969" style="stroke:#A80036;stroke-width:1.5;" width="98" x="1088.5" y="25.1328"/><text fill="#000000" font-family="sans-serif" font-size="14" lengthAdjust="spacing" textLength="84" x="1095.5" y="45.1279">RenderPass</text><rect fill="#FEFECE" filter="url(#ftfopsw9l0757)" height="30.2969" style="stroke:#A80036;stroke-width:1.5;" width="98" x="1088.5" y="1822"/><text fill="#000000" font-family="sans-serif" font-size="14" lengthAdjust="spacing" textLength="84" x="1095.5" y="1841.9951">RenderPass</text><rect fill="#FEFECE" filter="url(#ftfopsw9l0757)" height="30.2969" style="stroke:#A80036;stroke-width:1.5;" width="146" x="1200.5" y="25.1328"/><text fill="#000000" font-family="sans-serif" font-size="14" lengthAdjust="spacing" textLength="132" x="1207.5" y="45.1279">SwapchainRecords</text><rect fill="#FEFECE" filter="url(#ftfopsw9l0757)" height="30.2969" style="stroke:#A80036;stroke-width:1.5;" width="146" x="1200.5" y="1822"/><text fill="#000000" font-family="sans-serif" font-size="14" lengthAdjust="spacing" textLength="132" x="1207.5" y="1841.9951">SwapchainRecords</text><rect fill="#FEFECE" filter="url(#ftfopsw9l0757)" height="30.2969" style="stroke:#A80036;stroke-width:1.5;" width="125" x="1360.5" y="25.1328"/><text fill="#000000" font-family="sans-serif" font-size="14" lengthAdjust="spacing" textLength="111" x="1367.5" y="45.1279">GraphicsService</text><rect fill="#FEFECE" filter="url(#ftfopsw9l0757)" height="30.2969" style="stroke:#A80036;stroke-width:1.5;" width="125" x="1360.5" y="1822"/><text fill="#000000" font-family="sans-serif" font-size="14" lengthAdjust="spacing" textLength="111" x="1367.5" y="1841.9951">GraphicsService</text><rect fill="#FEFECE" filter="url(#ftfopsw9l0757)" height="30.2969" style="stroke:#A80036;stroke-width:1.5;" width="167" x="1499.5" y="25.1328"/><text fill="#000000" font-family="sans-serif" font-size="14" lengthAdjust="spacing" textLength="153" x="1506.5" y="45.1279">NativeGraphicsService</text><rect fill="#FEFECE" filter="url(#ftfopsw9l0757)" height="30.2969" style="stroke:#A80036;stroke-width:1.5;" width="167" x="1499.5" y="1822"/><text fill="#000000" font-family="sans-serif" font-size="14" lengthAdjust="spacing" textLength="153" x="1506.5" y="1841.9951">NativeGraphicsService</text><rect fill="#FEFECE" filter="url(#ftfopsw9l0757)" height="30.2969" style="stroke:#A80036;stroke-width:1.5;" width="91" x="1680.5" y="25.1328"/><text fill="#000000" font-family="sans-serif" font-size="14" lengthAdjust="spacing" textLength="77" x="1687.5" y="45.1279">QuadBatch</text><rect fill="#FEFECE" filter="url(#ftfopsw9l0757)" height="30.2969" style="stroke:#A80036;stroke-width:1.5;" width="91" x="1680.5" y="1822"/><text fill="#000000" font-family="sans-serif" font-size="14" lengthAdjust="spacing" textLength="77" x="1687.5" y="1841.9951">QuadBatch</text><rect fill="#FEFECE" filter="url(#ftfopsw9l0757)" height="30.2969" style="stroke:#A80036;stroke-width:1.5;" width="116" x="1785.5" y="25.1328"/><text fill="#000000" font-family="sans-serif" font-size="14" lengthAdjust="spacing" textLength="102" x="1792.5" y="45.1279">NativeBatch2D</text><rect fill="#FEFECE" filter="url(#ftfopsw9l0757)" height="30.2969" style="stroke:#A80036;stroke-width:1.5;" width="116" x="1785.5" y="1822"/><text fill="#000000" font-family="sans-serif" font-size="14" lengthAdjust="spacing" textLength="102" x="1792.5" y="1841.9951">NativeBatch2D</text><rect fill="#FEFECE" filter="url(#ftfopsw9l0757)" height="30.2969" style="stroke:#A80036;stroke-width:1.5;" width="111" x="1915.5" y="25.1328"/><text fill="#000000" font-family="sans-serif" font-size="14" lengthAdjust="spacing" textLength="97" x="1922.5" y="45.1279">ProfilerOverlay</text><rect fill="#FEFECE" filter="url(#ftfopsw9l0757)" height="30.2969" style="stroke:#A80036;stroke-width:1.5;" width="111" x="1915.5" y="1822"/><text fill="#000000" font-family="sans-serif" font-size="14" lengthAdjust="spacing" textLength="97" x="1922.5" y="1841.9951">ProfilerOverlay</text><rect fill="#FFFFFF" filter="url(#ftfopsw9l0757)" height="1743.5703" style="stroke:#A80036;stroke-width:1.0;" width="10" x="127" y="70.4297"/><rect fill="#FFFFFF" filter="url(#ftfopsw9l0757)" height="1743.5703" style="stroke:#A80036;stroke-width:1.0;" width="10" x="292.5" y="70.4297"/><rect fill="#FFFFFF" filter="url(#ftfopsw9l0757)" height="99.2656" style="stroke:#A80036;stroke-width:1.0;" width="10" x="297.5" y="1698.7344"/><rect fill="#FFFFFF" filter="url(#ftfopsw9l0757)" height="28" style="stroke:#A80036;stroke-width:1.0;" width="10" x="302.5" y="1770"/><rect fill="#FFFFFF" filter="url(#ftfopsw9l0757)" height="1743.5703" style="stroke:#A80036;stroke-width:1.0;" width="10" x="454" y="70.4297"/><rect fill="#FFFFFF" filter="url(#ftfopsw9l0757)" height="1743.5703" style="stroke:#A80036;stroke-width:1.0;" width="10" x="578.5" y="70.4297"/><rect fill="#FFFFFF" filter="url(#ftfopsw9l0757)" height="1743.5703" style="stroke:#A80036;stroke-width:1.0;" width="10" x="669" y="70.4297"/><rect fill="#FFFFFF" filter="url(#ftfopsw9l0757)" height="1743.5703" style="stroke:#A80036;stroke-width:1.0;" width="10" x="767.5" y="70.4297"/><rect fill="#FFFFFF" filter="url(#ftfopsw9l0757)" height="1743.5703" style="stroke:#A80036;stroke-width:1.0;" width="10" x="879.5" y="70.4297"/><rect fill="#FFFFFF" filter="url(#ftfopsw9l0757)" height="1743.5703" style="stroke:#A80036;stroke-width:1.0;" width="10" x="1004.5" y="70.4297"/><rect fill="#FFFFFF" filter="url(#ftfopsw9l0757)" height="1743.5703" style="stroke:#A80036;stroke-width:1.0;" width="10" x="1134.5" y="70.4297"/><rect fill="#FFFFFF" filter="url(#ftfopsw9l0757)" height="1743.5703" style="stroke:#A80036;stroke-width:1.0;" width="10" x="1270.5" y="70.4297"/><rect fill="#FFFFFF" filter="url(#ftfopsw9l0757)" height="1743.5703" style="stroke:#A80036;stroke-width:1.0;" width="10" x="1420" y="70.4297"/><rect fill="#FFFFFF" filter="url(#ftfopsw9l0757)" height="1743.5703" style="stroke:#A80036;stroke-width:1.0;" width="10" x="1580" y="70.4297"/><rect fill="#FFFFFF" filter="url(#ftfopsw9l0757)" height="1743.5703" style="stroke:#A80036;stroke-width:1.0;" width="10" x="1723" y="70.4297"/><rect fill="#FFFFFF" filter="url(#ftfopsw9l0757)" height="1743.5703" style="stroke:#A80036;stroke-width:1.0;" width="10" x="1840.5" y="70.4297"/><rect fill="#FFFFFF" filter="url(#ftfopsw9l0757)" height="63.2656" style="stroke:#A80036;stroke-width:1.0;" width="10" x="1845.5" y="1031.8125"/><rect fill="#FFFFFF" filter="url(#ftfopsw9l0757)" height="63.2656" style="stroke:#A80036;stroke-width:1.0;" width="10" x="1845.5" y="1336.1406"/><rect fill="#FFFFFF" filter="url(#ftfopsw9l0757)" height="1743.5703" style="stroke:#A80036;stroke-width:1.0;" width="10" x="1968" y="70.4297"/><polygon fill="#A80036" points="115,87.5625,125,91.5625,115,95.5625,119,91.5625" style="stroke:#A80036;stroke-width:1.0;"/><line style="stroke:#A80036;stroke-width:1.0;" x1="0" x2="121" y1="91.5625" y2="91.5625"/><text fill="#000000" font-family="sans-serif" font-size="13" lengthAdjust="spacing" textLength="75" x="7" y="86.4966">_PreUpdate</text><polygon fill="#A80036" points="566.5,116.6953,576.5,120.6953,566.5,124.6953,570.5,120.6953" style="stroke:#A80036;stroke-width:1.0;"/><line style="stroke:#A80036;stroke-width:1.0;" x1="137" x2="572.5" y1="120.6953" y2="120.6953"/><text fill="#000000" font-family="sans-serif" font-size="13" lengthAdjust="spacing" textLength="75" x="144" y="115.6294">_PreUpdate</text><polygon fill="#A80036" points="148,145.8281,138,149.8281,148,153.8281,144,149.8281" style="stroke:#A80036;stroke-width:1.0;"/><line style="stroke:#A80036;stroke-width:1.0;" x1="142" x2="577.5" y1="149.8281" y2="149.8281"/><text fill="#000000" font-family="sans-serif" font-size="13" lengthAdjust="spacing" textLength="68" x="154" y="144.7622">PreUpdate</text><polygon fill="#A80036" points="115,174.9609,125,178.9609,115,182.9609,119,178.9609" style="stroke:#A80036;stroke-width:1.0;"/><line style="stroke:#A80036;stroke-width:1.0;" x1="0" x2="121" y1="178.9609" y2="178.9609"/><text fill="#000000" font-family="sans-serif" font-size="13" lengthAdjust="spacing" textLength="87" x="7" y="173.895">_FixedUpdate</text><polygon fill="#A80036" points="566.5,204.0938,576.5,208.0938,566.5,212.0938,570.5,208.0938" style="stroke:#A80036;stroke-width:1.0;"/><line style="stroke:#A80036;stroke-width:1.0;" x1="137" x2="572.5" y1="208.0938" y2="208.0938"/><text fill="#000000" font-family="sans-serif" font-size="13" lengthAdjust="spacing" textLength="87" x="144" y="203.0278">_FixedUpdate</text><polygon fill="#A80036" points="148,233.2266,138,237.2266,148,241.2266,144,237.2266" style="stroke:#A80036;stroke-width:1.0;"/><line style="stroke:#A80036;stroke-width:1.0;" x1="142" x2="577.5" y1="237.2266" y2="237.2266"/><text fill="#000000" font-family="sans-serif" font-size="13" lengthAdjust="spacing" textLength="80" x="154" y="232.1606">FixedUpdate</text><polygon fill="#A80036" points="115,262.3594,125,266.3594,115,270.3594,119,266.3594" style="stroke:#A80036;stroke-width:1.0;"/><line style="stroke:#A80036;stroke-width:1.0;" x1="0" x2="121" y1="266.3594" y2="266.3594"/><text fill="#000000" font-family="sans-serif" font-size="13" lengthAdjust="spacing" textLength="54" x="7" y="261.2935">_Update</text><polygon fill="#A80036" points="566.5,291.4922,576.5,295.4922,566.5,299.4922,570.5,295.4922" style="stroke:#A80036;stroke-width:1.0;"/><line style="stroke:#A80036;stroke-width:1.0;" x1="137" x2="572.5" y1="295.4922" y2="295.4922"/><text fill="#000000" font-family="sans-serif" font-size="13" lengthAdjust="spacing" textLength="54" x="144" y="290.4263">_Update</text><polygon fill="#A80036" points="148,320.625,138,324.625,148,328.625,144,324.625" style="stroke:#A80036;stroke-width:1.0;"/><line style="stroke:#A80036;stroke-width:1.0;" x1="142" x2="577.5" y1="324.625" y2="324.625"/><text fill="#000000" font-family="sans-serif" font-size="13" lengthAdjust="spacing" textLength="47" x="154" y="319.5591">Update</text><polygon fill="#A80036" points="115,349.7578,125,353.7578,115,357.7578,119,353.7578" style="stroke:#A80036;stroke-width:1.0;"/><line style="stroke:#A80036;stroke-width:1.0;" x1="0" x2="121" y1="353.7578" y2="353.7578"/><text fill="#000000" font-family="sans-serif" font-size="13" lengthAdjust="spacing" textLength="82" x="7" y="348.6919">_PostUpdate</text><polygon fill="#A80036" points="566.5,378.8906,576.5,382.8906,566.5,386.8906,570.5,382.8906" style="stroke:#A80036;stroke-width:1.0;"/><line style="stroke:#A80036;stroke-width:1.0;" x1="137" x2="572.5" y1="382.8906" y2="382.8906"/><text fill="#000000" font-family="sans-serif" font-size="13" lengthAdjust="spacing" textLength="82" x="144" y="377.8247">_PostUpdate</text><polygon fill="#A80036" points="148,408.0234,138,412.0234,148,416.0234,144,412.0234" style="stroke:#A80036;stroke-width:1.0;"/><line style="stroke:#A80036;stroke-width:1.0;" x1="142" x2="577.5" y1="412.0234" y2="412.0234"/><text fill="#000000" font-family="sans-serif" font-size="13" lengthAdjust="spacing" textLength="75" x="154" y="406.9575">PostUpdate</text><polygon fill="#A80036" points="115,437.1563,125,441.1563,115,445.1563,119,441.1563" style="stroke:#A80036;stroke-width:1.0;"/><line style="stroke:#A80036;stroke-width:1.0;" x1="0" x2="121" y1="441.1563" y2="441.1563"/><text fill="#000000" font-family="sans-serif" font-size="13" lengthAdjust="spacing" textLength="108" x="7" y="436.0903">_TryPrepareDraw</text><polygon fill="#A80036" points="566.5,466.2891,576.5,470.2891,566.5,474.2891,570.5,470.2891" style="stroke:#A80036;stroke-width:1.0;"/><line style="stroke:#A80036;stroke-width:1.0;" x1="137" x2="572.5" y1="470.2891" y2="470.2891"/><text fill="#000000" font-family="sans-serif" font-size="13" lengthAdjust="spacing" textLength="108" x="144" y="465.2231">_TryPrepareDraw</text><polygon fill="#A80036" points="148,495.4219,138,499.4219,148,503.4219,144,499.4219" style="stroke:#A80036;stroke-width:1.0;"/><line style="stroke:#A80036;stroke-width:1.0;" x1="142" x2="577.5" y1="499.4219" y2="499.4219"/><text fill="#000000" font-family="sans-serif" font-size="13" lengthAdjust="spacing" textLength="101" x="154" y="494.356">TryPrepareDraw</text><polygon fill="#A80036" points="280.5,524.5547,290.5,528.5547,280.5,532.5547,284.5,528.5547" style="stroke:#A80036;stroke-width:1.0;"/><line style="stroke:#A80036;stroke-width:1.0;" x1="137" x2="286.5" y1="528.5547" y2="528.5547"/><text fill="#000000" font-family="sans-serif" font-size="13" lengthAdjust="spacing" textLength="101" x="144" y="523.4888">TryPrepareDraw</text><polygon fill="#A80036" points="115,553.6875,125,557.6875,115,561.6875,119,557.6875" style="stroke:#A80036;stroke-width:1.0;"/><line style="stroke:#A80036;stroke-width:1.0;" x1="0" x2="121" y1="557.6875" y2="557.6875"/><text fill="#000000" font-family="sans-serif" font-size="13" lengthAdjust="spacing" textLength="84" x="7" y="552.6216">_BeginFrame</text><polygon fill="#A80036" points="280.5,582.8203,290.5,586.8203,280.5,590.8203,284.5,586.8203" style="stroke:#A80036;stroke-width:1.0;"/><line style="stroke:#A80036;stroke-width:1.0;" x1="137" x2="286.5" y1="586.8203" y2="586.8203"/><text fill="#000000" font-family="sans-serif" font-size="13" lengthAdjust="spacing" textLength="84" x="144" y="581.7544">_BeginFrame</text><polygon fill="#A80036" points="1408,611.9531,1418,615.9531,1408,619.9531,1412,615.9531" style="stroke:#A80036;stroke-width:1.0;"/><line style="stroke:#A80036;stroke-width:1.0;" x1="302.5" x2="1414" y1="615.9531" y2="615.9531"/><text fill="#000000" font-family="sans-serif" font-size="13" lengthAdjust="spacing" textLength="77" x="309.5" y="610.8872">BeginFrame</text><polygon fill="#A80036" points="1568,641.0859,1578,645.0859,1568,649.0859,1572,645.0859" style="stroke:#A80036;stroke-width:1.0;"/><line style="stroke:#A80036;stroke-width:1.0;" x1="1430" x2="1574" y1="645.0859" y2="645.0859"/><text fill="#000000" font-family="sans-serif" font-size="13" lengthAdjust="spacing" textLength="77" x="1437" y="640.02">BeginFrame</text><polygon fill="#A80036" points="1711,670.2188,1721,674.2188,1711,678.2188,1715,674.2188" style="stroke:#A80036;stroke-width:1.0;"/><line style="stroke:#A80036;stroke-width:1.0;" x1="1590" x2="1717" y1="674.2188" y2="674.2188"/><text fill="#000000" font-family="sans-serif" font-size="13" lengthAdjust="spacing" textLength="77" x="1597" y="669.1528">BeginFrame</text><polygon fill="#A80036" points="115,699.3516,125,703.3516,115,707.3516,119,703.3516" style="stroke:#A80036;stroke-width:1.0;"/><line style="stroke:#A80036;stroke-width:1.0;" x1="0" x2="121" y1="703.3516" y2="703.3516"/><text fill="#000000" font-family="sans-serif" font-size="13" lengthAdjust="spacing" textLength="39" x="7" y="698.2856">_Draw</text><polygon fill="#A80036" points="280.5,728.4844,290.5,732.4844,280.5,736.4844,284.5,732.4844" style="stroke:#A80036;stroke-width:1.0;"/><line style="stroke:#A80036;stroke-width:1.0;" x1="137" x2="286.5" y1="732.4844" y2="732.4844"/><text fill="#000000" font-family="sans-serif" font-size="13" lengthAdjust="spacing" textLength="39" x="144" y="727.4185">_Draw</text><polygon fill="#A80036" points="566.5,757.6172,576.5,761.6172,566.5,765.6172,570.5,761.6172" style="stroke:#A80036;stroke-width:1.0;"/><line style="stroke:#A80036;stroke-width:1.0;" x1="302.5" x2="572.5" y1="761.6172" y2="761.6172"/><text fill="#000000" font-family="sans-serif" font-size="13" lengthAdjust="spacing" textLength="39" x="309.5" y="756.5513">_Draw</text><polygon fill="#A80036" points="313.5,786.75,303.5,790.75,313.5,794.75,309.5,790.75" style="stroke:#A80036;stroke-width:1.0;"/><line style="stroke:#A80036;stroke-width:1.0;" x1="307.5" x2="577.5" y1="790.75" y2="790.75"/><text fill="#000000" font-family="sans-serif" font-size="13" lengthAdjust="spacing" textLength="32" x="319.5" y="785.6841">Draw</text><polygon fill="#A80036" points="148,815.8828,138,819.8828,148,823.8828,144,819.8828" style="stroke:#A80036;stroke-width:1.0;"/><line style="stroke:#A80036;stroke-width:1.0;" x1="142" x2="291.5" y1="819.8828" y2="819.8828"/><text fill="#000000" font-family="sans-serif" font-size="13" lengthAdjust="spacing" textLength="75" x="154" y="814.8169">VulkanDraw</text><polygon fill="#A80036" points="992.5,845.0156,1002.5,849.0156,992.5,853.0156,996.5,849.0156" style="stroke:#A80036;stroke-width:1.0;"/><line style="stroke:#A80036;stroke-width:1.0;" x1="137" x2="998.5" y1="849.0156" y2="849.0156"/><text fill="#000000" font-family="sans-serif" font-size="13" lengthAdjust="spacing" textLength="115" x="144" y="843.9497">Custom rendering</text><polygon fill="#A80036" points="1828.5,874.1484,1838.5,878.1484,1828.5,882.1484,1832.5,878.1484" style="stroke:#A80036;stroke-width:1.0;"/><line style="stroke:#A80036;stroke-width:1.0;" x1="137" x2="1834.5" y1="878.1484" y2="878.1484"/><text fill="#000000" font-family="sans-serif" font-size="13" lengthAdjust="spacing" textLength="36" x="144" y="873.0825">Begin</text><polygon fill="#A80036" points="1828.5,903.2813,1838.5,907.2813,1828.5,911.2813,1832.5,907.2813" style="stroke:#A80036;stroke-width:1.0;"/><line style="stroke:#A80036;stroke-width:1.0;" x1="137" x2="1834.5" y1="907.2813" y2="907.2813"/><text fill="#000000" font-family="sans-serif" font-size="13" lengthAdjust="spacing" textLength="32" x="144" y="902.2153">Draw</text><polygon fill="#A80036" points="1828.5,932.4141,1838.5,936.4141,1828.5,940.4141,1832.5,936.4141" style="stroke:#A80036;stroke-width:1.0;"/><line style="stroke:#A80036;stroke-width:1.0;" x1="137" x2="1834.5" y1="936.4141" y2="936.4141"/><text fill="#000000" font-family="sans-serif" font-size="13" lengthAdjust="spacing" textLength="32" x="144" y="931.3481">Draw</text><polygon fill="#A80036" points="1828.5,961.5469,1838.5,965.5469,1828.5,969.5469,1832.5,965.5469" style="stroke:#A80036;stroke-width:1.0;"/><line style="stroke:#A80036;stroke-width:1.0;" x1="137" x2="1834.5" y1="965.5469" y2="965.5469"/><text fill="#000000" font-family="sans-serif" font-size="13" lengthAdjust="spacing" textLength="32" x="144" y="960.481">Draw</text><polygon fill="#A80036" points="1828.5,990.6797,1838.5,994.6797,1828.5,998.6797,1832.5,994.6797" style="stroke:#A80036;stroke-width:1.0;"/><line style="stroke:#A80036;stroke-width:1.0;" x1="137" x2="1834.5" y1="994.6797" y2="994.6797"/><text fill="#000000" font-family="sans-serif" font-size="13" lengthAdjust="spacing" textLength="24" x="144" y="989.6138">End</text><line style="stroke:#A80036;stroke-width:1.0;" x1="1850.5" x2="1897.5" y1="1018.8125" y2="1018.8125"/><line style="stroke:#A80036;stroke-width:1.0;" x1="1897.5" x2="1897.5" y1="1018.8125" y2="1031.8125"/><line style="stroke:#A80036;stroke-width:1.0;" x1="1856.5" x2="1897.5" y1="1031.8125" y2="1031.8125"/><polygon fill="#A80036" points="1866.5,1027.8125,1856.5,1031.8125,1866.5,1035.8125,1862.5,1031.8125" style="stroke:#A80036;stroke-width:1.0;"/><text fill="#000000" font-family="sans-serif" font-size="13" lengthAdjust="spacing" textLength="74" x="1862.5" y="1013.7466">FlushQuads</text><polygon fill="#A80036" points="1744,1061.9453,1734,1065.9453,1744,1069.9453,1740,1065.9453" style="stroke:#A80036;stroke-width:1.0;"/><line style="stroke:#A80036;stroke-width:1.0;" x1="1738" x2="1844.5" y1="1065.9453" y2="1065.9453"/><text fill="#000000" font-family="sans-serif" font-size="13" lengthAdjust="spacing" textLength="73" x="1750" y="1060.8794">DrawQuads</text><polygon fill="#A80036" points="1025.5,1091.0781,1015.5,1095.0781,1025.5,1099.0781,1021.5,1095.0781" style="stroke:#A80036;stroke-width:1.0;"/><line style="stroke:#A80036;stroke-width:1.0;" x1="1019.5" x2="1722" y1="1095.0781" y2="1095.0781"/><text fill="#000000" font-family="sans-serif" font-size="13" lengthAdjust="spacing" textLength="53" x="1031.5" y="1090.0122">VkCmds</text><polygon fill="#A80036" points="992.5,1120.2109,1002.5,1124.2109,992.5,1128.2109,996.5,1124.2109" style="stroke:#A80036;stroke-width:1.0;"/><line style="stroke:#A80036;stroke-width:1.0;" x1="137" x2="998.5" y1="1124.2109" y2="1124.2109"/><text fill="#000000" font-family="sans-serif" font-size="13" lengthAdjust="spacing" textLength="115" x="144" y="1119.145">Custom rendering</text><polygon fill="#A80036" points="280.5,1149.3438,290.5,1153.3438,280.5,1157.3438,284.5,1153.3438" style="stroke:#A80036;stroke-width:1.0;"/><line style="stroke:#A80036;stroke-width:1.0;" x1="137" x2="286.5" y1="1153.3438" y2="1153.3438"/><text fill="#000000" font-family="sans-serif" font-size="13" lengthAdjust="spacing" textLength="87" x="144" y="1148.2778">AddSystemUI</text><polygon fill="#A80036" points="1956,1178.4766,1966,1182.4766,1956,1186.4766,1960,1182.4766" style="stroke:#A80036;stroke-width:1.0;"/><line style="stroke:#A80036;stroke-width:1.0;" x1="302.5" x2="1962" y1="1182.4766" y2="1182.4766"/><text fill="#000000" font-family="sans-serif" font-size="13" lengthAdjust="spacing" textLength="32" x="309.5" y="1177.4106">Draw</text><polygon fill="#A80036" points="1861.5,1207.6094,1851.5,1211.6094,1861.5,1215.6094,1857.5,1211.6094" style="stroke:#A80036;stroke-width:1.0;"/><line style="stroke:#A80036;stroke-width:1.0;" x1="1855.5" x2="1967" y1="1211.6094" y2="1211.6094"/><text fill="#000000" font-family="sans-serif" font-size="13" lengthAdjust="spacing" textLength="36" x="1867.5" y="1206.5435">Begin</text><polygon fill="#A80036" points="1861.5,1236.7422,1851.5,1240.7422,1861.5,1244.7422,1857.5,1240.7422" style="stroke:#A80036;stroke-width:1.0;"/><line style="stroke:#A80036;stroke-width:1.0;" x1="1855.5" x2="1967" y1="1240.7422" y2="1240.7422"/><text fill="#000000" font-family="sans-serif" font-size="13" lengthAdjust="spacing" textLength="32" x="1867.5" y="1235.6763">Draw</text><polygon fill="#A80036" points="1861.5,1265.875,1851.5,1269.875,1861.5,1273.875,1857.5,1269.875" style="stroke:#A80036;stroke-width:1.0;"/><line style="stroke:#A80036;stroke-width:1.0;" x1="1855.5" x2="1967" y1="1269.875" y2="1269.875"/><text fill="#000000" font-family="sans-serif" font-size="13" lengthAdjust="spacing" textLength="32" x="1867.5" y="1264.8091">Draw</text><polygon fill="#A80036" points="1861.5,1295.0078,1851.5,1299.0078,1861.5,1303.0078,1857.5,1299.0078" style="stroke:#A80036;stroke-width:1.0;"/><line style="stroke:#A80036;stroke-width:1.0;" x1="1855.5" x2="1967" y1="1299.0078" y2="1299.0078"/><text fill="#000000" font-family="sans-serif" font-size="13" lengthAdjust="spacing" textLength="24" x="1867.5" y="1293.9419">End</text><line style="stroke:#A80036;stroke-width:1.0;" x1="1850.5" x2="1897.5" y1="1323.1406" y2="1323.1406"/><line style="stroke:#A80036;stroke-width:1.0;" x1="1897.5" x2="1897.5" y1="1323.1406" y2="1336.1406"/><line style="stroke:#A80036;stroke-width:1.0;" x1="1856.5" x2="1897.5" y1="1336.1406" y2="1336.1406"/><polygon fill="#A80036" points="1866.5,1332.1406,1856.5,1336.1406,1866.5,1340.1406,1862.5,1336.1406" style="stroke:#A80036;stroke-width:1.0;"/><text fill="#000000" font-family="sans-serif" font-size="13" lengthAdjust="spacing" textLength="74" x="1862.5" y="1318.0747">FlushQuads</text><polygon fill="#A80036" points="1744,1366.2734,1734,1370.2734,1744,1374.2734,1740,1370.2734" style="stroke:#A80036;stroke-width:1.0;"/><line style="stroke:#A80036;stroke-width:1.0;" x1="1738" x2="1844.5" y1="1370.2734" y2="1370.2734"/><text fill="#000000" font-family="sans-serif" font-size="13" lengthAdjust="spacing" textLength="73" x="1750" y="1365.2075">DrawQuads</text><polygon fill="#A80036" points="1025.5,1395.4063,1015.5,1399.4063,1025.5,1403.4063,1021.5,1399.4063" style="stroke:#A80036;stroke-width:1.0;"/><line style="stroke:#A80036;stroke-width:1.0;" x1="1019.5" x2="1722" y1="1399.4063" y2="1399.4063"/><text fill="#000000" font-family="sans-serif" font-size="13" lengthAdjust="spacing" textLength="53" x="1031.5" y="1394.3403">VkCmds</text><polygon fill="#A80036" points="115,1424.5391,125,1428.5391,115,1432.5391,119,1428.5391" style="stroke:#A80036;stroke-width:1.0;"/><line style="stroke:#A80036;stroke-width:1.0;" x1="0" x2="121" y1="1428.5391" y2="1428.5391"/><text fill="#000000" font-family="sans-serif" font-size="13" lengthAdjust="spacing" textLength="72" x="7" y="1423.4731">_EndFrame</text><polygon fill="#A80036" points="280.5,1453.6719,290.5,1457.6719,280.5,1461.6719,284.5,1457.6719" style="stroke:#A80036;stroke-width:1.0;"/><line style="stroke:#A80036;stroke-width:1.0;" x1="137" x2="286.5" y1="1457.6719" y2="1457.6719"/><text fill="#000000" font-family="sans-serif" font-size="13" lengthAdjust="spacing" textLength="72" x="144" y="1452.606">_EndFrame</text><polygon fill="#A80036" points="1408,1482.8047,1418,1486.8047,1408,1490.8047,1412,1486.8047" style="stroke:#A80036;stroke-width:1.0;"/><line style="stroke:#A80036;stroke-width:1.0;" x1="302.5" x2="1414" y1="1486.8047" y2="1486.8047"/><text fill="#000000" font-family="sans-serif" font-size="13" lengthAdjust="spacing" textLength="65" x="309.5" y="1481.7388">EndFrame</text><polygon fill="#A80036" points="1568,1511.9375,1578,1515.9375,1568,1519.9375,1572,1515.9375" style="stroke:#A80036;stroke-width:1.0;"/><line style="stroke:#A80036;stroke-width:1.0;" x1="1430" x2="1574" y1="1515.9375" y2="1515.9375"/><text fill="#000000" font-family="sans-serif" font-size="13" lengthAdjust="spacing" textLength="65" x="1437" y="1510.8716">EndFrame</text><polygon fill="#A80036" points="1711,1541.0703,1721,1545.0703,1711,1549.0703,1715,1545.0703" style="stroke:#A80036;stroke-width:1.0;"/><line style="stroke:#A80036;stroke-width:1.0;" x1="1590" x2="1717" y1="1545.0703" y2="1545.0703"/><text fill="#000000" font-family="sans-serif" font-size="13" lengthAdjust="spacing" textLength="65" x="1597" y="1540.0044">EndFrame</text><polygon fill="#A80036" points="755.5,1570.2031,765.5,1574.2031,755.5,1578.2031,759.5,1574.2031" style="stroke:#A80036;stroke-width:1.0;"/><line style="stroke:#A80036;stroke-width:1.0;" x1="302.5" x2="761.5" y1="1574.2031" y2="1574.2031"/><text fill="#000000" font-family="sans-serif" font-size="13" lengthAdjust="spacing" textLength="46" x="309.5" y="1569.1372">Submit</text><polygon fill="#A80036" points="115,1599.3359,125,1603.3359,115,1607.3359,119,1603.3359" style="stroke:#A80036;stroke-width:1.0;"/><line style="stroke:#A80036;stroke-width:1.0;" x1="0" x2="121" y1="1603.3359" y2="1603.3359"/><text fill="#000000" font-family="sans-serif" font-size="13" lengthAdjust="spacing" textLength="105" x="7" y="1598.27">_TrySwapBuffers</text><polygon fill="#A80036" points="566.5,1628.4688,576.5,1632.4688,566.5,1636.4688,570.5,1632.4688" style="stroke:#A80036;stroke-width:1.0;"/><line style="stroke:#A80036;stroke-width:1.0;" x1="137" x2="572.5" y1="1632.4688" y2="1632.4688"/><text fill="#000000" font-family="sans-serif" font-size="13" lengthAdjust="spacing" textLength="105" x="144" y="1627.4028">_TrySwapBuffers</text><polygon fill="#A80036" points="313.5,1657.6016,303.5,1661.6016,313.5,1665.6016,309.5,1661.6016" style="stroke:#A80036;stroke-width:1.0;"/><line style="stroke:#A80036;stroke-width:1.0;" x1="307.5" x2="577.5" y1="1661.6016" y2="1661.6016"/><text fill="#000000" font-family="sans-serif" font-size="13" lengthAdjust="spacing" textLength="98" x="319.5" y="1656.5356">TrySwapBuffers</text><line style="stroke:#A80036;stroke-width:1.0;" x1="302.5" x2="349.5" y1="1685.7344" y2="1685.7344"/><line style="stroke:#A80036;stroke-width:1.0;" x1="349.5" x2="349.5" y1="1685.7344" y2="1698.7344"/><line style="stroke:#A80036;stroke-width:1.0;" x1="308.5" x2="349.5" y1="1698.7344" y2="1698.7344"/><polygon fill="#A80036" points="318.5,1694.7344,308.5,1698.7344,318.5,1702.7344,314.5,1698.7344" style="stroke:#A80036;stroke-width:1.0;"/><text fill="#000000" font-family="sans-serif" font-size="13" lengthAdjust="spacing" textLength="112" x="314.5" y="1680.6685">TryDoSwapBufers</text><polygon fill="#A80036" points="867.5,1728.8672,877.5,1732.8672,867.5,1736.8672,871.5,1732.8672" style="stroke:#A80036;stroke-width:1.0;"/><line style="stroke:#A80036;stroke-width:1.0;" x1="307.5" x2="873.5" y1="1732.8672" y2="1732.8672"/><text fill="#000000" font-family="sans-serif" font-size="13" lengthAdjust="spacing" textLength="110" x="314.5" y="1727.8013">TryQueuePresent</text><line style="stroke:#A80036;stroke-width:1.0;" x1="312.5" x2="354.5" y1="1762" y2="1762"/><line style="stroke:#A80036;stroke-width:1.0;" x1="354.5" x2="354.5" y1="1762" y2="1775"/><line style="stroke:#A80036;stroke-width:1.0;" x1="313.5" x2="354.5" y1="1775" y2="1775"/><polygon fill="#A80036" points="323.5,1771,313.5,1775,323.5,1779,319.5,1775" style="stroke:#A80036;stroke-width:1.0;"/><text fill="#000000" font-family="sans-serif" font-size="13" lengthAdjust="spacing" textLength="82" x="319.5" y="1756.9341">SetAppState</text><!--MD5=[21a87bb3562b36ba718dcc9c1a60155e]
@startuml
activate CustomDemoApp
activate DemoAppVulkanBasic
activate DemoAppVulkan
activate ADemoApp

box "AppTemplate" #LightBlue
    participant DemoAppVulkanBasic
    participant DemoAppVulkan
    participant ADemoApp
end box

activate Device
activate DeviceQueue
activate Swapchain
activate CommandBuffers
activate RenderPass
activate SwapchainRecords
activate GraphicsService
activate NativeGraphicsService
activate QuadBatch
activate NativeBatch2D
activate ProfilerOverlay

->CustomDemoApp: _PreUpdate
CustomDemoApp->ADemoApp: _PreUpdate
ADemoApp->CustomDemoApp: PreUpdate

->CustomDemoApp: _FixedUpdate
CustomDemoApp->ADemoApp: _FixedUpdate
ADemoApp->CustomDemoApp: FixedUpdate

->CustomDemoApp: _Update
CustomDemoApp->ADemoApp: _Update
ADemoApp->CustomDemoApp: Update

->CustomDemoApp: _PostUpdate
CustomDemoApp->ADemoApp: _PostUpdate
ADemoApp->CustomDemoApp: PostUpdate

->CustomDemoApp: _TryPrepareDraw
CustomDemoApp->ADemoApp: _TryPrepareDraw
ADemoApp->CustomDemoApp: TryPrepareDraw
CustomDemoApp->DemoAppVulkanBasic: TryPrepareDraw

->CustomDemoApp: _BeginFrame
CustomDemoApp->DemoAppVulkanBasic: _BeginFrame
DemoAppVulkanBasic->GraphicsService: BeginFrame
GraphicsService->NativeGraphicsService: BeginFrame
NativeGraphicsService->QuadBatch: BeginFrame

->CustomDemoApp: _Draw
CustomDemoApp->DemoAppVulkanBasic: _Draw
DemoAppVulkanBasic->ADemoApp: _Draw
ADemoApp->DemoAppVulkanBasic: Draw
DemoAppVulkanBasic->CustomDemoApp: VulkanDraw

CustomDemoApp->CommandBuffers: Custom rendering

' If app uses the native batch directly
CustomDemoApp->NativeBatch2D: Begin
CustomDemoApp->NativeBatch2D: Draw
CustomDemoApp->NativeBatch2D: Draw
CustomDemoApp->NativeBatch2D: Draw
CustomDemoApp->NativeBatch2D: End
NativeBatch2D->NativeBatch2D++: FlushQuads
NativeBatch2D->QuadBatch: DrawQuads
QuadBatch->CommandBuffers: VkCmds
deactivate NativeBatch2D
' App issues custom render command here
CustomDemoApp->CommandBuffers: Custom rendering
' As last thing we add the system UI
CustomDemoApp->DemoAppVulkanBasic: AddSystemUI
' App profiler overlay is added in AddSystemUI
DemoAppVulkanBasic->ProfilerOverlay: Draw
ProfilerOverlay->NativeBatch2D: Begin
ProfilerOverlay->NativeBatch2D: Draw
ProfilerOverlay->NativeBatch2D: Draw
ProfilerOverlay->NativeBatch2D: End
NativeBatch2D->NativeBatch2D++: FlushQuads
NativeBatch2D->QuadBatch: DrawQuads
QuadBatch->CommandBuffers: VkCmds
deactivate NativeBatch2D

' VulkanDraw is finished, and control is returned to DemoAppVUlkanBaic
' so finish the frame

->CustomDemoApp: _EndFrame
CustomDemoApp->DemoAppVulkanBasic: _EndFrame
DemoAppVulkanBasic->GraphicsService: EndFrame
GraphicsService->NativeGraphicsService: EndFrame
NativeGraphicsService->QuadBatch: EndFrame
DemoAppVulkanBasic->DeviceQueue: Submit

->CustomDemoApp: _TrySwapBuffers
CustomDemoApp->ADemoApp: _TrySwapBuffers
ADemoApp->DemoAppVulkanBasic: TrySwapBuffers
DemoAppVulkanBasic->DemoAppVulkanBasic++: TryDoSwapBufers
DemoAppVulkanBasic->Swapchain: TryQueuePresent
DemoAppVulkanBasic->DemoAppVulkanBasic++: SetAppState
deactivate DemoAppVulkanBasic
deactivate DemoAppVulkanBasic
@enduml

@startuml
activate CustomDemoApp
activate DemoAppVulkanBasic
activate DemoAppVulkan
activate ADemoApp

box "AppTemplate" #LightBlue
    participant DemoAppVulkanBasic
    participant DemoAppVulkan
    participant ADemoApp
end box

activate Device
activate DeviceQueue
activate Swapchain
activate CommandBuffers
activate RenderPass
activate SwapchainRecords
activate GraphicsService
activate NativeGraphicsService
activate QuadBatch
activate NativeBatch2D
activate ProfilerOverlay

->CustomDemoApp: _PreUpdate
CustomDemoApp->ADemoApp: _PreUpdate
ADemoApp->CustomDemoApp: PreUpdate

->CustomDemoApp: _FixedUpdate
CustomDemoApp->ADemoApp: _FixedUpdate
ADemoApp->CustomDemoApp: FixedUpdate

->CustomDemoApp: _Update
CustomDemoApp->ADemoApp: _Update
ADemoApp->CustomDemoApp: Update

->CustomDemoApp: _PostUpdate
CustomDemoApp->ADemoApp: _PostUpdate
ADemoApp->CustomDemoApp: PostUpdate

->CustomDemoApp: _TryPrepareDraw
CustomDemoApp->ADemoApp: _TryPrepareDraw
ADemoApp->CustomDemoApp: TryPrepareDraw
CustomDemoApp->DemoAppVulkanBasic: TryPrepareDraw

->CustomDemoApp: _BeginFrame
CustomDemoApp->DemoAppVulkanBasic: _BeginFrame
DemoAppVulkanBasic->GraphicsService: BeginFrame
GraphicsService->NativeGraphicsService: BeginFrame
NativeGraphicsService->QuadBatch: BeginFrame

->CustomDemoApp: _Draw
CustomDemoApp->DemoAppVulkanBasic: _Draw
DemoAppVulkanBasic->ADemoApp: _Draw
ADemoApp->DemoAppVulkanBasic: Draw
DemoAppVulkanBasic->CustomDemoApp: VulkanDraw

CustomDemoApp->CommandBuffers: Custom rendering

CustomDemoApp->NativeBatch2D: Begin
CustomDemoApp->NativeBatch2D: Draw
CustomDemoApp->NativeBatch2D: Draw
CustomDemoApp->NativeBatch2D: Draw
CustomDemoApp->NativeBatch2D: End
NativeBatch2D->NativeBatch2D++: FlushQuads
NativeBatch2D->QuadBatch: DrawQuads
QuadBatch->CommandBuffers: VkCmds
deactivate NativeBatch2D
CustomDemoApp->CommandBuffers: Custom rendering
CustomDemoApp->DemoAppVulkanBasic: AddSystemUI
DemoAppVulkanBasic->ProfilerOverlay: Draw
ProfilerOverlay->NativeBatch2D: Begin
ProfilerOverlay->NativeBatch2D: Draw
ProfilerOverlay->NativeBatch2D: Draw
ProfilerOverlay->NativeBatch2D: End
NativeBatch2D->NativeBatch2D++: FlushQuads
NativeBatch2D->QuadBatch: DrawQuads
QuadBatch->CommandBuffers: VkCmds
deactivate NativeBatch2D


->CustomDemoApp: _EndFrame
CustomDemoApp->DemoAppVulkanBasic: _EndFrame
DemoAppVulkanBasic->GraphicsService: EndFrame
GraphicsService->NativeGraphicsService: EndFrame
NativeGraphicsService->QuadBatch: EndFrame
DemoAppVulkanBasic->DeviceQueue: Submit

->CustomDemoApp: _TrySwapBuffers
CustomDemoApp->ADemoApp: _TrySwapBuffers
ADemoApp->DemoAppVulkanBasic: TrySwapBuffers
DemoAppVulkanBasic->DemoAppVulkanBasic++: TryDoSwapBufers
DemoAppVulkanBasic->Swapchain: TryQueuePresent
DemoAppVulkanBasic->DemoAppVulkanBasic++: SetAppState
deactivate DemoAppVulkanBasic
deactivate DemoAppVulkanBasic
@enduml

PlantUML version 1.2021.01(Tue Feb 02 07:55:08 UTC 2021)
(GPL source distribution)
Java Runtime: OpenJDK Runtime Environment
JVM: OpenJDK 64-Bit Server VM
Default Encoding: UTF-8
Language: en
Country: null
--></g></svg>