<?xml version="1.0" encoding="UTF-8" standalone="no"?><svg xmlns="http://www.w3.org/2000/svg" xmlns:xlink="http://www.w3.org/1999/xlink" contentScriptType="application/ecmascript" contentStyleType="text/css" height="1025px" preserveAspectRatio="none" style="width:2115px;height:1025px;" version="1.1" viewBox="0 0 2115 1025" width="2115px" zoomAndPan="magnify"><defs><filter height="300%" id="fkrm0c8f3vamq" width="300%" x="-1" y="-1"><feGaussianBlur result="blurOut" stdDeviation="2.0"/><feColorMatrix in="blurOut" result="blurOut2" type="matrix" values="0 0 0 0 0 0 0 0 0 0 0 0 0 0 0 0 0 0 .4 0"/><feOffset dx="4.0" dy="4.0" in="blurOut2" result="blurOut3"/><feBlend in="SourceGraphic" in2="blurOut3" mode="normal"/></filter></defs><g><rect fill="#ADD8E6" height="1010.4453" style="stroke: #A80036; stroke-width: 1.0;" width="502" x="263" y="4"/><text fill="#000000" font-family="sans-serif" font-size="13" font-weight="bold" lengthAdjust="spacingAndGlyphs" textLength="99" x="464.5" y="16.0669">AppTemplate</text><rect fill="#FFFFFF" filter="url(#fkrm0c8f3vamq)" height="898.7188" style="stroke: #A80036; stroke-width: 1.0;" width="10" x="171" y="68.4297"/><rect fill="#FFFFFF" filter="url(#fkrm0c8f3vamq)" height="898.7188" style="stroke: #A80036; stroke-width: 1.0;" width="10" x="347" y="68.4297"/><rect fill="#FFFFFF" filter="url(#fkrm0c8f3vamq)" height="28" style="stroke: #A80036; stroke-width: 1.0;" width="10" x="352" y="214.0938"/><rect fill="#FFFFFF" filter="url(#fkrm0c8f3vamq)" height="613.6563" style="stroke: #A80036; stroke-width: 1.0;" width="10" x="352" y="286.2266"/><rect fill="#FFFFFF" filter="url(#fkrm0c8f3vamq)" height="267.1953" style="stroke: #A80036; stroke-width: 1.0;" width="10" x="357" y="328.3594"/><rect fill="#FFFFFF" filter="url(#fkrm0c8f3vamq)" height="267.1953" style="stroke: #A80036; stroke-width: 1.0;" width="10" x="357" y="632.6875"/><rect fill="#FFFFFF" filter="url(#fkrm0c8f3vamq)" height="898.7188" style="stroke: #A80036; stroke-width: 1.0;" width="10" x="532" y="68.4297"/><rect fill="#FFFFFF" filter="url(#fkrm0c8f3vamq)" height="898.7188" style="stroke: #A80036; stroke-width: 1.0;" width="10" x="708" y="68.4297"/><rect fill="#FFFFFF" filter="url(#fkrm0c8f3vamq)" height="898.7188" style="stroke: #A80036; stroke-width: 1.0;" width="10" x="798.5" y="68.4297"/><rect fill="#FFFFFF" filter="url(#fkrm0c8f3vamq)" height="898.7188" style="stroke: #A80036; stroke-width: 1.0;" width="10" x="897" y="68.4297"/><rect fill="#FFFFFF" filter="url(#fkrm0c8f3vamq)" height="598.3906" style="stroke: #A80036; stroke-width: 1.0;" width="10" x="1009" y="68.4297"/><rect fill="#FFFFFF" filter="url(#fkrm0c8f3vamq)" height="271.1953" style="stroke: #A80036; stroke-width: 1.0;" width="10" x="1009" y="695.9531"/><rect fill="#FFFFFF" filter="url(#fkrm0c8f3vamq)" height="497.9922" style="stroke: #A80036; stroke-width: 1.0;" width="10" x="1116" y="68.4297"/><rect fill="#FFFFFF" filter="url(#fkrm0c8f3vamq)" height="242.0625" style="stroke: #A80036; stroke-width: 1.0;" width="10" x="1116" y="725.0859"/><rect fill="#FFFFFF" filter="url(#fkrm0c8f3vamq)" height="468.8594" style="stroke: #A80036; stroke-width: 1.0;" width="10" x="1246" y="68.4297"/><rect fill="#FFFFFF" filter="url(#fkrm0c8f3vamq)" height="212.9297" style="stroke: #A80036; stroke-width: 1.0;" width="10" x="1246" y="754.2188"/><rect fill="#FFFFFF" filter="url(#fkrm0c8f3vamq)" height="439.7266" style="stroke: #A80036; stroke-width: 1.0;" width="10" x="1376" y="68.4297"/><rect fill="#FFFFFF" filter="url(#fkrm0c8f3vamq)" height="154.6641" style="stroke: #A80036; stroke-width: 1.0;" width="10" x="1376" y="812.4844"/><rect fill="#FFFFFF" filter="url(#fkrm0c8f3vamq)" height="381.4609" style="stroke: #A80036; stroke-width: 1.0;" width="10" x="1512" y="68.4297"/><rect fill="#FFFFFF" filter="url(#fkrm0c8f3vamq)" height="125.5313" style="stroke: #A80036; stroke-width: 1.0;" width="10" x="1512" y="841.6172"/><rect fill="#FFFFFF" filter="url(#fkrm0c8f3vamq)" height="898.7188" style="stroke: #A80036; stroke-width: 1.0;" width="10" x="1682.5" y="68.4297"/><rect fill="#FFFFFF" filter="url(#fkrm0c8f3vamq)" height="898.7188" style="stroke: #A80036; stroke-width: 1.0;" width="10" x="1903.5" y="68.4297"/><line style="stroke: #A80036; stroke-width: 1.0; stroke-dasharray: 5.0,5.0;" x1="175.5" x2="175.5" y1="58.4297" y2="976.1484"/><line style="stroke: #A80036; stroke-width: 1.0; stroke-dasharray: 5.0,5.0;" x1="352" x2="352" y1="58.4297" y2="976.1484"/><line style="stroke: #A80036; stroke-width: 1.0; stroke-dasharray: 5.0,5.0;" x1="536.5" x2="536.5" y1="58.4297" y2="976.1484"/><line style="stroke: #A80036; stroke-width: 1.0; stroke-dasharray: 5.0,5.0;" x1="713" x2="713" y1="58.4297" y2="976.1484"/><line style="stroke: #A80036; stroke-width: 1.0; stroke-dasharray: 5.0,5.0;" x1="803" x2="803" y1="58.4297" y2="976.1484"/><line style="stroke: #A80036; stroke-width: 1.0; stroke-dasharray: 5.0,5.0;" x1="902" x2="902" y1="58.4297" y2="976.1484"/><line style="stroke: #A80036; stroke-width: 1.0; stroke-dasharray: 5.0,5.0;" x1="1014" x2="1014" y1="58.4297" y2="976.1484"/><line style="stroke: #A80036; stroke-width: 1.0; stroke-dasharray: 5.0,5.0;" x1="1121" x2="1121" y1="58.4297" y2="976.1484"/><line style="stroke: #A80036; stroke-width: 1.0; stroke-dasharray: 5.0,5.0;" x1="1251" x2="1251" y1="58.4297" y2="976.1484"/><line style="stroke: #A80036; stroke-width: 1.0; stroke-dasharray: 5.0,5.0;" x1="1381" x2="1381" y1="58.4297" y2="976.1484"/><line style="stroke: #A80036; stroke-width: 1.0; stroke-dasharray: 5.0,5.0;" x1="1517" x2="1517" y1="58.4297" y2="976.1484"/><line style="stroke: #A80036; stroke-width: 1.0; stroke-dasharray: 5.0,5.0;" x1="1687" x2="1687" y1="58.4297" y2="976.1484"/><line style="stroke: #A80036; stroke-width: 1.0; stroke-dasharray: 5.0,5.0;" x1="1908" x2="1908" y1="58.4297" y2="976.1484"/><line style="stroke: #A80036; stroke-width: 1.0; stroke-dasharray: 5.0,5.0;" x1="2037" x2="2037" y1="58.4297" y2="976.1484"/><rect fill="#FEFECE" filter="url(#fkrm0c8f3vamq)" height="30.2969" style="stroke: #A80036; stroke-width: 1.5;" width="137" x="105.5" y="23.1328"/><text fill="#000000" font-family="sans-serif" font-size="14" lengthAdjust="spacingAndGlyphs" textLength="123" x="112.5" y="43.1279">CustomDemoApp</text><rect fill="#FEFECE" filter="url(#fkrm0c8f3vamq)" height="30.2969" style="stroke: #A80036; stroke-width: 1.5;" width="137" x="105.5" y="975.1484"/><text fill="#000000" font-family="sans-serif" font-size="14" lengthAdjust="spacingAndGlyphs" textLength="123" x="112.5" y="995.1436">CustomDemoApp</text><rect fill="#FEFECE" filter="url(#fkrm0c8f3vamq)" height="30.2969" style="stroke: #A80036; stroke-width: 1.5;" width="166" x="267" y="23.1328"/><text fill="#000000" font-family="sans-serif" font-size="14" lengthAdjust="spacingAndGlyphs" textLength="152" x="274" y="43.1279">DemoAppVulkanBasic</text><rect fill="#FEFECE" filter="url(#fkrm0c8f3vamq)" height="30.2969" style="stroke: #A80036; stroke-width: 1.5;" width="166" x="267" y="975.1484"/><text fill="#000000" font-family="sans-serif" font-size="14" lengthAdjust="spacingAndGlyphs" textLength="152" x="274" y="995.1436">DemoAppVulkanBasic</text><rect fill="#FEFECE" filter="url(#fkrm0c8f3vamq)" height="30.2969" style="stroke: #A80036; stroke-width: 1.5;" width="129" x="470.5" y="23.1328"/><text fill="#000000" font-family="sans-serif" font-size="14" lengthAdjust="spacingAndGlyphs" textLength="115" x="477.5" y="43.1279">DemoAppVulkan</text><rect fill="#FEFECE" filter="url(#fkrm0c8f3vamq)" height="30.2969" style="stroke: #A80036; stroke-width: 1.5;" width="129" x="470.5" y="975.1484"/><text fill="#000000" font-family="sans-serif" font-size="14" lengthAdjust="spacingAndGlyphs" textLength="115" x="477.5" y="995.1436">DemoAppVulkan</text><rect fill="#FEFECE" filter="url(#fkrm0c8f3vamq)" height="30.2969" style="stroke: #A80036; stroke-width: 1.5;" width="92" x="665" y="23.1328"/><text fill="#000000" font-family="sans-serif" font-size="14" lengthAdjust="spacingAndGlyphs" textLength="78" x="672" y="43.1279">ADemoApp</text><rect fill="#FEFECE" filter="url(#fkrm0c8f3vamq)" height="30.2969" style="stroke: #A80036; stroke-width: 1.5;" width="92" x="665" y="975.1484"/><text fill="#000000" font-family="sans-serif" font-size="14" lengthAdjust="spacingAndGlyphs" textLength="78" x="672" y="995.1436">ADemoApp</text><rect fill="#FEFECE" filter="url(#fkrm0c8f3vamq)" height="30.2969" style="stroke: #A80036; stroke-width: 1.5;" width="61" x="771" y="23.1328"/><text fill="#000000" font-family="sans-serif" font-size="14" lengthAdjust="spacingAndGlyphs" textLength="47" x="778" y="43.1279">Device</text><rect fill="#FEFECE" filter="url(#fkrm0c8f3vamq)" height="30.2969" style="stroke: #A80036; stroke-width: 1.5;" width="61" x="771" y="975.1484"/><text fill="#000000" font-family="sans-serif" font-size="14" lengthAdjust="spacingAndGlyphs" textLength="47" x="778" y="995.1436">Device</text><rect fill="#FEFECE" filter="url(#fkrm0c8f3vamq)" height="30.2969" style="stroke: #A80036; stroke-width: 1.5;" width="108" x="846" y="23.1328"/><text fill="#000000" font-family="sans-serif" font-size="14" lengthAdjust="spacingAndGlyphs" textLength="94" x="853" y="43.1279">DeviceQueue</text><rect fill="#FEFECE" filter="url(#fkrm0c8f3vamq)" height="30.2969" style="stroke: #A80036; stroke-width: 1.5;" width="108" x="846" y="975.1484"/><text fill="#000000" font-family="sans-serif" font-size="14" lengthAdjust="spacingAndGlyphs" textLength="94" x="853" y="995.1436">DeviceQueue</text><rect fill="#FEFECE" filter="url(#fkrm0c8f3vamq)" height="30.2969" style="stroke: #A80036; stroke-width: 1.5;" width="88" x="968" y="23.1328"/><text fill="#000000" font-family="sans-serif" font-size="14" lengthAdjust="spacingAndGlyphs" textLength="74" x="975" y="43.1279">Swapchain</text><rect fill="#FEFECE" filter="url(#fkrm0c8f3vamq)" height="30.2969" style="stroke: #A80036; stroke-width: 1.5;" width="88" x="968" y="975.1484"/><text fill="#000000" font-family="sans-serif" font-size="14" lengthAdjust="spacingAndGlyphs" textLength="74" x="975" y="995.1436">Swapchain</text><rect fill="#FEFECE" filter="url(#fkrm0c8f3vamq)" height="30.2969" style="stroke: #A80036; stroke-width: 1.5;" width="98" x="1070" y="23.1328"/><text fill="#000000" font-family="sans-serif" font-size="14" lengthAdjust="spacingAndGlyphs" textLength="84" x="1077" y="43.1279">DepthBuffer</text><rect fill="#FEFECE" filter="url(#fkrm0c8f3vamq)" height="30.2969" style="stroke: #A80036; stroke-width: 1.5;" width="98" x="1070" y="975.1484"/><text fill="#000000" font-family="sans-serif" font-size="14" lengthAdjust="spacingAndGlyphs" textLength="84" x="1077" y="995.1436">DepthBuffer</text><rect fill="#FEFECE" filter="url(#fkrm0c8f3vamq)" height="30.2969" style="stroke: #A80036; stroke-width: 1.5;" width="134" x="1182" y="23.1328"/><text fill="#000000" font-family="sans-serif" font-size="14" lengthAdjust="spacingAndGlyphs" textLength="120" x="1189" y="43.1279">CommandBuffers</text><rect fill="#FEFECE" filter="url(#fkrm0c8f3vamq)" height="30.2969" style="stroke: #A80036; stroke-width: 1.5;" width="134" x="1182" y="975.1484"/><text fill="#000000" font-family="sans-serif" font-size="14" lengthAdjust="spacingAndGlyphs" textLength="120" x="1189" y="995.1436">CommandBuffers</text><rect fill="#FEFECE" filter="url(#fkrm0c8f3vamq)" height="30.2969" style="stroke: #A80036; stroke-width: 1.5;" width="98" x="1330" y="23.1328"/><text fill="#000000" font-family="sans-serif" font-size="14" lengthAdjust="spacingAndGlyphs" textLength="84" x="1337" y="43.1279">RenderPass</text><rect fill="#FEFECE" filter="url(#fkrm0c8f3vamq)" height="30.2969" style="stroke: #A80036; stroke-width: 1.5;" width="98" x="1330" y="975.1484"/><text fill="#000000" font-family="sans-serif" font-size="14" lengthAdjust="spacingAndGlyphs" textLength="84" x="1337" y="995.1436">RenderPass</text><rect fill="#FEFECE" filter="url(#fkrm0c8f3vamq)" height="30.2969" style="stroke: #A80036; stroke-width: 1.5;" width="146" x="1442" y="23.1328"/><text fill="#000000" font-family="sans-serif" font-size="14" lengthAdjust="spacingAndGlyphs" textLength="132" x="1449" y="43.1279">SwapchainRecords</text><rect fill="#FEFECE" filter="url(#fkrm0c8f3vamq)" height="30.2969" style="stroke: #A80036; stroke-width: 1.5;" width="146" x="1442" y="975.1484"/><text fill="#000000" font-family="sans-serif" font-size="14" lengthAdjust="spacingAndGlyphs" textLength="132" x="1449" y="995.1436">SwapchainRecords</text><rect fill="#FEFECE" filter="url(#fkrm0c8f3vamq)" height="30.2969" style="stroke: #A80036; stroke-width: 1.5;" width="167" x="1602" y="23.1328"/><text fill="#000000" font-family="sans-serif" font-size="14" lengthAdjust="spacingAndGlyphs" textLength="153" x="1609" y="43.1279">NativeGraphicsService</text><rect fill="#FEFECE" filter="url(#fkrm0c8f3vamq)" height="30.2969" style="stroke: #A80036; stroke-width: 1.5;" width="167" x="1602" y="975.1484"/><text fill="#000000" font-family="sans-serif" font-size="14" lengthAdjust="spacingAndGlyphs" textLength="153" x="1609" y="995.1436">NativeGraphicsService</text><rect fill="#FEFECE" filter="url(#fkrm0c8f3vamq)" height="30.2969" style="stroke: #A80036; stroke-width: 1.5;" width="91" x="1861" y="23.1328"/><text fill="#000000" font-family="sans-serif" font-size="14" lengthAdjust="spacingAndGlyphs" textLength="77" x="1868" y="43.1279">QuadBatch</text><rect fill="#FEFECE" filter="url(#fkrm0c8f3vamq)" height="30.2969" style="stroke: #A80036; stroke-width: 1.5;" width="91" x="1861" y="975.1484"/><text fill="#000000" font-family="sans-serif" font-size="14" lengthAdjust="spacingAndGlyphs" textLength="77" x="1868" y="995.1436">QuadBatch</text><rect fill="#FEFECE" filter="url(#fkrm0c8f3vamq)" height="30.2969" style="stroke: #A80036; stroke-width: 1.5;" width="138" x="1966" y="23.1328"/><text fill="#000000" font-family="sans-serif" font-size="14" lengthAdjust="spacingAndGlyphs" textLength="124" x="1973" y="43.1279">SwapchainKHRUtil</text><rect fill="#FEFECE" filter="url(#fkrm0c8f3vamq)" height="30.2969" style="stroke: #A80036; stroke-width: 1.5;" width="138" x="1966" y="975.1484"/><text fill="#000000" font-family="sans-serif" font-size="14" lengthAdjust="spacingAndGlyphs" textLength="124" x="1973" y="995.1436">SwapchainKHRUtil</text><rect fill="#FFFFFF" filter="url(#fkrm0c8f3vamq)" height="898.7188" style="stroke: #A80036; stroke-width: 1.0;" width="10" x="171" y="68.4297"/><rect fill="#FFFFFF" filter="url(#fkrm0c8f3vamq)" height="898.7188" style="stroke: #A80036; stroke-width: 1.0;" width="10" x="347" y="68.4297"/><rect fill="#FFFFFF" filter="url(#fkrm0c8f3vamq)" height="28" style="stroke: #A80036; stroke-width: 1.0;" width="10" x="352" y="214.0938"/><rect fill="#FFFFFF" filter="url(#fkrm0c8f3vamq)" height="613.6563" style="stroke: #A80036; stroke-width: 1.0;" width="10" x="352" y="286.2266"/><rect fill="#FFFFFF" filter="url(#fkrm0c8f3vamq)" height="267.1953" style="stroke: #A80036; stroke-width: 1.0;" width="10" x="357" y="328.3594"/><rect fill="#FFFFFF" filter="url(#fkrm0c8f3vamq)" height="267.1953" style="stroke: #A80036; stroke-width: 1.0;" width="10" x="357" y="632.6875"/><rect fill="#FFFFFF" filter="url(#fkrm0c8f3vamq)" height="898.7188" style="stroke: #A80036; stroke-width: 1.0;" width="10" x="532" y="68.4297"/><rect fill="#FFFFFF" filter="url(#fkrm0c8f3vamq)" height="898.7188" style="stroke: #A80036; stroke-width: 1.0;" width="10" x="708" y="68.4297"/><rect fill="#FFFFFF" filter="url(#fkrm0c8f3vamq)" height="898.7188" style="stroke: #A80036; stroke-width: 1.0;" width="10" x="798.5" y="68.4297"/><rect fill="#FFFFFF" filter="url(#fkrm0c8f3vamq)" height="898.7188" style="stroke: #A80036; stroke-width: 1.0;" width="10" x="897" y="68.4297"/><rect fill="#FFFFFF" filter="url(#fkrm0c8f3vamq)" height="598.3906" style="stroke: #A80036; stroke-width: 1.0;" width="10" x="1009" y="68.4297"/><rect fill="#FFFFFF" filter="url(#fkrm0c8f3vamq)" height="271.1953" style="stroke: #A80036; stroke-width: 1.0;" width="10" x="1009" y="695.9531"/><rect fill="#FFFFFF" filter="url(#fkrm0c8f3vamq)" height="497.9922" style="stroke: #A80036; stroke-width: 1.0;" width="10" x="1116" y="68.4297"/><rect fill="#FFFFFF" filter="url(#fkrm0c8f3vamq)" height="242.0625" style="stroke: #A80036; stroke-width: 1.0;" width="10" x="1116" y="725.0859"/><rect fill="#FFFFFF" filter="url(#fkrm0c8f3vamq)" height="468.8594" style="stroke: #A80036; stroke-width: 1.0;" width="10" x="1246" y="68.4297"/><rect fill="#FFFFFF" filter="url(#fkrm0c8f3vamq)" height="212.9297" style="stroke: #A80036; stroke-width: 1.0;" width="10" x="1246" y="754.2188"/><rect fill="#FFFFFF" filter="url(#fkrm0c8f3vamq)" height="439.7266" style="stroke: #A80036; stroke-width: 1.0;" width="10" x="1376" y="68.4297"/><rect fill="#FFFFFF" filter="url(#fkrm0c8f3vamq)" height="154.6641" style="stroke: #A80036; stroke-width: 1.0;" width="10" x="1376" y="812.4844"/><rect fill="#FFFFFF" filter="url(#fkrm0c8f3vamq)" height="381.4609" style="stroke: #A80036; stroke-width: 1.0;" width="10" x="1512" y="68.4297"/><rect fill="#FFFFFF" filter="url(#fkrm0c8f3vamq)" height="125.5313" style="stroke: #A80036; stroke-width: 1.0;" width="10" x="1512" y="841.6172"/><rect fill="#FFFFFF" filter="url(#fkrm0c8f3vamq)" height="898.7188" style="stroke: #A80036; stroke-width: 1.0;" width="10" x="1682.5" y="68.4297"/><rect fill="#FFFFFF" filter="url(#fkrm0c8f3vamq)" height="898.7188" style="stroke: #A80036; stroke-width: 1.0;" width="10" x="1903.5" y="68.4297"/><polygon fill="#A80036" points="159,85.5625,169,89.5625,159,93.5625,163,89.5625" style="stroke: #A80036; stroke-width: 1.0;"/><line style="stroke: #A80036; stroke-width: 1.0;" x1="3" x2="165" y1="89.5625" y2="89.5625"/><text fill="#000000" font-family="sans-serif" font-size="13" lengthAdjust="spacingAndGlyphs" textLength="149" x="10" y="84.4966">_ConfigurationChanged</text><polygon fill="#A80036" points="696,114.6953,706,118.6953,696,122.6953,700,118.6953" style="stroke: #A80036; stroke-width: 1.0;"/><line style="stroke: #A80036; stroke-width: 1.0;" x1="181" x2="702" y1="118.6953" y2="118.6953"/><text fill="#000000" font-family="sans-serif" font-size="13" lengthAdjust="spacingAndGlyphs" textLength="149" x="188" y="113.6294">_ConfigurationChanged</text><polygon fill="#A80036" points="192,143.8281,182,147.8281,192,151.8281,188,147.8281" style="stroke: #A80036; stroke-width: 1.0;"/><line style="stroke: #A80036; stroke-width: 1.0;" x1="186" x2="707" y1="147.8281" y2="147.8281"/><text fill="#000000" font-family="sans-serif" font-size="13" lengthAdjust="spacingAndGlyphs" textLength="142" x="198" y="142.7622">ConfigurationChanged</text><polygon fill="#A80036" points="335,172.9609,345,176.9609,335,180.9609,339,176.9609" style="stroke: #A80036; stroke-width: 1.0;"/><line style="stroke: #A80036; stroke-width: 1.0;" x1="181" x2="341" y1="176.9609" y2="176.9609"/><text fill="#000000" font-family="sans-serif" font-size="13" lengthAdjust="spacingAndGlyphs" textLength="142" x="188" y="171.895">ConfigurationChanged</text><line style="stroke: #A80036; stroke-width: 1.0;" x1="362" x2="404" y1="206.0938" y2="206.0938"/><line style="stroke: #A80036; stroke-width: 1.0;" x1="404" x2="404" y1="206.0938" y2="219.0938"/><line style="stroke: #A80036; stroke-width: 1.0;" x1="363" x2="404" y1="219.0938" y2="219.0938"/><polygon fill="#A80036" points="373,215.0938,363,219.0938,373,223.0938,369,219.0938" style="stroke: #A80036; stroke-width: 1.0;"/><text fill="#000000" font-family="sans-serif" font-size="13" lengthAdjust="spacingAndGlyphs" textLength="135" x="369" y="201.0278">IsResourcesAllocated</text><line style="stroke: #A80036; stroke-width: 1.0;" x1="357" x2="404" y1="273.2266" y2="273.2266"/><line style="stroke: #A80036; stroke-width: 1.0;" x1="404" x2="404" y1="273.2266" y2="286.2266"/><line style="stroke: #A80036; stroke-width: 1.0;" x1="363" x2="404" y1="286.2266" y2="286.2266"/><polygon fill="#A80036" points="373,282.2266,363,286.2266,373,290.2266,369,286.2266" style="stroke: #A80036; stroke-width: 1.0;"/><text fill="#000000" font-family="sans-serif" font-size="13" lengthAdjust="spacingAndGlyphs" textLength="131" x="369" y="268.1606">TryRebuildResources</text><line style="stroke: #A80036; stroke-width: 1.0;" x1="362" x2="409" y1="315.3594" y2="315.3594"/><line style="stroke: #A80036; stroke-width: 1.0;" x1="409" x2="409" y1="315.3594" y2="328.3594"/><line style="stroke: #A80036; stroke-width: 1.0;" x1="368" x2="409" y1="328.3594" y2="328.3594"/><polygon fill="#A80036" points="378,324.3594,368,328.3594,378,332.3594,374,328.3594" style="stroke: #A80036; stroke-width: 1.0;"/><text fill="#000000" font-family="sans-serif" font-size="13" lengthAdjust="spacingAndGlyphs" textLength="94" x="374" y="310.2935">FreeResources</text><polygon fill="#A80036" points="520,358.4922,530,362.4922,520,366.4922,524,362.4922" style="stroke: #A80036; stroke-width: 1.0;"/><line style="stroke: #A80036; stroke-width: 1.0;" x1="367" x2="526" y1="362.4922" y2="362.4922"/><text fill="#000000" font-family="sans-serif" font-size="13" lengthAdjust="spacingAndGlyphs" textLength="141" x="374" y="357.4263">SafeWaitForDeviceIdle</text><polygon fill="#A80036" points="1670.5,387.625,1680.5,391.625,1670.5,395.625,1674.5,391.625" style="stroke: #A80036; stroke-width: 1.0;"/><line style="stroke: #A80036; stroke-width: 1.0;" x1="367" x2="1676.5" y1="391.625" y2="391.625"/><text fill="#000000" font-family="sans-serif" font-size="13" lengthAdjust="spacingAndGlyphs" textLength="230" x="374" y="386.5591">VulkanDestroyDependentResources</text><polygon fill="#A80036" points="1891.5,416.7578,1901.5,420.7578,1891.5,424.7578,1895.5,420.7578" style="stroke: #A80036; stroke-width: 1.0;"/><line style="stroke: #A80036; stroke-width: 1.0;" x1="1692.5" x2="1897.5" y1="420.7578" y2="420.7578"/><text fill="#000000" font-family="sans-serif" font-size="13" lengthAdjust="spacingAndGlyphs" textLength="187" x="1699.5" y="415.6919">DestroyDependentResources</text><polygon fill="#A80036" points="1505,445.8906,1515,449.8906,1505,453.8906,1509,449.8906" style="stroke: #A80036; stroke-width: 1.0;"/><line style="stroke: #A80036; stroke-width: 1.0;" x1="367" x2="1511" y1="449.8906" y2="449.8906"/><text fill="#000000" font-family="sans-serif" font-size="13" lengthAdjust="spacingAndGlyphs" textLength="33" x="374" y="444.8247">Clear</text><polygon fill="#A80036" points="192,475.0234,182,479.0234,192,483.0234,188,479.0234" style="stroke: #A80036; stroke-width: 1.0;"/><line style="stroke: #A80036; stroke-width: 1.0;" x1="186" x2="356" y1="479.0234" y2="479.0234"/><text fill="#000000" font-family="sans-serif" font-size="13" lengthAdjust="spacingAndGlyphs" textLength="112" x="198" y="473.9575">OnFreeResources</text><polygon fill="#A80036" points="1369,504.1563,1379,508.1563,1369,512.1563,1373,508.1563" style="stroke: #A80036; stroke-width: 1.0;"/><line style="stroke: #A80036; stroke-width: 1.0;" x1="181" x2="1375" y1="508.1563" y2="508.1563"/><text fill="#000000" font-family="sans-serif" font-size="13" lengthAdjust="spacingAndGlyphs" textLength="50" x="188" y="503.0903">Destroy</text><polygon fill="#A80036" points="1239,533.2891,1249,537.2891,1239,541.2891,1243,537.2891" style="stroke: #A80036; stroke-width: 1.0;"/><line style="stroke: #A80036; stroke-width: 1.0;" x1="367" x2="1245" y1="537.2891" y2="537.2891"/><text fill="#000000" font-family="sans-serif" font-size="13" lengthAdjust="spacingAndGlyphs" textLength="36" x="374" y="532.2231">Reset</text><polygon fill="#A80036" points="1109,562.4219,1119,566.4219,1109,570.4219,1113,566.4219" style="stroke: #A80036; stroke-width: 1.0;"/><line style="stroke: #A80036; stroke-width: 1.0;" x1="367" x2="1115" y1="566.4219" y2="566.4219"/><text fill="#000000" font-family="sans-serif" font-size="13" lengthAdjust="spacingAndGlyphs" textLength="36" x="374" y="561.356">Reset</text><polygon fill="#A80036" points="520,591.5547,530,595.5547,520,599.5547,524,595.5547" style="stroke: #A80036; stroke-width: 1.0;"/><line style="stroke: #A80036; stroke-width: 1.0;" x1="362" x2="526" y1="595.5547" y2="595.5547"/><text fill="#000000" font-family="sans-serif" font-size="13" lengthAdjust="spacingAndGlyphs" textLength="141" x="369" y="590.4888">SafeWaitForDeviceIdle</text><line style="stroke: #A80036; stroke-width: 1.0;" x1="362" x2="409" y1="619.6875" y2="619.6875"/><line style="stroke: #A80036; stroke-width: 1.0;" x1="409" x2="409" y1="619.6875" y2="632.6875"/><line style="stroke: #A80036; stroke-width: 1.0;" x1="368" x2="409" y1="632.6875" y2="632.6875"/><polygon fill="#A80036" points="378,628.6875,368,632.6875,378,636.6875,374,632.6875" style="stroke: #A80036; stroke-width: 1.0;"/><text fill="#000000" font-family="sans-serif" font-size="13" lengthAdjust="spacingAndGlyphs" textLength="97" x="374" y="614.6216">BuildResources</text><polygon fill="#A80036" points="2025,662.8203,2035,666.8203,2025,670.8203,2029,666.8203" style="stroke: #A80036; stroke-width: 1.0;"/><line style="stroke: #A80036; stroke-width: 1.0;" x1="367" x2="2031" y1="666.8203" y2="666.8203"/><text fill="#000000" font-family="sans-serif" font-size="13" lengthAdjust="spacingAndGlyphs" textLength="111" x="374" y="661.7544">CreateSwapchain</text><polygon fill="#A80036" points="1030,691.9531,1020,695.9531,1030,699.9531,1026,695.9531" style="stroke: #A80036; stroke-width: 1.0;"/><line style="stroke: #A80036; stroke-width: 1.0;" x1="1024" x2="2036" y1="695.9531" y2="695.9531"/><text fill="#000000" font-family="sans-serif" font-size="13" lengthAdjust="spacingAndGlyphs" textLength="62" x="1036" y="690.8872">Construct</text><polygon fill="#A80036" points="1104,721.0859,1114,725.0859,1104,729.0859,1108,725.0859" style="stroke: #A80036; stroke-width: 1.0;"/><line style="stroke: #A80036; stroke-width: 1.0;" x1="367" x2="1110" y1="725.0859" y2="725.0859"/><text fill="#000000" font-family="sans-serif" font-size="13" lengthAdjust="spacingAndGlyphs" textLength="62" x="374" y="720.02">Construct</text><polygon fill="#A80036" points="1234,750.2188,1244,754.2188,1234,758.2188,1238,754.2188" style="stroke: #A80036; stroke-width: 1.0;"/><line style="stroke: #A80036; stroke-width: 1.0;" x1="367" x2="1240" y1="754.2188" y2="754.2188"/><text fill="#000000" font-family="sans-serif" font-size="13" lengthAdjust="spacingAndGlyphs" textLength="192" x="374" y="749.1528">Reset(swapChainImageCount)</text><polygon fill="#A80036" points="192,779.3516,182,783.3516,192,787.3516,188,783.3516" style="stroke: #A80036; stroke-width: 1.0;"/><line style="stroke: #A80036; stroke-width: 1.0;" x1="186" x2="356" y1="783.3516" y2="783.3516"/><text fill="#000000" font-family="sans-serif" font-size="13" lengthAdjust="spacingAndGlyphs" textLength="115" x="198" y="778.2856">OnBuildResources</text><polygon fill="#A80036" points="1364,808.4844,1374,812.4844,1364,816.4844,1368,812.4844" style="stroke: #A80036; stroke-width: 1.0;"/><line style="stroke: #A80036; stroke-width: 1.0;" x1="181" x2="1370" y1="812.4844" y2="812.4844"/><text fill="#000000" font-family="sans-serif" font-size="13" lengthAdjust="spacingAndGlyphs" textLength="62" x="188" y="807.4185">Construct</text><polygon fill="#A80036" points="1500,837.6172,1510,841.6172,1500,845.6172,1504,841.6172" style="stroke: #A80036; stroke-width: 1.0;"/><line style="stroke: #A80036; stroke-width: 1.0;" x1="367" x2="1506" y1="841.6172" y2="841.6172"/><text fill="#000000" font-family="sans-serif" font-size="13" lengthAdjust="spacingAndGlyphs" textLength="43" x="374" y="836.5513">Create</text><polygon fill="#A80036" points="1670.5,866.75,1680.5,870.75,1670.5,874.75,1674.5,870.75" style="stroke: #A80036; stroke-width: 1.0;"/><line style="stroke: #A80036; stroke-width: 1.0;" x1="367" x2="1676.5" y1="870.75" y2="870.75"/><text fill="#000000" font-family="sans-serif" font-size="13" lengthAdjust="spacingAndGlyphs" textLength="223" x="374" y="865.6841">VulkanCreateDependentResources</text><polygon fill="#A80036" points="1891.5,895.8828,1901.5,899.8828,1891.5,903.8828,1895.5,899.8828" style="stroke: #A80036; stroke-width: 1.0;"/><line style="stroke: #A80036; stroke-width: 1.0;" x1="1692.5" x2="1897.5" y1="899.8828" y2="899.8828"/><text fill="#000000" font-family="sans-serif" font-size="13" lengthAdjust="spacingAndGlyphs" textLength="180" x="1699.5" y="894.8169">CreateDependentResources</text><polygon fill="#A80036" points="520,925.0156,530,929.0156,520,933.0156,524,929.0156" style="stroke: #A80036; stroke-width: 1.0;"/><line style="stroke: #A80036; stroke-width: 1.0;" x1="357" x2="526" y1="929.0156" y2="929.0156"/><text fill="#000000" font-family="sans-serif" font-size="13" lengthAdjust="spacingAndGlyphs" textLength="142" x="364" y="923.9497">ConfigurationChanged</text><polygon fill="#A80036" points="696,954.1484,706,958.1484,696,962.1484,700,958.1484" style="stroke: #A80036; stroke-width: 1.0;"/><line style="stroke: #A80036; stroke-width: 1.0;" x1="542" x2="702" y1="958.1484" y2="958.1484"/><text fill="#000000" font-family="sans-serif" font-size="13" lengthAdjust="spacingAndGlyphs" textLength="142" x="549" y="953.0825">ConfigurationChanged</text><!--MD5=[a174df6d19d9b93171d53ae00de7fd9a]
@startuml
activate CustomDemoApp
activate DemoAppVulkanBasic
activate DemoAppVulkan
activate ADemoApp

box "AppTemplate" #LightBlue
    participant DemoAppVulkanBasic
    participant DemoAppVulkan
    participant ADemoApp
end box

activate Device
activate DeviceQueue
activate Swapchain
activate DepthBuffer
activate CommandBuffers
activate RenderPass
activate SwapchainRecords
activate NativeGraphicsService
activate QuadBatch

->CustomDemoApp: _ConfigurationChanged
CustomDemoApp->ADemoApp: _ConfigurationChanged
ADemoApp->CustomDemoApp: ConfigurationChanged
CustomDemoApp->DemoAppVulkanBasic: ConfigurationChanged
DemoAppVulkanBasic->DemoAppVulkanBasic++: IsResourcesAllocated
deactivate DemoAppVulkanBasic
DemoAppVulkanBasic->DemoAppVulkanBasic++: TryRebuildResources
DemoAppVulkanBasic->DemoAppVulkanBasic++: FreeResources
DemoAppVulkanBasic->DemoAppVulkan: SafeWaitForDeviceIdle
DemoAppVulkanBasic->NativeGraphicsService: VulkanDestroyDependentResources
NativeGraphicsService->QuadBatch: DestroyDependentResources
DemoAppVulkanBasic->SwapchainRecords: Clear
deactivate SwapchainRecords
DemoAppVulkanBasic->CustomDemoApp: OnFreeResources
CustomDemoApp->RenderPass: Destroy
deactivate RenderPass
DemoAppVulkanBasic->CommandBuffers: Reset
deactivate CommandBuffers
DemoAppVulkanBasic->DepthBuffer: Reset
deactivate DepthBuffer
DemoAppVulkanBasic->DemoAppVulkan: SafeWaitForDeviceIdle
deactivate DemoAppVulkanBasic
DemoAppVulkanBasic->DemoAppVulkanBasic++: BuildResources
DemoAppVulkanBasic->SwapchainKHRUtil: CreateSwapchain
deactivate Swapchain
SwapchainKHRUtil->Swapchain++: Construct
DemoAppVulkanBasic->DepthBuffer++: Construct
DemoAppVulkanBasic->CommandBuffers++: Reset(swapChainImageCount)
DemoAppVulkanBasic->CustomDemoApp: OnBuildResources
CustomDemoApp->RenderPass++: Construct
DemoAppVulkanBasic->SwapchainRecords++: Create
DemoAppVulkanBasic->NativeGraphicsService: VulkanCreateDependentResources
NativeGraphicsService->QuadBatch: CreateDependentResources
deactivate DemoAppVulkanBasic
deactivate DemoAppVulkanBasic
DemoAppVulkanBasic->DemoAppVulkan: ConfigurationChanged
DemoAppVulkan->ADemoApp: ConfigurationChanged
@enduml

PlantUML version 1.2020.00(Sat Jan 11 12:30:53 UTC 2020)
(GPL source distribution)
Java Runtime: OpenJDK Runtime Environment
JVM: OpenJDK 64-Bit Server VM
Java Version: 1.8.0_232-b09
Operating System: Linux
Default Encoding: UTF-8
Language: en
Country: null
--></g></svg>