<?xml version="1.0" encoding="UTF-8" standalone="no"?><svg xmlns="http://www.w3.org/2000/svg" xmlns:xlink="http://www.w3.org/1999/xlink" contentScriptType="application/ecmascript" contentStyleType="text/css" height="807px" preserveAspectRatio="none" style="width:2176px;height:807px;" version="1.1" viewBox="0 0 2176 807" width="2176px" zoomAndPan="magnify"><defs><filter height="300%" id="f1uo7c9soxso0n" width="300%" x="-1" y="-1"><feGaussianBlur result="blurOut" stdDeviation="2.0"/><feColorMatrix in="blurOut" result="blurOut2" type="matrix" values="0 0 0 0 0 0 0 0 0 0 0 0 0 0 0 0 0 0 .4 0"/><feOffset dx="4.0" dy="4.0" in="blurOut2" result="blurOut3"/><feBlend in="SourceGraphic" in2="blurOut3" mode="normal"/></filter></defs><g><rect fill="#ADD8E6" height="795.7813" style="stroke:#A80036;stroke-width:1.0;" width="432.5" x="197.5" y="6"/><text fill="#000000" font-family="sans-serif" font-size="13" font-weight="bold" lengthAdjust="spacing" textLength="99" x="364.25" y="18.0669">AppTemplate</text><rect fill="#FFFFFF" filter="url(#f1uo7c9soxso0n)" height="684.0547" style="stroke:#A80036;stroke-width:1.0;" width="10" x="116" y="70.4297"/><rect fill="#FFFFFF" filter="url(#f1uo7c9soxso0n)" height="633.7891" style="stroke:#A80036;stroke-width:1.0;" width="10" x="281.5" y="120.6953"/><rect fill="#FFFFFF" filter="url(#f1uo7c9soxso0n)" height="267.1953" style="stroke:#A80036;stroke-width:1.0;" width="10" x="286.5" y="478.2891"/><rect fill="#FFFFFF" filter="url(#f1uo7c9soxso0n)" height="604.6563" style="stroke:#A80036;stroke-width:1.0;" width="10" x="443" y="149.8281"/><rect fill="#FFFFFF" filter="url(#f1uo7c9soxso0n)" height="575.5234" style="stroke:#A80036;stroke-width:1.0;" width="10" x="573" y="178.9609"/><rect fill="#FFFFFF" filter="url(#f1uo7c9soxso0n)" height="517.2578" style="stroke:#A80036;stroke-width:1.0;" width="10" x="663.5" y="237.2266"/><rect fill="#FFFFFF" filter="url(#f1uo7c9soxso0n)" height="488.125" style="stroke:#A80036;stroke-width:1.0;" width="10" x="762" y="266.3594"/><rect fill="#FFFFFF" filter="url(#f1uo7c9soxso0n)" height="183.7969" style="stroke:#A80036;stroke-width:1.0;" width="10" x="879" y="570.6875"/><rect fill="#FFFFFF" filter="url(#f1uo7c9soxso0n)" height="212.9297" style="stroke:#A80036;stroke-width:1.0;" width="10" x="986" y="541.5547"/><rect fill="#FFFFFF" filter="url(#f1uo7c9soxso0n)" height="154.6641" style="stroke:#A80036;stroke-width:1.0;" width="10" x="1111" y="599.8203"/><rect fill="#FFFFFF" filter="url(#f1uo7c9soxso0n)" height="96.3984" style="stroke:#A80036;stroke-width:1.0;" width="10" x="1241" y="658.0859"/><rect fill="#FFFFFF" filter="url(#f1uo7c9soxso0n)" height="67.2656" style="stroke:#A80036;stroke-width:1.0;" width="10" x="1377" y="687.2188"/><rect fill="#FFFFFF" filter="url(#f1uo7c9soxso0n)" height="684.0547" style="stroke:#A80036;stroke-width:1.0;" width="10" x="1526.5" y="70.4297"/><rect fill="#FFFFFF" filter="url(#f1uo7c9soxso0n)" height="684.0547" style="stroke:#A80036;stroke-width:1.0;" width="10" x="1740.5" y="70.4297"/><line style="stroke:#A80036;stroke-width:1.0;stroke-dasharray:5.0,5.0;" x1="120.5" x2="120.5" y1="60.4297" y2="763.4844"/><line style="stroke:#A80036;stroke-width:1.0;stroke-dasharray:5.0,5.0;" x1="286.5" x2="286.5" y1="60.4297" y2="763.4844"/><line style="stroke:#A80036;stroke-width:1.0;stroke-dasharray:5.0,5.0;" x1="447.5" x2="447.5" y1="60.4297" y2="763.4844"/><line style="stroke:#A80036;stroke-width:1.0;stroke-dasharray:5.0,5.0;" x1="578" x2="578" y1="60.4297" y2="763.4844"/><line style="stroke:#A80036;stroke-width:1.0;stroke-dasharray:5.0,5.0;" x1="668" x2="668" y1="60.4297" y2="763.4844"/><line style="stroke:#A80036;stroke-width:1.0;stroke-dasharray:5.0,5.0;" x1="767" x2="767" y1="60.4297" y2="763.4844"/><line style="stroke:#A80036;stroke-width:1.0;stroke-dasharray:5.0,5.0;" x1="884" x2="884" y1="60.4297" y2="763.4844"/><line style="stroke:#A80036;stroke-width:1.0;stroke-dasharray:5.0,5.0;" x1="991" x2="991" y1="60.4297" y2="763.4844"/><line style="stroke:#A80036;stroke-width:1.0;stroke-dasharray:5.0,5.0;" x1="1116" x2="1116" y1="60.4297" y2="763.4844"/><line style="stroke:#A80036;stroke-width:1.0;stroke-dasharray:5.0,5.0;" x1="1246" x2="1246" y1="60.4297" y2="763.4844"/><line style="stroke:#A80036;stroke-width:1.0;stroke-dasharray:5.0,5.0;" x1="1382" x2="1382" y1="60.4297" y2="763.4844"/><line style="stroke:#A80036;stroke-width:1.0;stroke-dasharray:5.0,5.0;" x1="1531" x2="1531" y1="60.4297" y2="763.4844"/><line style="stroke:#A80036;stroke-width:1.0;stroke-dasharray:5.0,5.0;" x1="1745" x2="1745" y1="60.4297" y2="763.4844"/><line style="stroke:#A80036;stroke-width:1.0;stroke-dasharray:5.0,5.0;" x1="1927" x2="1927" y1="60.4297" y2="763.4844"/><line style="stroke:#A80036;stroke-width:1.0;stroke-dasharray:5.0,5.0;" x1="2095" x2="2095" y1="60.4297" y2="763.4844"/><rect fill="#FEFECE" filter="url(#f1uo7c9soxso0n)" height="30.2969" style="stroke:#A80036;stroke-width:1.5;" width="137" x="50.5" y="25.1328"/><text fill="#000000" font-family="sans-serif" font-size="14" lengthAdjust="spacing" textLength="123" x="57.5" y="45.1279">CustomDemoApp</text><rect fill="#FEFECE" filter="url(#f1uo7c9soxso0n)" height="30.2969" style="stroke:#A80036;stroke-width:1.5;" width="137" x="50.5" y="762.4844"/><text fill="#000000" font-family="sans-serif" font-size="14" lengthAdjust="spacing" textLength="123" x="57.5" y="782.4795">CustomDemoApp</text><rect fill="#FEFECE" filter="url(#f1uo7c9soxso0n)" height="30.2969" style="stroke:#A80036;stroke-width:1.5;" width="166" x="201.5" y="25.1328"/><text fill="#000000" font-family="sans-serif" font-size="14" lengthAdjust="spacing" textLength="152" x="208.5" y="45.1279">DemoAppVulkanBasic</text><rect fill="#FEFECE" filter="url(#f1uo7c9soxso0n)" height="30.2969" style="stroke:#A80036;stroke-width:1.5;" width="166" x="201.5" y="762.4844"/><text fill="#000000" font-family="sans-serif" font-size="14" lengthAdjust="spacing" textLength="152" x="208.5" y="782.4795">DemoAppVulkanBasic</text><rect fill="#FEFECE" filter="url(#f1uo7c9soxso0n)" height="30.2969" style="stroke:#A80036;stroke-width:1.5;" width="129" x="381.5" y="25.1328"/><text fill="#000000" font-family="sans-serif" font-size="14" lengthAdjust="spacing" textLength="115" x="388.5" y="45.1279">DemoAppVulkan</text><rect fill="#FEFECE" filter="url(#f1uo7c9soxso0n)" height="30.2969" style="stroke:#A80036;stroke-width:1.5;" width="129" x="381.5" y="762.4844"/><text fill="#000000" font-family="sans-serif" font-size="14" lengthAdjust="spacing" textLength="115" x="388.5" y="782.4795">DemoAppVulkan</text><rect fill="#FEFECE" filter="url(#f1uo7c9soxso0n)" height="30.2969" style="stroke:#A80036;stroke-width:1.5;" width="92" x="530" y="25.1328"/><text fill="#000000" font-family="sans-serif" font-size="14" lengthAdjust="spacing" textLength="78" x="537" y="45.1279">ADemoApp</text><rect fill="#FEFECE" filter="url(#f1uo7c9soxso0n)" height="30.2969" style="stroke:#A80036;stroke-width:1.5;" width="92" x="530" y="762.4844"/><text fill="#000000" font-family="sans-serif" font-size="14" lengthAdjust="spacing" textLength="78" x="537" y="782.4795">ADemoApp</text><rect fill="#FEFECE" filter="url(#f1uo7c9soxso0n)" height="30.2969" style="stroke:#A80036;stroke-width:1.5;" width="61" x="636" y="25.1328"/><text fill="#000000" font-family="sans-serif" font-size="14" lengthAdjust="spacing" textLength="47" x="643" y="45.1279">Device</text><rect fill="#FEFECE" filter="url(#f1uo7c9soxso0n)" height="30.2969" style="stroke:#A80036;stroke-width:1.5;" width="61" x="636" y="762.4844"/><text fill="#000000" font-family="sans-serif" font-size="14" lengthAdjust="spacing" textLength="47" x="643" y="782.4795">Device</text><rect fill="#FEFECE" filter="url(#f1uo7c9soxso0n)" height="30.2969" style="stroke:#A80036;stroke-width:1.5;" width="108" x="711" y="25.1328"/><text fill="#000000" font-family="sans-serif" font-size="14" lengthAdjust="spacing" textLength="94" x="718" y="45.1279">DeviceQueue</text><rect fill="#FEFECE" filter="url(#f1uo7c9soxso0n)" height="30.2969" style="stroke:#A80036;stroke-width:1.5;" width="108" x="711" y="762.4844"/><text fill="#000000" font-family="sans-serif" font-size="14" lengthAdjust="spacing" textLength="94" x="718" y="782.4795">DeviceQueue</text><rect fill="#FEFECE" filter="url(#f1uo7c9soxso0n)" height="30.2969" style="stroke:#A80036;stroke-width:1.5;" width="98" x="833" y="25.1328"/><text fill="#000000" font-family="sans-serif" font-size="14" lengthAdjust="spacing" textLength="84" x="840" y="45.1279">DepthBuffer</text><rect fill="#FEFECE" filter="url(#f1uo7c9soxso0n)" height="30.2969" style="stroke:#A80036;stroke-width:1.5;" width="98" x="833" y="762.4844"/><text fill="#000000" font-family="sans-serif" font-size="14" lengthAdjust="spacing" textLength="84" x="840" y="782.4795">DepthBuffer</text><rect fill="#FEFECE" filter="url(#f1uo7c9soxso0n)" height="30.2969" style="stroke:#A80036;stroke-width:1.5;" width="88" x="945" y="25.1328"/><text fill="#000000" font-family="sans-serif" font-size="14" lengthAdjust="spacing" textLength="74" x="952" y="45.1279">Swapchain</text><rect fill="#FEFECE" filter="url(#f1uo7c9soxso0n)" height="30.2969" style="stroke:#A80036;stroke-width:1.5;" width="88" x="945" y="762.4844"/><text fill="#000000" font-family="sans-serif" font-size="14" lengthAdjust="spacing" textLength="74" x="952" y="782.4795">Swapchain</text><rect fill="#FEFECE" filter="url(#f1uo7c9soxso0n)" height="30.2969" style="stroke:#A80036;stroke-width:1.5;" width="134" x="1047" y="25.1328"/><text fill="#000000" font-family="sans-serif" font-size="14" lengthAdjust="spacing" textLength="120" x="1054" y="45.1279">CommandBuffers</text><rect fill="#FEFECE" filter="url(#f1uo7c9soxso0n)" height="30.2969" style="stroke:#A80036;stroke-width:1.5;" width="134" x="1047" y="762.4844"/><text fill="#000000" font-family="sans-serif" font-size="14" lengthAdjust="spacing" textLength="120" x="1054" y="782.4795">CommandBuffers</text><rect fill="#FEFECE" filter="url(#f1uo7c9soxso0n)" height="30.2969" style="stroke:#A80036;stroke-width:1.5;" width="98" x="1195" y="25.1328"/><text fill="#000000" font-family="sans-serif" font-size="14" lengthAdjust="spacing" textLength="84" x="1202" y="45.1279">RenderPass</text><rect fill="#FEFECE" filter="url(#f1uo7c9soxso0n)" height="30.2969" style="stroke:#A80036;stroke-width:1.5;" width="98" x="1195" y="762.4844"/><text fill="#000000" font-family="sans-serif" font-size="14" lengthAdjust="spacing" textLength="84" x="1202" y="782.4795">RenderPass</text><rect fill="#FEFECE" filter="url(#f1uo7c9soxso0n)" height="30.2969" style="stroke:#A80036;stroke-width:1.5;" width="146" x="1307" y="25.1328"/><text fill="#000000" font-family="sans-serif" font-size="14" lengthAdjust="spacing" textLength="132" x="1314" y="45.1279">SwapchainRecords</text><rect fill="#FEFECE" filter="url(#f1uo7c9soxso0n)" height="30.2969" style="stroke:#A80036;stroke-width:1.5;" width="146" x="1307" y="762.4844"/><text fill="#000000" font-family="sans-serif" font-size="14" lengthAdjust="spacing" textLength="132" x="1314" y="782.4795">SwapchainRecords</text><rect fill="#FEFECE" filter="url(#f1uo7c9soxso0n)" height="30.2969" style="stroke:#A80036;stroke-width:1.5;" width="125" x="1467" y="25.1328"/><text fill="#000000" font-family="sans-serif" font-size="14" lengthAdjust="spacing" textLength="111" x="1474" y="45.1279">GraphicsService</text><rect fill="#FEFECE" filter="url(#f1uo7c9soxso0n)" height="30.2969" style="stroke:#A80036;stroke-width:1.5;" width="125" x="1467" y="762.4844"/><text fill="#000000" font-family="sans-serif" font-size="14" lengthAdjust="spacing" textLength="111" x="1474" y="782.4795">GraphicsService</text><rect fill="#FEFECE" filter="url(#f1uo7c9soxso0n)" height="30.2969" style="stroke:#A80036;stroke-width:1.5;" width="167" x="1660" y="25.1328"/><text fill="#000000" font-family="sans-serif" font-size="14" lengthAdjust="spacing" textLength="153" x="1667" y="45.1279">NativeGraphicsService</text><rect fill="#FEFECE" filter="url(#f1uo7c9soxso0n)" height="30.2969" style="stroke:#A80036;stroke-width:1.5;" width="167" x="1660" y="762.4844"/><text fill="#000000" font-family="sans-serif" font-size="14" lengthAdjust="spacing" textLength="153" x="1667" y="782.4795">NativeGraphicsService</text><rect fill="#FEFECE" filter="url(#f1uo7c9soxso0n)" height="30.2969" style="stroke:#A80036;stroke-width:1.5;" width="169" x="1841" y="25.1328"/><text fill="#000000" font-family="sans-serif" font-size="14" lengthAdjust="spacing" textLength="155" x="1848" y="45.1279">VulkanDeviceSetupUtil</text><rect fill="#FEFECE" filter="url(#f1uo7c9soxso0n)" height="30.2969" style="stroke:#A80036;stroke-width:1.5;" width="169" x="1841" y="762.4844"/><text fill="#000000" font-family="sans-serif" font-size="14" lengthAdjust="spacing" textLength="155" x="1848" y="782.4795">VulkanDeviceSetupUtil</text><rect fill="#FEFECE" filter="url(#f1uo7c9soxso0n)" height="30.2969" style="stroke:#A80036;stroke-width:1.5;" width="138" x="2024" y="25.1328"/><text fill="#000000" font-family="sans-serif" font-size="14" lengthAdjust="spacing" textLength="124" x="2031" y="45.1279">SwapchainKHRUtil</text><rect fill="#FEFECE" filter="url(#f1uo7c9soxso0n)" height="30.2969" style="stroke:#A80036;stroke-width:1.5;" width="138" x="2024" y="762.4844"/><text fill="#000000" font-family="sans-serif" font-size="14" lengthAdjust="spacing" textLength="124" x="2031" y="782.4795">SwapchainKHRUtil</text><rect fill="#FFFFFF" filter="url(#f1uo7c9soxso0n)" height="684.0547" style="stroke:#A80036;stroke-width:1.0;" width="10" x="116" y="70.4297"/><rect fill="#FFFFFF" filter="url(#f1uo7c9soxso0n)" height="633.7891" style="stroke:#A80036;stroke-width:1.0;" width="10" x="281.5" y="120.6953"/><rect fill="#FFFFFF" filter="url(#f1uo7c9soxso0n)" height="267.1953" style="stroke:#A80036;stroke-width:1.0;" width="10" x="286.5" y="478.2891"/><rect fill="#FFFFFF" filter="url(#f1uo7c9soxso0n)" height="604.6563" style="stroke:#A80036;stroke-width:1.0;" width="10" x="443" y="149.8281"/><rect fill="#FFFFFF" filter="url(#f1uo7c9soxso0n)" height="575.5234" style="stroke:#A80036;stroke-width:1.0;" width="10" x="573" y="178.9609"/><rect fill="#FFFFFF" filter="url(#f1uo7c9soxso0n)" height="517.2578" style="stroke:#A80036;stroke-width:1.0;" width="10" x="663.5" y="237.2266"/><rect fill="#FFFFFF" filter="url(#f1uo7c9soxso0n)" height="488.125" style="stroke:#A80036;stroke-width:1.0;" width="10" x="762" y="266.3594"/><rect fill="#FFFFFF" filter="url(#f1uo7c9soxso0n)" height="183.7969" style="stroke:#A80036;stroke-width:1.0;" width="10" x="879" y="570.6875"/><rect fill="#FFFFFF" filter="url(#f1uo7c9soxso0n)" height="212.9297" style="stroke:#A80036;stroke-width:1.0;" width="10" x="986" y="541.5547"/><rect fill="#FFFFFF" filter="url(#f1uo7c9soxso0n)" height="154.6641" style="stroke:#A80036;stroke-width:1.0;" width="10" x="1111" y="599.8203"/><rect fill="#FFFFFF" filter="url(#f1uo7c9soxso0n)" height="96.3984" style="stroke:#A80036;stroke-width:1.0;" width="10" x="1241" y="658.0859"/><rect fill="#FFFFFF" filter="url(#f1uo7c9soxso0n)" height="67.2656" style="stroke:#A80036;stroke-width:1.0;" width="10" x="1377" y="687.2188"/><rect fill="#FFFFFF" filter="url(#f1uo7c9soxso0n)" height="684.0547" style="stroke:#A80036;stroke-width:1.0;" width="10" x="1526.5" y="70.4297"/><rect fill="#FFFFFF" filter="url(#f1uo7c9soxso0n)" height="684.0547" style="stroke:#A80036;stroke-width:1.0;" width="10" x="1740.5" y="70.4297"/><polygon fill="#A80036" points="104,87.5625,114,91.5625,104,95.5625,108,91.5625" style="stroke:#A80036;stroke-width:1.0;"/><line style="stroke:#A80036;stroke-width:1.0;" x1="0" x2="110" y1="91.5625" y2="91.5625"/><text fill="#000000" font-family="sans-serif" font-size="13" lengthAdjust="spacing" textLength="62" x="7" y="86.4966">Construct</text><polygon fill="#A80036" points="269.5,116.6953,279.5,120.6953,269.5,124.6953,273.5,120.6953" style="stroke:#A80036;stroke-width:1.0;"/><line style="stroke:#A80036;stroke-width:1.0;" x1="126" x2="275.5" y1="120.6953" y2="120.6953"/><text fill="#000000" font-family="sans-serif" font-size="13" lengthAdjust="spacing" textLength="62" x="133" y="115.6294">Construct</text><polygon fill="#A80036" points="431,145.8281,441,149.8281,431,153.8281,435,149.8281" style="stroke:#A80036;stroke-width:1.0;"/><line style="stroke:#A80036;stroke-width:1.0;" x1="291.5" x2="437" y1="149.8281" y2="149.8281"/><text fill="#000000" font-family="sans-serif" font-size="13" lengthAdjust="spacing" textLength="62" x="298.5" y="144.7622">Construct</text><polygon fill="#A80036" points="561,174.9609,571,178.9609,561,182.9609,565,178.9609" style="stroke:#A80036;stroke-width:1.0;"/><line style="stroke:#A80036;stroke-width:1.0;" x1="453" x2="567" y1="178.9609" y2="178.9609"/><text fill="#000000" font-family="sans-serif" font-size="13" lengthAdjust="spacing" textLength="62" x="460" y="173.895">Construct</text><polygon fill="#A80036" points="1915.5,204.0938,1925.5,208.0938,1915.5,212.0938,1919.5,208.0938" style="stroke:#A80036;stroke-width:1.0;"/><line style="stroke:#A80036;stroke-width:1.0;" x1="453" x2="1921.5" y1="208.0938" y2="208.0938"/><text fill="#000000" font-family="sans-serif" font-size="13" lengthAdjust="spacing" textLength="81" x="460" y="203.0278">CreateSetup</text><polygon fill="#A80036" points="684.5,233.2266,674.5,237.2266,684.5,241.2266,680.5,237.2266" style="stroke:#A80036;stroke-width:1.0;"/><line style="stroke:#A80036;stroke-width:1.0;" x1="678.5" x2="1926.5" y1="237.2266" y2="237.2266"/><text fill="#000000" font-family="sans-serif" font-size="13" lengthAdjust="spacing" textLength="62" x="690.5" y="232.1606">Construct</text><polygon fill="#A80036" points="783,262.3594,773,266.3594,783,270.3594,779,266.3594" style="stroke:#A80036;stroke-width:1.0;"/><line style="stroke:#A80036;stroke-width:1.0;" x1="777" x2="1926.5" y1="266.3594" y2="266.3594"/><text fill="#000000" font-family="sans-serif" font-size="13" lengthAdjust="spacing" textLength="62" x="789" y="261.2935">Construct</text><polygon fill="#A80036" points="104,291.4922,114,295.4922,104,299.4922,108,295.4922" style="stroke:#A80036;stroke-width:1.0;"/><line style="stroke:#A80036;stroke-width:1.0;" x1="0" x2="110" y1="295.4922" y2="295.4922"/><text fill="#000000" font-family="sans-serif" font-size="13" lengthAdjust="spacing" textLength="97" x="7" y="290.4263">_PostConstruct</text><polygon fill="#A80036" points="561,320.625,571,324.625,561,328.625,565,324.625" style="stroke:#A80036;stroke-width:1.0;"/><line style="stroke:#A80036;stroke-width:1.0;" x1="126" x2="567" y1="324.625" y2="324.625"/><text fill="#000000" font-family="sans-serif" font-size="13" lengthAdjust="spacing" textLength="97" x="133" y="319.5591">_PostConstruct</text><polygon fill="#A80036" points="137,349.7578,127,353.7578,137,357.7578,133,353.7578" style="stroke:#A80036;stroke-width:1.0;"/><line style="stroke:#A80036;stroke-width:1.0;" x1="131" x2="572" y1="353.7578" y2="353.7578"/><text fill="#000000" font-family="sans-serif" font-size="13" lengthAdjust="spacing" textLength="96" x="143" y="348.6919">OnConstructed</text><polygon fill="#A80036" points="269.5,378.8906,279.5,382.8906,269.5,386.8906,273.5,382.8906" style="stroke:#A80036;stroke-width:1.0;"/><line style="stroke:#A80036;stroke-width:1.0;" x1="126" x2="275.5" y1="382.8906" y2="382.8906"/><text fill="#000000" font-family="sans-serif" font-size="13" lengthAdjust="spacing" textLength="96" x="133" y="377.8247">OnConstructed</text><polygon fill="#A80036" points="431,408.0234,441,412.0234,431,416.0234,435,412.0234" style="stroke:#A80036;stroke-width:1.0;"/><line style="stroke:#A80036;stroke-width:1.0;" x1="291.5" x2="437" y1="412.0234" y2="412.0234"/><text fill="#000000" font-family="sans-serif" font-size="13" lengthAdjust="spacing" textLength="96" x="298.5" y="406.9575">OnConstructed</text><polygon fill="#A80036" points="561,437.1563,571,441.1563,561,445.1563,565,441.1563" style="stroke:#A80036;stroke-width:1.0;"/><line style="stroke:#A80036;stroke-width:1.0;" x1="453" x2="567" y1="441.1563" y2="441.1563"/><text fill="#000000" font-family="sans-serif" font-size="13" lengthAdjust="spacing" textLength="96" x="460" y="436.0903">OnConstructed</text><line style="stroke:#A80036;stroke-width:1.0;" x1="291.5" x2="338.5" y1="465.2891" y2="465.2891"/><line style="stroke:#A80036;stroke-width:1.0;" x1="338.5" x2="338.5" y1="465.2891" y2="478.2891"/><line style="stroke:#A80036;stroke-width:1.0;" x1="297.5" x2="338.5" y1="478.2891" y2="478.2891"/><polygon fill="#A80036" points="307.5,474.2891,297.5,478.2891,307.5,482.2891,303.5,478.2891" style="stroke:#A80036;stroke-width:1.0;"/><text fill="#000000" font-family="sans-serif" font-size="13" lengthAdjust="spacing" textLength="97" x="303.5" y="460.2231">BuildResources</text><polygon fill="#A80036" points="2083,508.4219,2093,512.4219,2083,516.4219,2087,512.4219" style="stroke:#A80036;stroke-width:1.0;"/><line style="stroke:#A80036;stroke-width:1.0;" x1="296.5" x2="2089" y1="512.4219" y2="512.4219"/><text fill="#000000" font-family="sans-serif" font-size="13" lengthAdjust="spacing" textLength="111" x="303.5" y="507.356">CreateSwapchain</text><polygon fill="#A80036" points="1007,537.5547,997,541.5547,1007,545.5547,1003,541.5547" style="stroke:#A80036;stroke-width:1.0;"/><line style="stroke:#A80036;stroke-width:1.0;" x1="1001" x2="2094" y1="541.5547" y2="541.5547"/><text fill="#000000" font-family="sans-serif" font-size="13" lengthAdjust="spacing" textLength="62" x="1013" y="536.4888">Construct</text><polygon fill="#A80036" points="867,566.6875,877,570.6875,867,574.6875,871,570.6875" style="stroke:#A80036;stroke-width:1.0;"/><line style="stroke:#A80036;stroke-width:1.0;" x1="296.5" x2="873" y1="570.6875" y2="570.6875"/><text fill="#000000" font-family="sans-serif" font-size="13" lengthAdjust="spacing" textLength="62" x="303.5" y="565.6216">Construct</text><polygon fill="#A80036" points="1099,595.8203,1109,599.8203,1099,603.8203,1103,599.8203" style="stroke:#A80036;stroke-width:1.0;"/><line style="stroke:#A80036;stroke-width:1.0;" x1="296.5" x2="1105" y1="599.8203" y2="599.8203"/><text fill="#000000" font-family="sans-serif" font-size="13" lengthAdjust="spacing" textLength="192" x="303.5" y="594.7544">Reset(swapChainImageCount)</text><polygon fill="#A80036" points="137,624.9531,127,628.9531,137,632.9531,133,628.9531" style="stroke:#A80036;stroke-width:1.0;"/><line style="stroke:#A80036;stroke-width:1.0;" x1="131" x2="285.5" y1="628.9531" y2="628.9531"/><text fill="#000000" font-family="sans-serif" font-size="13" lengthAdjust="spacing" textLength="115" x="143" y="623.8872">OnBuildResources</text><polygon fill="#A80036" points="1229,654.0859,1239,658.0859,1229,662.0859,1233,658.0859" style="stroke:#A80036;stroke-width:1.0;"/><line style="stroke:#A80036;stroke-width:1.0;" x1="126" x2="1235" y1="658.0859" y2="658.0859"/><text fill="#000000" font-family="sans-serif" font-size="13" lengthAdjust="spacing" textLength="62" x="133" y="653.02">Construct</text><polygon fill="#A80036" points="1365,683.2188,1375,687.2188,1365,691.2188,1369,687.2188" style="stroke:#A80036;stroke-width:1.0;"/><line style="stroke:#A80036;stroke-width:1.0;" x1="296.5" x2="1371" y1="687.2188" y2="687.2188"/><text fill="#000000" font-family="sans-serif" font-size="13" lengthAdjust="spacing" textLength="43" x="303.5" y="682.1528">Create</text><polygon fill="#A80036" points="1514.5,712.3516,1524.5,716.3516,1514.5,720.3516,1518.5,716.3516" style="stroke:#A80036;stroke-width:1.0;"/><line style="stroke:#A80036;stroke-width:1.0;" x1="296.5" x2="1520.5" y1="716.3516" y2="716.3516"/><text fill="#000000" font-family="sans-serif" font-size="13" lengthAdjust="spacing" textLength="180" x="303.5" y="711.2856">CreateDependentResources</text><polygon fill="#A80036" points="1728.5,741.4844,1738.5,745.4844,1728.5,749.4844,1732.5,745.4844" style="stroke:#A80036;stroke-width:1.0;"/><line style="stroke:#A80036;stroke-width:1.0;" x1="1536.5" x2="1734.5" y1="745.4844" y2="745.4844"/><text fill="#000000" font-family="sans-serif" font-size="13" lengthAdjust="spacing" textLength="180" x="1543.5" y="740.4185">CreateDependentResources</text><!--MD5=[73f14726fd763be551fc557c1b8c3c0f]
@startuml
activate CustomDemoApp

box "AppTemplate" #LightBlue
    participant DemoAppVulkanBasic
    participant DemoAppVulkan
    participant ADemoApp
end box

participant Device
participant DeviceQueue
participant DepthBuffer
participant Swapchain
participant CommandBuffers
participant RenderPass
participant SwapchainRecords
activate GraphicsService
activate NativeGraphicsService

->CustomDemoApp:Construct
CustomDemoApp->DemoAppVulkanBasic++: Construct

DemoAppVulkanBasic->DemoAppVulkan++: Construct
DemoAppVulkan->ADemoApp++: Construct
DemoAppVulkan->VulkanDeviceSetupUtil: CreateSetup
VulkanDeviceSetupUtil->Device++: Construct
VulkanDeviceSetupUtil->DeviceQueue++: Construct

->CustomDemoApp:_PostConstruct
CustomDemoApp->ADemoApp:_PostConstruct
ADemoApp->CustomDemoApp:OnConstructed
CustomDemoApp->DemoAppVulkanBasic:OnConstructed
DemoAppVulkanBasic->DemoAppVulkan:OnConstructed
DemoAppVulkan->ADemoApp:OnConstructed

DemoAppVulkanBasic->DemoAppVulkanBasic++: BuildResources
DemoAppVulkanBasic->SwapchainKHRUtil: CreateSwapchain
SwapchainKHRUtil->Swapchain++: Construct
DemoAppVulkanBasic->DepthBuffer++: Construct
DemoAppVulkanBasic->CommandBuffers++: Reset(swapChainImageCount)
DemoAppVulkanBasic->CustomDemoApp: OnBuildResources
CustomDemoApp->RenderPass++: Construct
DemoAppVulkanBasic->SwapchainRecords++: Create
DemoAppVulkanBasic->GraphicsService: CreateDependentResources
GraphicsService->NativeGraphicsService: CreateDependentResources
deactivate DemoAppVulkanBasic
@enduml

PlantUML version 1.2021.01(Tue Feb 02 07:55:08 UTC 2021)
(GPL source distribution)
Java Runtime: OpenJDK Runtime Environment
JVM: OpenJDK 64-Bit Server VM
Default Encoding: UTF-8
Language: en
Country: null
--></g></svg>