<?xml version="1.0" encoding="UTF-8" standalone="no"?><svg xmlns="http://www.w3.org/2000/svg" xmlns:xlink="http://www.w3.org/1999/xlink" contentScriptType="application/ecmascript" contentStyleType="text/css" height="909px" preserveAspectRatio="none" style="width:1539px;height:909px;" version="1.1" viewBox="0 0 1539 909" width="1539px" zoomAndPan="magnify"><defs><filter height="300%" id="f1mm2var878zo7" width="300%" x="-1" y="-1"><feGaussianBlur result="blurOut" stdDeviation="2.0"/><feColorMatrix in="blurOut" result="blurOut2" type="matrix" values="0 0 0 0 0 0 0 0 0 0 0 0 0 0 0 0 0 0 .4 0"/><feOffset dx="4.0" dy="4.0" in="blurOut2" result="blurOut3"/><feBlend in="SourceGraphic" in2="blurOut3" mode="normal"/></filter></defs><g><!--cluster RapidVulkan--><polygon fill="#FFFFFF" filter="url(#f1mm2var878zo7)" points="76,798,178,798,185,820.2969,923,820.2969,923,897,76,897,76,798" style="stroke: #000000; stroke-width: 1.5;"/><line style="stroke: #000000; stroke-width: 1.5;" x1="76" x2="185" y1="820.2969" y2="820.2969"/><text fill="#000000" font-family="sans-serif" font-size="14" font-weight="bold" lengthAdjust="spacingAndGlyphs" textLength="96" x="80" y="812.9951">RapidVulkan</text><!--cluster FslDemoApp.Base--><polygon fill="#FFFFFF" filter="url(#f1mm2var878zo7)" points="476,24,623,24,630,46.2969,633,46.2969,633,231,476,231,476,24" style="stroke: #000000; stroke-width: 1.5;"/><line style="stroke: #000000; stroke-width: 1.5;" x1="476" x2="630" y1="46.2969" y2="46.2969"/><text fill="#000000" font-family="sans-serif" font-size="14" font-weight="bold" lengthAdjust="spacingAndGlyphs" textLength="141" x="480" y="38.9951">FslDemoApp.Base</text><!--cluster FslUtil.Vulkan1_0--><polygon fill="#FFFFFF" filter="url(#f1mm2var878zo7)" points="806,675,944,675,951,697.2969,1517,697.2969,1517,774,806,774,806,675" style="stroke: #000000; stroke-width: 1.5;"/><line style="stroke: #000000; stroke-width: 1.5;" x1="806" x2="951" y1="697.2969" y2="697.2969"/><text fill="#000000" font-family="sans-serif" font-size="14" font-weight="bold" lengthAdjust="spacingAndGlyphs" textLength="132" x="810" y="689.9951">FslUtil.Vulkan1_0</text><!--cluster FslDemoService.NativeGraphics.Vulkan--><polygon fill="#FFFFFF" filter="url(#f1mm2var878zo7)" points="869,516,1183,516,1190,538.2969,1193,538.2969,1193,615,869,615,869,516" style="stroke: #000000; stroke-width: 1.5;"/><line style="stroke: #000000; stroke-width: 1.5;" x1="869" x2="1190" y1="538.2969" y2="538.2969"/><text fill="#000000" font-family="sans-serif" font-size="14" font-weight="bold" lengthAdjust="spacingAndGlyphs" textLength="308" x="873" y="530.9951">FslDemoService.NativeGraphics.Vulkan</text><!--cluster FslDemoApp.Vulkan--><polygon fill="#FFFFFF" filter="url(#f1mm2var878zo7)" points="22,255,184,255,191,277.2969,661,277.2969,661,774,22,774,22,255" style="stroke: #000000; stroke-width: 1.5;"/><line style="stroke: #000000; stroke-width: 1.5;" x1="22" x2="191" y1="277.2969" y2="277.2969"/><text fill="#000000" font-family="sans-serif" font-size="14" font-weight="bold" lengthAdjust="spacingAndGlyphs" textLength="156" x="26" y="269.9951">FslDemoApp.Vulkan</text><!--class RapidVulkan.CommandPool--><rect fill="#FEFECE" filter="url(#f1mm2var878zo7)" height="48" id="RapidVulkan.CommandPool" style="stroke: #A80036; stroke-width: 1.5;" width="121" x="612.5" y="833"/><ellipse cx="627.5" cy="849" fill="#ADD1B2" rx="11" ry="11" style="stroke: #A80036; stroke-width: 1.0;"/><path d="M630.4688,854.6406 Q629.8906,854.9375 629.25,855.0859 Q628.6094,855.2344 627.9063,855.2344 Q625.4063,855.2344 624.0859,853.5859 Q622.7656,851.9375 622.7656,848.8125 Q622.7656,845.6875 624.0859,844.0313 Q625.4063,842.375 627.9063,842.375 Q628.6094,842.375 629.2578,842.5313 Q629.9063,842.6875 630.4688,842.9844 L630.4688,845.7031 Q629.8438,845.125 629.25,844.8516 Q628.6563,844.5781 628.0313,844.5781 Q626.6875,844.5781 626,845.6484 Q625.3125,846.7188 625.3125,848.8125 Q625.3125,850.9063 626,851.9766 Q626.6875,853.0469 628.0313,853.0469 Q628.6563,853.0469 629.25,852.7734 Q629.8438,852.5 630.4688,851.9219 L630.4688,854.6406 Z "/><text fill="#000000" font-family="sans-serif" font-size="12" lengthAdjust="spacingAndGlyphs" textLength="89" x="641.5" y="853.1543">CommandPool</text><line style="stroke: #A80036; stroke-width: 1.5;" x1="613.5" x2="732.5" y1="865" y2="865"/><line style="stroke: #A80036; stroke-width: 1.5;" x1="613.5" x2="732.5" y1="873" y2="873"/><!--class RapidVulkan.CommandBuffers--><rect fill="#FEFECE" filter="url(#f1mm2var878zo7)" height="48" id="RapidVulkan.CommandBuffers" style="stroke: #A80036; stroke-width: 1.5;" width="138" x="769" y="833"/><ellipse cx="784" cy="849" fill="#ADD1B2" rx="11" ry="11" style="stroke: #A80036; stroke-width: 1.0;"/><path d="M786.9688,854.6406 Q786.3906,854.9375 785.75,855.0859 Q785.1094,855.2344 784.4063,855.2344 Q781.9063,855.2344 780.5859,853.5859 Q779.2656,851.9375 779.2656,848.8125 Q779.2656,845.6875 780.5859,844.0313 Q781.9063,842.375 784.4063,842.375 Q785.1094,842.375 785.7578,842.5313 Q786.4063,842.6875 786.9688,842.9844 L786.9688,845.7031 Q786.3438,845.125 785.75,844.8516 Q785.1563,844.5781 784.5313,844.5781 Q783.1875,844.5781 782.5,845.6484 Q781.8125,846.7188 781.8125,848.8125 Q781.8125,850.9063 782.5,851.9766 Q783.1875,853.0469 784.5313,853.0469 Q785.1563,853.0469 785.75,852.7734 Q786.3438,852.5 786.9688,851.9219 L786.9688,854.6406 Z "/><text fill="#000000" font-family="sans-serif" font-size="12" lengthAdjust="spacingAndGlyphs" textLength="106" x="798" y="853.1543">CommandBuffers</text><line style="stroke: #A80036; stroke-width: 1.5;" x1="770" x2="906" y1="865" y2="865"/><line style="stroke: #A80036; stroke-width: 1.5;" x1="770" x2="906" y1="873" y2="873"/><!--class RapidVulkan.Fence--><rect fill="#FEFECE" filter="url(#f1mm2var878zo7)" height="48" id="RapidVulkan.Fence" style="stroke: #A80036; stroke-width: 1.5;" width="70" x="231" y="833"/><ellipse cx="246" cy="849" fill="#ADD1B2" rx="11" ry="11" style="stroke: #A80036; stroke-width: 1.0;"/><path d="M248.9688,854.6406 Q248.3906,854.9375 247.75,855.0859 Q247.1094,855.2344 246.4063,855.2344 Q243.9063,855.2344 242.5859,853.5859 Q241.2656,851.9375 241.2656,848.8125 Q241.2656,845.6875 242.5859,844.0313 Q243.9063,842.375 246.4063,842.375 Q247.1094,842.375 247.7578,842.5313 Q248.4063,842.6875 248.9688,842.9844 L248.9688,845.7031 Q248.3438,845.125 247.75,844.8516 Q247.1563,844.5781 246.5313,844.5781 Q245.1875,844.5781 244.5,845.6484 Q243.8125,846.7188 243.8125,848.8125 Q243.8125,850.9063 244.5,851.9766 Q245.1875,853.0469 246.5313,853.0469 Q247.1563,853.0469 247.75,852.7734 Q248.3438,852.5 248.9688,851.9219 L248.9688,854.6406 Z "/><text fill="#000000" font-family="sans-serif" font-size="12" lengthAdjust="spacingAndGlyphs" textLength="38" x="260" y="853.1543">Fence</text><line style="stroke: #A80036; stroke-width: 1.5;" x1="232" x2="300" y1="865" y2="865"/><line style="stroke: #A80036; stroke-width: 1.5;" x1="232" x2="300" y1="873" y2="873"/><!--class RapidVulkan.Framebuffer--><rect fill="#FEFECE" filter="url(#f1mm2var878zo7)" height="48" id="RapidVulkan.Framebuffer" style="stroke: #A80036; stroke-width: 1.5;" width="108" x="336" y="833"/><ellipse cx="351" cy="849" fill="#ADD1B2" rx="11" ry="11" style="stroke: #A80036; stroke-width: 1.0;"/><path d="M353.9688,854.6406 Q353.3906,854.9375 352.75,855.0859 Q352.1094,855.2344 351.4063,855.2344 Q348.9063,855.2344 347.5859,853.5859 Q346.2656,851.9375 346.2656,848.8125 Q346.2656,845.6875 347.5859,844.0313 Q348.9063,842.375 351.4063,842.375 Q352.1094,842.375 352.7578,842.5313 Q353.4063,842.6875 353.9688,842.9844 L353.9688,845.7031 Q353.3438,845.125 352.75,844.8516 Q352.1563,844.5781 351.5313,844.5781 Q350.1875,844.5781 349.5,845.6484 Q348.8125,846.7188 348.8125,848.8125 Q348.8125,850.9063 349.5,851.9766 Q350.1875,853.0469 351.5313,853.0469 Q352.1563,853.0469 352.75,852.7734 Q353.3438,852.5 353.9688,851.9219 L353.9688,854.6406 Z "/><text fill="#000000" font-family="sans-serif" font-size="12" lengthAdjust="spacingAndGlyphs" textLength="76" x="365" y="853.1543">Framebuffer</text><line style="stroke: #A80036; stroke-width: 1.5;" x1="337" x2="443" y1="865" y2="865"/><line style="stroke: #A80036; stroke-width: 1.5;" x1="337" x2="443" y1="873" y2="873"/><!--class RapidVulkan.ImageView--><rect fill="#FEFECE" filter="url(#f1mm2var878zo7)" height="48" id="RapidVulkan.ImageView" style="stroke: #A80036; stroke-width: 1.5;" width="98" x="479" y="833"/><ellipse cx="494" cy="849" fill="#ADD1B2" rx="11" ry="11" style="stroke: #A80036; stroke-width: 1.0;"/><path d="M496.9688,854.6406 Q496.3906,854.9375 495.75,855.0859 Q495.1094,855.2344 494.4063,855.2344 Q491.9063,855.2344 490.5859,853.5859 Q489.2656,851.9375 489.2656,848.8125 Q489.2656,845.6875 490.5859,844.0313 Q491.9063,842.375 494.4063,842.375 Q495.1094,842.375 495.7578,842.5313 Q496.4063,842.6875 496.9688,842.9844 L496.9688,845.7031 Q496.3438,845.125 495.75,844.8516 Q495.1563,844.5781 494.5313,844.5781 Q493.1875,844.5781 492.5,845.6484 Q491.8125,846.7188 491.8125,848.8125 Q491.8125,850.9063 492.5,851.9766 Q493.1875,853.0469 494.5313,853.0469 Q495.1563,853.0469 495.75,852.7734 Q496.3438,852.5 496.9688,851.9219 L496.9688,854.6406 Z "/><text fill="#000000" font-family="sans-serif" font-size="12" lengthAdjust="spacingAndGlyphs" textLength="66" x="508" y="853.1543">ImageView</text><line style="stroke: #A80036; stroke-width: 1.5;" x1="480" x2="576" y1="865" y2="865"/><line style="stroke: #A80036; stroke-width: 1.5;" x1="480" x2="576" y1="873" y2="873"/><!--class RapidVulkan.Semaphore--><rect fill="#FEFECE" filter="url(#f1mm2var878zo7)" height="48" id="RapidVulkan.Semaphore" style="stroke: #A80036; stroke-width: 1.5;" width="104" x="92" y="833"/><ellipse cx="107" cy="849" fill="#ADD1B2" rx="11" ry="11" style="stroke: #A80036; stroke-width: 1.0;"/><path d="M109.9688,854.6406 Q109.3906,854.9375 108.75,855.0859 Q108.1094,855.2344 107.4063,855.2344 Q104.9063,855.2344 103.5859,853.5859 Q102.2656,851.9375 102.2656,848.8125 Q102.2656,845.6875 103.5859,844.0313 Q104.9063,842.375 107.4063,842.375 Q108.1094,842.375 108.7578,842.5313 Q109.4063,842.6875 109.9688,842.9844 L109.9688,845.7031 Q109.3438,845.125 108.75,844.8516 Q108.1563,844.5781 107.5313,844.5781 Q106.1875,844.5781 105.5,845.6484 Q104.8125,846.7188 104.8125,848.8125 Q104.8125,850.9063 105.5,851.9766 Q106.1875,853.0469 107.5313,853.0469 Q108.1563,853.0469 108.75,852.7734 Q109.3438,852.5 109.9688,851.9219 L109.9688,854.6406 Z "/><text fill="#000000" font-family="sans-serif" font-size="12" lengthAdjust="spacingAndGlyphs" textLength="72" x="121" y="853.1543">Semaphore</text><line style="stroke: #A80036; stroke-width: 1.5;" x1="93" x2="195" y1="865" y2="865"/><line style="stroke: #A80036; stroke-width: 1.5;" x1="93" x2="195" y1="873" y2="873"/><!--class FslDemoApp.Base.IDemoApp--><rect fill="#FEFECE" filter="url(#f1mm2var878zo7)" height="48" id="FslDemoApp.Base.IDemoApp" style="stroke: #A80036; stroke-width: 1.5;" width="95" x="506.5" y="59"/><ellipse cx="521.5" cy="75" fill="#B4A7E5" rx="11" ry="11" style="stroke: #A80036; stroke-width: 1.0;"/><path d="M517.4219,70.7656 L517.4219,68.6094 L524.8125,68.6094 L524.8125,70.7656 L522.3438,70.7656 L522.3438,78.8438 L524.8125,78.8438 L524.8125,81 L517.4219,81 L517.4219,78.8438 L519.8906,78.8438 L519.8906,70.7656 L517.4219,70.7656 Z "/><text fill="#000000" font-family="sans-serif" font-size="12" font-style="italic" lengthAdjust="spacingAndGlyphs" textLength="63" x="535.5" y="79.1543">IDemoApp</text><line style="stroke: #A80036; stroke-width: 1.5;" x1="507.5" x2="600.5" y1="91" y2="91"/><line style="stroke: #A80036; stroke-width: 1.5;" x1="507.5" x2="600.5" y1="99" y2="99"/><!--class FslDemoApp.Base.ADemoApp--><rect fill="#FEFECE" filter="url(#f1mm2var878zo7)" height="48" id="FslDemoApp.Base.ADemoApp" style="stroke: #A80036; stroke-width: 1.5;" width="100" x="504" y="167"/><ellipse cx="519" cy="183" fill="#ADD1B2" rx="11" ry="11" style="stroke: #A80036; stroke-width: 1.0;"/><path d="M521.9688,188.6406 Q521.3906,188.9375 520.75,189.0859 Q520.1094,189.2344 519.4063,189.2344 Q516.9063,189.2344 515.5859,187.5859 Q514.2656,185.9375 514.2656,182.8125 Q514.2656,179.6875 515.5859,178.0313 Q516.9063,176.375 519.4063,176.375 Q520.1094,176.375 520.7578,176.5313 Q521.4063,176.6875 521.9688,176.9844 L521.9688,179.7031 Q521.3438,179.125 520.75,178.8516 Q520.1563,178.5781 519.5313,178.5781 Q518.1875,178.5781 517.5,179.6484 Q516.8125,180.7188 516.8125,182.8125 Q516.8125,184.9063 517.5,185.9766 Q518.1875,187.0469 519.5313,187.0469 Q520.1563,187.0469 520.75,186.7734 Q521.3438,186.5 521.9688,185.9219 L521.9688,188.6406 Z "/><text fill="#000000" font-family="sans-serif" font-size="12" lengthAdjust="spacingAndGlyphs" textLength="68" x="533" y="187.1543">ADemoApp</text><line style="stroke: #A80036; stroke-width: 1.5;" x1="505" x2="603" y1="199" y2="199"/><line style="stroke: #A80036; stroke-width: 1.5;" x1="505" x2="603" y1="207" y2="207"/><!--class FslUtil.Vulkan1_0.DeviceCreateInfoCopy--><rect fill="#FEFECE" filter="url(#f1mm2var878zo7)" height="48" id="FslUtil.Vulkan1_0.DeviceCreateInfoCopy" style="stroke: #A80036; stroke-width: 1.5;" width="168" x="1208" y="710"/><ellipse cx="1223" cy="726" fill="#ADD1B2" rx="11" ry="11" style="stroke: #A80036; stroke-width: 1.0;"/><path d="M1225.9688,731.6406 Q1225.3906,731.9375 1224.75,732.0859 Q1224.1094,732.2344 1223.4063,732.2344 Q1220.9063,732.2344 1219.5859,730.5859 Q1218.2656,728.9375 1218.2656,725.8125 Q1218.2656,722.6875 1219.5859,721.0313 Q1220.9063,719.375 1223.4063,719.375 Q1224.1094,719.375 1224.7578,719.5313 Q1225.4063,719.6875 1225.9688,719.9844 L1225.9688,722.7031 Q1225.3438,722.125 1224.75,721.8516 Q1224.1563,721.5781 1223.5313,721.5781 Q1222.1875,721.5781 1221.5,722.6484 Q1220.8125,723.7188 1220.8125,725.8125 Q1220.8125,727.9063 1221.5,728.9766 Q1222.1875,730.0469 1223.5313,730.0469 Q1224.1563,730.0469 1224.75,729.7734 Q1225.3438,729.5 1225.9688,728.9219 L1225.9688,731.6406 Z "/><text fill="#000000" font-family="sans-serif" font-size="12" lengthAdjust="spacingAndGlyphs" textLength="136" x="1237" y="730.1543">DeviceCreateInfoCopy</text><line style="stroke: #A80036; stroke-width: 1.5;" x1="1209" x2="1375" y1="742" y2="742"/><line style="stroke: #A80036; stroke-width: 1.5;" x1="1209" x2="1375" y1="750" y2="750"/><!--class FslUtil.Vulkan1_0.VUDevice--><rect fill="#FEFECE" filter="url(#f1mm2var878zo7)" height="48" id="FslUtil.Vulkan1_0.VUDevice" style="stroke: #A80036; stroke-width: 1.5;" width="90" x="1411" y="710"/><ellipse cx="1426" cy="726" fill="#ADD1B2" rx="11" ry="11" style="stroke: #A80036; stroke-width: 1.0;"/><path d="M1428.9688,731.6406 Q1428.3906,731.9375 1427.75,732.0859 Q1427.1094,732.2344 1426.4063,732.2344 Q1423.9063,732.2344 1422.5859,730.5859 Q1421.2656,728.9375 1421.2656,725.8125 Q1421.2656,722.6875 1422.5859,721.0313 Q1423.9063,719.375 1426.4063,719.375 Q1427.1094,719.375 1427.7578,719.5313 Q1428.4063,719.6875 1428.9688,719.9844 L1428.9688,722.7031 Q1428.3438,722.125 1427.75,721.8516 Q1427.1563,721.5781 1426.5313,721.5781 Q1425.1875,721.5781 1424.5,722.6484 Q1423.8125,723.7188 1423.8125,725.8125 Q1423.8125,727.9063 1424.5,728.9766 Q1425.1875,730.0469 1426.5313,730.0469 Q1427.1563,730.0469 1427.75,729.7734 Q1428.3438,729.5 1428.9688,728.9219 L1428.9688,731.6406 Z "/><text fill="#000000" font-family="sans-serif" font-size="12" lengthAdjust="spacingAndGlyphs" textLength="58" x="1440" y="730.1543">VUDevice</text><line style="stroke: #A80036; stroke-width: 1.5;" x1="1412" x2="1500" y1="742" y2="742"/><line style="stroke: #A80036; stroke-width: 1.5;" x1="1412" x2="1500" y1="750" y2="750"/><!--class FslUtil.Vulkan1_0.VUDeviceQueueRecord--><rect fill="#FEFECE" filter="url(#f1mm2var878zo7)" height="48" id="FslUtil.Vulkan1_0.VUDeviceQueueRecord" style="stroke: #A80036; stroke-width: 1.5;" width="175" x="997.5" y="710"/><ellipse cx="1012.5" cy="726" fill="#ADD1B2" rx="11" ry="11" style="stroke: #A80036; stroke-width: 1.0;"/><path d="M1015.4688,731.6406 Q1014.8906,731.9375 1014.25,732.0859 Q1013.6094,732.2344 1012.9063,732.2344 Q1010.4063,732.2344 1009.0859,730.5859 Q1007.7656,728.9375 1007.7656,725.8125 Q1007.7656,722.6875 1009.0859,721.0313 Q1010.4063,719.375 1012.9063,719.375 Q1013.6094,719.375 1014.2578,719.5313 Q1014.9063,719.6875 1015.4688,719.9844 L1015.4688,722.7031 Q1014.8438,722.125 1014.25,721.8516 Q1013.6563,721.5781 1013.0313,721.5781 Q1011.6875,721.5781 1011,722.6484 Q1010.3125,723.7188 1010.3125,725.8125 Q1010.3125,727.9063 1011,728.9766 Q1011.6875,730.0469 1013.0313,730.0469 Q1013.6563,730.0469 1014.25,729.7734 Q1014.8438,729.5 1015.4688,728.9219 L1015.4688,731.6406 Z "/><text fill="#000000" font-family="sans-serif" font-size="12" lengthAdjust="spacingAndGlyphs" textLength="143" x="1026.5" y="730.1543">VUDeviceQueueRecord</text><line style="stroke: #A80036; stroke-width: 1.5;" x1="998.5" x2="1171.5" y1="742" y2="742"/><line style="stroke: #A80036; stroke-width: 1.5;" x1="998.5" x2="1171.5" y1="750" y2="750"/><!--class FslUtil.Vulkan1_0.VUSwapchainKHR--><rect fill="#FEFECE" filter="url(#f1mm2var878zo7)" height="48" id="FslUtil.Vulkan1_0.VUSwapchainKHR" style="stroke: #A80036; stroke-width: 1.5;" width="140" x="822" y="710"/><ellipse cx="837" cy="726" fill="#ADD1B2" rx="11" ry="11" style="stroke: #A80036; stroke-width: 1.0;"/><path d="M839.9688,731.6406 Q839.3906,731.9375 838.75,732.0859 Q838.1094,732.2344 837.4063,732.2344 Q834.9063,732.2344 833.5859,730.5859 Q832.2656,728.9375 832.2656,725.8125 Q832.2656,722.6875 833.5859,721.0313 Q834.9063,719.375 837.4063,719.375 Q838.1094,719.375 838.7578,719.5313 Q839.4063,719.6875 839.9688,719.9844 L839.9688,722.7031 Q839.3438,722.125 838.75,721.8516 Q838.1563,721.5781 837.5313,721.5781 Q836.1875,721.5781 835.5,722.6484 Q834.8125,723.7188 834.8125,725.8125 Q834.8125,727.9063 835.5,728.9766 Q836.1875,730.0469 837.5313,730.0469 Q838.1563,730.0469 838.75,729.7734 Q839.3438,729.5 839.9688,728.9219 L839.9688,731.6406 Z "/><text fill="#000000" font-family="sans-serif" font-size="12" lengthAdjust="spacingAndGlyphs" textLength="108" x="851" y="730.1543">VUSwapchainKHR</text><line style="stroke: #A80036; stroke-width: 1.5;" x1="823" x2="961" y1="742" y2="742"/><line style="stroke: #A80036; stroke-width: 1.5;" x1="823" x2="961" y1="750" y2="750"/><!--class FslDemoService.NativeGraphics.Vulkan.NativeGraphicsService--><rect fill="#FEFECE" filter="url(#f1mm2var878zo7)" height="48" id="FslDemoService.NativeGraphics.Vulkan.NativeGraphicsService" style="stroke: #A80036; stroke-width: 1.5;" width="171" x="886.5" y="551"/><ellipse cx="901.5" cy="567" fill="#ADD1B2" rx="11" ry="11" style="stroke: #A80036; stroke-width: 1.0;"/><path d="M904.4688,572.6406 Q903.8906,572.9375 903.25,573.0859 Q902.6094,573.2344 901.9063,573.2344 Q899.4063,573.2344 898.0859,571.5859 Q896.7656,569.9375 896.7656,566.8125 Q896.7656,563.6875 898.0859,562.0313 Q899.4063,560.375 901.9063,560.375 Q902.6094,560.375 903.2578,560.5313 Q903.9063,560.6875 904.4688,560.9844 L904.4688,563.7031 Q903.8438,563.125 903.25,562.8516 Q902.6563,562.5781 902.0313,562.5781 Q900.6875,562.5781 900,563.6484 Q899.3125,564.7188 899.3125,566.8125 Q899.3125,568.9063 900,569.9766 Q900.6875,571.0469 902.0313,571.0469 Q902.6563,571.0469 903.25,570.7734 Q903.8438,570.5 904.4688,569.9219 L904.4688,572.6406 Z "/><text fill="#000000" font-family="sans-serif" font-size="12" lengthAdjust="spacingAndGlyphs" textLength="139" x="915.5" y="571.1543">NativeGraphicsService</text><line style="stroke: #A80036; stroke-width: 1.5;" x1="887.5" x2="1056.5" y1="583" y2="583"/><line style="stroke: #A80036; stroke-width: 1.5;" x1="887.5" x2="1056.5" y1="591" y2="591"/><!--class FslDemoApp.Vulkan.DemoAppVulkan--><rect fill="#FEFECE" filter="url(#f1mm2var878zo7)" height="150.4375" id="FslDemoApp.Vulkan.DemoAppVulkan" style="stroke: #A80036; stroke-width: 1.5;" width="182" x="463" y="290"/><ellipse cx="499.6" cy="306" fill="#ADD1B2" rx="11" ry="11" style="stroke: #A80036; stroke-width: 1.0;"/><path d="M502.5688,311.6406 Q501.9906,311.9375 501.35,312.0859 Q500.7094,312.2344 500.0063,312.2344 Q497.5063,312.2344 496.1859,310.5859 Q494.8656,308.9375 494.8656,305.8125 Q494.8656,302.6875 496.1859,301.0313 Q497.5063,299.375 500.0063,299.375 Q500.7094,299.375 501.3578,299.5313 Q502.0063,299.6875 502.5688,299.9844 L502.5688,302.7031 Q501.9438,302.125 501.35,301.8516 Q500.7563,301.5781 500.1313,301.5781 Q498.7875,301.5781 498.1,302.6484 Q497.4125,303.7188 497.4125,305.8125 Q497.4125,307.9063 498.1,308.9766 Q498.7875,310.0469 500.1313,310.0469 Q500.7563,310.0469 501.35,309.7734 Q501.9438,309.5 502.5688,308.9219 L502.5688,311.6406 Z "/><text fill="#000000" font-family="sans-serif" font-size="12" lengthAdjust="spacingAndGlyphs" textLength="102" x="518.4" y="310.1543">DemoAppVulkan</text><line style="stroke: #A80036; stroke-width: 1.5;" x1="464" x2="644" y1="322" y2="322"/><rect fill="none" height="6" style="stroke: #C82930; stroke-width: 1.0;" width="6" x="471" y="330.9023"/><text fill="#000000" font-family="sans-serif" font-size="11" lengthAdjust="spacingAndGlyphs" textLength="144" x="483" y="336.2104">m_nativeGraphicsService</text><polygon fill="none" points="474,341.707,478,345.707,474,349.707,470,345.707" style="stroke: #B38D22; stroke-width: 1.0;"/><text fill="#000000" font-family="sans-serif" font-size="11" lengthAdjust="spacingAndGlyphs" textLength="60" x="483" y="349.0151">m_surface</text><polygon fill="none" points="474,354.5117,478,358.5117,474,362.5117,470,358.5117" style="stroke: #B38D22; stroke-width: 1.0;"/><text fill="#000000" font-family="sans-serif" font-size="11" lengthAdjust="spacingAndGlyphs" textLength="100" x="483" y="361.8198">m_physicalDevice</text><polygon fill="none" points="474,367.3164,478,371.3164,474,375.3164,470,371.3164" style="stroke: #B38D22; stroke-width: 1.0;"/><text fill="#000000" font-family="sans-serif" font-size="11" lengthAdjust="spacingAndGlyphs" textLength="136" x="483" y="374.6245">m_deviceActiveFeatures</text><polygon fill="none" points="474,380.1211,478,384.1211,474,388.1211,470,384.1211" style="stroke: #B38D22; stroke-width: 1.0;"/><text fill="#000000" font-family="sans-serif" font-size="11" lengthAdjust="spacingAndGlyphs" textLength="53" x="483" y="387.4292">m_device</text><polygon fill="none" points="474,392.9258,478,396.9258,474,400.9258,470,396.9258" style="stroke: #B38D22; stroke-width: 1.0;"/><text fill="#000000" font-family="sans-serif" font-size="11" lengthAdjust="spacingAndGlyphs" textLength="112" x="483" y="400.2339">m_deviceCreateInfo</text><polygon fill="none" points="474,405.7305,478,409.7305,474,413.7305,470,409.7305" style="stroke: #B38D22; stroke-width: 1.0;"/><text fill="#000000" font-family="sans-serif" font-size="11" lengthAdjust="spacingAndGlyphs" textLength="90" x="483" y="413.0386">m_deviceQueue</text><line style="stroke: #A80036; stroke-width: 1.5;" x1="464" x2="644" y1="419.6328" y2="419.6328"/><polygon fill="#FFFF44" points="474,426.5352,478,430.5352,474,434.5352,470,430.5352" style="stroke: #B38D22; stroke-width: 1.0;"/><text fill="#000000" font-family="sans-serif" font-size="11" lengthAdjust="spacingAndGlyphs" textLength="156" x="483" y="433.8433">GetNativeGraphicsService()</text><!--class FslDemoApp.Vulkan.DemoAppVulkanBasic--><rect fill="#FEFECE" filter="url(#f1mm2var878zo7)" height="150.4375" id="FslDemoApp.Vulkan.DemoAppVulkanBasic" style="stroke: #A80036; stroke-width: 1.5;" width="167" x="470.5" y="500"/><ellipse cx="485.5" cy="516" fill="#ADD1B2" rx="11" ry="11" style="stroke: #A80036; stroke-width: 1.0;"/><path d="M488.4688,521.6406 Q487.8906,521.9375 487.25,522.0859 Q486.6094,522.2344 485.9063,522.2344 Q483.4063,522.2344 482.0859,520.5859 Q480.7656,518.9375 480.7656,515.8125 Q480.7656,512.6875 482.0859,511.0313 Q483.4063,509.375 485.9063,509.375 Q486.6094,509.375 487.2578,509.5313 Q487.9063,509.6875 488.4688,509.9844 L488.4688,512.7031 Q487.8438,512.125 487.25,511.8516 Q486.6563,511.5781 486.0313,511.5781 Q484.6875,511.5781 484,512.6484 Q483.3125,513.7188 483.3125,515.8125 Q483.3125,517.9063 484,518.9766 Q484.6875,520.0469 486.0313,520.0469 Q486.6563,520.0469 487.25,519.7734 Q487.8438,519.5 488.4688,518.9219 L488.4688,521.6406 Z "/><text fill="#000000" font-family="sans-serif" font-size="12" lengthAdjust="spacingAndGlyphs" textLength="135" x="499.5" y="520.1543">DemoAppVulkanBasic</text><line style="stroke: #A80036; stroke-width: 1.5;" x1="471.5" x2="636.5" y1="532" y2="532"/><line style="stroke: #A80036; stroke-width: 1.5;" x1="471.5" x2="636.5" y1="540" y2="540"/><polygon fill="#FFFF44" points="481.5,546.9023,485.5,550.9023,481.5,554.9023,477.5,550.9023" style="stroke: #B38D22; stroke-width: 1.0;"/><text fill="#000000" font-family="sans-serif" font-size="11" lengthAdjust="spacingAndGlyphs" textLength="100" x="490.5" y="554.2104">TryPrepareDraw()</text><polygon fill="#FFFF44" points="481.5,559.707,485.5,563.707,481.5,567.707,477.5,563.707" style="stroke: #B38D22; stroke-width: 1.0;"/><text fill="#000000" font-family="sans-serif" font-size="11" lengthAdjust="spacingAndGlyphs" textLength="37" x="490.5" y="567.0151">Draw()</text><polygon fill="#FFFF44" points="481.5,572.5117,485.5,576.5117,481.5,580.5117,477.5,576.5117" style="stroke: #B38D22; stroke-width: 1.0;"/><text fill="#000000" font-family="sans-serif" font-size="11" lengthAdjust="spacingAndGlyphs" textLength="99" x="490.5" y="579.8198">TrySwapBuffers()</text><polygon fill="#FFFF44" points="481.5,585.3164,485.5,589.3164,481.5,593.3164,477.5,589.3164" style="stroke: #B38D22; stroke-width: 1.0;"/><text fill="#000000" font-family="sans-serif" font-size="11" lengthAdjust="spacingAndGlyphs" textLength="83" x="490.5" y="592.6245">AddSystemUI()</text><polygon fill="#FFFF44" points="481.5,598.1211,485.5,602.1211,481.5,606.1211,477.5,602.1211" style="stroke: #B38D22; stroke-width: 1.0;"/><text fill="#000000" font-family="sans-serif" font-size="11" lengthAdjust="spacingAndGlyphs" textLength="96" x="490.5" y="605.4292">BuildResources()</text><polygon fill="#FFFF44" points="481.5,610.9258,485.5,614.9258,481.5,618.9258,477.5,614.9258" style="stroke: #B38D22; stroke-width: 1.0;"/><text fill="#000000" font-family="sans-serif" font-size="11" lengthAdjust="spacingAndGlyphs" textLength="93" x="490.5" y="618.2339">FreeResources()</text><polygon fill="#FFFF44" points="481.5,623.7305,485.5,627.7305,481.5,631.7305,477.5,627.7305" style="stroke: #B38D22; stroke-width: 1.0;"/><text fill="#000000" font-family="sans-serif" font-size="11" lengthAdjust="spacingAndGlyphs" textLength="112" x="490.5" y="631.0386">OnBuildResources()</text><polygon fill="#FFFF44" points="481.5,636.5352,485.5,640.5352,481.5,644.5352,477.5,640.5352" style="stroke: #B38D22; stroke-width: 1.0;"/><text fill="#000000" font-family="sans-serif" font-size="11" lengthAdjust="spacingAndGlyphs" textLength="109" x="490.5" y="643.8433">OnFreeResources()</text><!--class FslDemoApp.Vulkan.DemoAppVulkanBasic_FrameDrawRecord--><rect fill="#FEFECE" filter="url(#f1mm2var878zo7)" height="48" id="FslDemoApp.Vulkan.DemoAppVulkanBasic_FrameDrawRecord" style="stroke: #A80036; stroke-width: 1.5;" width="287" x="38.5" y="710"/><ellipse cx="53.5" cy="726" fill="#ADD1B2" rx="11" ry="11" style="stroke: #A80036; stroke-width: 1.0;"/><path d="M56.4688,731.6406 Q55.8906,731.9375 55.25,732.0859 Q54.6094,732.2344 53.9063,732.2344 Q51.4063,732.2344 50.0859,730.5859 Q48.7656,728.9375 48.7656,725.8125 Q48.7656,722.6875 50.0859,721.0313 Q51.4063,719.375 53.9063,719.375 Q54.6094,719.375 55.2578,719.5313 Q55.9063,719.6875 56.4688,719.9844 L56.4688,722.7031 Q55.8438,722.125 55.25,721.8516 Q54.6563,721.5781 54.0313,721.5781 Q52.6875,721.5781 52,722.6484 Q51.3125,723.7188 51.3125,725.8125 Q51.3125,727.9063 52,728.9766 Q52.6875,730.0469 54.0313,730.0469 Q54.6563,730.0469 55.25,729.7734 Q55.8438,729.5 56.4688,728.9219 L56.4688,731.6406 Z "/><text fill="#000000" font-family="sans-serif" font-size="12" lengthAdjust="spacingAndGlyphs" textLength="255" x="67.5" y="730.1543">DemoAppVulkanBasic_FrameDrawRecord</text><line style="stroke: #A80036; stroke-width: 1.5;" x1="39.5" x2="324.5" y1="742" y2="742"/><line style="stroke: #A80036; stroke-width: 1.5;" x1="39.5" x2="324.5" y1="750" y2="750"/><!--class FslDemoApp.Vulkan.DemoAppVulkanBasic_SwapchainRecord--><rect fill="#FEFECE" filter="url(#f1mm2var878zo7)" height="48" id="FslDemoApp.Vulkan.DemoAppVulkanBasic_SwapchainRecord" style="stroke: #A80036; stroke-width: 1.5;" width="284" x="361" y="710"/><ellipse cx="376" cy="726" fill="#ADD1B2" rx="11" ry="11" style="stroke: #A80036; stroke-width: 1.0;"/><path d="M378.9688,731.6406 Q378.3906,731.9375 377.75,732.0859 Q377.1094,732.2344 376.4063,732.2344 Q373.9063,732.2344 372.5859,730.5859 Q371.2656,728.9375 371.2656,725.8125 Q371.2656,722.6875 372.5859,721.0313 Q373.9063,719.375 376.4063,719.375 Q377.1094,719.375 377.7578,719.5313 Q378.4063,719.6875 378.9688,719.9844 L378.9688,722.7031 Q378.3438,722.125 377.75,721.8516 Q377.1563,721.5781 376.5313,721.5781 Q375.1875,721.5781 374.5,722.6484 Q373.8125,723.7188 373.8125,725.8125 Q373.8125,727.9063 374.5,728.9766 Q375.1875,730.0469 376.5313,730.0469 Q377.1563,730.0469 377.75,729.7734 Q378.3438,729.5 378.9688,728.9219 L378.9688,731.6406 Z "/><text fill="#000000" font-family="sans-serif" font-size="12" lengthAdjust="spacingAndGlyphs" textLength="252" x="390" y="730.1543">DemoAppVulkanBasic_SwapchainRecord</text><line style="stroke: #A80036; stroke-width: 1.5;" x1="362" x2="644" y1="742" y2="742"/><line style="stroke: #A80036; stroke-width: 1.5;" x1="362" x2="644" y1="750" y2="750"/><!--link FslDemoApp.Base.IDemoApp to FslDemoApp.Base.ADemoApp--><path d="M554,127.024 C554,140.579 554,155.038 554,166.678 " fill="none" id="FslDemoApp.Base.IDemoApp-FslDemoApp.Base.ADemoApp" style="stroke: #A80036; stroke-width: 1.0;"/><polygon fill="none" points="547,127,554,107,561,127,547,127" style="stroke: #A80036; stroke-width: 1.0;"/><!--link FslDemoApp.Base.ADemoApp to FslDemoApp.Vulkan.DemoAppVulkan--><path d="M554,235.345 C554,251.888 554,271.251 554,289.859 " fill="none" id="FslDemoApp.Base.ADemoApp-FslDemoApp.Vulkan.DemoAppVulkan" style="stroke: #A80036; stroke-width: 1.0;"/><polygon fill="none" points="547,235.197,554,215.197,561,235.197,547,235.197" style="stroke: #A80036; stroke-width: 1.0;"/><!--link FslDemoApp.Vulkan.DemoAppVulkan to FslDemoApp.Vulkan.DemoAppVulkanBasic--><path d="M554,460.595 C554,473.751 554,487.108 554,499.817 " fill="none" id="FslDemoApp.Vulkan.DemoAppVulkan-FslDemoApp.Vulkan.DemoAppVulkanBasic" style="stroke: #A80036; stroke-width: 1.0;"/><polygon fill="none" points="547,460.212,554,440.212,561,460.212,547,460.212" style="stroke: #A80036; stroke-width: 1.0;"/><!--link FslDemoApp.Vulkan.DemoAppVulkan to FslUtil.Vulkan1_0.DeviceCreateInfoCopy--><path d="M655.437,436.63 C678.868,455.623 702.59,477.258 722,500 C771.746,558.284 741.666,609.961 807,650 C843.32,672.258 1149.42,654.032 1190,667 C1217.93,675.925 1245.6,694.616 1265.06,709.836 " fill="none" id="FslDemoApp.Vulkan.DemoAppVulkan-FslUtil.Vulkan1_0.DeviceCreateInfoCopy" style="stroke: #A80036; stroke-width: 1.0;"/><polygon fill="#FFFFFF" points="645.069,428.377,647.2721,435.2433,654.4575,435.8506,652.2545,428.9843,645.069,428.377" style="stroke: #A80036; stroke-width: 1.0;"/><!--link FslDemoApp.Vulkan.DemoAppVulkan to FslUtil.Vulkan1_0.VUDevice--><path d="M657.154,408.224 C702.316,430.501 753.452,461.314 791,500 C843.478,554.068 806.131,610.025 870,650 C919.379,680.905 1340.92,643.006 1394,667 C1413.91,676.001 1430.48,694.685 1441.46,709.884 " fill="none" id="FslDemoApp.Vulkan.DemoAppVulkan-FslUtil.Vulkan1_0.VUDevice" style="stroke: #A80036; stroke-width: 1.0;"/><polygon fill="#FFFFFF" points="645.204,402.457,648.8691,408.6673,656.0112,407.6727,652.3462,401.4624,645.204,402.457" style="stroke: #A80036; stroke-width: 1.0;"/><!--link FslDemoApp.Vulkan.DemoAppVulkan to FslUtil.Vulkan1_0.VUDeviceQueueRecord--><path d="M620.707,450.512 C632.569,466.639 644.482,483.608 655,500 C695.918,563.766 672.32,608.948 736,650 C781.684,679.45 928.327,650.142 980,667 C1008.25,676.216 1036.55,694.675 1056.64,709.733 " fill="none" id="FslDemoApp.Vulkan.DemoAppVulkan-FslUtil.Vulkan1_0.VUDeviceQueueRecord" style="stroke: #A80036; stroke-width: 1.0;"/><polygon fill="#FFFFFF" points="612.935,440.05,613.3022,447.2517,620.0913,449.6827,619.724,442.4809,612.935,440.05" style="stroke: #A80036; stroke-width: 1.0;"/><!--link FslDemoApp.Vulkan.DemoAppVulkan to FslDemoService.NativeGraphics.Vulkan.NativeGraphicsService--><path d="M657.452,406.435 C717.469,431.122 793.835,464.664 859,500 C887.242,515.314 917.619,535.431 939.757,550.823 " fill="none" id="FslDemoApp.Vulkan.DemoAppVulkan-FslDemoService.NativeGraphics.Vulkan.NativeGraphicsService" style="stroke: #A80036; stroke-width: 1.0;"/><polygon fill="#FFFFFF" points="645.29,401.461,649.3292,407.4347,656.3969,406.0037,652.3577,400.0301,645.29,401.461" style="stroke: #A80036; stroke-width: 1.0;"/><!--link FslDemoApp.Vulkan.DemoAppVulkanBasic to FslUtil.Vulkan1_0.VUSwapchainKHR--><path d="M649.494,643.388 C654.633,645.827 659.816,648.055 665,650 C719.555,670.473 740.543,646.269 795,667 C821.079,676.928 847.026,695.132 865.513,709.91 " fill="none" id="FslDemoApp.Vulkan.DemoAppVulkanBasic-FslUtil.Vulkan1_0.VUSwapchainKHR" style="stroke: #A80036; stroke-width: 1.0;"/><polygon fill="#A80036" points="637.609,637.342,641.1432,643.6276,648.3047,642.7828,644.7704,636.4972,637.609,637.342" style="stroke: #A80036; stroke-width: 1.0;"/><!--link FslDemoApp.Vulkan.DemoAppVulkanBasic to RapidVulkan.CommandPool--><path d="M646.415,643.367 C652.47,650.743 657.81,658.635 662,667 C689.233,721.367 682.85,795.858 677.215,832.9961 " fill="none" id="FslDemoApp.Vulkan.DemoAppVulkanBasic-RapidVulkan.CommandPool" style="stroke: #A80036; stroke-width: 1.0;"/><polygon fill="#A80036" points="637.758,633.634,638.7572,640.7755,645.7336,642.6,644.7345,635.4585,637.758,633.634" style="stroke: #A80036; stroke-width: 1.0;"/><!--link FslDemoApp.Vulkan.DemoAppVulkanBasic to RapidVulkan.CommandBuffers--><path d="M648.745,640.275 C654.204,643.63 659.648,646.894 665,650 C679.612,658.48 686.08,656.114 699,667 C757.248,716.077 804.567,794.303 825.844,832.9066 " fill="none" id="FslDemoApp.Vulkan.DemoAppVulkanBasic-RapidVulkan.CommandBuffers" style="stroke: #A80036; stroke-width: 1.0;"/><polygon fill="#A80036" points="637.545,633.283,640.5163,639.8535,647.7242,639.6379,644.7529,633.0674,637.545,633.283" style="stroke: #A80036; stroke-width: 1.0;"/><!--link FslDemoApp.Vulkan.DemoAppVulkanBasic to FslDemoApp.Vulkan.DemoAppVulkanBasic_FrameDrawRecord--><path d="M457.641,616.668 C387.318,646.347 294.526,685.509 236.562,709.972 " fill="none" id="FslDemoApp.Vulkan.DemoAppVulkanBasic-FslDemoApp.Vulkan.DemoAppVulkanBasic_FrameDrawRecord" style="stroke: #A80036; stroke-width: 1.0;"/><polygon fill="#A80036" points="470.052,611.43,462.9688,610.0778,458.9963,616.096,466.0795,617.4482,470.052,611.43" style="stroke: #A80036; stroke-width: 1.0;"/><!--link FslDemoApp.Vulkan.DemoAppVulkanBasic to FslDemoApp.Vulkan.DemoAppVulkanBasic_SwapchainRecord--><path d="M525.823,662.741 C520.181,680.109 514.716,696.932 510.549,709.76 " fill="none" id="FslDemoApp.Vulkan.DemoAppVulkanBasic-FslDemoApp.Vulkan.DemoAppVulkanBasic_SwapchainRecord" style="stroke: #A80036; stroke-width: 1.0;"/><polygon fill="#A80036" points="529.844,650.362,524.1858,654.8324,526.136,661.7747,531.7943,657.3044,529.844,650.362" style="stroke: #A80036; stroke-width: 1.0;"/><!--link FslDemoApp.Vulkan.DemoAppVulkanBasic_FrameDrawRecord to RapidVulkan.Fence--><path d="M205.429,768.748 C219.552,789.093 237.184,814.4913 249.776,832.6297 " fill="none" id="FslDemoApp.Vulkan.DemoAppVulkanBasic_FrameDrawRecord-RapidVulkan.Fence" style="stroke: #A80036; stroke-width: 1.0;"/><polygon fill="#A80036" points="197.997,758.044,198.1328,765.2538,204.8403,767.9015,204.7045,760.6916,197.997,758.044" style="stroke: #A80036; stroke-width: 1.0;"/><!--link FslDemoApp.Vulkan.DemoAppVulkanBasic_FrameDrawRecord to RapidVulkan.Semaphore--><path d="M170.865,770.455 C164.571,790.498 156.878,814.9951 151.339,832.6297 " fill="none" id="FslDemoApp.Vulkan.DemoAppVulkanBasic_FrameDrawRecord-RapidVulkan.Semaphore" style="stroke: #A80036; stroke-width: 1.0;"/><polygon fill="#A80036" points="174.763,758.044,169.1488,762.5696,171.167,769.4925,176.7812,764.9669,174.763,758.044" style="stroke: #A80036; stroke-width: 1.0;"/><!--link FslDemoApp.Vulkan.DemoAppVulkanBasic_SwapchainRecord to RapidVulkan.ImageView--><path d="M510.444,771.029 C514.563,790.964 519.563,815.1631 523.171,832.6297 " fill="none" id="FslDemoApp.Vulkan.DemoAppVulkanBasic_SwapchainRecord-RapidVulkan.ImageView" style="stroke: #A80036; stroke-width: 1.0;"/><polygon fill="#A80036" points="507.761,758.044,505.0583,764.7294,510.1899,769.7956,512.8927,763.1102,507.761,758.044" style="stroke: #A80036; stroke-width: 1.0;"/><!--link FslDemoApp.Vulkan.DemoAppVulkanBasic_SwapchainRecord to RapidVulkan.Framebuffer--><path d="M472.533,767.623 C453.364,788.15 429.078,814.1554 411.825,832.6297 " fill="none" id="FslDemoApp.Vulkan.DemoAppVulkanBasic_SwapchainRecord-RapidVulkan.Framebuffer" style="stroke: #A80036; stroke-width: 1.0;"/><polygon fill="#A80036" points="481.48,758.044,474.4614,759.6991,473.2898,766.8144,480.3084,765.1593,481.48,758.044" style="stroke: #A80036; stroke-width: 1.0;"/><!--
@startuml
scale 1

namespace RapidVulkan {
    class CommandPool
    class CommandBuffers
    class Fence
    class Framebuffer
    class ImageView
    class Semaphore
}

namespace FslDemoApp.Base {
    interface IDemoApp
    class ADemoApp

    IDemoApp <|- - ADemoApp
}

namespace FslUtil.Vulkan1_0 {
    class DeviceCreateInfoCopy
    class VUDevice
    class VUDeviceQueueRecord
    class VUSwapchainKHR
}

namespace FslDemoService.NativeGraphics.Vulkan {
    class NativeGraphicsService
}

namespace FslDemoApp.Vulkan {
    class DemoAppVulkan {
        -m_nativeGraphicsService
        #m_surface
        #m_physicalDevice
        #m_deviceActiveFeatures
        #m_device
        #m_deviceCreateInfo
        #m_deviceQueue
        #GetNativeGraphicsService()
    }
    class DemoAppVulkanBasic {
        #TryPrepareDraw()
        #Draw()
        #TrySwapBuffers()
        #AddSystemUI()
        #BuildResources()
        #FreeResources()
        #OnBuildResources()        
        #OnFreeResources()
    }
    class DemoAppVulkanBasic_FrameDrawRecord
    class DemoAppVulkanBasic_SwapchainRecord

    FslDemoApp.Base.ADemoApp <|- - DemoAppVulkan
    DemoAppVulkan <|- - DemoAppVulkanBasic

    DemoAppVulkan o- - FslUtil.Vulkan1_0.DeviceCreateInfoCopy
    DemoAppVulkan o- - FslUtil.Vulkan1_0.VUDevice
    DemoAppVulkan o- - FslUtil.Vulkan1_0.VUDeviceQueueRecord

    DemoAppVulkan o- -  FslDemoService.NativeGraphics.Vulkan.NativeGraphicsService

    DemoAppVulkanBasic *- -  FslUtil.Vulkan1_0.VUSwapchainKHR

    DemoAppVulkanBasic *- - RapidVulkan.CommandPool
    DemoAppVulkanBasic *- - RapidVulkan.CommandBuffers

    DemoAppVulkanBasic *- - DemoAppVulkanBasic_FrameDrawRecord
    DemoAppVulkanBasic *- - DemoAppVulkanBasic_SwapchainRecord

    DemoAppVulkanBasic_FrameDrawRecord *- - RapidVulkan.Fence
    DemoAppVulkanBasic_FrameDrawRecord *- - RapidVulkan.Semaphore

    DemoAppVulkanBasic_SwapchainRecord *- - RapidVulkan.ImageView
    DemoAppVulkanBasic_SwapchainRecord *- - RapidVulkan.Framebuffer
}
@enduml

PlantUML version 1.2018.14(Fri Dec 21 16:33:16 UTC 2018)
(GPL source distribution)
Java Runtime: OpenJDK Runtime Environment
JVM: OpenJDK 64-Bit Server VM
Java Version: 1.8.0_181-8u181-b13-2~deb9u1-b13
Operating System: Linux
OS Version: 4.15.0-43-generic
Default Encoding: UTF-8
Language: en
Country: null
--></g></svg>