<?xml version="1.0" encoding="UTF-8" standalone="no"?><svg xmlns="http://www.w3.org/2000/svg" xmlns:xlink="http://www.w3.org/1999/xlink" contentScriptType="application/ecmascript" contentStyleType="text/css" height="1082px" preserveAspectRatio="none" style="width:1674px;height:1082px;" version="1.1" viewBox="0 0 1674 1082" width="1674px" zoomAndPan="magnify"><defs><filter height="300%" id="f1ti01tne9rckz" width="300%" x="-1" y="-1"><feGaussianBlur result="blurOut" stdDeviation="2.0"/><feColorMatrix in="blurOut" result="blurOut2" type="matrix" values="0 0 0 0 0 0 0 0 0 0 0 0 0 0 0 0 0 0 .4 0"/><feOffset dx="4.0" dy="4.0" in="blurOut2" result="blurOut3"/><feBlend in="SourceGraphic" in2="blurOut3" mode="normal"/></filter></defs><g><rect fill="#ADD8E6" height="1067.3125" style="stroke: #A80036; stroke-width: 1.0;" width="472.5" x="186.5" y="4"/><text fill="#000000" font-family="sans-serif" font-size="13" font-weight="bold" lengthAdjust="spacingAndGlyphs" textLength="99" x="373.25" y="16.0669">AppTemplate</text><rect fill="#FFFFFF" filter="url(#f1ti01tne9rckz)" height="946.5859" style="stroke: #A80036; stroke-width: 1.0;" width="10" x="105" y="68.4297"/><rect fill="#FFFFFF" filter="url(#f1ti01tne9rckz)" height="946.5859" style="stroke: #A80036; stroke-width: 1.0;" width="10" x="270.5" y="68.4297"/><rect fill="#FFFFFF" filter="url(#f1ti01tne9rckz)" height="238.1953" style="stroke: #A80036; stroke-width: 1.0;" width="10" x="275.5" y="213.9609"/><rect fill="#FFFFFF" filter="url(#f1ti01tne9rckz)" height="28" style="stroke: #A80036; stroke-width: 1.0;" width="10" x="275.5" y="749.0859"/><rect fill="#FFFFFF" filter="url(#f1ti01tne9rckz)" height="946.5859" style="stroke: #A80036; stroke-width: 1.0;" width="10" x="432" y="68.4297"/><rect fill="#FFFFFF" filter="url(#f1ti01tne9rckz)" height="70.1328" style="stroke: #A80036; stroke-width: 1.0;" width="10" x="437" y="547.4219"/><rect fill="#FFFFFF" filter="url(#f1ti01tne9rckz)" height="28" style="stroke: #A80036; stroke-width: 1.0;" width="10" x="442" y="589.5547"/><rect fill="#FFFFFF" filter="url(#f1ti01tne9rckz)" height="70.1328" style="stroke: #A80036; stroke-width: 1.0;" width="10" x="437" y="850.3516"/><rect fill="#FFFFFF" filter="url(#f1ti01tne9rckz)" height="28" style="stroke: #A80036; stroke-width: 1.0;" width="10" x="442" y="892.4844"/><rect fill="#FFFFFF" filter="url(#f1ti01tne9rckz)" height="946.5859" style="stroke: #A80036; stroke-width: 1.0;" width="10" x="602" y="68.4297"/><rect fill="#FFFFFF" filter="url(#f1ti01tne9rckz)" height="917.4531" style="stroke: #A80036; stroke-width: 1.0;" width="10" x="692.5" y="68.4297"/><rect fill="#FFFFFF" filter="url(#f1ti01tne9rckz)" height="888.3203" style="stroke: #A80036; stroke-width: 1.0;" width="10" x="791" y="68.4297"/><rect fill="#FFFFFF" filter="url(#f1ti01tne9rckz)" height="412.8594" style="stroke: #A80036; stroke-width: 1.0;" width="10" x="903" y="68.4297"/><rect fill="#FFFFFF" filter="url(#f1ti01tne9rckz)" height="354.5938" style="stroke: #A80036; stroke-width: 1.0;" width="10" x="1010" y="68.4297"/><rect fill="#FFFFFF" filter="url(#f1ti01tne9rckz)" height="325.4609" style="stroke: #A80036; stroke-width: 1.0;" width="10" x="1140" y="68.4297"/><rect fill="#FFFFFF" filter="url(#f1ti01tne9rckz)" height="296.3281" style="stroke: #A80036; stroke-width: 1.0;" width="10" x="1270" y="68.4297"/><rect fill="#FFFFFF" filter="url(#f1ti01tne9rckz)" height="238.0625" style="stroke: #A80036; stroke-width: 1.0;" width="10" x="1406" y="68.4297"/><rect fill="#FFFFFF" filter="url(#f1ti01tne9rckz)" height="955.5859" style="stroke: #A80036; stroke-width: 1.0;" width="10" x="1576.5" y="68.4297"/><line style="stroke: #A80036; stroke-width: 1.0; stroke-dasharray: 5.0,5.0;" x1="109.5" x2="109.5" y1="58.4297" y2="1033.0156"/><line style="stroke: #A80036; stroke-width: 1.0; stroke-dasharray: 5.0,5.0;" x1="275.5" x2="275.5" y1="58.4297" y2="1033.0156"/><line style="stroke: #A80036; stroke-width: 1.0; stroke-dasharray: 5.0,5.0;" x1="436.5" x2="436.5" y1="58.4297" y2="1033.0156"/><line style="stroke: #A80036; stroke-width: 1.0; stroke-dasharray: 5.0,5.0;" x1="607" x2="607" y1="58.4297" y2="1033.0156"/><line style="stroke: #A80036; stroke-width: 1.0; stroke-dasharray: 5.0,5.0;" x1="697" x2="697" y1="58.4297" y2="1033.0156"/><line style="stroke: #A80036; stroke-width: 1.0; stroke-dasharray: 5.0,5.0;" x1="796" x2="796" y1="58.4297" y2="1033.0156"/><line style="stroke: #A80036; stroke-width: 1.0; stroke-dasharray: 5.0,5.0;" x1="908" x2="908" y1="58.4297" y2="1033.0156"/><line style="stroke: #A80036; stroke-width: 1.0; stroke-dasharray: 5.0,5.0;" x1="1015" x2="1015" y1="58.4297" y2="1033.0156"/><line style="stroke: #A80036; stroke-width: 1.0; stroke-dasharray: 5.0,5.0;" x1="1145" x2="1145" y1="58.4297" y2="1033.0156"/><line style="stroke: #A80036; stroke-width: 1.0; stroke-dasharray: 5.0,5.0;" x1="1275" x2="1275" y1="58.4297" y2="1033.0156"/><line style="stroke: #A80036; stroke-width: 1.0; stroke-dasharray: 5.0,5.0;" x1="1411" x2="1411" y1="58.4297" y2="1033.0156"/><line style="stroke: #A80036; stroke-width: 1.0; stroke-dasharray: 5.0,5.0;" x1="1581" x2="1581" y1="58.4297" y2="1033.0156"/><rect fill="#FEFECE" filter="url(#f1ti01tne9rckz)" height="30.2969" style="stroke: #A80036; stroke-width: 1.5;" width="137" x="39.5" y="23.1328"/><text fill="#000000" font-family="sans-serif" font-size="14" lengthAdjust="spacingAndGlyphs" textLength="123" x="46.5" y="43.1279">CustomDemoApp</text><rect fill="#FEFECE" filter="url(#f1ti01tne9rckz)" height="30.2969" style="stroke: #A80036; stroke-width: 1.5;" width="137" x="39.5" y="1032.0156"/><text fill="#000000" font-family="sans-serif" font-size="14" lengthAdjust="spacingAndGlyphs" textLength="123" x="46.5" y="1052.0107">CustomDemoApp</text><rect fill="#FEFECE" filter="url(#f1ti01tne9rckz)" height="30.2969" style="stroke: #A80036; stroke-width: 1.5;" width="166" x="190.5" y="23.1328"/><text fill="#000000" font-family="sans-serif" font-size="14" lengthAdjust="spacingAndGlyphs" textLength="152" x="197.5" y="43.1279">DemoAppVulkanBasic</text><rect fill="#FEFECE" filter="url(#f1ti01tne9rckz)" height="30.2969" style="stroke: #A80036; stroke-width: 1.5;" width="166" x="190.5" y="1032.0156"/><text fill="#000000" font-family="sans-serif" font-size="14" lengthAdjust="spacingAndGlyphs" textLength="152" x="197.5" y="1052.0107">DemoAppVulkanBasic</text><rect fill="#FEFECE" filter="url(#f1ti01tne9rckz)" height="30.2969" style="stroke: #A80036; stroke-width: 1.5;" width="129" x="370.5" y="23.1328"/><text fill="#000000" font-family="sans-serif" font-size="14" lengthAdjust="spacingAndGlyphs" textLength="115" x="377.5" y="43.1279">DemoAppVulkan</text><rect fill="#FEFECE" filter="url(#f1ti01tne9rckz)" height="30.2969" style="stroke: #A80036; stroke-width: 1.5;" width="129" x="370.5" y="1032.0156"/><text fill="#000000" font-family="sans-serif" font-size="14" lengthAdjust="spacingAndGlyphs" textLength="115" x="377.5" y="1052.0107">DemoAppVulkan</text><rect fill="#FEFECE" filter="url(#f1ti01tne9rckz)" height="30.2969" style="stroke: #A80036; stroke-width: 1.5;" width="92" x="559" y="23.1328"/><text fill="#000000" font-family="sans-serif" font-size="14" lengthAdjust="spacingAndGlyphs" textLength="78" x="566" y="43.1279">ADemoApp</text><rect fill="#FEFECE" filter="url(#f1ti01tne9rckz)" height="30.2969" style="stroke: #A80036; stroke-width: 1.5;" width="92" x="559" y="1032.0156"/><text fill="#000000" font-family="sans-serif" font-size="14" lengthAdjust="spacingAndGlyphs" textLength="78" x="566" y="1052.0107">ADemoApp</text><rect fill="#FEFECE" filter="url(#f1ti01tne9rckz)" height="30.2969" style="stroke: #A80036; stroke-width: 1.5;" width="61" x="665" y="23.1328"/><text fill="#000000" font-family="sans-serif" font-size="14" lengthAdjust="spacingAndGlyphs" textLength="47" x="672" y="43.1279">Device</text><rect fill="#FEFECE" filter="url(#f1ti01tne9rckz)" height="30.2969" style="stroke: #A80036; stroke-width: 1.5;" width="61" x="665" y="1032.0156"/><text fill="#000000" font-family="sans-serif" font-size="14" lengthAdjust="spacingAndGlyphs" textLength="47" x="672" y="1052.0107">Device</text><rect fill="#FEFECE" filter="url(#f1ti01tne9rckz)" height="30.2969" style="stroke: #A80036; stroke-width: 1.5;" width="108" x="740" y="23.1328"/><text fill="#000000" font-family="sans-serif" font-size="14" lengthAdjust="spacingAndGlyphs" textLength="94" x="747" y="43.1279">DeviceQueue</text><rect fill="#FEFECE" filter="url(#f1ti01tne9rckz)" height="30.2969" style="stroke: #A80036; stroke-width: 1.5;" width="108" x="740" y="1032.0156"/><text fill="#000000" font-family="sans-serif" font-size="14" lengthAdjust="spacingAndGlyphs" textLength="94" x="747" y="1052.0107">DeviceQueue</text><rect fill="#FEFECE" filter="url(#f1ti01tne9rckz)" height="30.2969" style="stroke: #A80036; stroke-width: 1.5;" width="88" x="862" y="23.1328"/><text fill="#000000" font-family="sans-serif" font-size="14" lengthAdjust="spacingAndGlyphs" textLength="74" x="869" y="43.1279">Swapchain</text><rect fill="#FEFECE" filter="url(#f1ti01tne9rckz)" height="30.2969" style="stroke: #A80036; stroke-width: 1.5;" width="88" x="862" y="1032.0156"/><text fill="#000000" font-family="sans-serif" font-size="14" lengthAdjust="spacingAndGlyphs" textLength="74" x="869" y="1052.0107">Swapchain</text><rect fill="#FEFECE" filter="url(#f1ti01tne9rckz)" height="30.2969" style="stroke: #A80036; stroke-width: 1.5;" width="98" x="964" y="23.1328"/><text fill="#000000" font-family="sans-serif" font-size="14" lengthAdjust="spacingAndGlyphs" textLength="84" x="971" y="43.1279">DepthBuffer</text><rect fill="#FEFECE" filter="url(#f1ti01tne9rckz)" height="30.2969" style="stroke: #A80036; stroke-width: 1.5;" width="98" x="964" y="1032.0156"/><text fill="#000000" font-family="sans-serif" font-size="14" lengthAdjust="spacingAndGlyphs" textLength="84" x="971" y="1052.0107">DepthBuffer</text><rect fill="#FEFECE" filter="url(#f1ti01tne9rckz)" height="30.2969" style="stroke: #A80036; stroke-width: 1.5;" width="134" x="1076" y="23.1328"/><text fill="#000000" font-family="sans-serif" font-size="14" lengthAdjust="spacingAndGlyphs" textLength="120" x="1083" y="43.1279">CommandBuffers</text><rect fill="#FEFECE" filter="url(#f1ti01tne9rckz)" height="30.2969" style="stroke: #A80036; stroke-width: 1.5;" width="134" x="1076" y="1032.0156"/><text fill="#000000" font-family="sans-serif" font-size="14" lengthAdjust="spacingAndGlyphs" textLength="120" x="1083" y="1052.0107">CommandBuffers</text><rect fill="#FEFECE" filter="url(#f1ti01tne9rckz)" height="30.2969" style="stroke: #A80036; stroke-width: 1.5;" width="98" x="1224" y="23.1328"/><text fill="#000000" font-family="sans-serif" font-size="14" lengthAdjust="spacingAndGlyphs" textLength="84" x="1231" y="43.1279">RenderPass</text><rect fill="#FEFECE" filter="url(#f1ti01tne9rckz)" height="30.2969" style="stroke: #A80036; stroke-width: 1.5;" width="98" x="1224" y="1032.0156"/><text fill="#000000" font-family="sans-serif" font-size="14" lengthAdjust="spacingAndGlyphs" textLength="84" x="1231" y="1052.0107">RenderPass</text><rect fill="#FEFECE" filter="url(#f1ti01tne9rckz)" height="30.2969" style="stroke: #A80036; stroke-width: 1.5;" width="146" x="1336" y="23.1328"/><text fill="#000000" font-family="sans-serif" font-size="14" lengthAdjust="spacingAndGlyphs" textLength="132" x="1343" y="43.1279">SwapchainRecords</text><rect fill="#FEFECE" filter="url(#f1ti01tne9rckz)" height="30.2969" style="stroke: #A80036; stroke-width: 1.5;" width="146" x="1336" y="1032.0156"/><text fill="#000000" font-family="sans-serif" font-size="14" lengthAdjust="spacingAndGlyphs" textLength="132" x="1343" y="1052.0107">SwapchainRecords</text><rect fill="#FEFECE" filter="url(#f1ti01tne9rckz)" height="30.2969" style="stroke: #A80036; stroke-width: 1.5;" width="167" x="1496" y="23.1328"/><text fill="#000000" font-family="sans-serif" font-size="14" lengthAdjust="spacingAndGlyphs" textLength="153" x="1503" y="43.1279">NativeGraphicsService</text><rect fill="#FEFECE" filter="url(#f1ti01tne9rckz)" height="30.2969" style="stroke: #A80036; stroke-width: 1.5;" width="167" x="1496" y="1032.0156"/><text fill="#000000" font-family="sans-serif" font-size="14" lengthAdjust="spacingAndGlyphs" textLength="153" x="1503" y="1052.0107">NativeGraphicsService</text><rect fill="#FFFFFF" filter="url(#f1ti01tne9rckz)" height="946.5859" style="stroke: #A80036; stroke-width: 1.0;" width="10" x="105" y="68.4297"/><rect fill="#FFFFFF" filter="url(#f1ti01tne9rckz)" height="946.5859" style="stroke: #A80036; stroke-width: 1.0;" width="10" x="270.5" y="68.4297"/><rect fill="#FFFFFF" filter="url(#f1ti01tne9rckz)" height="238.1953" style="stroke: #A80036; stroke-width: 1.0;" width="10" x="275.5" y="213.9609"/><rect fill="#FFFFFF" filter="url(#f1ti01tne9rckz)" height="28" style="stroke: #A80036; stroke-width: 1.0;" width="10" x="275.5" y="749.0859"/><rect fill="#FFFFFF" filter="url(#f1ti01tne9rckz)" height="946.5859" style="stroke: #A80036; stroke-width: 1.0;" width="10" x="432" y="68.4297"/><rect fill="#FFFFFF" filter="url(#f1ti01tne9rckz)" height="70.1328" style="stroke: #A80036; stroke-width: 1.0;" width="10" x="437" y="547.4219"/><rect fill="#FFFFFF" filter="url(#f1ti01tne9rckz)" height="28" style="stroke: #A80036; stroke-width: 1.0;" width="10" x="442" y="589.5547"/><rect fill="#FFFFFF" filter="url(#f1ti01tne9rckz)" height="70.1328" style="stroke: #A80036; stroke-width: 1.0;" width="10" x="437" y="850.3516"/><rect fill="#FFFFFF" filter="url(#f1ti01tne9rckz)" height="28" style="stroke: #A80036; stroke-width: 1.0;" width="10" x="442" y="892.4844"/><rect fill="#FFFFFF" filter="url(#f1ti01tne9rckz)" height="946.5859" style="stroke: #A80036; stroke-width: 1.0;" width="10" x="602" y="68.4297"/><rect fill="#FFFFFF" filter="url(#f1ti01tne9rckz)" height="917.4531" style="stroke: #A80036; stroke-width: 1.0;" width="10" x="692.5" y="68.4297"/><rect fill="#FFFFFF" filter="url(#f1ti01tne9rckz)" height="888.3203" style="stroke: #A80036; stroke-width: 1.0;" width="10" x="791" y="68.4297"/><rect fill="#FFFFFF" filter="url(#f1ti01tne9rckz)" height="412.8594" style="stroke: #A80036; stroke-width: 1.0;" width="10" x="903" y="68.4297"/><rect fill="#FFFFFF" filter="url(#f1ti01tne9rckz)" height="354.5938" style="stroke: #A80036; stroke-width: 1.0;" width="10" x="1010" y="68.4297"/><rect fill="#FFFFFF" filter="url(#f1ti01tne9rckz)" height="325.4609" style="stroke: #A80036; stroke-width: 1.0;" width="10" x="1140" y="68.4297"/><rect fill="#FFFFFF" filter="url(#f1ti01tne9rckz)" height="296.3281" style="stroke: #A80036; stroke-width: 1.0;" width="10" x="1270" y="68.4297"/><rect fill="#FFFFFF" filter="url(#f1ti01tne9rckz)" height="238.0625" style="stroke: #A80036; stroke-width: 1.0;" width="10" x="1406" y="68.4297"/><rect fill="#FFFFFF" filter="url(#f1ti01tne9rckz)" height="955.5859" style="stroke: #A80036; stroke-width: 1.0;" width="10" x="1576.5" y="68.4297"/><polygon fill="#A80036" points="93,85.5625,103,89.5625,93,93.5625,97,89.5625" style="stroke: #A80036; stroke-width: 1.0;"/><line style="stroke: #A80036; stroke-width: 1.0;" x1="3" x2="99" y1="89.5625" y2="89.5625"/><text fill="#000000" font-family="sans-serif" font-size="13" lengthAdjust="spacingAndGlyphs" textLength="83" x="10" y="84.4966">_PreDestruct</text><polygon fill="#A80036" points="590,114.6953,600,118.6953,590,122.6953,594,118.6953" style="stroke: #A80036; stroke-width: 1.0;"/><line style="stroke: #A80036; stroke-width: 1.0;" x1="115" x2="596" y1="118.6953" y2="118.6953"/><text fill="#000000" font-family="sans-serif" font-size="13" lengthAdjust="spacingAndGlyphs" textLength="83" x="122" y="113.6294">_PreDestruct</text><polygon fill="#A80036" points="126,143.8281,116,147.8281,126,151.8281,122,147.8281" style="stroke: #A80036; stroke-width: 1.0;"/><line style="stroke: #A80036; stroke-width: 1.0;" x1="120" x2="601" y1="147.8281" y2="147.8281"/><text fill="#000000" font-family="sans-serif" font-size="13" lengthAdjust="spacingAndGlyphs" textLength="68" x="132" y="142.7622">OnDestroy</text><polygon fill="#A80036" points="258.5,172.9609,268.5,176.9609,258.5,180.9609,262.5,176.9609" style="stroke: #A80036; stroke-width: 1.0;"/><line style="stroke: #A80036; stroke-width: 1.0;" x1="115" x2="264.5" y1="176.9609" y2="176.9609"/><text fill="#000000" font-family="sans-serif" font-size="13" lengthAdjust="spacingAndGlyphs" textLength="68" x="122" y="171.895">OnDestroy</text><line style="stroke: #A80036; stroke-width: 1.0;" x1="280.5" x2="327.5" y1="201.0938" y2="201.0938"/><line style="stroke: #A80036; stroke-width: 1.0;" x1="327.5" x2="327.5" y1="201.0938" y2="214.0938"/><line style="stroke: #A80036; stroke-width: 1.0;" x1="286.5" x2="327.5" y1="214.0938" y2="214.0938"/><polygon fill="#A80036" points="296.5,210.0938,286.5,214.0938,296.5,218.0938,292.5,214.0938" style="stroke: #A80036; stroke-width: 1.0;"/><text fill="#000000" font-family="sans-serif" font-size="13" lengthAdjust="spacingAndGlyphs" textLength="94" x="292.5" y="196.0278">FreeResources</text><polygon fill="#A80036" points="420,244.2266,430,248.2266,420,252.2266,424,248.2266" style="stroke: #A80036; stroke-width: 1.0;"/><line style="stroke: #A80036; stroke-width: 1.0;" x1="285.5" x2="426" y1="248.2266" y2="248.2266"/><text fill="#000000" font-family="sans-serif" font-size="13" lengthAdjust="spacingAndGlyphs" textLength="98" x="292.5" y="243.1606">SafeWaitForIdle</text><polygon fill="#A80036" points="1564.5,273.3594,1574.5,277.3594,1564.5,281.3594,1568.5,277.3594" style="stroke: #A80036; stroke-width: 1.0;"/><line style="stroke: #A80036; stroke-width: 1.0;" x1="285.5" x2="1570.5" y1="277.3594" y2="277.3594"/><text fill="#000000" font-family="sans-serif" font-size="13" lengthAdjust="spacingAndGlyphs" textLength="230" x="292.5" y="272.2935">VulkanDestroyDependentResources</text><polygon fill="#A80036" points="1399,302.4922,1409,306.4922,1399,310.4922,1403,306.4922" style="stroke: #A80036; stroke-width: 1.0;"/><line style="stroke: #A80036; stroke-width: 1.0;" x1="285.5" x2="1405" y1="306.4922" y2="306.4922"/><text fill="#000000" font-family="sans-serif" font-size="13" lengthAdjust="spacingAndGlyphs" textLength="33" x="292.5" y="301.4263">Clear</text><polygon fill="#A80036" points="126,331.625,116,335.625,126,339.625,122,335.625" style="stroke: #A80036; stroke-width: 1.0;"/><line style="stroke: #A80036; stroke-width: 1.0;" x1="120" x2="274.5" y1="335.625" y2="335.625"/><text fill="#000000" font-family="sans-serif" font-size="13" lengthAdjust="spacingAndGlyphs" textLength="112" x="132" y="330.5591">OnFreeResources</text><polygon fill="#A80036" points="1263,360.7578,1273,364.7578,1263,368.7578,1267,364.7578" style="stroke: #A80036; stroke-width: 1.0;"/><line style="stroke: #A80036; stroke-width: 1.0;" x1="115" x2="1269" y1="364.7578" y2="364.7578"/><text fill="#000000" font-family="sans-serif" font-size="13" lengthAdjust="spacingAndGlyphs" textLength="55" x="122" y="359.6919">Destruct</text><polygon fill="#A80036" points="1133,389.8906,1143,393.8906,1133,397.8906,1137,393.8906" style="stroke: #A80036; stroke-width: 1.0;"/><line style="stroke: #A80036; stroke-width: 1.0;" x1="285.5" x2="1139" y1="393.8906" y2="393.8906"/><text fill="#000000" font-family="sans-serif" font-size="13" lengthAdjust="spacingAndGlyphs" textLength="36" x="292.5" y="388.8247">Reset</text><polygon fill="#A80036" points="1003,419.0234,1013,423.0234,1003,427.0234,1007,423.0234" style="stroke: #A80036; stroke-width: 1.0;"/><line style="stroke: #A80036; stroke-width: 1.0;" x1="285.5" x2="1009" y1="423.0234" y2="423.0234"/><text fill="#000000" font-family="sans-serif" font-size="13" lengthAdjust="spacingAndGlyphs" textLength="36" x="292.5" y="417.9575">Reset</text><polygon fill="#A80036" points="420,448.1563,430,452.1563,420,456.1563,424,452.1563" style="stroke: #A80036; stroke-width: 1.0;"/><line style="stroke: #A80036; stroke-width: 1.0;" x1="280.5" x2="426" y1="452.1563" y2="452.1563"/><text fill="#000000" font-family="sans-serif" font-size="13" lengthAdjust="spacingAndGlyphs" textLength="98" x="287.5" y="447.0903">SafeWaitForIdle</text><polygon fill="#A80036" points="896,477.2891,906,481.2891,896,485.2891,900,481.2891" style="stroke: #A80036; stroke-width: 1.0;"/><line style="stroke: #A80036; stroke-width: 1.0;" x1="280.5" x2="902" y1="481.2891" y2="481.2891"/><text fill="#000000" font-family="sans-serif" font-size="13" lengthAdjust="spacingAndGlyphs" textLength="36" x="287.5" y="476.2231">Reset</text><polygon fill="#A80036" points="420,506.4219,430,510.4219,420,514.4219,424,510.4219" style="stroke: #A80036; stroke-width: 1.0;"/><line style="stroke: #A80036; stroke-width: 1.0;" x1="280.5" x2="426" y1="510.4219" y2="510.4219"/><text fill="#000000" font-family="sans-serif" font-size="13" lengthAdjust="spacingAndGlyphs" textLength="68" x="287.5" y="505.356">OnDestroy</text><line style="stroke: #A80036; stroke-width: 1.0;" x1="442" x2="489" y1="534.5547" y2="534.5547"/><line style="stroke: #A80036; stroke-width: 1.0;" x1="489" x2="489" y1="534.5547" y2="547.5547"/><line style="stroke: #A80036; stroke-width: 1.0;" x1="448" x2="489" y1="547.5547" y2="547.5547"/><polygon fill="#A80036" points="458,543.5547,448,547.5547,458,551.5547,454,547.5547" style="stroke: #A80036; stroke-width: 1.0;"/><text fill="#000000" font-family="sans-serif" font-size="13" lengthAdjust="spacingAndGlyphs" textLength="92" x="454" y="529.4888">SafeShutdown</text><line style="stroke: #A80036; stroke-width: 1.0;" x1="452" x2="494" y1="581.6875" y2="581.6875"/><line style="stroke: #A80036; stroke-width: 1.0;" x1="494" x2="494" y1="581.6875" y2="594.6875"/><line style="stroke: #A80036; stroke-width: 1.0;" x1="453" x2="494" y1="594.6875" y2="594.6875"/><polygon fill="#A80036" points="463,590.6875,453,594.6875,463,598.6875,459,594.6875" style="stroke: #A80036; stroke-width: 1.0;"/><text fill="#000000" font-family="sans-serif" font-size="13" lengthAdjust="spacingAndGlyphs" textLength="141" x="459" y="576.6216">SafeWaitForDeviceIdle</text><polygon fill="#A80036" points="590,649.8203,600,653.8203,590,657.8203,594,653.8203" style="stroke: #A80036; stroke-width: 1.0;"/><line style="stroke: #A80036; stroke-width: 1.0;" x1="442" x2="596" y1="653.8203" y2="653.8203"/><text fill="#000000" font-family="sans-serif" font-size="13" lengthAdjust="spacingAndGlyphs" textLength="68" x="449" y="648.7544">OnDestroy</text><polygon fill="#A80036" points="93,678.9531,103,682.9531,93,686.9531,97,682.9531" style="stroke: #A80036; stroke-width: 1.0;"/><line style="stroke: #A80036; stroke-width: 1.0;" x1="3" x2="99" y1="682.9531" y2="682.9531"/><text fill="#000000" font-family="sans-serif" font-size="13" lengthAdjust="spacingAndGlyphs" textLength="55" x="10" y="677.8872">Destruct</text><polygon fill="#A80036" points="258.5,708.0859,268.5,712.0859,258.5,716.0859,262.5,712.0859" style="stroke: #A80036; stroke-width: 1.0;"/><line style="stroke: #A80036; stroke-width: 1.0;" x1="115" x2="264.5" y1="712.0859" y2="712.0859"/><text fill="#000000" font-family="sans-serif" font-size="13" lengthAdjust="spacingAndGlyphs" textLength="55" x="122" y="707.02">Destruct</text><line style="stroke: #A80036; stroke-width: 1.0;" x1="285.5" x2="327.5" y1="741.2188" y2="741.2188"/><line style="stroke: #A80036; stroke-width: 1.0;" x1="327.5" x2="327.5" y1="741.2188" y2="754.2188"/><line style="stroke: #A80036; stroke-width: 1.0;" x1="286.5" x2="327.5" y1="754.2188" y2="754.2188"/><polygon fill="#A80036" points="296.5,750.2188,286.5,754.2188,296.5,758.2188,292.5,754.2188" style="stroke: #A80036; stroke-width: 1.0;"/><text fill="#000000" font-family="sans-serif" font-size="13" lengthAdjust="spacingAndGlyphs" textLength="94" x="292.5" y="736.1528">FreeResources</text><polygon fill="#A80036" points="420,809.3516,430,813.3516,420,817.3516,424,813.3516" style="stroke: #A80036; stroke-width: 1.0;"/><line style="stroke: #A80036; stroke-width: 1.0;" x1="280.5" x2="426" y1="813.3516" y2="813.3516"/><text fill="#000000" font-family="sans-serif" font-size="13" lengthAdjust="spacingAndGlyphs" textLength="55" x="287.5" y="808.2856">Destruct</text><line style="stroke: #A80036; stroke-width: 1.0;" x1="442" x2="489" y1="837.4844" y2="837.4844"/><line style="stroke: #A80036; stroke-width: 1.0;" x1="489" x2="489" y1="837.4844" y2="850.4844"/><line style="stroke: #A80036; stroke-width: 1.0;" x1="448" x2="489" y1="850.4844" y2="850.4844"/><polygon fill="#A80036" points="458,846.4844,448,850.4844,458,854.4844,454,850.4844" style="stroke: #A80036; stroke-width: 1.0;"/><text fill="#000000" font-family="sans-serif" font-size="13" lengthAdjust="spacingAndGlyphs" textLength="92" x="454" y="832.4185">SafeShutdown</text><line style="stroke: #A80036; stroke-width: 1.0;" x1="452" x2="494" y1="884.6172" y2="884.6172"/><line style="stroke: #A80036; stroke-width: 1.0;" x1="494" x2="494" y1="884.6172" y2="897.6172"/><line style="stroke: #A80036; stroke-width: 1.0;" x1="453" x2="494" y1="897.6172" y2="897.6172"/><polygon fill="#A80036" points="463,893.6172,453,897.6172,463,901.6172,459,897.6172" style="stroke: #A80036; stroke-width: 1.0;"/><text fill="#000000" font-family="sans-serif" font-size="13" lengthAdjust="spacingAndGlyphs" textLength="141" x="459" y="879.5513">SafeWaitForDeviceIdle</text><polygon fill="#A80036" points="784,952.75,794,956.75,784,960.75,788,956.75" style="stroke: #A80036; stroke-width: 1.0;"/><line style="stroke: #A80036; stroke-width: 1.0;" x1="442" x2="790" y1="956.75" y2="956.75"/><text fill="#000000" font-family="sans-serif" font-size="13" lengthAdjust="spacingAndGlyphs" textLength="55" x="449" y="951.6841">Destruct</text><polygon fill="#A80036" points="685.5,981.8828,695.5,985.8828,685.5,989.8828,689.5,985.8828" style="stroke: #A80036; stroke-width: 1.0;"/><line style="stroke: #A80036; stroke-width: 1.0;" x1="442" x2="691.5" y1="985.8828" y2="985.8828"/><text fill="#000000" font-family="sans-serif" font-size="13" lengthAdjust="spacingAndGlyphs" textLength="55" x="449" y="980.8169">Destruct</text><polygon fill="#A80036" points="595,1011.0156,605,1015.0156,595,1019.0156,599,1015.0156" style="stroke: #A80036; stroke-width: 1.0;"/><line style="stroke: #A80036; stroke-width: 1.0;" x1="437" x2="601" y1="1015.0156" y2="1015.0156"/><text fill="#000000" font-family="sans-serif" font-size="13" lengthAdjust="spacingAndGlyphs" textLength="55" x="444" y="1009.9497">Destruct</text><!--
@startuml
activate CustomDemoApp
activate DemoAppVulkanBasic
activate DemoAppVulkan
activate ADemoApp

box "AppTemplate" #LightBlue
    participant DemoAppVulkanBasic
    participant DemoAppVulkan
    participant ADemoApp
end box

activate Device
activate DeviceQueue
activate Swapchain
activate DepthBuffer
activate CommandBuffers
activate RenderPass
activate SwapchainRecords
activate NativeGraphicsService

->CustomDemoApp: _PreDestruct
CustomDemoApp->ADemoApp: _PreDestruct
ADemoApp->CustomDemoApp: OnDestroy
CustomDemoApp->DemoAppVulkanBasic: OnDestroy
DemoAppVulkanBasic->DemoAppVulkanBasic++: FreeResources
DemoAppVulkanBasic->DemoAppVulkan: SafeWaitForIdle
DemoAppVulkanBasic->NativeGraphicsService: VulkanDestroyDependentResources
DemoAppVulkanBasic->SwapchainRecords: Clear
deactivate SwapchainRecords
DemoAppVulkanBasic->CustomDemoApp: OnFreeResources
CustomDemoApp->RenderPass: Destruct
deactivate RenderPass
DemoAppVulkanBasic->CommandBuffers: Reset
deactivate CommandBuffers
DemoAppVulkanBasic->DepthBuffer: Reset
deactivate DepthBuffer
DemoAppVulkanBasic->DemoAppVulkan: SafeWaitForIdle
deactivate DemoAppVulkanBasic
DemoAppVulkanBasic->Swapchain: Reset
deactivate Swapchain
DemoAppVulkanBasic->DemoAppVulkan: OnDestroy
DemoAppVulkan->DemoAppVulkan++: SafeShutdown
DemoAppVulkan->DemoAppVulkan++: SafeWaitForDeviceIdle
deactivate DemoAppVulkan
deactivate DemoAppVulkan
DemoAppVulkan->ADemoApp: OnDestroy

->CustomDemoApp: Destruct
CustomDemoApp->DemoAppVulkanBasic: Destruct
DemoAppVulkanBasic->DemoAppVulkanBasic++: FreeResources
deactivate DemoAppVulkanBasic

DemoAppVulkanBasic->DemoAppVulkan: Destruct
DemoAppVulkan->DemoAppVulkan++: SafeShutdown
DemoAppVulkan->DemoAppVulkan++: SafeWaitForDeviceIdle
deactivate DemoAppVulkan
deactivate DemoAppVulkan
DemoAppVulkan->DeviceQueue: Destruct
deactivate DeviceQueue
DemoAppVulkan->Device: Destruct
deactivate Device

DemoAppVulkan->ADemoApp: Destruct
deactivate ADemoApp
deactivate DemoAppVulkan
deactivate DemoAppVulkanBasic
deactivate CustomDemoApp
@enduml

PlantUML version 1.2018.14(Fri Dec 21 16:33:16 UTC 2018)
(GPL source distribution)
Java Runtime: OpenJDK Runtime Environment
JVM: OpenJDK 64-Bit Server VM
Java Version: 1.8.0_181-8u181-b13-2~deb9u1-b13
Operating System: Linux
OS Version: 4.15.0-43-generic
Default Encoding: UTF-8
Language: en
Country: null
--></g></svg>