<?xml version="1.0" encoding="UTF-8" standalone="no"?><svg xmlns="http://www.w3.org/2000/svg" xmlns:xlink="http://www.w3.org/1999/xlink" contentScriptType="application/ecmascript" contentStyleType="text/css" height="1695px" preserveAspectRatio="none" style="width:1901px;height:1695px;" version="1.1" viewBox="0 0 1901 1695" width="1901px" zoomAndPan="magnify"><defs><filter height="300%" id="fh0qudgq52skj" width="300%" x="-1" y="-1"><feGaussianBlur result="blurOut" stdDeviation="2.0"/><feColorMatrix in="blurOut" result="blurOut2" type="matrix" values="0 0 0 0 0 0 0 0 0 0 0 0 0 0 0 0 0 0 .4 0"/><feOffset dx="4.0" dy="4.0" in="blurOut2" result="blurOut3"/><feBlend in="SourceGraphic" in2="blurOut3" mode="normal"/></filter></defs><g><rect fill="#ADD8E6" height="1680.5" style="stroke: #A80036; stroke-width: 1.0;" width="427" x="211.5" y="4"/><text fill="#000000" font-family="sans-serif" font-size="13" font-weight="bold" lengthAdjust="spacingAndGlyphs" textLength="99" x="375.5" y="16.0669">AppTemplate</text><rect fill="#FFFFFF" filter="url(#fh0qudgq52skj)" height="1568.7734" style="stroke: #A80036; stroke-width: 1.0;" width="10" x="130" y="68.4297"/><rect fill="#FFFFFF" filter="url(#fh0qudgq52skj)" height="1568.7734" style="stroke: #A80036; stroke-width: 1.0;" width="10" x="295.5" y="68.4297"/><rect fill="#FFFFFF" filter="url(#fh0qudgq52skj)" height="99.2656" style="stroke: #A80036; stroke-width: 1.0;" width="10" x="300.5" y="1521.8047"/><rect fill="#FFFFFF" filter="url(#fh0qudgq52skj)" height="28" style="stroke: #A80036; stroke-width: 1.0;" width="10" x="305.5" y="1593.0703"/><rect fill="#FFFFFF" filter="url(#fh0qudgq52skj)" height="1568.7734" style="stroke: #A80036; stroke-width: 1.0;" width="10" x="457" y="68.4297"/><rect fill="#FFFFFF" filter="url(#fh0qudgq52skj)" height="1568.7734" style="stroke: #A80036; stroke-width: 1.0;" width="10" x="581.5" y="68.4297"/><rect fill="#FFFFFF" filter="url(#fh0qudgq52skj)" height="1568.7734" style="stroke: #A80036; stroke-width: 1.0;" width="10" x="672" y="68.4297"/><rect fill="#FFFFFF" filter="url(#fh0qudgq52skj)" height="1568.7734" style="stroke: #A80036; stroke-width: 1.0;" width="10" x="770.5" y="68.4297"/><rect fill="#FFFFFF" filter="url(#fh0qudgq52skj)" height="1568.7734" style="stroke: #A80036; stroke-width: 1.0;" width="10" x="882.5" y="68.4297"/><rect fill="#FFFFFF" filter="url(#fh0qudgq52skj)" height="1568.7734" style="stroke: #A80036; stroke-width: 1.0;" width="10" x="1007.5" y="68.4297"/><rect fill="#FFFFFF" filter="url(#fh0qudgq52skj)" height="1568.7734" style="stroke: #A80036; stroke-width: 1.0;" width="10" x="1137.5" y="68.4297"/><rect fill="#FFFFFF" filter="url(#fh0qudgq52skj)" height="1568.7734" style="stroke: #A80036; stroke-width: 1.0;" width="10" x="1273.5" y="68.4297"/><rect fill="#FFFFFF" filter="url(#fh0qudgq52skj)" height="1568.7734" style="stroke: #A80036; stroke-width: 1.0;" width="10" x="1444" y="68.4297"/><rect fill="#FFFFFF" filter="url(#fh0qudgq52skj)" height="1568.7734" style="stroke: #A80036; stroke-width: 1.0;" width="10" x="1587" y="68.4297"/><rect fill="#FFFFFF" filter="url(#fh0qudgq52skj)" height="1568.7734" style="stroke: #A80036; stroke-width: 1.0;" width="10" x="1704.5" y="68.4297"/><rect fill="#FFFFFF" filter="url(#fh0qudgq52skj)" height="63.3984" style="stroke: #A80036; stroke-width: 1.0;" width="10" x="1709.5" y="942.2813"/><rect fill="#FFFFFF" filter="url(#fh0qudgq52skj)" height="63.3984" style="stroke: #A80036; stroke-width: 1.0;" width="10" x="1709.5" y="1246.6094"/><rect fill="#FFFFFF" filter="url(#fh0qudgq52skj)" height="1568.7734" style="stroke: #A80036; stroke-width: 1.0;" width="10" x="1832" y="68.4297"/><line style="stroke: #A80036; stroke-width: 1.0; stroke-dasharray: 5.0,5.0;" x1="134.5" x2="134.5" y1="58.4297" y2="1646.2031"/><line style="stroke: #A80036; stroke-width: 1.0; stroke-dasharray: 5.0,5.0;" x1="300.5" x2="300.5" y1="58.4297" y2="1646.2031"/><line style="stroke: #A80036; stroke-width: 1.0; stroke-dasharray: 5.0,5.0;" x1="461.5" x2="461.5" y1="58.4297" y2="1646.2031"/><line style="stroke: #A80036; stroke-width: 1.0; stroke-dasharray: 5.0,5.0;" x1="586.5" x2="586.5" y1="58.4297" y2="1646.2031"/><line style="stroke: #A80036; stroke-width: 1.0; stroke-dasharray: 5.0,5.0;" x1="676.5" x2="676.5" y1="58.4297" y2="1646.2031"/><line style="stroke: #A80036; stroke-width: 1.0; stroke-dasharray: 5.0,5.0;" x1="775.5" x2="775.5" y1="58.4297" y2="1646.2031"/><line style="stroke: #A80036; stroke-width: 1.0; stroke-dasharray: 5.0,5.0;" x1="887.5" x2="887.5" y1="58.4297" y2="1646.2031"/><line style="stroke: #A80036; stroke-width: 1.0; stroke-dasharray: 5.0,5.0;" x1="1012.5" x2="1012.5" y1="58.4297" y2="1646.2031"/><line style="stroke: #A80036; stroke-width: 1.0; stroke-dasharray: 5.0,5.0;" x1="1142.5" x2="1142.5" y1="58.4297" y2="1646.2031"/><line style="stroke: #A80036; stroke-width: 1.0; stroke-dasharray: 5.0,5.0;" x1="1278.5" x2="1278.5" y1="58.4297" y2="1646.2031"/><line style="stroke: #A80036; stroke-width: 1.0; stroke-dasharray: 5.0,5.0;" x1="1448.5" x2="1448.5" y1="58.4297" y2="1646.2031"/><line style="stroke: #A80036; stroke-width: 1.0; stroke-dasharray: 5.0,5.0;" x1="1591.5" x2="1591.5" y1="58.4297" y2="1646.2031"/><line style="stroke: #A80036; stroke-width: 1.0; stroke-dasharray: 5.0,5.0;" x1="1709.5" x2="1709.5" y1="58.4297" y2="1646.2031"/><line style="stroke: #A80036; stroke-width: 1.0; stroke-dasharray: 5.0,5.0;" x1="1836.5" x2="1836.5" y1="58.4297" y2="1646.2031"/><rect fill="#FEFECE" filter="url(#fh0qudgq52skj)" height="30.2969" style="stroke: #A80036; stroke-width: 1.5;" width="137" x="64.5" y="23.1328"/><text fill="#000000" font-family="sans-serif" font-size="14" lengthAdjust="spacingAndGlyphs" textLength="123" x="71.5" y="43.1279">CustomDemoApp</text><rect fill="#FEFECE" filter="url(#fh0qudgq52skj)" height="30.2969" style="stroke: #A80036; stroke-width: 1.5;" width="137" x="64.5" y="1645.2031"/><text fill="#000000" font-family="sans-serif" font-size="14" lengthAdjust="spacingAndGlyphs" textLength="123" x="71.5" y="1665.1982">CustomDemoApp</text><rect fill="#FEFECE" filter="url(#fh0qudgq52skj)" height="30.2969" style="stroke: #A80036; stroke-width: 1.5;" width="166" x="215.5" y="23.1328"/><text fill="#000000" font-family="sans-serif" font-size="14" lengthAdjust="spacingAndGlyphs" textLength="152" x="222.5" y="43.1279">DemoAppVulkanBasic</text><rect fill="#FEFECE" filter="url(#fh0qudgq52skj)" height="30.2969" style="stroke: #A80036; stroke-width: 1.5;" width="166" x="215.5" y="1645.2031"/><text fill="#000000" font-family="sans-serif" font-size="14" lengthAdjust="spacingAndGlyphs" textLength="152" x="222.5" y="1665.1982">DemoAppVulkanBasic</text><rect fill="#FEFECE" filter="url(#fh0qudgq52skj)" height="30.2969" style="stroke: #A80036; stroke-width: 1.5;" width="129" x="395.5" y="23.1328"/><text fill="#000000" font-family="sans-serif" font-size="14" lengthAdjust="spacingAndGlyphs" textLength="115" x="402.5" y="43.1279">DemoAppVulkan</text><rect fill="#FEFECE" filter="url(#fh0qudgq52skj)" height="30.2969" style="stroke: #A80036; stroke-width: 1.5;" width="129" x="395.5" y="1645.2031"/><text fill="#000000" font-family="sans-serif" font-size="14" lengthAdjust="spacingAndGlyphs" textLength="115" x="402.5" y="1665.1982">DemoAppVulkan</text><rect fill="#FEFECE" filter="url(#fh0qudgq52skj)" height="30.2969" style="stroke: #A80036; stroke-width: 1.5;" width="92" x="538.5" y="23.1328"/><text fill="#000000" font-family="sans-serif" font-size="14" lengthAdjust="spacingAndGlyphs" textLength="78" x="545.5" y="43.1279">ADemoApp</text><rect fill="#FEFECE" filter="url(#fh0qudgq52skj)" height="30.2969" style="stroke: #A80036; stroke-width: 1.5;" width="92" x="538.5" y="1645.2031"/><text fill="#000000" font-family="sans-serif" font-size="14" lengthAdjust="spacingAndGlyphs" textLength="78" x="545.5" y="1665.1982">ADemoApp</text><rect fill="#FEFECE" filter="url(#fh0qudgq52skj)" height="30.2969" style="stroke: #A80036; stroke-width: 1.5;" width="61" x="644.5" y="23.1328"/><text fill="#000000" font-family="sans-serif" font-size="14" lengthAdjust="spacingAndGlyphs" textLength="47" x="651.5" y="43.1279">Device</text><rect fill="#FEFECE" filter="url(#fh0qudgq52skj)" height="30.2969" style="stroke: #A80036; stroke-width: 1.5;" width="61" x="644.5" y="1645.2031"/><text fill="#000000" font-family="sans-serif" font-size="14" lengthAdjust="spacingAndGlyphs" textLength="47" x="651.5" y="1665.1982">Device</text><rect fill="#FEFECE" filter="url(#fh0qudgq52skj)" height="30.2969" style="stroke: #A80036; stroke-width: 1.5;" width="108" x="719.5" y="23.1328"/><text fill="#000000" font-family="sans-serif" font-size="14" lengthAdjust="spacingAndGlyphs" textLength="94" x="726.5" y="43.1279">DeviceQueue</text><rect fill="#FEFECE" filter="url(#fh0qudgq52skj)" height="30.2969" style="stroke: #A80036; stroke-width: 1.5;" width="108" x="719.5" y="1645.2031"/><text fill="#000000" font-family="sans-serif" font-size="14" lengthAdjust="spacingAndGlyphs" textLength="94" x="726.5" y="1665.1982">DeviceQueue</text><rect fill="#FEFECE" filter="url(#fh0qudgq52skj)" height="30.2969" style="stroke: #A80036; stroke-width: 1.5;" width="88" x="841.5" y="23.1328"/><text fill="#000000" font-family="sans-serif" font-size="14" lengthAdjust="spacingAndGlyphs" textLength="74" x="848.5" y="43.1279">Swapchain</text><rect fill="#FEFECE" filter="url(#fh0qudgq52skj)" height="30.2969" style="stroke: #A80036; stroke-width: 1.5;" width="88" x="841.5" y="1645.2031"/><text fill="#000000" font-family="sans-serif" font-size="14" lengthAdjust="spacingAndGlyphs" textLength="74" x="848.5" y="1665.1982">Swapchain</text><rect fill="#FEFECE" filter="url(#fh0qudgq52skj)" height="30.2969" style="stroke: #A80036; stroke-width: 1.5;" width="134" x="943.5" y="23.1328"/><text fill="#000000" font-family="sans-serif" font-size="14" lengthAdjust="spacingAndGlyphs" textLength="120" x="950.5" y="43.1279">CommandBuffers</text><rect fill="#FEFECE" filter="url(#fh0qudgq52skj)" height="30.2969" style="stroke: #A80036; stroke-width: 1.5;" width="134" x="943.5" y="1645.2031"/><text fill="#000000" font-family="sans-serif" font-size="14" lengthAdjust="spacingAndGlyphs" textLength="120" x="950.5" y="1665.1982">CommandBuffers</text><rect fill="#FEFECE" filter="url(#fh0qudgq52skj)" height="30.2969" style="stroke: #A80036; stroke-width: 1.5;" width="98" x="1091.5" y="23.1328"/><text fill="#000000" font-family="sans-serif" font-size="14" lengthAdjust="spacingAndGlyphs" textLength="84" x="1098.5" y="43.1279">RenderPass</text><rect fill="#FEFECE" filter="url(#fh0qudgq52skj)" height="30.2969" style="stroke: #A80036; stroke-width: 1.5;" width="98" x="1091.5" y="1645.2031"/><text fill="#000000" font-family="sans-serif" font-size="14" lengthAdjust="spacingAndGlyphs" textLength="84" x="1098.5" y="1665.1982">RenderPass</text><rect fill="#FEFECE" filter="url(#fh0qudgq52skj)" height="30.2969" style="stroke: #A80036; stroke-width: 1.5;" width="146" x="1203.5" y="23.1328"/><text fill="#000000" font-family="sans-serif" font-size="14" lengthAdjust="spacingAndGlyphs" textLength="132" x="1210.5" y="43.1279">SwapchainRecords</text><rect fill="#FEFECE" filter="url(#fh0qudgq52skj)" height="30.2969" style="stroke: #A80036; stroke-width: 1.5;" width="146" x="1203.5" y="1645.2031"/><text fill="#000000" font-family="sans-serif" font-size="14" lengthAdjust="spacingAndGlyphs" textLength="132" x="1210.5" y="1665.1982">SwapchainRecords</text><rect fill="#FEFECE" filter="url(#fh0qudgq52skj)" height="30.2969" style="stroke: #A80036; stroke-width: 1.5;" width="167" x="1363.5" y="23.1328"/><text fill="#000000" font-family="sans-serif" font-size="14" lengthAdjust="spacingAndGlyphs" textLength="153" x="1370.5" y="43.1279">NativeGraphicsService</text><rect fill="#FEFECE" filter="url(#fh0qudgq52skj)" height="30.2969" style="stroke: #A80036; stroke-width: 1.5;" width="167" x="1363.5" y="1645.2031"/><text fill="#000000" font-family="sans-serif" font-size="14" lengthAdjust="spacingAndGlyphs" textLength="153" x="1370.5" y="1665.1982">NativeGraphicsService</text><rect fill="#FEFECE" filter="url(#fh0qudgq52skj)" height="30.2969" style="stroke: #A80036; stroke-width: 1.5;" width="91" x="1544.5" y="23.1328"/><text fill="#000000" font-family="sans-serif" font-size="14" lengthAdjust="spacingAndGlyphs" textLength="77" x="1551.5" y="43.1279">QuadBatch</text><rect fill="#FEFECE" filter="url(#fh0qudgq52skj)" height="30.2969" style="stroke: #A80036; stroke-width: 1.5;" width="91" x="1544.5" y="1645.2031"/><text fill="#000000" font-family="sans-serif" font-size="14" lengthAdjust="spacingAndGlyphs" textLength="77" x="1551.5" y="1665.1982">QuadBatch</text><rect fill="#FEFECE" filter="url(#fh0qudgq52skj)" height="30.2969" style="stroke: #A80036; stroke-width: 1.5;" width="116" x="1649.5" y="23.1328"/><text fill="#000000" font-family="sans-serif" font-size="14" lengthAdjust="spacingAndGlyphs" textLength="102" x="1656.5" y="43.1279">NativeBatch2D</text><rect fill="#FEFECE" filter="url(#fh0qudgq52skj)" height="30.2969" style="stroke: #A80036; stroke-width: 1.5;" width="116" x="1649.5" y="1645.2031"/><text fill="#000000" font-family="sans-serif" font-size="14" lengthAdjust="spacingAndGlyphs" textLength="102" x="1656.5" y="1665.1982">NativeBatch2D</text><rect fill="#FEFECE" filter="url(#fh0qudgq52skj)" height="30.2969" style="stroke: #A80036; stroke-width: 1.5;" width="111" x="1779.5" y="23.1328"/><text fill="#000000" font-family="sans-serif" font-size="14" lengthAdjust="spacingAndGlyphs" textLength="97" x="1786.5" y="43.1279">ProfilerOverlay</text><rect fill="#FEFECE" filter="url(#fh0qudgq52skj)" height="30.2969" style="stroke: #A80036; stroke-width: 1.5;" width="111" x="1779.5" y="1645.2031"/><text fill="#000000" font-family="sans-serif" font-size="14" lengthAdjust="spacingAndGlyphs" textLength="97" x="1786.5" y="1665.1982">ProfilerOverlay</text><rect fill="#FFFFFF" filter="url(#fh0qudgq52skj)" height="1568.7734" style="stroke: #A80036; stroke-width: 1.0;" width="10" x="130" y="68.4297"/><rect fill="#FFFFFF" filter="url(#fh0qudgq52skj)" height="1568.7734" style="stroke: #A80036; stroke-width: 1.0;" width="10" x="295.5" y="68.4297"/><rect fill="#FFFFFF" filter="url(#fh0qudgq52skj)" height="99.2656" style="stroke: #A80036; stroke-width: 1.0;" width="10" x="300.5" y="1521.8047"/><rect fill="#FFFFFF" filter="url(#fh0qudgq52skj)" height="28" style="stroke: #A80036; stroke-width: 1.0;" width="10" x="305.5" y="1593.0703"/><rect fill="#FFFFFF" filter="url(#fh0qudgq52skj)" height="1568.7734" style="stroke: #A80036; stroke-width: 1.0;" width="10" x="457" y="68.4297"/><rect fill="#FFFFFF" filter="url(#fh0qudgq52skj)" height="1568.7734" style="stroke: #A80036; stroke-width: 1.0;" width="10" x="581.5" y="68.4297"/><rect fill="#FFFFFF" filter="url(#fh0qudgq52skj)" height="1568.7734" style="stroke: #A80036; stroke-width: 1.0;" width="10" x="672" y="68.4297"/><rect fill="#FFFFFF" filter="url(#fh0qudgq52skj)" height="1568.7734" style="stroke: #A80036; stroke-width: 1.0;" width="10" x="770.5" y="68.4297"/><rect fill="#FFFFFF" filter="url(#fh0qudgq52skj)" height="1568.7734" style="stroke: #A80036; stroke-width: 1.0;" width="10" x="882.5" y="68.4297"/><rect fill="#FFFFFF" filter="url(#fh0qudgq52skj)" height="1568.7734" style="stroke: #A80036; stroke-width: 1.0;" width="10" x="1007.5" y="68.4297"/><rect fill="#FFFFFF" filter="url(#fh0qudgq52skj)" height="1568.7734" style="stroke: #A80036; stroke-width: 1.0;" width="10" x="1137.5" y="68.4297"/><rect fill="#FFFFFF" filter="url(#fh0qudgq52skj)" height="1568.7734" style="stroke: #A80036; stroke-width: 1.0;" width="10" x="1273.5" y="68.4297"/><rect fill="#FFFFFF" filter="url(#fh0qudgq52skj)" height="1568.7734" style="stroke: #A80036; stroke-width: 1.0;" width="10" x="1444" y="68.4297"/><rect fill="#FFFFFF" filter="url(#fh0qudgq52skj)" height="1568.7734" style="stroke: #A80036; stroke-width: 1.0;" width="10" x="1587" y="68.4297"/><rect fill="#FFFFFF" filter="url(#fh0qudgq52skj)" height="1568.7734" style="stroke: #A80036; stroke-width: 1.0;" width="10" x="1704.5" y="68.4297"/><rect fill="#FFFFFF" filter="url(#fh0qudgq52skj)" height="63.3984" style="stroke: #A80036; stroke-width: 1.0;" width="10" x="1709.5" y="942.2813"/><rect fill="#FFFFFF" filter="url(#fh0qudgq52skj)" height="63.3984" style="stroke: #A80036; stroke-width: 1.0;" width="10" x="1709.5" y="1246.6094"/><rect fill="#FFFFFF" filter="url(#fh0qudgq52skj)" height="1568.7734" style="stroke: #A80036; stroke-width: 1.0;" width="10" x="1832" y="68.4297"/><polygon fill="#A80036" points="118,85.5625,128,89.5625,118,93.5625,122,89.5625" style="stroke: #A80036; stroke-width: 1.0;"/><line style="stroke: #A80036; stroke-width: 1.0;" x1="3" x2="124" y1="89.5625" y2="89.5625"/><text fill="#000000" font-family="sans-serif" font-size="13" lengthAdjust="spacingAndGlyphs" textLength="75" x="10" y="84.4966">_PreUpdate</text><polygon fill="#A80036" points="569.5,114.6953,579.5,118.6953,569.5,122.6953,573.5,118.6953" style="stroke: #A80036; stroke-width: 1.0;"/><line style="stroke: #A80036; stroke-width: 1.0;" x1="140" x2="575.5" y1="118.6953" y2="118.6953"/><text fill="#000000" font-family="sans-serif" font-size="13" lengthAdjust="spacingAndGlyphs" textLength="75" x="147" y="113.6294">_PreUpdate</text><polygon fill="#A80036" points="151,143.8281,141,147.8281,151,151.8281,147,147.8281" style="stroke: #A80036; stroke-width: 1.0;"/><line style="stroke: #A80036; stroke-width: 1.0;" x1="145" x2="580.5" y1="147.8281" y2="147.8281"/><text fill="#000000" font-family="sans-serif" font-size="13" lengthAdjust="spacingAndGlyphs" textLength="68" x="157" y="142.7622">PreUpdate</text><polygon fill="#A80036" points="118,172.9609,128,176.9609,118,180.9609,122,176.9609" style="stroke: #A80036; stroke-width: 1.0;"/><line style="stroke: #A80036; stroke-width: 1.0;" x1="3" x2="124" y1="176.9609" y2="176.9609"/><text fill="#000000" font-family="sans-serif" font-size="13" lengthAdjust="spacingAndGlyphs" textLength="87" x="10" y="171.895">_FixedUpdate</text><polygon fill="#A80036" points="569.5,202.0938,579.5,206.0938,569.5,210.0938,573.5,206.0938" style="stroke: #A80036; stroke-width: 1.0;"/><line style="stroke: #A80036; stroke-width: 1.0;" x1="140" x2="575.5" y1="206.0938" y2="206.0938"/><text fill="#000000" font-family="sans-serif" font-size="13" lengthAdjust="spacingAndGlyphs" textLength="87" x="147" y="201.0278">_FixedUpdate</text><polygon fill="#A80036" points="151,231.2266,141,235.2266,151,239.2266,147,235.2266" style="stroke: #A80036; stroke-width: 1.0;"/><line style="stroke: #A80036; stroke-width: 1.0;" x1="145" x2="580.5" y1="235.2266" y2="235.2266"/><text fill="#000000" font-family="sans-serif" font-size="13" lengthAdjust="spacingAndGlyphs" textLength="80" x="157" y="230.1606">FixedUpdate</text><polygon fill="#A80036" points="118,260.3594,128,264.3594,118,268.3594,122,264.3594" style="stroke: #A80036; stroke-width: 1.0;"/><line style="stroke: #A80036; stroke-width: 1.0;" x1="3" x2="124" y1="264.3594" y2="264.3594"/><text fill="#000000" font-family="sans-serif" font-size="13" lengthAdjust="spacingAndGlyphs" textLength="54" x="10" y="259.2935">_Update</text><polygon fill="#A80036" points="569.5,289.4922,579.5,293.4922,569.5,297.4922,573.5,293.4922" style="stroke: #A80036; stroke-width: 1.0;"/><line style="stroke: #A80036; stroke-width: 1.0;" x1="140" x2="575.5" y1="293.4922" y2="293.4922"/><text fill="#000000" font-family="sans-serif" font-size="13" lengthAdjust="spacingAndGlyphs" textLength="54" x="147" y="288.4263">_Update</text><polygon fill="#A80036" points="151,318.625,141,322.625,151,326.625,147,322.625" style="stroke: #A80036; stroke-width: 1.0;"/><line style="stroke: #A80036; stroke-width: 1.0;" x1="145" x2="580.5" y1="322.625" y2="322.625"/><text fill="#000000" font-family="sans-serif" font-size="13" lengthAdjust="spacingAndGlyphs" textLength="47" x="157" y="317.5591">Update</text><polygon fill="#A80036" points="118,347.7578,128,351.7578,118,355.7578,122,351.7578" style="stroke: #A80036; stroke-width: 1.0;"/><line style="stroke: #A80036; stroke-width: 1.0;" x1="3" x2="124" y1="351.7578" y2="351.7578"/><text fill="#000000" font-family="sans-serif" font-size="13" lengthAdjust="spacingAndGlyphs" textLength="82" x="10" y="346.6919">_PostUpdate</text><polygon fill="#A80036" points="569.5,376.8906,579.5,380.8906,569.5,384.8906,573.5,380.8906" style="stroke: #A80036; stroke-width: 1.0;"/><line style="stroke: #A80036; stroke-width: 1.0;" x1="140" x2="575.5" y1="380.8906" y2="380.8906"/><text fill="#000000" font-family="sans-serif" font-size="13" lengthAdjust="spacingAndGlyphs" textLength="82" x="147" y="375.8247">_PostUpdate</text><polygon fill="#A80036" points="151,406.0234,141,410.0234,151,414.0234,147,410.0234" style="stroke: #A80036; stroke-width: 1.0;"/><line style="stroke: #A80036; stroke-width: 1.0;" x1="145" x2="580.5" y1="410.0234" y2="410.0234"/><text fill="#000000" font-family="sans-serif" font-size="13" lengthAdjust="spacingAndGlyphs" textLength="75" x="157" y="404.9575">PostUpdate</text><polygon fill="#A80036" points="118,435.1563,128,439.1563,118,443.1563,122,439.1563" style="stroke: #A80036; stroke-width: 1.0;"/><line style="stroke: #A80036; stroke-width: 1.0;" x1="3" x2="124" y1="439.1563" y2="439.1563"/><text fill="#000000" font-family="sans-serif" font-size="13" lengthAdjust="spacingAndGlyphs" textLength="108" x="10" y="434.0903">_TryPrepareDraw</text><polygon fill="#A80036" points="569.5,464.2891,579.5,468.2891,569.5,472.2891,573.5,468.2891" style="stroke: #A80036; stroke-width: 1.0;"/><line style="stroke: #A80036; stroke-width: 1.0;" x1="140" x2="575.5" y1="468.2891" y2="468.2891"/><text fill="#000000" font-family="sans-serif" font-size="13" lengthAdjust="spacingAndGlyphs" textLength="108" x="147" y="463.2231">_TryPrepareDraw</text><polygon fill="#A80036" points="151,493.4219,141,497.4219,151,501.4219,147,497.4219" style="stroke: #A80036; stroke-width: 1.0;"/><line style="stroke: #A80036; stroke-width: 1.0;" x1="145" x2="580.5" y1="497.4219" y2="497.4219"/><text fill="#000000" font-family="sans-serif" font-size="13" lengthAdjust="spacingAndGlyphs" textLength="101" x="157" y="492.356">TryPrepareDraw</text><polygon fill="#A80036" points="283.5,522.5547,293.5,526.5547,283.5,530.5547,287.5,526.5547" style="stroke: #A80036; stroke-width: 1.0;"/><line style="stroke: #A80036; stroke-width: 1.0;" x1="140" x2="289.5" y1="526.5547" y2="526.5547"/><text fill="#000000" font-family="sans-serif" font-size="13" lengthAdjust="spacingAndGlyphs" textLength="101" x="147" y="521.4888">TryPrepareDraw</text><polygon fill="#A80036" points="118,551.6875,128,555.6875,118,559.6875,122,555.6875" style="stroke: #A80036; stroke-width: 1.0;"/><line style="stroke: #A80036; stroke-width: 1.0;" x1="3" x2="124" y1="555.6875" y2="555.6875"/><text fill="#000000" font-family="sans-serif" font-size="13" lengthAdjust="spacingAndGlyphs" textLength="39" x="10" y="550.6216">_Draw</text><polygon fill="#A80036" points="283.5,580.8203,293.5,584.8203,283.5,588.8203,287.5,584.8203" style="stroke: #A80036; stroke-width: 1.0;"/><line style="stroke: #A80036; stroke-width: 1.0;" x1="140" x2="289.5" y1="584.8203" y2="584.8203"/><text fill="#000000" font-family="sans-serif" font-size="13" lengthAdjust="spacingAndGlyphs" textLength="39" x="147" y="579.7544">_Draw</text><polygon fill="#A80036" points="1432,609.9531,1442,613.9531,1432,617.9531,1436,613.9531" style="stroke: #A80036; stroke-width: 1.0;"/><line style="stroke: #A80036; stroke-width: 1.0;" x1="305.5" x2="1438" y1="613.9531" y2="613.9531"/><text fill="#000000" font-family="sans-serif" font-size="13" lengthAdjust="spacingAndGlyphs" textLength="120" x="312.5" y="608.8872">VulkanBeginFrame</text><polygon fill="#A80036" points="1575,639.0859,1585,643.0859,1575,647.0859,1579,643.0859" style="stroke: #A80036; stroke-width: 1.0;"/><line style="stroke: #A80036; stroke-width: 1.0;" x1="1454" x2="1581" y1="643.0859" y2="643.0859"/><text fill="#000000" font-family="sans-serif" font-size="13" lengthAdjust="spacingAndGlyphs" textLength="77" x="1461" y="638.02">BeginFrame</text><polygon fill="#A80036" points="569.5,668.2188,579.5,672.2188,569.5,676.2188,573.5,672.2188" style="stroke: #A80036; stroke-width: 1.0;"/><line style="stroke: #A80036; stroke-width: 1.0;" x1="305.5" x2="575.5" y1="672.2188" y2="672.2188"/><text fill="#000000" font-family="sans-serif" font-size="13" lengthAdjust="spacingAndGlyphs" textLength="39" x="312.5" y="667.1528">_Draw</text><polygon fill="#A80036" points="316.5,697.3516,306.5,701.3516,316.5,705.3516,312.5,701.3516" style="stroke: #A80036; stroke-width: 1.0;"/><line style="stroke: #A80036; stroke-width: 1.0;" x1="310.5" x2="580.5" y1="701.3516" y2="701.3516"/><text fill="#000000" font-family="sans-serif" font-size="13" lengthAdjust="spacingAndGlyphs" textLength="32" x="322.5" y="696.2856">Draw</text><polygon fill="#A80036" points="151,726.4844,141,730.4844,151,734.4844,147,730.4844" style="stroke: #A80036; stroke-width: 1.0;"/><line style="stroke: #A80036; stroke-width: 1.0;" x1="145" x2="294.5" y1="730.4844" y2="730.4844"/><text fill="#000000" font-family="sans-serif" font-size="13" lengthAdjust="spacingAndGlyphs" textLength="75" x="157" y="725.4185">VulkanDraw</text><polygon fill="#A80036" points="995.5,755.6172,1005.5,759.6172,995.5,763.6172,999.5,759.6172" style="stroke: #A80036; stroke-width: 1.0;"/><line style="stroke: #A80036; stroke-width: 1.0;" x1="140" x2="1001.5" y1="759.6172" y2="759.6172"/><text fill="#000000" font-family="sans-serif" font-size="13" lengthAdjust="spacingAndGlyphs" textLength="115" x="147" y="754.5513">Custom rendering</text><polygon fill="#A80036" points="1692.5,784.75,1702.5,788.75,1692.5,792.75,1696.5,788.75" style="stroke: #A80036; stroke-width: 1.0;"/><line style="stroke: #A80036; stroke-width: 1.0;" x1="140" x2="1698.5" y1="788.75" y2="788.75"/><text fill="#000000" font-family="sans-serif" font-size="13" lengthAdjust="spacingAndGlyphs" textLength="36" x="147" y="783.6841">Begin</text><polygon fill="#A80036" points="1692.5,813.8828,1702.5,817.8828,1692.5,821.8828,1696.5,817.8828" style="stroke: #A80036; stroke-width: 1.0;"/><line style="stroke: #A80036; stroke-width: 1.0;" x1="140" x2="1698.5" y1="817.8828" y2="817.8828"/><text fill="#000000" font-family="sans-serif" font-size="13" lengthAdjust="spacingAndGlyphs" textLength="32" x="147" y="812.8169">Draw</text><polygon fill="#A80036" points="1692.5,843.0156,1702.5,847.0156,1692.5,851.0156,1696.5,847.0156" style="stroke: #A80036; stroke-width: 1.0;"/><line style="stroke: #A80036; stroke-width: 1.0;" x1="140" x2="1698.5" y1="847.0156" y2="847.0156"/><text fill="#000000" font-family="sans-serif" font-size="13" lengthAdjust="spacingAndGlyphs" textLength="32" x="147" y="841.9497">Draw</text><polygon fill="#A80036" points="1692.5,872.1484,1702.5,876.1484,1692.5,880.1484,1696.5,876.1484" style="stroke: #A80036; stroke-width: 1.0;"/><line style="stroke: #A80036; stroke-width: 1.0;" x1="140" x2="1698.5" y1="876.1484" y2="876.1484"/><text fill="#000000" font-family="sans-serif" font-size="13" lengthAdjust="spacingAndGlyphs" textLength="32" x="147" y="871.0825">Draw</text><polygon fill="#A80036" points="1692.5,901.2813,1702.5,905.2813,1692.5,909.2813,1696.5,905.2813" style="stroke: #A80036; stroke-width: 1.0;"/><line style="stroke: #A80036; stroke-width: 1.0;" x1="140" x2="1698.5" y1="905.2813" y2="905.2813"/><text fill="#000000" font-family="sans-serif" font-size="13" lengthAdjust="spacingAndGlyphs" textLength="24" x="147" y="900.2153">End</text><line style="stroke: #A80036; stroke-width: 1.0;" x1="1714.5" x2="1761.5" y1="929.4141" y2="929.4141"/><line style="stroke: #A80036; stroke-width: 1.0;" x1="1761.5" x2="1761.5" y1="929.4141" y2="942.4141"/><line style="stroke: #A80036; stroke-width: 1.0;" x1="1720.5" x2="1761.5" y1="942.4141" y2="942.4141"/><polygon fill="#A80036" points="1730.5,938.4141,1720.5,942.4141,1730.5,946.4141,1726.5,942.4141" style="stroke: #A80036; stroke-width: 1.0;"/><text fill="#000000" font-family="sans-serif" font-size="13" lengthAdjust="spacingAndGlyphs" textLength="74" x="1726.5" y="924.3481">FlushQuads</text><polygon fill="#A80036" points="1608,972.5469,1598,976.5469,1608,980.5469,1604,976.5469" style="stroke: #A80036; stroke-width: 1.0;"/><line style="stroke: #A80036; stroke-width: 1.0;" x1="1602" x2="1708.5" y1="976.5469" y2="976.5469"/><text fill="#000000" font-family="sans-serif" font-size="13" lengthAdjust="spacingAndGlyphs" textLength="73" x="1614" y="971.481">DrawQuads</text><polygon fill="#A80036" points="1028.5,1001.6797,1018.5,1005.6797,1028.5,1009.6797,1024.5,1005.6797" style="stroke: #A80036; stroke-width: 1.0;"/><line style="stroke: #A80036; stroke-width: 1.0;" x1="1022.5" x2="1586" y1="1005.6797" y2="1005.6797"/><text fill="#000000" font-family="sans-serif" font-size="13" lengthAdjust="spacingAndGlyphs" textLength="53" x="1034.5" y="1000.6138">VkCmds</text><polygon fill="#A80036" points="995.5,1030.8125,1005.5,1034.8125,995.5,1038.8125,999.5,1034.8125" style="stroke: #A80036; stroke-width: 1.0;"/><line style="stroke: #A80036; stroke-width: 1.0;" x1="140" x2="1001.5" y1="1034.8125" y2="1034.8125"/><text fill="#000000" font-family="sans-serif" font-size="13" lengthAdjust="spacingAndGlyphs" textLength="115" x="147" y="1029.7466">Custom rendering</text><polygon fill="#A80036" points="283.5,1059.9453,293.5,1063.9453,283.5,1067.9453,287.5,1063.9453" style="stroke: #A80036; stroke-width: 1.0;"/><line style="stroke: #A80036; stroke-width: 1.0;" x1="140" x2="289.5" y1="1063.9453" y2="1063.9453"/><text fill="#000000" font-family="sans-serif" font-size="13" lengthAdjust="spacingAndGlyphs" textLength="87" x="147" y="1058.8794">AddSystemUI</text><polygon fill="#A80036" points="1820,1089.0781,1830,1093.0781,1820,1097.0781,1824,1093.0781" style="stroke: #A80036; stroke-width: 1.0;"/><line style="stroke: #A80036; stroke-width: 1.0;" x1="305.5" x2="1826" y1="1093.0781" y2="1093.0781"/><text fill="#000000" font-family="sans-serif" font-size="13" lengthAdjust="spacingAndGlyphs" textLength="32" x="312.5" y="1088.0122">Draw</text><polygon fill="#A80036" points="1725.5,1118.2109,1715.5,1122.2109,1725.5,1126.2109,1721.5,1122.2109" style="stroke: #A80036; stroke-width: 1.0;"/><line style="stroke: #A80036; stroke-width: 1.0;" x1="1719.5" x2="1831" y1="1122.2109" y2="1122.2109"/><text fill="#000000" font-family="sans-serif" font-size="13" lengthAdjust="spacingAndGlyphs" textLength="36" x="1731.5" y="1117.145">Begin</text><polygon fill="#A80036" points="1725.5,1147.3438,1715.5,1151.3438,1725.5,1155.3438,1721.5,1151.3438" style="stroke: #A80036; stroke-width: 1.0;"/><line style="stroke: #A80036; stroke-width: 1.0;" x1="1719.5" x2="1831" y1="1151.3438" y2="1151.3438"/><text fill="#000000" font-family="sans-serif" font-size="13" lengthAdjust="spacingAndGlyphs" textLength="32" x="1731.5" y="1146.2778">Draw</text><polygon fill="#A80036" points="1725.5,1176.4766,1715.5,1180.4766,1725.5,1184.4766,1721.5,1180.4766" style="stroke: #A80036; stroke-width: 1.0;"/><line style="stroke: #A80036; stroke-width: 1.0;" x1="1719.5" x2="1831" y1="1180.4766" y2="1180.4766"/><text fill="#000000" font-family="sans-serif" font-size="13" lengthAdjust="spacingAndGlyphs" textLength="32" x="1731.5" y="1175.4106">Draw</text><polygon fill="#A80036" points="1725.5,1205.6094,1715.5,1209.6094,1725.5,1213.6094,1721.5,1209.6094" style="stroke: #A80036; stroke-width: 1.0;"/><line style="stroke: #A80036; stroke-width: 1.0;" x1="1719.5" x2="1831" y1="1209.6094" y2="1209.6094"/><text fill="#000000" font-family="sans-serif" font-size="13" lengthAdjust="spacingAndGlyphs" textLength="24" x="1731.5" y="1204.5435">End</text><line style="stroke: #A80036; stroke-width: 1.0;" x1="1714.5" x2="1761.5" y1="1233.7422" y2="1233.7422"/><line style="stroke: #A80036; stroke-width: 1.0;" x1="1761.5" x2="1761.5" y1="1233.7422" y2="1246.7422"/><line style="stroke: #A80036; stroke-width: 1.0;" x1="1720.5" x2="1761.5" y1="1246.7422" y2="1246.7422"/><polygon fill="#A80036" points="1730.5,1242.7422,1720.5,1246.7422,1730.5,1250.7422,1726.5,1246.7422" style="stroke: #A80036; stroke-width: 1.0;"/><text fill="#000000" font-family="sans-serif" font-size="13" lengthAdjust="spacingAndGlyphs" textLength="74" x="1726.5" y="1228.6763">FlushQuads</text><polygon fill="#A80036" points="1608,1276.875,1598,1280.875,1608,1284.875,1604,1280.875" style="stroke: #A80036; stroke-width: 1.0;"/><line style="stroke: #A80036; stroke-width: 1.0;" x1="1602" x2="1708.5" y1="1280.875" y2="1280.875"/><text fill="#000000" font-family="sans-serif" font-size="13" lengthAdjust="spacingAndGlyphs" textLength="73" x="1614" y="1275.8091">DrawQuads</text><polygon fill="#A80036" points="1028.5,1306.0078,1018.5,1310.0078,1028.5,1314.0078,1024.5,1310.0078" style="stroke: #A80036; stroke-width: 1.0;"/><line style="stroke: #A80036; stroke-width: 1.0;" x1="1022.5" x2="1586" y1="1310.0078" y2="1310.0078"/><text fill="#000000" font-family="sans-serif" font-size="13" lengthAdjust="spacingAndGlyphs" textLength="53" x="1034.5" y="1304.9419">VkCmds</text><polygon fill="#A80036" points="1432,1335.1406,1442,1339.1406,1432,1343.1406,1436,1339.1406" style="stroke: #A80036; stroke-width: 1.0;"/><line style="stroke: #A80036; stroke-width: 1.0;" x1="305.5" x2="1438" y1="1339.1406" y2="1339.1406"/><text fill="#000000" font-family="sans-serif" font-size="13" lengthAdjust="spacingAndGlyphs" textLength="108" x="312.5" y="1334.0747">VulkanEndFrame</text><polygon fill="#A80036" points="1575,1364.2734,1585,1368.2734,1575,1372.2734,1579,1368.2734" style="stroke: #A80036; stroke-width: 1.0;"/><line style="stroke: #A80036; stroke-width: 1.0;" x1="1454" x2="1581" y1="1368.2734" y2="1368.2734"/><text fill="#000000" font-family="sans-serif" font-size="13" lengthAdjust="spacingAndGlyphs" textLength="65" x="1461" y="1363.2075">EndFrame</text><polygon fill="#A80036" points="758.5,1393.4063,768.5,1397.4063,758.5,1401.4063,762.5,1397.4063" style="stroke: #A80036; stroke-width: 1.0;"/><line style="stroke: #A80036; stroke-width: 1.0;" x1="305.5" x2="764.5" y1="1397.4063" y2="1397.4063"/><text fill="#000000" font-family="sans-serif" font-size="13" lengthAdjust="spacingAndGlyphs" textLength="46" x="312.5" y="1392.3403">Submit</text><polygon fill="#A80036" points="118,1422.5391,128,1426.5391,118,1430.5391,122,1426.5391" style="stroke: #A80036; stroke-width: 1.0;"/><line style="stroke: #A80036; stroke-width: 1.0;" x1="3" x2="124" y1="1426.5391" y2="1426.5391"/><text fill="#000000" font-family="sans-serif" font-size="13" lengthAdjust="spacingAndGlyphs" textLength="105" x="10" y="1421.4731">_TrySwapBuffers</text><polygon fill="#A80036" points="569.5,1451.6719,579.5,1455.6719,569.5,1459.6719,573.5,1455.6719" style="stroke: #A80036; stroke-width: 1.0;"/><line style="stroke: #A80036; stroke-width: 1.0;" x1="140" x2="575.5" y1="1455.6719" y2="1455.6719"/><text fill="#000000" font-family="sans-serif" font-size="13" lengthAdjust="spacingAndGlyphs" textLength="105" x="147" y="1450.606">_TrySwapBuffers</text><polygon fill="#A80036" points="316.5,1480.8047,306.5,1484.8047,316.5,1488.8047,312.5,1484.8047" style="stroke: #A80036; stroke-width: 1.0;"/><line style="stroke: #A80036; stroke-width: 1.0;" x1="310.5" x2="580.5" y1="1484.8047" y2="1484.8047"/><text fill="#000000" font-family="sans-serif" font-size="13" lengthAdjust="spacingAndGlyphs" textLength="98" x="322.5" y="1479.7388">TrySwapBuffers</text><line style="stroke: #A80036; stroke-width: 1.0;" x1="305.5" x2="352.5" y1="1508.9375" y2="1508.9375"/><line style="stroke: #A80036; stroke-width: 1.0;" x1="352.5" x2="352.5" y1="1508.9375" y2="1521.9375"/><line style="stroke: #A80036; stroke-width: 1.0;" x1="311.5" x2="352.5" y1="1521.9375" y2="1521.9375"/><polygon fill="#A80036" points="321.5,1517.9375,311.5,1521.9375,321.5,1525.9375,317.5,1521.9375" style="stroke: #A80036; stroke-width: 1.0;"/><text fill="#000000" font-family="sans-serif" font-size="13" lengthAdjust="spacingAndGlyphs" textLength="112" x="317.5" y="1503.8716">TryDoSwapBufers</text><polygon fill="#A80036" points="870.5,1552.0703,880.5,1556.0703,870.5,1560.0703,874.5,1556.0703" style="stroke: #A80036; stroke-width: 1.0;"/><line style="stroke: #A80036; stroke-width: 1.0;" x1="310.5" x2="876.5" y1="1556.0703" y2="1556.0703"/><text fill="#000000" font-family="sans-serif" font-size="13" lengthAdjust="spacingAndGlyphs" textLength="110" x="317.5" y="1551.0044">TryQueuePresent</text><line style="stroke: #A80036; stroke-width: 1.0;" x1="315.5" x2="357.5" y1="1585.2031" y2="1585.2031"/><line style="stroke: #A80036; stroke-width: 1.0;" x1="357.5" x2="357.5" y1="1585.2031" y2="1598.2031"/><line style="stroke: #A80036; stroke-width: 1.0;" x1="316.5" x2="357.5" y1="1598.2031" y2="1598.2031"/><polygon fill="#A80036" points="326.5,1594.2031,316.5,1598.2031,326.5,1602.2031,322.5,1598.2031" style="stroke: #A80036; stroke-width: 1.0;"/><text fill="#000000" font-family="sans-serif" font-size="13" lengthAdjust="spacingAndGlyphs" textLength="82" x="322.5" y="1580.1372">SetAppState</text><!--
@startuml
activate CustomDemoApp
activate DemoAppVulkanBasic
activate DemoAppVulkan
activate ADemoApp

box "AppTemplate" #LightBlue
    participant DemoAppVulkanBasic
    participant DemoAppVulkan
    participant ADemoApp
end box

activate Device
activate DeviceQueue
activate Swapchain
activate CommandBuffers
activate RenderPass
activate SwapchainRecords
activate NativeGraphicsService
activate QuadBatch
activate NativeBatch2D
activate ProfilerOverlay

->CustomDemoApp: _PreUpdate
CustomDemoApp->ADemoApp: _PreUpdate
ADemoApp->CustomDemoApp: PreUpdate

->CustomDemoApp: _FixedUpdate
CustomDemoApp->ADemoApp: _FixedUpdate
ADemoApp->CustomDemoApp: FixedUpdate

->CustomDemoApp: _Update
CustomDemoApp->ADemoApp: _Update
ADemoApp->CustomDemoApp: Update

->CustomDemoApp: _PostUpdate
CustomDemoApp->ADemoApp: _PostUpdate
ADemoApp->CustomDemoApp: PostUpdate

->CustomDemoApp: _TryPrepareDraw
CustomDemoApp->ADemoApp: _TryPrepareDraw
ADemoApp->CustomDemoApp: TryPrepareDraw
CustomDemoApp->DemoAppVulkanBasic: TryPrepareDraw

->CustomDemoApp: _Draw
CustomDemoApp->DemoAppVulkanBasic: _Draw
DemoAppVulkanBasic->NativeGraphicsService: VulkanBeginFrame
NativeGraphicsService->QuadBatch: BeginFrame
DemoAppVulkanBasic->ADemoApp: _Draw
ADemoApp->DemoAppVulkanBasic: Draw
DemoAppVulkanBasic->CustomDemoApp: VulkanDraw

CustomDemoApp->CommandBuffers: Custom rendering

CustomDemoApp->NativeBatch2D: Begin
CustomDemoApp->NativeBatch2D: Draw
CustomDemoApp->NativeBatch2D: Draw
CustomDemoApp->NativeBatch2D: Draw
CustomDemoApp->NativeBatch2D: End
NativeBatch2D->NativeBatch2D++: FlushQuads
NativeBatch2D->QuadBatch: DrawQuads
QuadBatch->CommandBuffers: VkCmds
deactivate NativeBatch2D
CustomDemoApp->CommandBuffers: Custom rendering
CustomDemoApp->DemoAppVulkanBasic: AddSystemUI
DemoAppVulkanBasic->ProfilerOverlay: Draw
ProfilerOverlay->NativeBatch2D: Begin
ProfilerOverlay->NativeBatch2D: Draw
ProfilerOverlay->NativeBatch2D: Draw
ProfilerOverlay->NativeBatch2D: End
NativeBatch2D->NativeBatch2D++: FlushQuads
NativeBatch2D->QuadBatch: DrawQuads
QuadBatch->CommandBuffers: VkCmds
deactivate NativeBatch2D

DemoAppVulkanBasic->NativeGraphicsService: VulkanEndFrame
NativeGraphicsService->QuadBatch: EndFrame
DemoAppVulkanBasic->DeviceQueue: Submit

->CustomDemoApp: _TrySwapBuffers
CustomDemoApp->ADemoApp: _TrySwapBuffers
ADemoApp->DemoAppVulkanBasic: TrySwapBuffers
DemoAppVulkanBasic->DemoAppVulkanBasic++: TryDoSwapBufers
DemoAppVulkanBasic->Swapchain: TryQueuePresent
DemoAppVulkanBasic->DemoAppVulkanBasic++: SetAppState
deactivate DemoAppVulkanBasic
deactivate DemoAppVulkanBasic
@enduml

PlantUML version 1.2018.14(Fri Dec 21 16:33:16 UTC 2018)
(GPL source distribution)
Java Runtime: OpenJDK Runtime Environment
JVM: OpenJDK 64-Bit Server VM
Java Version: 1.8.0_181-8u181-b13-2~deb9u1-b13
Operating System: Linux
OS Version: 4.15.0-43-generic
Default Encoding: UTF-8
Language: en
Country: null
--></g></svg>