<?xml version="1.0" encoding="UTF-8" standalone="no"?><svg xmlns="http://www.w3.org/2000/svg" xmlns:xlink="http://www.w3.org/1999/xlink" contentScriptType="application/ecmascript" contentStyleType="text/css" height="1025px" preserveAspectRatio="none" style="width:1960px;height:1025px;" version="1.1" viewBox="0 0 1960 1025" width="1960px" zoomAndPan="magnify"><defs><filter height="300%" id="f5sdnq3z1kbb0" width="300%" x="-1" y="-1"><feGaussianBlur result="blurOut" stdDeviation="2.0"/><feColorMatrix in="blurOut" result="blurOut2" type="matrix" values="0 0 0 0 0 0 0 0 0 0 0 0 0 0 0 0 0 0 .4 0"/><feOffset dx="4.0" dy="4.0" in="blurOut2" result="blurOut3"/><feBlend in="SourceGraphic" in2="blurOut3" mode="normal"/></filter></defs><g><rect fill="#ADD8E6" height="1010.4453" style="stroke: #A80036; stroke-width: 1.0;" width="450.5" x="159.5" y="4"/><text fill="#000000" font-family="sans-serif" font-size="13" font-weight="bold" lengthAdjust="spacingAndGlyphs" textLength="99" x="335.25" y="16.0669">AppTemplate</text><rect fill="#FFFFFF" filter="url(#f5sdnq3z1kbb0)" height="898.7188" style="stroke: #A80036; stroke-width: 1.0;" width="10" x="78" y="68.4297"/><rect fill="#FFFFFF" filter="url(#f5sdnq3z1kbb0)" height="898.7188" style="stroke: #A80036; stroke-width: 1.0;" width="10" x="243.5" y="68.4297"/><rect fill="#FFFFFF" filter="url(#f5sdnq3z1kbb0)" height="28" style="stroke: #A80036; stroke-width: 1.0;" width="10" x="248.5" y="213.9609"/><rect fill="#FFFFFF" filter="url(#f5sdnq3z1kbb0)" height="613.7891" style="stroke: #A80036; stroke-width: 1.0;" width="10" x="248.5" y="286.0938"/><rect fill="#FFFFFF" filter="url(#f5sdnq3z1kbb0)" height="267.3281" style="stroke: #A80036; stroke-width: 1.0;" width="10" x="253.5" y="328.2266"/><rect fill="#FFFFFF" filter="url(#f5sdnq3z1kbb0)" height="267.3281" style="stroke: #A80036; stroke-width: 1.0;" width="10" x="253.5" y="632.5547"/><rect fill="#FFFFFF" filter="url(#f5sdnq3z1kbb0)" height="898.7188" style="stroke: #A80036; stroke-width: 1.0;" width="10" x="428.5" y="68.4297"/><rect fill="#FFFFFF" filter="url(#f5sdnq3z1kbb0)" height="898.7188" style="stroke: #A80036; stroke-width: 1.0;" width="10" x="553" y="68.4297"/><rect fill="#FFFFFF" filter="url(#f5sdnq3z1kbb0)" height="898.7188" style="stroke: #A80036; stroke-width: 1.0;" width="10" x="643.5" y="68.4297"/><rect fill="#FFFFFF" filter="url(#f5sdnq3z1kbb0)" height="898.7188" style="stroke: #A80036; stroke-width: 1.0;" width="10" x="742" y="68.4297"/><rect fill="#FFFFFF" filter="url(#f5sdnq3z1kbb0)" height="598.3906" style="stroke: #A80036; stroke-width: 1.0;" width="10" x="854" y="68.4297"/><rect fill="#FFFFFF" filter="url(#f5sdnq3z1kbb0)" height="271.1953" style="stroke: #A80036; stroke-width: 1.0;" width="10" x="854" y="695.9531"/><rect fill="#FFFFFF" filter="url(#f5sdnq3z1kbb0)" height="497.9922" style="stroke: #A80036; stroke-width: 1.0;" width="10" x="961" y="68.4297"/><rect fill="#FFFFFF" filter="url(#f5sdnq3z1kbb0)" height="242.0625" style="stroke: #A80036; stroke-width: 1.0;" width="10" x="961" y="725.0859"/><rect fill="#FFFFFF" filter="url(#f5sdnq3z1kbb0)" height="468.8594" style="stroke: #A80036; stroke-width: 1.0;" width="10" x="1091" y="68.4297"/><rect fill="#FFFFFF" filter="url(#f5sdnq3z1kbb0)" height="212.9297" style="stroke: #A80036; stroke-width: 1.0;" width="10" x="1091" y="754.2188"/><rect fill="#FFFFFF" filter="url(#f5sdnq3z1kbb0)" height="439.7266" style="stroke: #A80036; stroke-width: 1.0;" width="10" x="1221" y="68.4297"/><rect fill="#FFFFFF" filter="url(#f5sdnq3z1kbb0)" height="154.6641" style="stroke: #A80036; stroke-width: 1.0;" width="10" x="1221" y="812.4844"/><rect fill="#FFFFFF" filter="url(#f5sdnq3z1kbb0)" height="381.4609" style="stroke: #A80036; stroke-width: 1.0;" width="10" x="1357" y="68.4297"/><rect fill="#FFFFFF" filter="url(#f5sdnq3z1kbb0)" height="125.5313" style="stroke: #A80036; stroke-width: 1.0;" width="10" x="1357" y="841.6172"/><rect fill="#FFFFFF" filter="url(#f5sdnq3z1kbb0)" height="898.7188" style="stroke: #A80036; stroke-width: 1.0;" width="10" x="1527.5" y="68.4297"/><rect fill="#FFFFFF" filter="url(#f5sdnq3z1kbb0)" height="898.7188" style="stroke: #A80036; stroke-width: 1.0;" width="10" x="1748.5" y="68.4297"/><line style="stroke: #A80036; stroke-width: 1.0; stroke-dasharray: 5.0,5.0;" x1="82.5" x2="82.5" y1="58.4297" y2="976.1484"/><line style="stroke: #A80036; stroke-width: 1.0; stroke-dasharray: 5.0,5.0;" x1="248.5" x2="248.5" y1="58.4297" y2="976.1484"/><line style="stroke: #A80036; stroke-width: 1.0; stroke-dasharray: 5.0,5.0;" x1="433" x2="433" y1="58.4297" y2="976.1484"/><line style="stroke: #A80036; stroke-width: 1.0; stroke-dasharray: 5.0,5.0;" x1="558" x2="558" y1="58.4297" y2="976.1484"/><line style="stroke: #A80036; stroke-width: 1.0; stroke-dasharray: 5.0,5.0;" x1="648" x2="648" y1="58.4297" y2="976.1484"/><line style="stroke: #A80036; stroke-width: 1.0; stroke-dasharray: 5.0,5.0;" x1="747" x2="747" y1="58.4297" y2="976.1484"/><line style="stroke: #A80036; stroke-width: 1.0; stroke-dasharray: 5.0,5.0;" x1="859" x2="859" y1="58.4297" y2="976.1484"/><line style="stroke: #A80036; stroke-width: 1.0; stroke-dasharray: 5.0,5.0;" x1="966" x2="966" y1="58.4297" y2="976.1484"/><line style="stroke: #A80036; stroke-width: 1.0; stroke-dasharray: 5.0,5.0;" x1="1096" x2="1096" y1="58.4297" y2="976.1484"/><line style="stroke: #A80036; stroke-width: 1.0; stroke-dasharray: 5.0,5.0;" x1="1226" x2="1226" y1="58.4297" y2="976.1484"/><line style="stroke: #A80036; stroke-width: 1.0; stroke-dasharray: 5.0,5.0;" x1="1362" x2="1362" y1="58.4297" y2="976.1484"/><line style="stroke: #A80036; stroke-width: 1.0; stroke-dasharray: 5.0,5.0;" x1="1532" x2="1532" y1="58.4297" y2="976.1484"/><line style="stroke: #A80036; stroke-width: 1.0; stroke-dasharray: 5.0,5.0;" x1="1753" x2="1753" y1="58.4297" y2="976.1484"/><line style="stroke: #A80036; stroke-width: 1.0; stroke-dasharray: 5.0,5.0;" x1="1882" x2="1882" y1="58.4297" y2="976.1484"/><rect fill="#FEFECE" filter="url(#f5sdnq3z1kbb0)" height="30.2969" style="stroke: #A80036; stroke-width: 1.5;" width="137" x="12.5" y="23.1328"/><text fill="#000000" font-family="sans-serif" font-size="14" lengthAdjust="spacingAndGlyphs" textLength="123" x="19.5" y="43.1279">CustomDemoApp</text><rect fill="#FEFECE" filter="url(#f5sdnq3z1kbb0)" height="30.2969" style="stroke: #A80036; stroke-width: 1.5;" width="137" x="12.5" y="975.1484"/><text fill="#000000" font-family="sans-serif" font-size="14" lengthAdjust="spacingAndGlyphs" textLength="123" x="19.5" y="995.1436">CustomDemoApp</text><rect fill="#FEFECE" filter="url(#f5sdnq3z1kbb0)" height="30.2969" style="stroke: #A80036; stroke-width: 1.5;" width="166" x="163.5" y="23.1328"/><text fill="#000000" font-family="sans-serif" font-size="14" lengthAdjust="spacingAndGlyphs" textLength="152" x="170.5" y="43.1279">DemoAppVulkanBasic</text><rect fill="#FEFECE" filter="url(#f5sdnq3z1kbb0)" height="30.2969" style="stroke: #A80036; stroke-width: 1.5;" width="166" x="163.5" y="975.1484"/><text fill="#000000" font-family="sans-serif" font-size="14" lengthAdjust="spacingAndGlyphs" textLength="152" x="170.5" y="995.1436">DemoAppVulkanBasic</text><rect fill="#FEFECE" filter="url(#f5sdnq3z1kbb0)" height="30.2969" style="stroke: #A80036; stroke-width: 1.5;" width="129" x="367" y="23.1328"/><text fill="#000000" font-family="sans-serif" font-size="14" lengthAdjust="spacingAndGlyphs" textLength="115" x="374" y="43.1279">DemoAppVulkan</text><rect fill="#FEFECE" filter="url(#f5sdnq3z1kbb0)" height="30.2969" style="stroke: #A80036; stroke-width: 1.5;" width="129" x="367" y="975.1484"/><text fill="#000000" font-family="sans-serif" font-size="14" lengthAdjust="spacingAndGlyphs" textLength="115" x="374" y="995.1436">DemoAppVulkan</text><rect fill="#FEFECE" filter="url(#f5sdnq3z1kbb0)" height="30.2969" style="stroke: #A80036; stroke-width: 1.5;" width="92" x="510" y="23.1328"/><text fill="#000000" font-family="sans-serif" font-size="14" lengthAdjust="spacingAndGlyphs" textLength="78" x="517" y="43.1279">ADemoApp</text><rect fill="#FEFECE" filter="url(#f5sdnq3z1kbb0)" height="30.2969" style="stroke: #A80036; stroke-width: 1.5;" width="92" x="510" y="975.1484"/><text fill="#000000" font-family="sans-serif" font-size="14" lengthAdjust="spacingAndGlyphs" textLength="78" x="517" y="995.1436">ADemoApp</text><rect fill="#FEFECE" filter="url(#f5sdnq3z1kbb0)" height="30.2969" style="stroke: #A80036; stroke-width: 1.5;" width="61" x="616" y="23.1328"/><text fill="#000000" font-family="sans-serif" font-size="14" lengthAdjust="spacingAndGlyphs" textLength="47" x="623" y="43.1279">Device</text><rect fill="#FEFECE" filter="url(#f5sdnq3z1kbb0)" height="30.2969" style="stroke: #A80036; stroke-width: 1.5;" width="61" x="616" y="975.1484"/><text fill="#000000" font-family="sans-serif" font-size="14" lengthAdjust="spacingAndGlyphs" textLength="47" x="623" y="995.1436">Device</text><rect fill="#FEFECE" filter="url(#f5sdnq3z1kbb0)" height="30.2969" style="stroke: #A80036; stroke-width: 1.5;" width="108" x="691" y="23.1328"/><text fill="#000000" font-family="sans-serif" font-size="14" lengthAdjust="spacingAndGlyphs" textLength="94" x="698" y="43.1279">DeviceQueue</text><rect fill="#FEFECE" filter="url(#f5sdnq3z1kbb0)" height="30.2969" style="stroke: #A80036; stroke-width: 1.5;" width="108" x="691" y="975.1484"/><text fill="#000000" font-family="sans-serif" font-size="14" lengthAdjust="spacingAndGlyphs" textLength="94" x="698" y="995.1436">DeviceQueue</text><rect fill="#FEFECE" filter="url(#f5sdnq3z1kbb0)" height="30.2969" style="stroke: #A80036; stroke-width: 1.5;" width="88" x="813" y="23.1328"/><text fill="#000000" font-family="sans-serif" font-size="14" lengthAdjust="spacingAndGlyphs" textLength="74" x="820" y="43.1279">Swapchain</text><rect fill="#FEFECE" filter="url(#f5sdnq3z1kbb0)" height="30.2969" style="stroke: #A80036; stroke-width: 1.5;" width="88" x="813" y="975.1484"/><text fill="#000000" font-family="sans-serif" font-size="14" lengthAdjust="spacingAndGlyphs" textLength="74" x="820" y="995.1436">Swapchain</text><rect fill="#FEFECE" filter="url(#f5sdnq3z1kbb0)" height="30.2969" style="stroke: #A80036; stroke-width: 1.5;" width="98" x="915" y="23.1328"/><text fill="#000000" font-family="sans-serif" font-size="14" lengthAdjust="spacingAndGlyphs" textLength="84" x="922" y="43.1279">DepthBuffer</text><rect fill="#FEFECE" filter="url(#f5sdnq3z1kbb0)" height="30.2969" style="stroke: #A80036; stroke-width: 1.5;" width="98" x="915" y="975.1484"/><text fill="#000000" font-family="sans-serif" font-size="14" lengthAdjust="spacingAndGlyphs" textLength="84" x="922" y="995.1436">DepthBuffer</text><rect fill="#FEFECE" filter="url(#f5sdnq3z1kbb0)" height="30.2969" style="stroke: #A80036; stroke-width: 1.5;" width="134" x="1027" y="23.1328"/><text fill="#000000" font-family="sans-serif" font-size="14" lengthAdjust="spacingAndGlyphs" textLength="120" x="1034" y="43.1279">CommandBuffers</text><rect fill="#FEFECE" filter="url(#f5sdnq3z1kbb0)" height="30.2969" style="stroke: #A80036; stroke-width: 1.5;" width="134" x="1027" y="975.1484"/><text fill="#000000" font-family="sans-serif" font-size="14" lengthAdjust="spacingAndGlyphs" textLength="120" x="1034" y="995.1436">CommandBuffers</text><rect fill="#FEFECE" filter="url(#f5sdnq3z1kbb0)" height="30.2969" style="stroke: #A80036; stroke-width: 1.5;" width="98" x="1175" y="23.1328"/><text fill="#000000" font-family="sans-serif" font-size="14" lengthAdjust="spacingAndGlyphs" textLength="84" x="1182" y="43.1279">RenderPass</text><rect fill="#FEFECE" filter="url(#f5sdnq3z1kbb0)" height="30.2969" style="stroke: #A80036; stroke-width: 1.5;" width="98" x="1175" y="975.1484"/><text fill="#000000" font-family="sans-serif" font-size="14" lengthAdjust="spacingAndGlyphs" textLength="84" x="1182" y="995.1436">RenderPass</text><rect fill="#FEFECE" filter="url(#f5sdnq3z1kbb0)" height="30.2969" style="stroke: #A80036; stroke-width: 1.5;" width="146" x="1287" y="23.1328"/><text fill="#000000" font-family="sans-serif" font-size="14" lengthAdjust="spacingAndGlyphs" textLength="132" x="1294" y="43.1279">SwapchainRecords</text><rect fill="#FEFECE" filter="url(#f5sdnq3z1kbb0)" height="30.2969" style="stroke: #A80036; stroke-width: 1.5;" width="146" x="1287" y="975.1484"/><text fill="#000000" font-family="sans-serif" font-size="14" lengthAdjust="spacingAndGlyphs" textLength="132" x="1294" y="995.1436">SwapchainRecords</text><rect fill="#FEFECE" filter="url(#f5sdnq3z1kbb0)" height="30.2969" style="stroke: #A80036; stroke-width: 1.5;" width="167" x="1447" y="23.1328"/><text fill="#000000" font-family="sans-serif" font-size="14" lengthAdjust="spacingAndGlyphs" textLength="153" x="1454" y="43.1279">NativeGraphicsService</text><rect fill="#FEFECE" filter="url(#f5sdnq3z1kbb0)" height="30.2969" style="stroke: #A80036; stroke-width: 1.5;" width="167" x="1447" y="975.1484"/><text fill="#000000" font-family="sans-serif" font-size="14" lengthAdjust="spacingAndGlyphs" textLength="153" x="1454" y="995.1436">NativeGraphicsService</text><rect fill="#FEFECE" filter="url(#f5sdnq3z1kbb0)" height="30.2969" style="stroke: #A80036; stroke-width: 1.5;" width="91" x="1706" y="23.1328"/><text fill="#000000" font-family="sans-serif" font-size="14" lengthAdjust="spacingAndGlyphs" textLength="77" x="1713" y="43.1279">QuadBatch</text><rect fill="#FEFECE" filter="url(#f5sdnq3z1kbb0)" height="30.2969" style="stroke: #A80036; stroke-width: 1.5;" width="91" x="1706" y="975.1484"/><text fill="#000000" font-family="sans-serif" font-size="14" lengthAdjust="spacingAndGlyphs" textLength="77" x="1713" y="995.1436">QuadBatch</text><rect fill="#FEFECE" filter="url(#f5sdnq3z1kbb0)" height="30.2969" style="stroke: #A80036; stroke-width: 1.5;" width="138" x="1811" y="23.1328"/><text fill="#000000" font-family="sans-serif" font-size="14" lengthAdjust="spacingAndGlyphs" textLength="124" x="1818" y="43.1279">SwapchainKHRUtil</text><rect fill="#FEFECE" filter="url(#f5sdnq3z1kbb0)" height="30.2969" style="stroke: #A80036; stroke-width: 1.5;" width="138" x="1811" y="975.1484"/><text fill="#000000" font-family="sans-serif" font-size="14" lengthAdjust="spacingAndGlyphs" textLength="124" x="1818" y="995.1436">SwapchainKHRUtil</text><rect fill="#FFFFFF" filter="url(#f5sdnq3z1kbb0)" height="898.7188" style="stroke: #A80036; stroke-width: 1.0;" width="10" x="78" y="68.4297"/><rect fill="#FFFFFF" filter="url(#f5sdnq3z1kbb0)" height="898.7188" style="stroke: #A80036; stroke-width: 1.0;" width="10" x="243.5" y="68.4297"/><rect fill="#FFFFFF" filter="url(#f5sdnq3z1kbb0)" height="28" style="stroke: #A80036; stroke-width: 1.0;" width="10" x="248.5" y="213.9609"/><rect fill="#FFFFFF" filter="url(#f5sdnq3z1kbb0)" height="613.7891" style="stroke: #A80036; stroke-width: 1.0;" width="10" x="248.5" y="286.0938"/><rect fill="#FFFFFF" filter="url(#f5sdnq3z1kbb0)" height="267.3281" style="stroke: #A80036; stroke-width: 1.0;" width="10" x="253.5" y="328.2266"/><rect fill="#FFFFFF" filter="url(#f5sdnq3z1kbb0)" height="267.3281" style="stroke: #A80036; stroke-width: 1.0;" width="10" x="253.5" y="632.5547"/><rect fill="#FFFFFF" filter="url(#f5sdnq3z1kbb0)" height="898.7188" style="stroke: #A80036; stroke-width: 1.0;" width="10" x="428.5" y="68.4297"/><rect fill="#FFFFFF" filter="url(#f5sdnq3z1kbb0)" height="898.7188" style="stroke: #A80036; stroke-width: 1.0;" width="10" x="553" y="68.4297"/><rect fill="#FFFFFF" filter="url(#f5sdnq3z1kbb0)" height="898.7188" style="stroke: #A80036; stroke-width: 1.0;" width="10" x="643.5" y="68.4297"/><rect fill="#FFFFFF" filter="url(#f5sdnq3z1kbb0)" height="898.7188" style="stroke: #A80036; stroke-width: 1.0;" width="10" x="742" y="68.4297"/><rect fill="#FFFFFF" filter="url(#f5sdnq3z1kbb0)" height="598.3906" style="stroke: #A80036; stroke-width: 1.0;" width="10" x="854" y="68.4297"/><rect fill="#FFFFFF" filter="url(#f5sdnq3z1kbb0)" height="271.1953" style="stroke: #A80036; stroke-width: 1.0;" width="10" x="854" y="695.9531"/><rect fill="#FFFFFF" filter="url(#f5sdnq3z1kbb0)" height="497.9922" style="stroke: #A80036; stroke-width: 1.0;" width="10" x="961" y="68.4297"/><rect fill="#FFFFFF" filter="url(#f5sdnq3z1kbb0)" height="242.0625" style="stroke: #A80036; stroke-width: 1.0;" width="10" x="961" y="725.0859"/><rect fill="#FFFFFF" filter="url(#f5sdnq3z1kbb0)" height="468.8594" style="stroke: #A80036; stroke-width: 1.0;" width="10" x="1091" y="68.4297"/><rect fill="#FFFFFF" filter="url(#f5sdnq3z1kbb0)" height="212.9297" style="stroke: #A80036; stroke-width: 1.0;" width="10" x="1091" y="754.2188"/><rect fill="#FFFFFF" filter="url(#f5sdnq3z1kbb0)" height="439.7266" style="stroke: #A80036; stroke-width: 1.0;" width="10" x="1221" y="68.4297"/><rect fill="#FFFFFF" filter="url(#f5sdnq3z1kbb0)" height="154.6641" style="stroke: #A80036; stroke-width: 1.0;" width="10" x="1221" y="812.4844"/><rect fill="#FFFFFF" filter="url(#f5sdnq3z1kbb0)" height="381.4609" style="stroke: #A80036; stroke-width: 1.0;" width="10" x="1357" y="68.4297"/><rect fill="#FFFFFF" filter="url(#f5sdnq3z1kbb0)" height="125.5313" style="stroke: #A80036; stroke-width: 1.0;" width="10" x="1357" y="841.6172"/><rect fill="#FFFFFF" filter="url(#f5sdnq3z1kbb0)" height="898.7188" style="stroke: #A80036; stroke-width: 1.0;" width="10" x="1527.5" y="68.4297"/><rect fill="#FFFFFF" filter="url(#f5sdnq3z1kbb0)" height="898.7188" style="stroke: #A80036; stroke-width: 1.0;" width="10" x="1748.5" y="68.4297"/><polygon fill="#A80036" points="66,85.5625,76,89.5625,66,93.5625,70,89.5625" style="stroke: #A80036; stroke-width: 1.0;"/><line style="stroke: #A80036; stroke-width: 1.0;" x1="3" x2="72" y1="89.5625" y2="89.5625"/><text fill="#000000" font-family="sans-serif" font-size="13" lengthAdjust="spacingAndGlyphs" textLength="56" x="10" y="84.4966">_Resized</text><polygon fill="#A80036" points="541,114.6953,551,118.6953,541,122.6953,545,118.6953" style="stroke: #A80036; stroke-width: 1.0;"/><line style="stroke: #A80036; stroke-width: 1.0;" x1="88" x2="547" y1="118.6953" y2="118.6953"/><text fill="#000000" font-family="sans-serif" font-size="13" lengthAdjust="spacingAndGlyphs" textLength="56" x="95" y="113.6294">_Resized</text><polygon fill="#A80036" points="99,143.8281,89,147.8281,99,151.8281,95,147.8281" style="stroke: #A80036; stroke-width: 1.0;"/><line style="stroke: #A80036; stroke-width: 1.0;" x1="93" x2="552" y1="147.8281" y2="147.8281"/><text fill="#000000" font-family="sans-serif" font-size="13" lengthAdjust="spacingAndGlyphs" textLength="49" x="105" y="142.7622">Resized</text><polygon fill="#A80036" points="231.5,172.9609,241.5,176.9609,231.5,180.9609,235.5,176.9609" style="stroke: #A80036; stroke-width: 1.0;"/><line style="stroke: #A80036; stroke-width: 1.0;" x1="88" x2="237.5" y1="176.9609" y2="176.9609"/><text fill="#000000" font-family="sans-serif" font-size="13" lengthAdjust="spacingAndGlyphs" textLength="49" x="95" y="171.895">Resized</text><line style="stroke: #A80036; stroke-width: 1.0;" x1="258.5" x2="300.5" y1="206.0938" y2="206.0938"/><line style="stroke: #A80036; stroke-width: 1.0;" x1="300.5" x2="300.5" y1="206.0938" y2="219.0938"/><line style="stroke: #A80036; stroke-width: 1.0;" x1="259.5" x2="300.5" y1="219.0938" y2="219.0938"/><polygon fill="#A80036" points="269.5,215.0938,259.5,219.0938,269.5,223.0938,265.5,219.0938" style="stroke: #A80036; stroke-width: 1.0;"/><text fill="#000000" font-family="sans-serif" font-size="13" lengthAdjust="spacingAndGlyphs" textLength="135" x="265.5" y="201.0278">IsResourcesAllocated</text><line style="stroke: #A80036; stroke-width: 1.0;" x1="253.5" x2="300.5" y1="273.2266" y2="273.2266"/><line style="stroke: #A80036; stroke-width: 1.0;" x1="300.5" x2="300.5" y1="273.2266" y2="286.2266"/><line style="stroke: #A80036; stroke-width: 1.0;" x1="259.5" x2="300.5" y1="286.2266" y2="286.2266"/><polygon fill="#A80036" points="269.5,282.2266,259.5,286.2266,269.5,290.2266,265.5,286.2266" style="stroke: #A80036; stroke-width: 1.0;"/><text fill="#000000" font-family="sans-serif" font-size="13" lengthAdjust="spacingAndGlyphs" textLength="131" x="265.5" y="268.1606">TryRebuildResources</text><line style="stroke: #A80036; stroke-width: 1.0;" x1="258.5" x2="305.5" y1="315.3594" y2="315.3594"/><line style="stroke: #A80036; stroke-width: 1.0;" x1="305.5" x2="305.5" y1="315.3594" y2="328.3594"/><line style="stroke: #A80036; stroke-width: 1.0;" x1="264.5" x2="305.5" y1="328.3594" y2="328.3594"/><polygon fill="#A80036" points="274.5,324.3594,264.5,328.3594,274.5,332.3594,270.5,328.3594" style="stroke: #A80036; stroke-width: 1.0;"/><text fill="#000000" font-family="sans-serif" font-size="13" lengthAdjust="spacingAndGlyphs" textLength="94" x="270.5" y="310.2935">FreeResources</text><polygon fill="#A80036" points="416.5,358.4922,426.5,362.4922,416.5,366.4922,420.5,362.4922" style="stroke: #A80036; stroke-width: 1.0;"/><line style="stroke: #A80036; stroke-width: 1.0;" x1="263.5" x2="422.5" y1="362.4922" y2="362.4922"/><text fill="#000000" font-family="sans-serif" font-size="13" lengthAdjust="spacingAndGlyphs" textLength="141" x="270.5" y="357.4263">SafeWaitForDeviceIdle</text><polygon fill="#A80036" points="1515.5,387.625,1525.5,391.625,1515.5,395.625,1519.5,391.625" style="stroke: #A80036; stroke-width: 1.0;"/><line style="stroke: #A80036; stroke-width: 1.0;" x1="263.5" x2="1521.5" y1="391.625" y2="391.625"/><text fill="#000000" font-family="sans-serif" font-size="13" lengthAdjust="spacingAndGlyphs" textLength="230" x="270.5" y="386.5591">VulkanDestroyDependentResources</text><polygon fill="#A80036" points="1736.5,416.7578,1746.5,420.7578,1736.5,424.7578,1740.5,420.7578" style="stroke: #A80036; stroke-width: 1.0;"/><line style="stroke: #A80036; stroke-width: 1.0;" x1="1537.5" x2="1742.5" y1="420.7578" y2="420.7578"/><text fill="#000000" font-family="sans-serif" font-size="13" lengthAdjust="spacingAndGlyphs" textLength="187" x="1544.5" y="415.6919">DestroyDependentResources</text><polygon fill="#A80036" points="1350,445.8906,1360,449.8906,1350,453.8906,1354,449.8906" style="stroke: #A80036; stroke-width: 1.0;"/><line style="stroke: #A80036; stroke-width: 1.0;" x1="263.5" x2="1356" y1="449.8906" y2="449.8906"/><text fill="#000000" font-family="sans-serif" font-size="13" lengthAdjust="spacingAndGlyphs" textLength="33" x="270.5" y="444.8247">Clear</text><polygon fill="#A80036" points="99,475.0234,89,479.0234,99,483.0234,95,479.0234" style="stroke: #A80036; stroke-width: 1.0;"/><line style="stroke: #A80036; stroke-width: 1.0;" x1="93" x2="252.5" y1="479.0234" y2="479.0234"/><text fill="#000000" font-family="sans-serif" font-size="13" lengthAdjust="spacingAndGlyphs" textLength="112" x="105" y="473.9575">OnFreeResources</text><polygon fill="#A80036" points="1214,504.1563,1224,508.1563,1214,512.1563,1218,508.1563" style="stroke: #A80036; stroke-width: 1.0;"/><line style="stroke: #A80036; stroke-width: 1.0;" x1="88" x2="1220" y1="508.1563" y2="508.1563"/><text fill="#000000" font-family="sans-serif" font-size="13" lengthAdjust="spacingAndGlyphs" textLength="50" x="95" y="503.0903">Destroy</text><polygon fill="#A80036" points="1084,533.2891,1094,537.2891,1084,541.2891,1088,537.2891" style="stroke: #A80036; stroke-width: 1.0;"/><line style="stroke: #A80036; stroke-width: 1.0;" x1="263.5" x2="1090" y1="537.2891" y2="537.2891"/><text fill="#000000" font-family="sans-serif" font-size="13" lengthAdjust="spacingAndGlyphs" textLength="36" x="270.5" y="532.2231">Reset</text><polygon fill="#A80036" points="954,562.4219,964,566.4219,954,570.4219,958,566.4219" style="stroke: #A80036; stroke-width: 1.0;"/><line style="stroke: #A80036; stroke-width: 1.0;" x1="263.5" x2="960" y1="566.4219" y2="566.4219"/><text fill="#000000" font-family="sans-serif" font-size="13" lengthAdjust="spacingAndGlyphs" textLength="36" x="270.5" y="561.356">Reset</text><polygon fill="#A80036" points="416.5,591.5547,426.5,595.5547,416.5,599.5547,420.5,595.5547" style="stroke: #A80036; stroke-width: 1.0;"/><line style="stroke: #A80036; stroke-width: 1.0;" x1="258.5" x2="422.5" y1="595.5547" y2="595.5547"/><text fill="#000000" font-family="sans-serif" font-size="13" lengthAdjust="spacingAndGlyphs" textLength="141" x="265.5" y="590.4888">SafeWaitForDeviceIdle</text><line style="stroke: #A80036; stroke-width: 1.0;" x1="258.5" x2="305.5" y1="619.6875" y2="619.6875"/><line style="stroke: #A80036; stroke-width: 1.0;" x1="305.5" x2="305.5" y1="619.6875" y2="632.6875"/><line style="stroke: #A80036; stroke-width: 1.0;" x1="264.5" x2="305.5" y1="632.6875" y2="632.6875"/><polygon fill="#A80036" points="274.5,628.6875,264.5,632.6875,274.5,636.6875,270.5,632.6875" style="stroke: #A80036; stroke-width: 1.0;"/><text fill="#000000" font-family="sans-serif" font-size="13" lengthAdjust="spacingAndGlyphs" textLength="97" x="270.5" y="614.6216">BuildResources</text><polygon fill="#A80036" points="1870,662.8203,1880,666.8203,1870,670.8203,1874,666.8203" style="stroke: #A80036; stroke-width: 1.0;"/><line style="stroke: #A80036; stroke-width: 1.0;" x1="263.5" x2="1876" y1="666.8203" y2="666.8203"/><text fill="#000000" font-family="sans-serif" font-size="13" lengthAdjust="spacingAndGlyphs" textLength="111" x="270.5" y="661.7544">CreateSwapchain</text><polygon fill="#A80036" points="875,691.9531,865,695.9531,875,699.9531,871,695.9531" style="stroke: #A80036; stroke-width: 1.0;"/><line style="stroke: #A80036; stroke-width: 1.0;" x1="869" x2="1881" y1="695.9531" y2="695.9531"/><text fill="#000000" font-family="sans-serif" font-size="13" lengthAdjust="spacingAndGlyphs" textLength="62" x="881" y="690.8872">Construct</text><polygon fill="#A80036" points="949,721.0859,959,725.0859,949,729.0859,953,725.0859" style="stroke: #A80036; stroke-width: 1.0;"/><line style="stroke: #A80036; stroke-width: 1.0;" x1="263.5" x2="955" y1="725.0859" y2="725.0859"/><text fill="#000000" font-family="sans-serif" font-size="13" lengthAdjust="spacingAndGlyphs" textLength="62" x="270.5" y="720.02">Construct</text><polygon fill="#A80036" points="1079,750.2188,1089,754.2188,1079,758.2188,1083,754.2188" style="stroke: #A80036; stroke-width: 1.0;"/><line style="stroke: #A80036; stroke-width: 1.0;" x1="263.5" x2="1085" y1="754.2188" y2="754.2188"/><text fill="#000000" font-family="sans-serif" font-size="13" lengthAdjust="spacingAndGlyphs" textLength="192" x="270.5" y="749.1528">Reset(swapChainImageCount)</text><polygon fill="#A80036" points="99,779.3516,89,783.3516,99,787.3516,95,783.3516" style="stroke: #A80036; stroke-width: 1.0;"/><line style="stroke: #A80036; stroke-width: 1.0;" x1="93" x2="252.5" y1="783.3516" y2="783.3516"/><text fill="#000000" font-family="sans-serif" font-size="13" lengthAdjust="spacingAndGlyphs" textLength="115" x="105" y="778.2856">OnBuildResources</text><polygon fill="#A80036" points="1209,808.4844,1219,812.4844,1209,816.4844,1213,812.4844" style="stroke: #A80036; stroke-width: 1.0;"/><line style="stroke: #A80036; stroke-width: 1.0;" x1="88" x2="1215" y1="812.4844" y2="812.4844"/><text fill="#000000" font-family="sans-serif" font-size="13" lengthAdjust="spacingAndGlyphs" textLength="62" x="95" y="807.4185">Construct</text><polygon fill="#A80036" points="1345,837.6172,1355,841.6172,1345,845.6172,1349,841.6172" style="stroke: #A80036; stroke-width: 1.0;"/><line style="stroke: #A80036; stroke-width: 1.0;" x1="263.5" x2="1351" y1="841.6172" y2="841.6172"/><text fill="#000000" font-family="sans-serif" font-size="13" lengthAdjust="spacingAndGlyphs" textLength="43" x="270.5" y="836.5513">Create</text><polygon fill="#A80036" points="1515.5,866.75,1525.5,870.75,1515.5,874.75,1519.5,870.75" style="stroke: #A80036; stroke-width: 1.0;"/><line style="stroke: #A80036; stroke-width: 1.0;" x1="263.5" x2="1521.5" y1="870.75" y2="870.75"/><text fill="#000000" font-family="sans-serif" font-size="13" lengthAdjust="spacingAndGlyphs" textLength="223" x="270.5" y="865.6841">VulkanCreateDependentResources</text><polygon fill="#A80036" points="1736.5,895.8828,1746.5,899.8828,1736.5,903.8828,1740.5,899.8828" style="stroke: #A80036; stroke-width: 1.0;"/><line style="stroke: #A80036; stroke-width: 1.0;" x1="1537.5" x2="1742.5" y1="899.8828" y2="899.8828"/><text fill="#000000" font-family="sans-serif" font-size="13" lengthAdjust="spacingAndGlyphs" textLength="180" x="1544.5" y="894.8169">CreateDependentResources</text><polygon fill="#A80036" points="416.5,925.0156,426.5,929.0156,416.5,933.0156,420.5,929.0156" style="stroke: #A80036; stroke-width: 1.0;"/><line style="stroke: #A80036; stroke-width: 1.0;" x1="253.5" x2="422.5" y1="929.0156" y2="929.0156"/><text fill="#000000" font-family="sans-serif" font-size="13" lengthAdjust="spacingAndGlyphs" textLength="49" x="260.5" y="923.9497">Resized</text><polygon fill="#A80036" points="541,954.1484,551,958.1484,541,962.1484,545,958.1484" style="stroke: #A80036; stroke-width: 1.0;"/><line style="stroke: #A80036; stroke-width: 1.0;" x1="438.5" x2="547" y1="958.1484" y2="958.1484"/><text fill="#000000" font-family="sans-serif" font-size="13" lengthAdjust="spacingAndGlyphs" textLength="49" x="445.5" y="953.0825">Resized</text><!--
@startuml
activate CustomDemoApp
activate DemoAppVulkanBasic
activate DemoAppVulkan
activate ADemoApp

box "AppTemplate" #LightBlue
    participant DemoAppVulkanBasic
    participant DemoAppVulkan
    participant ADemoApp
end box

activate Device
activate DeviceQueue
activate Swapchain
activate DepthBuffer
activate CommandBuffers
activate RenderPass
activate SwapchainRecords
activate NativeGraphicsService
activate QuadBatch

->CustomDemoApp: _Resized
CustomDemoApp->ADemoApp: _Resized
ADemoApp->CustomDemoApp: Resized
CustomDemoApp->DemoAppVulkanBasic: Resized
DemoAppVulkanBasic->DemoAppVulkanBasic++: IsResourcesAllocated
deactivate DemoAppVulkanBasic
DemoAppVulkanBasic->DemoAppVulkanBasic++: TryRebuildResources
DemoAppVulkanBasic->DemoAppVulkanBasic++: FreeResources
DemoAppVulkanBasic->DemoAppVulkan: SafeWaitForDeviceIdle
DemoAppVulkanBasic->NativeGraphicsService: VulkanDestroyDependentResources
NativeGraphicsService->QuadBatch: DestroyDependentResources
DemoAppVulkanBasic->SwapchainRecords: Clear
deactivate SwapchainRecords
DemoAppVulkanBasic->CustomDemoApp: OnFreeResources
CustomDemoApp->RenderPass: Destroy
deactivate RenderPass
DemoAppVulkanBasic->CommandBuffers: Reset
deactivate CommandBuffers
DemoAppVulkanBasic->DepthBuffer: Reset
deactivate DepthBuffer
DemoAppVulkanBasic->DemoAppVulkan: SafeWaitForDeviceIdle
deactivate DemoAppVulkanBasic
DemoAppVulkanBasic->DemoAppVulkanBasic++: BuildResources
DemoAppVulkanBasic->SwapchainKHRUtil: CreateSwapchain
deactivate Swapchain
SwapchainKHRUtil->Swapchain++: Construct
DemoAppVulkanBasic->DepthBuffer++: Construct
DemoAppVulkanBasic->CommandBuffers++: Reset(swapChainImageCount)
DemoAppVulkanBasic->CustomDemoApp: OnBuildResources
CustomDemoApp->RenderPass++: Construct
DemoAppVulkanBasic->SwapchainRecords++: Create
DemoAppVulkanBasic->NativeGraphicsService: VulkanCreateDependentResources
NativeGraphicsService->QuadBatch: CreateDependentResources
deactivate DemoAppVulkanBasic
deactivate DemoAppVulkanBasic
DemoAppVulkanBasic->DemoAppVulkan: Resized
DemoAppVulkan->ADemoApp: Resized
@enduml

PlantUML version 1.2018.14(Fri Dec 21 16:33:16 UTC 2018)
(GPL source distribution)
Java Runtime: OpenJDK Runtime Environment
JVM: OpenJDK 64-Bit Server VM
Java Version: 1.8.0_181-8u181-b13-2~deb9u1-b13
Operating System: Linux
OS Version: 4.15.0-43-generic
Default Encoding: UTF-8
Language: en
Country: null
--></g></svg>