<?xml version="1.0" encoding="UTF-8" standalone="no"?><svg xmlns="http://www.w3.org/2000/svg" xmlns:xlink="http://www.w3.org/1999/xlink" contentScriptType="application/ecmascript" contentStyleType="text/css" height="1108px" preserveAspectRatio="none" style="width:1874px;height:1108px;" version="1.1" viewBox="0 0 1874 1108" width="1874px" zoomAndPan="magnify"><defs><filter height="300%" id="f5dcnlkf6ucp0" width="300%" x="-1" y="-1"><feGaussianBlur result="blurOut" stdDeviation="2.0"/><feColorMatrix in="blurOut" result="blurOut2" type="matrix" values="0 0 0 0 0 0 0 0 0 0 0 0 0 0 0 0 0 0 .4 0"/><feOffset dx="4.0" dy="4.0" in="blurOut2" result="blurOut3"/><feBlend in="SourceGraphic" in2="blurOut3" mode="normal"/></filter></defs><g><rect fill="#ADD8E6" height="1096.4453" style="stroke:#A80036;stroke-width:1.0;" width="472.5" x="183.5" y="6"/><text fill="#000000" font-family="sans-serif" font-size="13" font-weight="bold" lengthAdjust="spacing" textLength="99" x="370.25" y="18.0669">AppTemplate</text><rect fill="#FFFFFF" filter="url(#f5dcnlkf6ucp0)" height="975.7188" style="stroke:#A80036;stroke-width:1.0;" width="10" x="102" y="70.4297"/><rect fill="#FFFFFF" filter="url(#f5dcnlkf6ucp0)" height="975.7188" style="stroke:#A80036;stroke-width:1.0;" width="10" x="267.5" y="70.4297"/><rect fill="#FFFFFF" filter="url(#f5dcnlkf6ucp0)" height="267.1953" style="stroke:#A80036;stroke-width:1.0;" width="10" x="272.5" y="216.0938"/><rect fill="#FFFFFF" filter="url(#f5dcnlkf6ucp0)" height="28" style="stroke:#A80036;stroke-width:1.0;" width="10" x="272.5" y="780.3516"/><rect fill="#FFFFFF" filter="url(#f5dcnlkf6ucp0)" height="975.7188" style="stroke:#A80036;stroke-width:1.0;" width="10" x="429" y="70.4297"/><rect fill="#FFFFFF" filter="url(#f5dcnlkf6ucp0)" height="70.1328" style="stroke:#A80036;stroke-width:1.0;" width="10" x="434" y="578.6875"/><rect fill="#FFFFFF" filter="url(#f5dcnlkf6ucp0)" height="28" style="stroke:#A80036;stroke-width:1.0;" width="10" x="439" y="620.8203"/><rect fill="#FFFFFF" filter="url(#f5dcnlkf6ucp0)" height="70.1328" style="stroke:#A80036;stroke-width:1.0;" width="10" x="434" y="881.6172"/><rect fill="#FFFFFF" filter="url(#f5dcnlkf6ucp0)" height="28" style="stroke:#A80036;stroke-width:1.0;" width="10" x="439" y="923.75"/><rect fill="#FFFFFF" filter="url(#f5dcnlkf6ucp0)" height="975.7188" style="stroke:#A80036;stroke-width:1.0;" width="10" x="599" y="70.4297"/><rect fill="#FFFFFF" filter="url(#f5dcnlkf6ucp0)" height="946.5859" style="stroke:#A80036;stroke-width:1.0;" width="10" x="689.5" y="70.4297"/><rect fill="#FFFFFF" filter="url(#f5dcnlkf6ucp0)" height="917.4531" style="stroke:#A80036;stroke-width:1.0;" width="10" x="788" y="70.4297"/><rect fill="#FFFFFF" filter="url(#f5dcnlkf6ucp0)" height="441.9922" style="stroke:#A80036;stroke-width:1.0;" width="10" x="900" y="70.4297"/><rect fill="#FFFFFF" filter="url(#f5dcnlkf6ucp0)" height="383.7266" style="stroke:#A80036;stroke-width:1.0;" width="10" x="1007" y="70.4297"/><rect fill="#FFFFFF" filter="url(#f5dcnlkf6ucp0)" height="354.5938" style="stroke:#A80036;stroke-width:1.0;" width="10" x="1137" y="70.4297"/><rect fill="#FFFFFF" filter="url(#f5dcnlkf6ucp0)" height="325.4609" style="stroke:#A80036;stroke-width:1.0;" width="10" x="1267" y="70.4297"/><rect fill="#FFFFFF" filter="url(#f5dcnlkf6ucp0)" height="267.1953" style="stroke:#A80036;stroke-width:1.0;" width="10" x="1403" y="70.4297"/><rect fill="#FFFFFF" filter="url(#f5dcnlkf6ucp0)" height="984.7188" style="stroke:#A80036;stroke-width:1.0;" width="10" x="1552.5" y="70.4297"/><rect fill="#FFFFFF" filter="url(#f5dcnlkf6ucp0)" height="984.7188" style="stroke:#A80036;stroke-width:1.0;" width="10" x="1773.5" y="70.4297"/><line style="stroke:#A80036;stroke-width:1.0;stroke-dasharray:5.0,5.0;" x1="106.5" x2="106.5" y1="60.4297" y2="1064.1484"/><line style="stroke:#A80036;stroke-width:1.0;stroke-dasharray:5.0,5.0;" x1="272.5" x2="272.5" y1="60.4297" y2="1064.1484"/><line style="stroke:#A80036;stroke-width:1.0;stroke-dasharray:5.0,5.0;" x1="433.5" x2="433.5" y1="60.4297" y2="1064.1484"/><line style="stroke:#A80036;stroke-width:1.0;stroke-dasharray:5.0,5.0;" x1="604" x2="604" y1="60.4297" y2="1064.1484"/><line style="stroke:#A80036;stroke-width:1.0;stroke-dasharray:5.0,5.0;" x1="694" x2="694" y1="60.4297" y2="1064.1484"/><line style="stroke:#A80036;stroke-width:1.0;stroke-dasharray:5.0,5.0;" x1="793" x2="793" y1="60.4297" y2="1064.1484"/><line style="stroke:#A80036;stroke-width:1.0;stroke-dasharray:5.0,5.0;" x1="905" x2="905" y1="60.4297" y2="1064.1484"/><line style="stroke:#A80036;stroke-width:1.0;stroke-dasharray:5.0,5.0;" x1="1012" x2="1012" y1="60.4297" y2="1064.1484"/><line style="stroke:#A80036;stroke-width:1.0;stroke-dasharray:5.0,5.0;" x1="1142" x2="1142" y1="60.4297" y2="1064.1484"/><line style="stroke:#A80036;stroke-width:1.0;stroke-dasharray:5.0,5.0;" x1="1272" x2="1272" y1="60.4297" y2="1064.1484"/><line style="stroke:#A80036;stroke-width:1.0;stroke-dasharray:5.0,5.0;" x1="1408" x2="1408" y1="60.4297" y2="1064.1484"/><line style="stroke:#A80036;stroke-width:1.0;stroke-dasharray:5.0,5.0;" x1="1557" x2="1557" y1="60.4297" y2="1064.1484"/><line style="stroke:#A80036;stroke-width:1.0;stroke-dasharray:5.0,5.0;" x1="1778" x2="1778" y1="60.4297" y2="1064.1484"/><rect fill="#FEFECE" filter="url(#f5dcnlkf6ucp0)" height="30.2969" style="stroke:#A80036;stroke-width:1.5;" width="137" x="36.5" y="25.1328"/><text fill="#000000" font-family="sans-serif" font-size="14" lengthAdjust="spacing" textLength="123" x="43.5" y="45.1279">CustomDemoApp</text><rect fill="#FEFECE" filter="url(#f5dcnlkf6ucp0)" height="30.2969" style="stroke:#A80036;stroke-width:1.5;" width="137" x="36.5" y="1063.1484"/><text fill="#000000" font-family="sans-serif" font-size="14" lengthAdjust="spacing" textLength="123" x="43.5" y="1083.1436">CustomDemoApp</text><rect fill="#FEFECE" filter="url(#f5dcnlkf6ucp0)" height="30.2969" style="stroke:#A80036;stroke-width:1.5;" width="166" x="187.5" y="25.1328"/><text fill="#000000" font-family="sans-serif" font-size="14" lengthAdjust="spacing" textLength="152" x="194.5" y="45.1279">DemoAppVulkanBasic</text><rect fill="#FEFECE" filter="url(#f5dcnlkf6ucp0)" height="30.2969" style="stroke:#A80036;stroke-width:1.5;" width="166" x="187.5" y="1063.1484"/><text fill="#000000" font-family="sans-serif" font-size="14" lengthAdjust="spacing" textLength="152" x="194.5" y="1083.1436">DemoAppVulkanBasic</text><rect fill="#FEFECE" filter="url(#f5dcnlkf6ucp0)" height="30.2969" style="stroke:#A80036;stroke-width:1.5;" width="129" x="367.5" y="25.1328"/><text fill="#000000" font-family="sans-serif" font-size="14" lengthAdjust="spacing" textLength="115" x="374.5" y="45.1279">DemoAppVulkan</text><rect fill="#FEFECE" filter="url(#f5dcnlkf6ucp0)" height="30.2969" style="stroke:#A80036;stroke-width:1.5;" width="129" x="367.5" y="1063.1484"/><text fill="#000000" font-family="sans-serif" font-size="14" lengthAdjust="spacing" textLength="115" x="374.5" y="1083.1436">DemoAppVulkan</text><rect fill="#FEFECE" filter="url(#f5dcnlkf6ucp0)" height="30.2969" style="stroke:#A80036;stroke-width:1.5;" width="92" x="556" y="25.1328"/><text fill="#000000" font-family="sans-serif" font-size="14" lengthAdjust="spacing" textLength="78" x="563" y="45.1279">ADemoApp</text><rect fill="#FEFECE" filter="url(#f5dcnlkf6ucp0)" height="30.2969" style="stroke:#A80036;stroke-width:1.5;" width="92" x="556" y="1063.1484"/><text fill="#000000" font-family="sans-serif" font-size="14" lengthAdjust="spacing" textLength="78" x="563" y="1083.1436">ADemoApp</text><rect fill="#FEFECE" filter="url(#f5dcnlkf6ucp0)" height="30.2969" style="stroke:#A80036;stroke-width:1.5;" width="61" x="662" y="25.1328"/><text fill="#000000" font-family="sans-serif" font-size="14" lengthAdjust="spacing" textLength="47" x="669" y="45.1279">Device</text><rect fill="#FEFECE" filter="url(#f5dcnlkf6ucp0)" height="30.2969" style="stroke:#A80036;stroke-width:1.5;" width="61" x="662" y="1063.1484"/><text fill="#000000" font-family="sans-serif" font-size="14" lengthAdjust="spacing" textLength="47" x="669" y="1083.1436">Device</text><rect fill="#FEFECE" filter="url(#f5dcnlkf6ucp0)" height="30.2969" style="stroke:#A80036;stroke-width:1.5;" width="108" x="737" y="25.1328"/><text fill="#000000" font-family="sans-serif" font-size="14" lengthAdjust="spacing" textLength="94" x="744" y="45.1279">DeviceQueue</text><rect fill="#FEFECE" filter="url(#f5dcnlkf6ucp0)" height="30.2969" style="stroke:#A80036;stroke-width:1.5;" width="108" x="737" y="1063.1484"/><text fill="#000000" font-family="sans-serif" font-size="14" lengthAdjust="spacing" textLength="94" x="744" y="1083.1436">DeviceQueue</text><rect fill="#FEFECE" filter="url(#f5dcnlkf6ucp0)" height="30.2969" style="stroke:#A80036;stroke-width:1.5;" width="88" x="859" y="25.1328"/><text fill="#000000" font-family="sans-serif" font-size="14" lengthAdjust="spacing" textLength="74" x="866" y="45.1279">Swapchain</text><rect fill="#FEFECE" filter="url(#f5dcnlkf6ucp0)" height="30.2969" style="stroke:#A80036;stroke-width:1.5;" width="88" x="859" y="1063.1484"/><text fill="#000000" font-family="sans-serif" font-size="14" lengthAdjust="spacing" textLength="74" x="866" y="1083.1436">Swapchain</text><rect fill="#FEFECE" filter="url(#f5dcnlkf6ucp0)" height="30.2969" style="stroke:#A80036;stroke-width:1.5;" width="98" x="961" y="25.1328"/><text fill="#000000" font-family="sans-serif" font-size="14" lengthAdjust="spacing" textLength="84" x="968" y="45.1279">DepthBuffer</text><rect fill="#FEFECE" filter="url(#f5dcnlkf6ucp0)" height="30.2969" style="stroke:#A80036;stroke-width:1.5;" width="98" x="961" y="1063.1484"/><text fill="#000000" font-family="sans-serif" font-size="14" lengthAdjust="spacing" textLength="84" x="968" y="1083.1436">DepthBuffer</text><rect fill="#FEFECE" filter="url(#f5dcnlkf6ucp0)" height="30.2969" style="stroke:#A80036;stroke-width:1.5;" width="134" x="1073" y="25.1328"/><text fill="#000000" font-family="sans-serif" font-size="14" lengthAdjust="spacing" textLength="120" x="1080" y="45.1279">CommandBuffers</text><rect fill="#FEFECE" filter="url(#f5dcnlkf6ucp0)" height="30.2969" style="stroke:#A80036;stroke-width:1.5;" width="134" x="1073" y="1063.1484"/><text fill="#000000" font-family="sans-serif" font-size="14" lengthAdjust="spacing" textLength="120" x="1080" y="1083.1436">CommandBuffers</text><rect fill="#FEFECE" filter="url(#f5dcnlkf6ucp0)" height="30.2969" style="stroke:#A80036;stroke-width:1.5;" width="98" x="1221" y="25.1328"/><text fill="#000000" font-family="sans-serif" font-size="14" lengthAdjust="spacing" textLength="84" x="1228" y="45.1279">RenderPass</text><rect fill="#FEFECE" filter="url(#f5dcnlkf6ucp0)" height="30.2969" style="stroke:#A80036;stroke-width:1.5;" width="98" x="1221" y="1063.1484"/><text fill="#000000" font-family="sans-serif" font-size="14" lengthAdjust="spacing" textLength="84" x="1228" y="1083.1436">RenderPass</text><rect fill="#FEFECE" filter="url(#f5dcnlkf6ucp0)" height="30.2969" style="stroke:#A80036;stroke-width:1.5;" width="146" x="1333" y="25.1328"/><text fill="#000000" font-family="sans-serif" font-size="14" lengthAdjust="spacing" textLength="132" x="1340" y="45.1279">SwapchainRecords</text><rect fill="#FEFECE" filter="url(#f5dcnlkf6ucp0)" height="30.2969" style="stroke:#A80036;stroke-width:1.5;" width="146" x="1333" y="1063.1484"/><text fill="#000000" font-family="sans-serif" font-size="14" lengthAdjust="spacing" textLength="132" x="1340" y="1083.1436">SwapchainRecords</text><rect fill="#FEFECE" filter="url(#f5dcnlkf6ucp0)" height="30.2969" style="stroke:#A80036;stroke-width:1.5;" width="125" x="1493" y="25.1328"/><text fill="#000000" font-family="sans-serif" font-size="14" lengthAdjust="spacing" textLength="111" x="1500" y="45.1279">GraphicsService</text><rect fill="#FEFECE" filter="url(#f5dcnlkf6ucp0)" height="30.2969" style="stroke:#A80036;stroke-width:1.5;" width="125" x="1493" y="1063.1484"/><text fill="#000000" font-family="sans-serif" font-size="14" lengthAdjust="spacing" textLength="111" x="1500" y="1083.1436">GraphicsService</text><rect fill="#FEFECE" filter="url(#f5dcnlkf6ucp0)" height="30.2969" style="stroke:#A80036;stroke-width:1.5;" width="167" x="1693" y="25.1328"/><text fill="#000000" font-family="sans-serif" font-size="14" lengthAdjust="spacing" textLength="153" x="1700" y="45.1279">NativeGraphicsService</text><rect fill="#FEFECE" filter="url(#f5dcnlkf6ucp0)" height="30.2969" style="stroke:#A80036;stroke-width:1.5;" width="167" x="1693" y="1063.1484"/><text fill="#000000" font-family="sans-serif" font-size="14" lengthAdjust="spacing" textLength="153" x="1700" y="1083.1436">NativeGraphicsService</text><rect fill="#FFFFFF" filter="url(#f5dcnlkf6ucp0)" height="975.7188" style="stroke:#A80036;stroke-width:1.0;" width="10" x="102" y="70.4297"/><rect fill="#FFFFFF" filter="url(#f5dcnlkf6ucp0)" height="975.7188" style="stroke:#A80036;stroke-width:1.0;" width="10" x="267.5" y="70.4297"/><rect fill="#FFFFFF" filter="url(#f5dcnlkf6ucp0)" height="267.1953" style="stroke:#A80036;stroke-width:1.0;" width="10" x="272.5" y="216.0938"/><rect fill="#FFFFFF" filter="url(#f5dcnlkf6ucp0)" height="28" style="stroke:#A80036;stroke-width:1.0;" width="10" x="272.5" y="780.3516"/><rect fill="#FFFFFF" filter="url(#f5dcnlkf6ucp0)" height="975.7188" style="stroke:#A80036;stroke-width:1.0;" width="10" x="429" y="70.4297"/><rect fill="#FFFFFF" filter="url(#f5dcnlkf6ucp0)" height="70.1328" style="stroke:#A80036;stroke-width:1.0;" width="10" x="434" y="578.6875"/><rect fill="#FFFFFF" filter="url(#f5dcnlkf6ucp0)" height="28" style="stroke:#A80036;stroke-width:1.0;" width="10" x="439" y="620.8203"/><rect fill="#FFFFFF" filter="url(#f5dcnlkf6ucp0)" height="70.1328" style="stroke:#A80036;stroke-width:1.0;" width="10" x="434" y="881.6172"/><rect fill="#FFFFFF" filter="url(#f5dcnlkf6ucp0)" height="28" style="stroke:#A80036;stroke-width:1.0;" width="10" x="439" y="923.75"/><rect fill="#FFFFFF" filter="url(#f5dcnlkf6ucp0)" height="975.7188" style="stroke:#A80036;stroke-width:1.0;" width="10" x="599" y="70.4297"/><rect fill="#FFFFFF" filter="url(#f5dcnlkf6ucp0)" height="946.5859" style="stroke:#A80036;stroke-width:1.0;" width="10" x="689.5" y="70.4297"/><rect fill="#FFFFFF" filter="url(#f5dcnlkf6ucp0)" height="917.4531" style="stroke:#A80036;stroke-width:1.0;" width="10" x="788" y="70.4297"/><rect fill="#FFFFFF" filter="url(#f5dcnlkf6ucp0)" height="441.9922" style="stroke:#A80036;stroke-width:1.0;" width="10" x="900" y="70.4297"/><rect fill="#FFFFFF" filter="url(#f5dcnlkf6ucp0)" height="383.7266" style="stroke:#A80036;stroke-width:1.0;" width="10" x="1007" y="70.4297"/><rect fill="#FFFFFF" filter="url(#f5dcnlkf6ucp0)" height="354.5938" style="stroke:#A80036;stroke-width:1.0;" width="10" x="1137" y="70.4297"/><rect fill="#FFFFFF" filter="url(#f5dcnlkf6ucp0)" height="325.4609" style="stroke:#A80036;stroke-width:1.0;" width="10" x="1267" y="70.4297"/><rect fill="#FFFFFF" filter="url(#f5dcnlkf6ucp0)" height="267.1953" style="stroke:#A80036;stroke-width:1.0;" width="10" x="1403" y="70.4297"/><rect fill="#FFFFFF" filter="url(#f5dcnlkf6ucp0)" height="984.7188" style="stroke:#A80036;stroke-width:1.0;" width="10" x="1552.5" y="70.4297"/><rect fill="#FFFFFF" filter="url(#f5dcnlkf6ucp0)" height="984.7188" style="stroke:#A80036;stroke-width:1.0;" width="10" x="1773.5" y="70.4297"/><polygon fill="#A80036" points="90,87.5625,100,91.5625,90,95.5625,94,91.5625" style="stroke:#A80036;stroke-width:1.0;"/><line style="stroke:#A80036;stroke-width:1.0;" x1="0" x2="96" y1="91.5625" y2="91.5625"/><text fill="#000000" font-family="sans-serif" font-size="13" lengthAdjust="spacing" textLength="83" x="7" y="86.4966">_PreDestruct</text><polygon fill="#A80036" points="587,116.6953,597,120.6953,587,124.6953,591,120.6953" style="stroke:#A80036;stroke-width:1.0;"/><line style="stroke:#A80036;stroke-width:1.0;" x1="112" x2="593" y1="120.6953" y2="120.6953"/><text fill="#000000" font-family="sans-serif" font-size="13" lengthAdjust="spacing" textLength="83" x="119" y="115.6294">_PreDestruct</text><polygon fill="#A80036" points="123,145.8281,113,149.8281,123,153.8281,119,149.8281" style="stroke:#A80036;stroke-width:1.0;"/><line style="stroke:#A80036;stroke-width:1.0;" x1="117" x2="598" y1="149.8281" y2="149.8281"/><text fill="#000000" font-family="sans-serif" font-size="13" lengthAdjust="spacing" textLength="68" x="129" y="144.7622">OnDestroy</text><polygon fill="#A80036" points="255.5,174.9609,265.5,178.9609,255.5,182.9609,259.5,178.9609" style="stroke:#A80036;stroke-width:1.0;"/><line style="stroke:#A80036;stroke-width:1.0;" x1="112" x2="261.5" y1="178.9609" y2="178.9609"/><text fill="#000000" font-family="sans-serif" font-size="13" lengthAdjust="spacing" textLength="68" x="119" y="173.895">OnDestroy</text><line style="stroke:#A80036;stroke-width:1.0;" x1="277.5" x2="324.5" y1="203.0938" y2="203.0938"/><line style="stroke:#A80036;stroke-width:1.0;" x1="324.5" x2="324.5" y1="203.0938" y2="216.0938"/><line style="stroke:#A80036;stroke-width:1.0;" x1="283.5" x2="324.5" y1="216.0938" y2="216.0938"/><polygon fill="#A80036" points="293.5,212.0938,283.5,216.0938,293.5,220.0938,289.5,216.0938" style="stroke:#A80036;stroke-width:1.0;"/><text fill="#000000" font-family="sans-serif" font-size="13" lengthAdjust="spacing" textLength="94" x="289.5" y="198.0278">FreeResources</text><polygon fill="#A80036" points="417,246.2266,427,250.2266,417,254.2266,421,250.2266" style="stroke:#A80036;stroke-width:1.0;"/><line style="stroke:#A80036;stroke-width:1.0;" x1="282.5" x2="423" y1="250.2266" y2="250.2266"/><text fill="#000000" font-family="sans-serif" font-size="13" lengthAdjust="spacing" textLength="98" x="289.5" y="245.1606">SafeWaitForIdle</text><polygon fill="#A80036" points="1540.5,275.3594,1550.5,279.3594,1540.5,283.3594,1544.5,279.3594" style="stroke:#A80036;stroke-width:1.0;"/><line style="stroke:#A80036;stroke-width:1.0;" x1="282.5" x2="1546.5" y1="279.3594" y2="279.3594"/><text fill="#000000" font-family="sans-serif" font-size="13" lengthAdjust="spacing" textLength="187" x="289.5" y="274.2935">DestroyDependentResources</text><polygon fill="#A80036" points="1761.5,304.4922,1771.5,308.4922,1761.5,312.4922,1765.5,308.4922" style="stroke:#A80036;stroke-width:1.0;"/><line style="stroke:#A80036;stroke-width:1.0;" x1="1562.5" x2="1767.5" y1="308.4922" y2="308.4922"/><text fill="#000000" font-family="sans-serif" font-size="13" lengthAdjust="spacing" textLength="187" x="1569.5" y="303.4263">DestroyDependentResources</text><polygon fill="#A80036" points="1396,333.625,1406,337.625,1396,341.625,1400,337.625" style="stroke:#A80036;stroke-width:1.0;"/><line style="stroke:#A80036;stroke-width:1.0;" x1="282.5" x2="1402" y1="337.625" y2="337.625"/><text fill="#000000" font-family="sans-serif" font-size="13" lengthAdjust="spacing" textLength="33" x="289.5" y="332.5591">Clear</text><polygon fill="#A80036" points="123,362.7578,113,366.7578,123,370.7578,119,366.7578" style="stroke:#A80036;stroke-width:1.0;"/><line style="stroke:#A80036;stroke-width:1.0;" x1="117" x2="271.5" y1="366.7578" y2="366.7578"/><text fill="#000000" font-family="sans-serif" font-size="13" lengthAdjust="spacing" textLength="112" x="129" y="361.6919">OnFreeResources</text><polygon fill="#A80036" points="1260,391.8906,1270,395.8906,1260,399.8906,1264,395.8906" style="stroke:#A80036;stroke-width:1.0;"/><line style="stroke:#A80036;stroke-width:1.0;" x1="112" x2="1266" y1="395.8906" y2="395.8906"/><text fill="#000000" font-family="sans-serif" font-size="13" lengthAdjust="spacing" textLength="55" x="119" y="390.8247">Destruct</text><polygon fill="#A80036" points="1130,421.0234,1140,425.0234,1130,429.0234,1134,425.0234" style="stroke:#A80036;stroke-width:1.0;"/><line style="stroke:#A80036;stroke-width:1.0;" x1="282.5" x2="1136" y1="425.0234" y2="425.0234"/><text fill="#000000" font-family="sans-serif" font-size="13" lengthAdjust="spacing" textLength="36" x="289.5" y="419.9575">Reset</text><polygon fill="#A80036" points="1000,450.1563,1010,454.1563,1000,458.1563,1004,454.1563" style="stroke:#A80036;stroke-width:1.0;"/><line style="stroke:#A80036;stroke-width:1.0;" x1="282.5" x2="1006" y1="454.1563" y2="454.1563"/><text fill="#000000" font-family="sans-serif" font-size="13" lengthAdjust="spacing" textLength="36" x="289.5" y="449.0903">Reset</text><polygon fill="#A80036" points="417,479.2891,427,483.2891,417,487.2891,421,483.2891" style="stroke:#A80036;stroke-width:1.0;"/><line style="stroke:#A80036;stroke-width:1.0;" x1="277.5" x2="423" y1="483.2891" y2="483.2891"/><text fill="#000000" font-family="sans-serif" font-size="13" lengthAdjust="spacing" textLength="98" x="284.5" y="478.2231">SafeWaitForIdle</text><polygon fill="#A80036" points="893,508.4219,903,512.4219,893,516.4219,897,512.4219" style="stroke:#A80036;stroke-width:1.0;"/><line style="stroke:#A80036;stroke-width:1.0;" x1="277.5" x2="899" y1="512.4219" y2="512.4219"/><text fill="#000000" font-family="sans-serif" font-size="13" lengthAdjust="spacing" textLength="36" x="284.5" y="507.356">Reset</text><polygon fill="#A80036" points="417,537.5547,427,541.5547,417,545.5547,421,541.5547" style="stroke:#A80036;stroke-width:1.0;"/><line style="stroke:#A80036;stroke-width:1.0;" x1="277.5" x2="423" y1="541.5547" y2="541.5547"/><text fill="#000000" font-family="sans-serif" font-size="13" lengthAdjust="spacing" textLength="68" x="284.5" y="536.4888">OnDestroy</text><line style="stroke:#A80036;stroke-width:1.0;" x1="439" x2="486" y1="565.6875" y2="565.6875"/><line style="stroke:#A80036;stroke-width:1.0;" x1="486" x2="486" y1="565.6875" y2="578.6875"/><line style="stroke:#A80036;stroke-width:1.0;" x1="445" x2="486" y1="578.6875" y2="578.6875"/><polygon fill="#A80036" points="455,574.6875,445,578.6875,455,582.6875,451,578.6875" style="stroke:#A80036;stroke-width:1.0;"/><text fill="#000000" font-family="sans-serif" font-size="13" lengthAdjust="spacing" textLength="92" x="451" y="560.6216">SafeShutdown</text><line style="stroke:#A80036;stroke-width:1.0;" x1="449" x2="491" y1="612.8203" y2="612.8203"/><line style="stroke:#A80036;stroke-width:1.0;" x1="491" x2="491" y1="612.8203" y2="625.8203"/><line style="stroke:#A80036;stroke-width:1.0;" x1="450" x2="491" y1="625.8203" y2="625.8203"/><polygon fill="#A80036" points="460,621.8203,450,625.8203,460,629.8203,456,625.8203" style="stroke:#A80036;stroke-width:1.0;"/><text fill="#000000" font-family="sans-serif" font-size="13" lengthAdjust="spacing" textLength="141" x="456" y="607.7544">SafeWaitForDeviceIdle</text><polygon fill="#A80036" points="587,680.9531,597,684.9531,587,688.9531,591,684.9531" style="stroke:#A80036;stroke-width:1.0;"/><line style="stroke:#A80036;stroke-width:1.0;" x1="439" x2="593" y1="684.9531" y2="684.9531"/><text fill="#000000" font-family="sans-serif" font-size="13" lengthAdjust="spacing" textLength="68" x="446" y="679.8872">OnDestroy</text><polygon fill="#A80036" points="90,710.0859,100,714.0859,90,718.0859,94,714.0859" style="stroke:#A80036;stroke-width:1.0;"/><line style="stroke:#A80036;stroke-width:1.0;" x1="0" x2="96" y1="714.0859" y2="714.0859"/><text fill="#000000" font-family="sans-serif" font-size="13" lengthAdjust="spacing" textLength="55" x="7" y="709.02">Destruct</text><polygon fill="#A80036" points="255.5,739.2188,265.5,743.2188,255.5,747.2188,259.5,743.2188" style="stroke:#A80036;stroke-width:1.0;"/><line style="stroke:#A80036;stroke-width:1.0;" x1="112" x2="261.5" y1="743.2188" y2="743.2188"/><text fill="#000000" font-family="sans-serif" font-size="13" lengthAdjust="spacing" textLength="55" x="119" y="738.1528">Destruct</text><line style="stroke:#A80036;stroke-width:1.0;" x1="282.5" x2="324.5" y1="772.3516" y2="772.3516"/><line style="stroke:#A80036;stroke-width:1.0;" x1="324.5" x2="324.5" y1="772.3516" y2="785.3516"/><line style="stroke:#A80036;stroke-width:1.0;" x1="283.5" x2="324.5" y1="785.3516" y2="785.3516"/><polygon fill="#A80036" points="293.5,781.3516,283.5,785.3516,293.5,789.3516,289.5,785.3516" style="stroke:#A80036;stroke-width:1.0;"/><text fill="#000000" font-family="sans-serif" font-size="13" lengthAdjust="spacing" textLength="94" x="289.5" y="767.2856">FreeResources</text><polygon fill="#A80036" points="417,840.4844,427,844.4844,417,848.4844,421,844.4844" style="stroke:#A80036;stroke-width:1.0;"/><line style="stroke:#A80036;stroke-width:1.0;" x1="277.5" x2="423" y1="844.4844" y2="844.4844"/><text fill="#000000" font-family="sans-serif" font-size="13" lengthAdjust="spacing" textLength="55" x="284.5" y="839.4185">Destruct</text><line style="stroke:#A80036;stroke-width:1.0;" x1="439" x2="486" y1="868.6172" y2="868.6172"/><line style="stroke:#A80036;stroke-width:1.0;" x1="486" x2="486" y1="868.6172" y2="881.6172"/><line style="stroke:#A80036;stroke-width:1.0;" x1="445" x2="486" y1="881.6172" y2="881.6172"/><polygon fill="#A80036" points="455,877.6172,445,881.6172,455,885.6172,451,881.6172" style="stroke:#A80036;stroke-width:1.0;"/><text fill="#000000" font-family="sans-serif" font-size="13" lengthAdjust="spacing" textLength="92" x="451" y="863.5513">SafeShutdown</text><line style="stroke:#A80036;stroke-width:1.0;" x1="449" x2="491" y1="915.75" y2="915.75"/><line style="stroke:#A80036;stroke-width:1.0;" x1="491" x2="491" y1="915.75" y2="928.75"/><line style="stroke:#A80036;stroke-width:1.0;" x1="450" x2="491" y1="928.75" y2="928.75"/><polygon fill="#A80036" points="460,924.75,450,928.75,460,932.75,456,928.75" style="stroke:#A80036;stroke-width:1.0;"/><text fill="#000000" font-family="sans-serif" font-size="13" lengthAdjust="spacing" textLength="141" x="456" y="910.6841">SafeWaitForDeviceIdle</text><polygon fill="#A80036" points="781,983.8828,791,987.8828,781,991.8828,785,987.8828" style="stroke:#A80036;stroke-width:1.0;"/><line style="stroke:#A80036;stroke-width:1.0;" x1="439" x2="787" y1="987.8828" y2="987.8828"/><text fill="#000000" font-family="sans-serif" font-size="13" lengthAdjust="spacing" textLength="55" x="446" y="982.8169">Destruct</text><polygon fill="#A80036" points="682.5,1013.0156,692.5,1017.0156,682.5,1021.0156,686.5,1017.0156" style="stroke:#A80036;stroke-width:1.0;"/><line style="stroke:#A80036;stroke-width:1.0;" x1="439" x2="688.5" y1="1017.0156" y2="1017.0156"/><text fill="#000000" font-family="sans-serif" font-size="13" lengthAdjust="spacing" textLength="55" x="446" y="1011.9497">Destruct</text><polygon fill="#A80036" points="592,1042.1484,602,1046.1484,592,1050.1484,596,1046.1484" style="stroke:#A80036;stroke-width:1.0;"/><line style="stroke:#A80036;stroke-width:1.0;" x1="434" x2="598" y1="1046.1484" y2="1046.1484"/><text fill="#000000" font-family="sans-serif" font-size="13" lengthAdjust="spacing" textLength="55" x="441" y="1041.0825">Destruct</text><!--MD5=[930f600b1be524d38e19e75381aa65e1]
@startuml
activate CustomDemoApp
activate DemoAppVulkanBasic
activate DemoAppVulkan
activate ADemoApp

box "AppTemplate" #LightBlue
    participant DemoAppVulkanBasic
    participant DemoAppVulkan
    participant ADemoApp
end box

activate Device
activate DeviceQueue
activate Swapchain
activate DepthBuffer
activate CommandBuffers
activate RenderPass
activate SwapchainRecords
activate GraphicsService
activate NativeGraphicsService

->CustomDemoApp: _PreDestruct
CustomDemoApp->ADemoApp: _PreDestruct
ADemoApp->CustomDemoApp: OnDestroy
CustomDemoApp->DemoAppVulkanBasic: OnDestroy
DemoAppVulkanBasic->DemoAppVulkanBasic++: FreeResources
DemoAppVulkanBasic->DemoAppVulkan: SafeWaitForIdle
DemoAppVulkanBasic->GraphicsService: DestroyDependentResources
GraphicsService->NativeGraphicsService: DestroyDependentResources
DemoAppVulkanBasic->SwapchainRecords: Clear
deactivate SwapchainRecords
DemoAppVulkanBasic->CustomDemoApp: OnFreeResources
CustomDemoApp->RenderPass: Destruct
deactivate RenderPass
DemoAppVulkanBasic->CommandBuffers: Reset
deactivate CommandBuffers
DemoAppVulkanBasic->DepthBuffer: Reset
deactivate DepthBuffer
DemoAppVulkanBasic->DemoAppVulkan: SafeWaitForIdle
deactivate DemoAppVulkanBasic
DemoAppVulkanBasic->Swapchain: Reset
deactivate Swapchain
DemoAppVulkanBasic->DemoAppVulkan: OnDestroy
DemoAppVulkan->DemoAppVulkan++: SafeShutdown
DemoAppVulkan->DemoAppVulkan++: SafeWaitForDeviceIdle
deactivate DemoAppVulkan
deactivate DemoAppVulkan
DemoAppVulkan->ADemoApp: OnDestroy

->CustomDemoApp: Destruct
CustomDemoApp->DemoAppVulkanBasic: Destruct
DemoAppVulkanBasic->DemoAppVulkanBasic++: FreeResources
deactivate DemoAppVulkanBasic

DemoAppVulkanBasic->DemoAppVulkan: Destruct
DemoAppVulkan->DemoAppVulkan++: SafeShutdown
DemoAppVulkan->DemoAppVulkan++: SafeWaitForDeviceIdle
deactivate DemoAppVulkan
deactivate DemoAppVulkan
DemoAppVulkan->DeviceQueue: Destruct
deactivate DeviceQueue
DemoAppVulkan->Device: Destruct
deactivate Device

DemoAppVulkan->ADemoApp: Destruct
deactivate ADemoApp
deactivate DemoAppVulkan
deactivate DemoAppVulkanBasic
deactivate CustomDemoApp
@enduml

PlantUML version 1.2021.01(Tue Feb 02 07:55:08 UTC 2021)
(GPL source distribution)
Java Runtime: OpenJDK Runtime Environment
JVM: OpenJDK 64-Bit Server VM
Default Encoding: UTF-8
Language: en
Country: null
--></g></svg>